<?xml version="1.0" encoding="UTF-8" standalone="no"?>
<!DOCTYPE svg PUBLIC "-//W3C//DTD SVG 1.1//EN"
 "http://www.w3.org/Graphics/SVG/1.1/DTD/svg11.dtd">
<!-- Generated by graphviz version 12.0.0 (20240704.0754)
 -->
<!-- Pages: 1 -->
<svg width="757pt" height="404pt"
 viewBox="0.00 0.00 756.59 404.00" xmlns="http://www.w3.org/2000/svg" xmlns:xlink="http://www.w3.org/1999/xlink">
<g id="graph0" class="graph" transform="scale(1 1) rotate(0) translate(4 400)">
<polygon fill="white" stroke="none" points="-4,4 -4,-400 752.59,-400 752.59,4 -4,4"/>
<!-- [root] aws_dynamodb_table.terraform_state_lock (expand) -->
<g id="node1" class="node">
<title>[root] aws_dynamodb_table.terraform_state_lock (expand)</title>
<polygon fill="none" stroke="black" points="390.18,-252 138.68,-252 138.68,-216 390.18,-216 390.18,-252"/>
<text text-anchor="middle" x="264.43" y="-228.95" font-family="Times,serif" font-size="14.00">aws_dynamodb_table.terraform_state_lock</text>
</g>
<!-- [root] provider[&quot;registry.terraform.io/hashicorp/aws&quot;] -->
<g id="node4" class="node">
<title>[root] provider[&quot;registry.terraform.io/hashicorp/aws&quot;]</title>
<polygon fill="none" stroke="black" points="264.43,-108 0,-90 264.43,-72 528.86,-90 264.43,-108"/>
<text text-anchor="middle" x="264.43" y="-84.95" font-family="Times,serif" font-size="14.00">provider[&quot;registry.terraform.io/hashicorp/aws&quot;]</text>
</g>
<!-- [root] aws_dynamodb_table.terraform_state_lock (expand)&#45;&gt;[root] provider[&quot;registry.terraform.io/hashicorp/aws&quot;] -->
<g id="edge1" class="edge">
<title>[root] aws_dynamodb_table.terraform_state_lock (expand)&#45;&gt;[root] provider[&quot;registry.terraform.io/hashicorp/aws&quot;]</title>
<path fill="none" stroke="black" d="M264.43,-215.59C264.43,-191.61 264.43,-148.14 264.43,-119.42"/>
<polygon fill="black" stroke="black" points="267.93,-119.62 264.43,-109.62 260.93,-119.62 267.93,-119.62"/>
</g>
<!-- [root] aws_s3_bucket.terraform_state (expand) -->
<g id="node2" class="node">
<title>[root] aws_s3_bucket.terraform_state (expand)</title>
<polygon fill="none" stroke="black" points="551.18,-180 365.68,-180 365.68,-144 551.18,-144 551.18,-180"/>
<text text-anchor="middle" x="458.43" y="-156.95" font-family="Times,serif" font-size="14.00">aws_s3_bucket.terraform_state</text>
</g>
<!-- [root] aws_s3_bucket.terraform_state (expand)&#45;&gt;[root] provider[&quot;registry.terraform.io/hashicorp/aws&quot;] -->
<g id="edge2" class="edge">
<title>[root] aws_s3_bucket.terraform_state (expand)&#45;&gt;[root] provider[&quot;registry.terraform.io/hashicorp/aws&quot;]</title>
<path fill="none" stroke="black" d="M409.98,-143.52C381.32,-133.18 345.04,-120.08 315.87,-109.56"/>
<polygon fill="black" stroke="black" points="317.09,-106.28 306.49,-106.18 314.71,-112.86 317.09,-106.28"/>
</g>
<!-- [root] var.env -->
<g id="node5" class="node">
<title>[root] var.env</title>
<polygon fill="none" stroke="black" points="596.31,-108 546.56,-108 546.56,-72 602.31,-72 602.31,-102 596.31,-108"/>
<polyline fill="none" stroke="black" points="596.31,-108 596.31,-102"/>
<polyline fill="none" stroke="black" points="602.31,-102 596.31,-102"/>
<text text-anchor="middle" x="574.43" y="-84.95" font-family="Times,serif" font-size="14.00">var.env</text>
</g>
<!-- [root] aws_s3_bucket.terraform_state (expand)&#45;&gt;[root] var.env -->
<g id="edge3" class="edge">
<title>[root] aws_s3_bucket.terraform_state (expand)&#45;&gt;[root] var.env</title>
<path fill="none" stroke="black" d="M487.4,-143.52C502.3,-134.53 520.63,-123.47 536.62,-113.81"/>
<polygon fill="black" stroke="black" points="538.18,-116.96 544.93,-108.8 534.56,-110.97 538.18,-116.96"/>
</g>
<!-- [root] aws_s3_bucket_public_access_block.state (expand) -->
<g id="node3" class="node">
<title>[root] aws_s3_bucket_public_access_block.state (expand)</title>
<polygon fill="none" stroke="black" points="654.18,-252 408.68,-252 408.68,-216 654.18,-216 654.18,-252"/>
<text text-anchor="middle" x="531.43" y="-228.95" font-family="Times,serif" font-size="14.00">aws_s3_bucket_public_access_block.state</text>
</g>
<!-- [root] aws_s3_bucket_public_access_block.state (expand)&#45;&gt;[root] aws_s3_bucket.terraform_state (expand) -->
<g id="edge4" class="edge">
<title>[root] aws_s3_bucket_public_access_block.state (expand)&#45;&gt;[root] aws_s3_bucket.terraform_state (expand)</title>
<path fill="none" stroke="black" d="M513.39,-215.7C504.7,-207.37 494.12,-197.22 484.57,-188.07"/>
<polygon fill="black" stroke="black" points="487.25,-185.79 477.61,-181.39 482.41,-190.84 487.25,-185.79"/>
</g>
<!-- [root] var.region -->
<g id="node6" class="node">
<title>[root] var.region</title>
<polygon fill="none" stroke="black" points="293.81,-36 229.06,-36 229.06,0 299.81,0 299.81,-30 293.81,-36"/>
<polyline fill="none" stroke="black" points="293.81,-36 293.81,-30"/>
<polyline fill="none" stroke="black" points="299.81,-30 293.81,-30"/>
<text text-anchor="middle" x="264.43" y="-12.95" font-family="Times,serif" font-size="14.00">var.region</text>
</g>
<!-- [root] provider[&quot;registry.terraform.io/hashicorp/aws&quot;]&#45;&gt;[root] var.region -->
<g id="edge9" class="edge">
<title>[root] provider[&quot;registry.terraform.io/hashicorp/aws&quot;]&#45;&gt;[root] var.region</title>
<path fill="none" stroke="black" d="M264.43,-71.7C264.43,-64.41 264.43,-55.73 264.43,-47.54"/>
<polygon fill="black" stroke="black" points="267.93,-47.62 264.43,-37.62 260.93,-47.62 267.93,-47.62"/>
</g>
<!-- [root] output.outputs (expand) -->
<g id="node7" class="node">
<title>[root] output.outputs (expand)</title>
<ellipse fill="none" stroke="black" cx="131.43" cy="-306" rx="123" ry="18"/>
<text text-anchor="middle" x="131.43" y="-300.95" font-family="Times,serif" font-size="14.00">[root] output.outputs (expand)</text>
</g>
<!-- [root] output.outputs (expand)&#45;&gt;[root] aws_dynamodb_table.terraform_state_lock (expand) -->
<g id="edge5" class="edge">
<title>[root] output.outputs (expand)&#45;&gt;[root] aws_dynamodb_table.terraform_state_lock (expand)</title>
<path fill="none" stroke="black" d="M163.29,-288.23C180.66,-279.09 202.42,-267.64 221.3,-257.7"/>
<polygon fill="black" stroke="black" points="222.89,-260.82 230.11,-253.07 219.63,-254.63 222.89,-260.82"/>
</g>
<!-- [root] output.outputs (expand)&#45;&gt;[root] aws_s3_bucket.terraform_state (expand) -->
<g id="edge6" class="edge">
<title>[root] output.outputs (expand)&#45;&gt;[root] aws_s3_bucket.terraform_state (expand)</title>
<path fill="none" stroke="black" d="M124.92,-287.69C118.72,-267.92 112.59,-235.77 129.43,-216 157.97,-182.49 268.83,-170.09 354.05,-165.55"/>
<polygon fill="black" stroke="black" points="354.04,-169.05 363.86,-165.06 353.69,-162.06 354.04,-169.05"/>
</g>
<!-- [root] provider[&quot;registry.terraform.io/hashicorp/aws&quot;] (close) -->
<g id="node8" class="node">
<title>[root] provider[&quot;registry.terraform.io/hashicorp/aws&quot;] (close)</title>
<ellipse fill="none" stroke="black" cx="510.43" cy="-306" rx="238.16" ry="18"/>
<text text-anchor="middle" x="510.43" y="-300.95" font-family="Times,serif" font-size="14.00">[root] provider[&quot;registry.terraform.io/hashicorp/aws&quot;] (close)</text>
</g>
<!-- [root] provider[&quot;registry.terraform.io/hashicorp/aws&quot;] (close)&#45;&gt;[root] aws_dynamodb_table.terraform_state_lock (expand) -->
<g id="edge7" class="edge">
<title>[root] provider[&quot;registry.terraform.io/hashicorp/aws&quot;] (close)&#45;&gt;[root] aws_dynamodb_table.terraform_state_lock (expand)</title>
<path fill="none" stroke="black" d="M451.19,-288.14C416.79,-278.36 373.2,-265.95 336.78,-255.59"/>
<polygon fill="black" stroke="black" points="337.75,-252.23 327.18,-252.85 335.84,-258.96 337.75,-252.23"/>
</g>
<!-- [root] provider[&quot;registry.terraform.io/hashicorp/aws&quot;] (close)&#45;&gt;[root] aws_s3_bucket_public_access_block.state (expand) -->
<g id="edge8" class="edge">
<title>[root] provider[&quot;registry.terraform.io/hashicorp/aws&quot;] (close)&#45;&gt;[root] aws_s3_bucket_public_access_block.state (expand)</title>
<path fill="none" stroke="black" d="M515.62,-287.7C517.86,-280.24 520.53,-271.32 523.04,-262.97"/>
<polygon fill="black" stroke="black" points="526.34,-264.14 525.86,-253.55 519.64,-262.13 526.34,-264.14"/>
</g>
<!-- [root] root -->
<g id="node9" class="node">
<title>[root] root</title>
<ellipse fill="none" stroke="black" cx="320.43" cy="-378" rx="49.3" ry="18"/>
<text text-anchor="middle" x="320.43" y="-372.95" font-family="Times,serif" font-size="14.00">[root] root</text>
</g>
<!-- [root] root&#45;&gt;[root] output.outputs (expand) -->
<g id="edge10" class="edge">
<title>[root] root&#45;&gt;[root] output.outputs (expand)</title>
<path fill="none" stroke="black" d="M286.64,-364.49C258.69,-354.13 218.45,-339.23 185.95,-327.19"/>
<polygon fill="black" stroke="black" points="187.27,-323.95 176.67,-323.76 184.83,-330.51 187.27,-323.95"/>
</g>
<!-- [root] root&#45;&gt;[root] provider[&quot;registry.terraform.io/hashicorp/aws&quot;] (close) -->
<g id="edge11" class="edge">
<title>[root] root&#45;&gt;[root] provider[&quot;registry.terraform.io/hashicorp/aws&quot;] (close)</title>
<path fill="none" stroke="black" d="M354.4,-364.49C381.83,-354.38 421.02,-339.94 453.27,-328.06"/>
<polygon fill="black" stroke="black" points="454.32,-331.4 462.49,-324.66 451.9,-324.84 454.32,-331.4"/>
</g>
</g>
</svg>
