<?xml version="1.0" encoding="UTF-8" standalone="no"?>
<!DOCTYPE svg PUBLIC "-//W3C//DTD SVG 1.1//EN"
 "http://www.w3.org/Graphics/SVG/1.1/DTD/svg11.dtd">
<!-- Generated by graphviz version 2.44.0 (20200408.0750)
 -->
<!-- Pages: 1 -->
<svg width="588pt" height="404pt"
 viewBox="0.00 0.00 587.78 404.00" xmlns="http://www.w3.org/2000/svg" xmlns:xlink="http://www.w3.org/1999/xlink">
<g id="graph0" class="graph" transform="scale(1 1) rotate(0) translate(4 400)">
<polygon fill="white" stroke="transparent" points="-4,4 -4,-400 583.78,-400 583.78,4 -4,4"/>
<!-- [root] aws_dynamodb_table.terraform_state_lock -->
<g id="node1" class="node">
<title>[root] aws_dynamodb_table.terraform_state_lock</title>
<polygon fill="none" stroke="black" points="570.13,-180 318.13,-180 318.13,-144 570.13,-144 570.13,-180"/>
<text text-anchor="middle" x="444.13" y="-158.3" font-family="Times,serif" font-size="14.00">aws_dynamodb_table.terraform_state_lock</text>
</g>
<!-- [root] provider.aws -->
<g id="node5" class="node">
<title>[root] provider.aws</title>
<polygon fill="none" stroke="black" points="388.13,-108 309.04,-90 388.13,-72 467.23,-90 388.13,-108"/>
<text text-anchor="middle" x="388.13" y="-86.3" font-family="Times,serif" font-size="14.00">provider.aws</text>
</g>
<!-- [root] aws_dynamodb_table.terraform_state_lock&#45;&gt;[root] provider.aws -->
<g id="edge1" class="edge">
<title>[root] aws_dynamodb_table.terraform_state_lock&#45;&gt;[root] provider.aws</title>
<path fill="none" stroke="black" d="M430.29,-143.7C423.08,-134.68 414.16,-123.53 406.39,-113.82"/>
<polygon fill="black" stroke="black" points="408.91,-111.36 399.93,-105.74 403.44,-115.73 408.91,-111.36"/>
</g>
<!-- [root] aws_s3_bucket.terraform_state -->
<g id="node2" class="node">
<title>[root] aws_s3_bucket.terraform_state</title>
<polygon fill="none" stroke="black" points="300.13,-180 114.13,-180 114.13,-144 300.13,-144 300.13,-180"/>
<text text-anchor="middle" x="207.13" y="-158.3" font-family="Times,serif" font-size="14.00">aws_s3_bucket.terraform_state</text>
</g>
<!-- [root] aws_s3_bucket.terraform_state&#45;&gt;[root] provider.aws -->
<g id="edge2" class="edge">
<title>[root] aws_s3_bucket.terraform_state&#45;&gt;[root] provider.aws</title>
<path fill="none" stroke="black" d="M251.41,-143.88C281.97,-132.06 322.14,-116.52 351.02,-105.35"/>
<polygon fill="black" stroke="black" points="352.29,-108.62 360.35,-101.74 349.76,-102.09 352.29,-108.62"/>
</g>
<!-- [root] var.env -->
<g id="node6" class="node">
<title>[root] var.env</title>
<polygon fill="none" stroke="black" points="229.13,-108 179.13,-108 179.13,-72 235.13,-72 235.13,-102 229.13,-108"/>
<polyline fill="none" stroke="black" points="229.13,-108 229.13,-102 "/>
<polyline fill="none" stroke="black" points="235.13,-102 229.13,-102 "/>
<text text-anchor="middle" x="207.13" y="-86.3" font-family="Times,serif" font-size="14.00">var.env</text>
</g>
<!-- [root] aws_s3_bucket.terraform_state&#45;&gt;[root] var.env -->
<g id="edge3" class="edge">
<title>[root] aws_s3_bucket.terraform_state&#45;&gt;[root] var.env</title>
<path fill="none" stroke="black" d="M207.13,-143.7C207.13,-135.98 207.13,-126.71 207.13,-118.11"/>
<polygon fill="black" stroke="black" points="210.63,-118.1 207.13,-108.1 203.63,-118.1 210.63,-118.1"/>
</g>
<!-- [root] aws_s3_bucket_public_access_block.state -->
<g id="node3" class="node">
<title>[root] aws_s3_bucket_public_access_block.state</title>
<polygon fill="none" stroke="black" points="468.13,-252 222.13,-252 222.13,-216 468.13,-216 468.13,-252"/>
<text text-anchor="middle" x="345.13" y="-230.3" font-family="Times,serif" font-size="14.00">aws_s3_bucket_public_access_block.state</text>
</g>
<!-- [root] aws_s3_bucket_public_access_block.state&#45;&gt;[root] aws_s3_bucket.terraform_state -->
<g id="edge4" class="edge">
<title>[root] aws_s3_bucket_public_access_block.state&#45;&gt;[root] aws_s3_bucket.terraform_state</title>
<path fill="none" stroke="black" d="M311.38,-215.88C292.91,-206.51 269.85,-194.81 250.12,-184.8"/>
<polygon fill="black" stroke="black" points="251.52,-181.59 241.02,-180.19 248.36,-187.83 251.52,-181.59"/>
</g>
<!-- [root] output.outputs -->
<g id="node4" class="node">
<title>[root] output.outputs</title>
<polygon fill="none" stroke="black" points="197.63,-252 108.63,-252 108.63,-216 203.63,-216 203.63,-246 197.63,-252"/>
<polyline fill="none" stroke="black" points="197.63,-252 197.63,-246 "/>
<polyline fill="none" stroke="black" points="203.63,-246 197.63,-246 "/>
<text text-anchor="middle" x="156.13" y="-230.3" font-family="Times,serif" font-size="14.00">output.outputs</text>
</g>
<!-- [root] output.outputs&#45;&gt;[root] aws_dynamodb_table.terraform_state_lock -->
<g id="edge7" class="edge">
<title>[root] output.outputs&#45;&gt;[root] aws_dynamodb_table.terraform_state_lock</title>
<path fill="none" stroke="black" d="M203.66,-218.58C206.86,-217.68 210.04,-216.82 213.13,-216 259.46,-203.79 311.43,-191.72 354.33,-182.2"/>
<polygon fill="black" stroke="black" points="355.17,-185.59 364.18,-180.02 353.66,-178.76 355.17,-185.59"/>
</g>
<!-- [root] output.outputs&#45;&gt;[root] aws_s3_bucket.terraform_state -->
<g id="edge8" class="edge">
<title>[root] output.outputs&#45;&gt;[root] aws_s3_bucket.terraform_state</title>
<path fill="none" stroke="black" d="M168.74,-215.7C174.73,-207.47 182.01,-197.48 188.61,-188.42"/>
<polygon fill="black" stroke="black" points="191.61,-190.25 194.67,-180.1 185.96,-186.13 191.61,-190.25"/>
</g>
<!-- [root] var.region -->
<g id="node7" class="node">
<title>[root] var.region</title>
<polygon fill="none" stroke="black" points="417.63,-36 352.63,-36 352.63,0 423.63,0 423.63,-30 417.63,-36"/>
<polyline fill="none" stroke="black" points="417.63,-36 417.63,-30 "/>
<polyline fill="none" stroke="black" points="423.63,-30 417.63,-30 "/>
<text text-anchor="middle" x="388.13" y="-14.3" font-family="Times,serif" font-size="14.00">var.region</text>
</g>
<!-- [root] provider.aws&#45;&gt;[root] var.region -->
<g id="edge11" class="edge">
<title>[root] provider.aws&#45;&gt;[root] var.region</title>
<path fill="none" stroke="black" d="M388.13,-71.7C388.13,-63.98 388.13,-54.71 388.13,-46.11"/>
<polygon fill="black" stroke="black" points="391.63,-46.1 388.13,-36.1 384.63,-46.1 391.63,-46.1"/>
</g>
<!-- [root] meta.count&#45;boundary (EachMode fixup) -->
<g id="node8" class="node">
<title>[root] meta.count&#45;boundary (EachMode fixup)</title>
<ellipse fill="none" stroke="black" cx="176.13" cy="-306" rx="176.27" ry="18"/>
<text text-anchor="middle" x="176.13" y="-302.3" font-family="Times,serif" font-size="14.00">[root] meta.count&#45;boundary (EachMode fixup)</text>
</g>
<!-- [root] meta.count&#45;boundary (EachMode fixup)&#45;&gt;[root] aws_s3_bucket_public_access_block.state -->
<g id="edge5" class="edge">
<title>[root] meta.count&#45;boundary (EachMode fixup)&#45;&gt;[root] aws_s3_bucket_public_access_block.state</title>
<path fill="none" stroke="black" d="M216.19,-288.41C239.64,-278.7 269.48,-266.33 294.55,-255.95"/>
<polygon fill="black" stroke="black" points="296,-259.14 303.9,-252.08 293.32,-252.67 296,-259.14"/>
</g>
<!-- [root] meta.count&#45;boundary (EachMode fixup)&#45;&gt;[root] output.outputs -->
<g id="edge6" class="edge">
<title>[root] meta.count&#45;boundary (EachMode fixup)&#45;&gt;[root] output.outputs</title>
<path fill="none" stroke="black" d="M171.19,-287.7C168.96,-279.9 166.28,-270.51 163.8,-261.83"/>
<polygon fill="black" stroke="black" points="167.13,-260.76 161.02,-252.1 160.4,-262.68 167.13,-260.76"/>
</g>
<!-- [root] provider.aws (close) -->
<g id="node9" class="node">
<title>[root] provider.aws (close)</title>
<ellipse fill="none" stroke="black" cx="475.13" cy="-306" rx="104.78" ry="18"/>
<text text-anchor="middle" x="475.13" y="-302.3" font-family="Times,serif" font-size="14.00">[root] provider.aws (close)</text>
</g>
<!-- [root] provider.aws (close)&#45;&gt;[root] aws_dynamodb_table.terraform_state_lock -->
<g id="edge9" class="edge">
<title>[root] provider.aws (close)&#45;&gt;[root] aws_dynamodb_table.terraform_state_lock</title>
<path fill="none" stroke="black" d="M478.48,-287.89C481.35,-269.68 484.06,-240.22 477.13,-216 474.42,-206.51 469.46,-197.06 464.2,-188.83"/>
<polygon fill="black" stroke="black" points="466.99,-186.72 458.46,-180.43 461.21,-190.67 466.99,-186.72"/>
</g>
<!-- [root] provider.aws (close)&#45;&gt;[root] aws_s3_bucket_public_access_block.state -->
<g id="edge10" class="edge">
<title>[root] provider.aws (close)&#45;&gt;[root] aws_s3_bucket_public_access_block.state</title>
<path fill="none" stroke="black" d="M444.66,-288.59C427.11,-279.14 404.84,-267.15 385.82,-256.91"/>
<polygon fill="black" stroke="black" points="387.24,-253.7 376.78,-252.04 383.93,-259.86 387.24,-253.7"/>
</g>
<!-- [root] root -->
<g id="node10" class="node">
<title>[root] root</title>
<ellipse fill="none" stroke="black" cx="325.13" cy="-378" rx="47.39" ry="18"/>
<text text-anchor="middle" x="325.13" y="-374.3" font-family="Times,serif" font-size="14.00">[root] root</text>
</g>
<!-- [root] root&#45;&gt;[root] meta.count&#45;boundary (EachMode fixup) -->
<g id="edge12" class="edge">
<title>[root] root&#45;&gt;[root] meta.count&#45;boundary (EachMode fixup)</title>
<path fill="none" stroke="black" d="M296.41,-363.5C274.96,-353.43 245.25,-339.47 220.73,-327.95"/>
<polygon fill="black" stroke="black" points="222.15,-324.75 211.61,-323.67 219.17,-331.09 222.15,-324.75"/>
</g>
<!-- [root] root&#45;&gt;[root] provider.aws (close) -->
<g id="edge13" class="edge">
<title>[root] root&#45;&gt;[root] provider.aws (close)</title>
<path fill="none" stroke="black" d="M354.06,-363.5C376.02,-353.25 406.6,-338.98 431.53,-327.35"/>
<polygon fill="black" stroke="black" points="433.2,-330.43 440.78,-323.03 430.24,-324.09 433.2,-330.43"/>
</g>
</g>
</svg>
