<?xml version="1.0" encoding="UTF-8" standalone="no"?>
<!DOCTYPE svg PUBLIC "-//W3C//DTD SVG 1.1//EN"
 "http://www.w3.org/Graphics/SVG/1.1/DTD/svg11.dtd">
<!-- Generated by graphviz version 10.0.1 (20240210.2158)
 -->
<!-- Pages: 1 -->
<svg width="2069pt" height="476pt"
 viewBox="0.00 0.00 2069.13 476.00" xmlns="http://www.w3.org/2000/svg" xmlns:xlink="http://www.w3.org/1999/xlink">
<g id="graph0" class="graph" transform="scale(1 1) rotate(0) translate(4 472)">
<polygon fill="white" stroke="none" points="-4,4 -4,-472 2065.13,-472 2065.13,4 -4,4"/>
<!-- [root] aws_cloudfront_distribution.www_distribution (expand) -->
<g id="node1" class="node">
<title>[root] aws_cloudfront_distribution.www_distribution (expand)</title>
<polygon fill="none" stroke="black" points="1607.26,-252 1336.26,-252 1336.26,-216 1607.26,-216 1607.26,-252"/>
<text text-anchor="middle" x="1471.76" y="-228.95" font-family="Times,serif" font-size="14.00">aws_cloudfront_distribution.www_distribution</text>
</g>
<!-- [root] aws_s3_bucket_website_configuration.www (expand) -->
<g id="node11" class="node">
<title>[root] aws_s3_bucket_website_configuration.www (expand)</title>
<polygon fill="none" stroke="black" points="1601.26,-180 1342.26,-180 1342.26,-144 1601.26,-144 1601.26,-180"/>
<text text-anchor="middle" x="1471.76" y="-156.95" font-family="Times,serif" font-size="14.00">aws_s3_bucket_website_configuration.www</text>
</g>
<!-- [root] aws_cloudfront_distribution.www_distribution (expand)&#45;&gt;[root] aws_s3_bucket_website_configuration.www (expand) -->
<g id="edge1" class="edge">
<title>[root] aws_cloudfront_distribution.www_distribution (expand)&#45;&gt;[root] aws_s3_bucket_website_configuration.www (expand)</title>
<path fill="none" stroke="black" d="M1471.76,-215.7C1471.76,-208.41 1471.76,-199.73 1471.76,-191.54"/>
<polygon fill="black" stroke="black" points="1475.26,-191.62 1471.76,-181.62 1468.26,-191.62 1475.26,-191.62"/>
</g>
<!-- [root] data.terraform_remote_state.root (expand) -->
<g id="node12" class="node">
<title>[root] data.terraform_remote_state.root (expand)</title>
<polygon fill="none" stroke="black" points="472.76,-180 276.76,-180 276.76,-144 472.76,-144 472.76,-180"/>
<text text-anchor="middle" x="374.76" y="-156.95" font-family="Times,serif" font-size="14.00">data.terraform_remote_state.root</text>
</g>
<!-- [root] aws_cloudfront_distribution.www_distribution (expand)&#45;&gt;[root] data.terraform_remote_state.root (expand) -->
<g id="edge2" class="edge">
<title>[root] aws_cloudfront_distribution.www_distribution (expand)&#45;&gt;[root] data.terraform_remote_state.root (expand)</title>
<path fill="none" stroke="black" d="M1335.76,-227.04C1154.97,-218.7 825.59,-202.06 544.76,-180 525.26,-178.47 504.53,-176.6 484.5,-174.67"/>
<polygon fill="black" stroke="black" points="484.93,-171.19 474.63,-173.7 484.25,-178.16 484.93,-171.19"/>
</g>
<!-- [root] aws_route53_record.mx (expand) -->
<g id="node2" class="node">
<title>[root] aws_route53_record.mx (expand)</title>
<polygon fill="none" stroke="black" points="448.76,-252 300.76,-252 300.76,-216 448.76,-216 448.76,-252"/>
<text text-anchor="middle" x="374.76" y="-228.95" font-family="Times,serif" font-size="14.00">aws_route53_record.mx</text>
</g>
<!-- [root] aws_route53_record.mx (expand)&#45;&gt;[root] data.terraform_remote_state.root (expand) -->
<g id="edge3" class="edge">
<title>[root] aws_route53_record.mx (expand)&#45;&gt;[root] data.terraform_remote_state.root (expand)</title>
<path fill="none" stroke="black" d="M374.76,-215.7C374.76,-208.41 374.76,-199.73 374.76,-191.54"/>
<polygon fill="black" stroke="black" points="378.26,-191.62 374.76,-181.62 371.26,-191.62 378.26,-191.62"/>
</g>
<!-- [root] provider[&quot;registry.terraform.io/hashicorp/aws&quot;] -->
<g id="node13" class="node">
<title>[root] provider[&quot;registry.terraform.io/hashicorp/aws&quot;]</title>
<polygon fill="none" stroke="black" points="525.76,-36 261.33,-18 525.76,0 790.19,-18 525.76,-36"/>
<text text-anchor="middle" x="525.76" y="-12.95" font-family="Times,serif" font-size="14.00">provider[&quot;registry.terraform.io/hashicorp/aws&quot;]</text>
</g>
<!-- [root] aws_route53_record.mx (expand)&#45;&gt;[root] provider[&quot;registry.terraform.io/hashicorp/aws&quot;] -->
<g id="edge4" class="edge">
<title>[root] aws_route53_record.mx (expand)&#45;&gt;[root] provider[&quot;registry.terraform.io/hashicorp/aws&quot;]</title>
<path fill="none" stroke="black" d="M300.28,-225.69C172.26,-210.39 -67.85,-168.13 18.76,-72 41.1,-47.19 213.29,-33.22 350.89,-25.92"/>
<polygon fill="black" stroke="black" points="350.68,-29.44 360.48,-25.42 350.31,-22.45 350.68,-29.44"/>
</g>
<!-- [root] aws_route53_record.txt (expand) -->
<g id="node3" class="node">
<title>[root] aws_route53_record.txt (expand)</title>
<polygon fill="none" stroke="black" points="610.88,-252 466.63,-252 466.63,-216 610.88,-216 610.88,-252"/>
<text text-anchor="middle" x="538.76" y="-228.95" font-family="Times,serif" font-size="14.00">aws_route53_record.txt</text>
</g>
<!-- [root] aws_route53_record.txt (expand)&#45;&gt;[root] data.terraform_remote_state.root (expand) -->
<g id="edge5" class="edge">
<title>[root] aws_route53_record.txt (expand)&#45;&gt;[root] data.terraform_remote_state.root (expand)</title>
<path fill="none" stroke="black" d="M497.79,-215.52C475.99,-206.21 448.97,-194.68 425.82,-184.79"/>
<polygon fill="black" stroke="black" points="427.44,-181.68 416.87,-180.98 424.69,-188.12 427.44,-181.68"/>
</g>
<!-- [root] aws_route53_record.txt (expand)&#45;&gt;[root] provider[&quot;registry.terraform.io/hashicorp/aws&quot;] -->
<g id="edge6" class="edge">
<title>[root] aws_route53_record.txt (expand)&#45;&gt;[root] provider[&quot;registry.terraform.io/hashicorp/aws&quot;]</title>
<path fill="none" stroke="black" d="M537.71,-215.85C535.48,-179.14 530.23,-92.66 527.49,-47.53"/>
<polygon fill="black" stroke="black" points="530.99,-47.51 526.89,-37.74 524.01,-47.94 530.99,-47.51"/>
</g>
<!-- [root] aws_route53_record.www (expand) -->
<g id="node4" class="node">
<title>[root] aws_route53_record.www (expand)</title>
<polygon fill="none" stroke="black" points="1187.38,-324 1028.13,-324 1028.13,-288 1187.38,-288 1187.38,-324"/>
<text text-anchor="middle" x="1107.76" y="-300.95" font-family="Times,serif" font-size="14.00">aws_route53_record.www</text>
</g>
<!-- [root] aws_route53_record.www (expand)&#45;&gt;[root] aws_cloudfront_distribution.www_distribution (expand) -->
<g id="edge7" class="edge">
<title>[root] aws_route53_record.www (expand)&#45;&gt;[root] aws_cloudfront_distribution.www_distribution (expand)</title>
<path fill="none" stroke="black" d="M1187.85,-289.52C1190.52,-289.01 1193.16,-288.5 1195.76,-288 1253.23,-276.93 1317.43,-264.6 1369.45,-254.62"/>
<polygon fill="black" stroke="black" points="1370.05,-258.07 1379.21,-252.75 1368.73,-251.19 1370.05,-258.07"/>
</g>
<!-- [root] aws_s3_bucket.www (expand) -->
<g id="node5" class="node">
<title>[root] aws_s3_bucket.www (expand)</title>
<polygon fill="none" stroke="black" points="1087.51,-108 956.01,-108 956.01,-72 1087.51,-72 1087.51,-108"/>
<text text-anchor="middle" x="1021.76" y="-84.95" font-family="Times,serif" font-size="14.00">aws_s3_bucket.www</text>
</g>
<!-- [root] aws_s3_bucket.www (expand)&#45;&gt;[root] provider[&quot;registry.terraform.io/hashicorp/aws&quot;] -->
<g id="edge8" class="edge">
<title>[root] aws_s3_bucket.www (expand)&#45;&gt;[root] provider[&quot;registry.terraform.io/hashicorp/aws&quot;]</title>
<path fill="none" stroke="black" d="M955.63,-79.67C869.54,-67.52 718.5,-46.2 620.31,-32.34"/>
<polygon fill="black" stroke="black" points="621.09,-28.92 610.7,-30.99 620.11,-35.85 621.09,-28.92"/>
</g>
<!-- [root] var.www_domain_name -->
<g id="node16" class="node">
<title>[root] var.www_domain_name</title>
<polygon fill="none" stroke="black" points="1090.88,-36 946.63,-36 946.63,0 1096.88,0 1096.88,-30 1090.88,-36"/>
<polyline fill="none" stroke="black" points="1090.88,-36 1090.88,-30"/>
<polyline fill="none" stroke="black" points="1096.88,-30 1090.88,-30"/>
<text text-anchor="middle" x="1021.76" y="-12.95" font-family="Times,serif" font-size="14.00">var.www_domain_name</text>
</g>
<!-- [root] aws_s3_bucket.www (expand)&#45;&gt;[root] var.www_domain_name -->
<g id="edge9" class="edge">
<title>[root] aws_s3_bucket.www (expand)&#45;&gt;[root] var.www_domain_name</title>
<path fill="none" stroke="black" d="M1021.76,-71.7C1021.76,-64.41 1021.76,-55.73 1021.76,-47.54"/>
<polygon fill="black" stroke="black" points="1025.26,-47.62 1021.76,-37.62 1018.26,-47.62 1025.26,-47.62"/>
</g>
<!-- [root] aws_s3_bucket_acl.www (expand) -->
<g id="node6" class="node">
<title>[root] aws_s3_bucket_acl.www (expand)</title>
<polygon fill="none" stroke="black" points="966.76,-252 812.76,-252 812.76,-216 966.76,-216 966.76,-252"/>
<text text-anchor="middle" x="889.76" y="-228.95" font-family="Times,serif" font-size="14.00">aws_s3_bucket_acl.www</text>
</g>
<!-- [root] aws_s3_bucket_ownership_controls.www (expand) -->
<g id="node7" class="node">
<title>[root] aws_s3_bucket_ownership_controls.www (expand)</title>
<polygon fill="none" stroke="black" points="1012.13,-180 767.38,-180 767.38,-144 1012.13,-144 1012.13,-180"/>
<text text-anchor="middle" x="889.76" y="-156.95" font-family="Times,serif" font-size="14.00">aws_s3_bucket_ownership_controls.www</text>
</g>
<!-- [root] aws_s3_bucket_acl.www (expand)&#45;&gt;[root] aws_s3_bucket_ownership_controls.www (expand) -->
<g id="edge10" class="edge">
<title>[root] aws_s3_bucket_acl.www (expand)&#45;&gt;[root] aws_s3_bucket_ownership_controls.www (expand)</title>
<path fill="none" stroke="black" d="M889.76,-215.7C889.76,-208.41 889.76,-199.73 889.76,-191.54"/>
<polygon fill="black" stroke="black" points="893.26,-191.62 889.76,-181.62 886.26,-191.62 893.26,-191.62"/>
</g>
<!-- [root] aws_s3_bucket_public_access_block.www (expand) -->
<g id="node9" class="node">
<title>[root] aws_s3_bucket_public_access_block.www (expand)</title>
<polygon fill="none" stroke="black" points="1279.76,-180 1029.76,-180 1029.76,-144 1279.76,-144 1279.76,-180"/>
<text text-anchor="middle" x="1154.76" y="-156.95" font-family="Times,serif" font-size="14.00">aws_s3_bucket_public_access_block.www</text>
</g>
<!-- [root] aws_s3_bucket_acl.www (expand)&#45;&gt;[root] aws_s3_bucket_public_access_block.www (expand) -->
<g id="edge11" class="edge">
<title>[root] aws_s3_bucket_acl.www (expand)&#45;&gt;[root] aws_s3_bucket_public_access_block.www (expand)</title>
<path fill="none" stroke="black" d="M955.94,-215.52C993.08,-205.71 1039.57,-193.43 1078.26,-183.21"/>
<polygon fill="black" stroke="black" points="1078.72,-186.71 1087.49,-180.77 1076.93,-179.94 1078.72,-186.71"/>
</g>
<!-- [root] aws_s3_bucket_ownership_controls.www (expand)&#45;&gt;[root] aws_s3_bucket.www (expand) -->
<g id="edge12" class="edge">
<title>[root] aws_s3_bucket_ownership_controls.www (expand)&#45;&gt;[root] aws_s3_bucket.www (expand)</title>
<path fill="none" stroke="black" d="M922.72,-143.52C939.78,-134.47 960.81,-123.32 979.09,-113.62"/>
<polygon fill="black" stroke="black" points="980.68,-116.75 987.87,-108.97 977.4,-110.56 980.68,-116.75"/>
</g>
<!-- [root] aws_s3_bucket_policy.allow_access_from_anyone (expand) -->
<g id="node8" class="node">
<title>[root] aws_s3_bucket_policy.allow_access_from_anyone (expand)</title>
<polygon fill="none" stroke="black" points="1010.13,-324 717.38,-324 717.38,-288 1010.13,-288 1010.13,-324"/>
<text text-anchor="middle" x="863.76" y="-300.95" font-family="Times,serif" font-size="14.00">aws_s3_bucket_policy.allow_access_from_anyone</text>
</g>
<!-- [root] aws_s3_bucket_policy.allow_access_from_anyone (expand)&#45;&gt;[root] aws_s3_bucket.www (expand) -->
<g id="edge13" class="edge">
<title>[root] aws_s3_bucket_policy.allow_access_from_anyone (expand)&#45;&gt;[root] aws_s3_bucket.www (expand)</title>
<path fill="none" stroke="black" d="M975.62,-287.51C1088.43,-267.31 1251.12,-230.3 1288.76,-180 1340.16,-111.3 1195.4,-94.97 1099.41,-91.49"/>
<polygon fill="black" stroke="black" points="1099.58,-88 1089.48,-91.18 1099.36,-94.99 1099.58,-88"/>
</g>
<!-- [root] aws_s3_bucket_public_access_block.www (expand)&#45;&gt;[root] aws_s3_bucket.www (expand) -->
<g id="edge14" class="edge">
<title>[root] aws_s3_bucket_public_access_block.www (expand)&#45;&gt;[root] aws_s3_bucket.www (expand)</title>
<path fill="none" stroke="black" d="M1121.54,-143.52C1104.27,-134.43 1082.97,-123.22 1064.48,-113.49"/>
<polygon fill="black" stroke="black" points="1066.37,-110.53 1055.89,-108.97 1063.11,-116.72 1066.37,-110.53"/>
</g>
<!-- [root] aws_s3_bucket_versioning.www (expand) -->
<g id="node10" class="node">
<title>[root] aws_s3_bucket_versioning.www (expand)</title>
<polygon fill="none" stroke="black" points="749.38,-180 554.13,-180 554.13,-144 749.38,-144 749.38,-180"/>
<text text-anchor="middle" x="651.76" y="-156.95" font-family="Times,serif" font-size="14.00">aws_s3_bucket_versioning.www</text>
</g>
<!-- [root] aws_s3_bucket_versioning.www (expand)&#45;&gt;[root] aws_s3_bucket.www (expand) -->
<g id="edge15" class="edge">
<title>[root] aws_s3_bucket_versioning.www (expand)&#45;&gt;[root] aws_s3_bucket.www (expand)</title>
<path fill="none" stroke="black" d="M744.17,-143.52C806,-131.82 886.43,-116.6 944.78,-105.56"/>
<polygon fill="black" stroke="black" points="945.12,-109.06 954.29,-103.76 943.82,-102.18 945.12,-109.06"/>
</g>
<!-- [root] aws_s3_bucket_website_configuration.www (expand)&#45;&gt;[root] aws_s3_bucket.www (expand) -->
<g id="edge16" class="edge">
<title>[root] aws_s3_bucket_website_configuration.www (expand)&#45;&gt;[root] aws_s3_bucket.www (expand)</title>
<path fill="none" stroke="black" d="M1359.36,-143.52C1278.19,-130.89 1170.67,-114.16 1099,-103.02"/>
<polygon fill="black" stroke="black" points="1099.73,-99.59 1089.31,-101.51 1098.65,-106.5 1099.73,-99.59"/>
</g>
<!-- [root] provider[&quot;terraform.io/builtin/terraform&quot;] -->
<g id="node14" class="node">
<title>[root] provider[&quot;terraform.io/builtin/terraform&quot;]</title>
<polygon fill="none" stroke="black" points="262.76,-108 28,-90 262.76,-72 497.51,-90 262.76,-108"/>
<text text-anchor="middle" x="262.76" y="-84.95" font-family="Times,serif" font-size="14.00">provider[&quot;terraform.io/builtin/terraform&quot;]</text>
</g>
<!-- [root] data.terraform_remote_state.root (expand)&#45;&gt;[root] provider[&quot;terraform.io/builtin/terraform&quot;] -->
<g id="edge17" class="edge">
<title>[root] data.terraform_remote_state.root (expand)&#45;&gt;[root] provider[&quot;terraform.io/builtin/terraform&quot;]</title>
<path fill="none" stroke="black" d="M346.78,-143.52C331.65,-134.06 312.84,-122.3 296.86,-112.31"/>
<polygon fill="black" stroke="black" points="298.95,-109.49 288.61,-107.16 295.24,-115.43 298.95,-109.49"/>
</g>
<!-- [root] var.root_domain_name -->
<g id="node15" class="node">
<title>[root] var.root_domain_name</title>
<polygon fill="none" stroke="black" points="2055.13,-396 1918.38,-396 1918.38,-360 2061.13,-360 2061.13,-390 2055.13,-396"/>
<polyline fill="none" stroke="black" points="2055.13,-396 2055.13,-390"/>
<polyline fill="none" stroke="black" points="2061.13,-390 2055.13,-390"/>
<text text-anchor="middle" x="1989.76" y="-372.95" font-family="Times,serif" font-size="14.00">var.root_domain_name</text>
</g>
<!-- [root] output.cloudfront_url (expand) -->
<g id="node17" class="node">
<title>[root] output.cloudfront_url (expand)</title>
<ellipse fill="none" stroke="black" cx="1713.76" cy="-306" rx="149.11" ry="18"/>
<text text-anchor="middle" x="1713.76" y="-300.95" font-family="Times,serif" font-size="14.00">[root] output.cloudfront_url (expand)</text>
</g>
<!-- [root] output.cloudfront_url (expand)&#45;&gt;[root] aws_cloudfront_distribution.www_distribution (expand) -->
<g id="edge18" class="edge">
<title>[root] output.cloudfront_url (expand)&#45;&gt;[root] aws_cloudfront_distribution.www_distribution (expand)</title>
<path fill="none" stroke="black" d="M1657.93,-288.85C1623.63,-278.93 1579.37,-266.13 1542.61,-255.49"/>
<polygon fill="black" stroke="black" points="1543.99,-252.25 1533.41,-252.83 1542.04,-258.97 1543.99,-252.25"/>
</g>
<!-- [root] output.cloudfront_www_id (expand) -->
<g id="node18" class="node">
<title>[root] output.cloudfront_www_id (expand)</title>
<ellipse fill="none" stroke="black" cx="1375.76" cy="-306" rx="170.6" ry="18"/>
<text text-anchor="middle" x="1375.76" y="-300.95" font-family="Times,serif" font-size="14.00">[root] output.cloudfront_www_id (expand)</text>
</g>
<!-- [root] output.cloudfront_www_id (expand)&#45;&gt;[root] aws_cloudfront_distribution.www_distribution (expand) -->
<g id="edge19" class="edge">
<title>[root] output.cloudfront_www_id (expand)&#45;&gt;[root] aws_cloudfront_distribution.www_distribution (expand)</title>
<path fill="none" stroke="black" d="M1399.49,-287.7C1411.37,-279.03 1425.95,-268.4 1438.89,-258.96"/>
<polygon fill="black" stroke="black" points="1440.72,-261.96 1446.74,-253.24 1436.6,-256.3 1440.72,-261.96"/>
</g>
<!-- [root] output.s3_website_url (expand) -->
<g id="node19" class="node">
<title>[root] output.s3_website_url (expand)</title>
<ellipse fill="none" stroke="black" cx="1833.76" cy="-234" rx="151.67" ry="18"/>
<text text-anchor="middle" x="1833.76" y="-228.95" font-family="Times,serif" font-size="14.00">[root] output.s3_website_url (expand)</text>
</g>
<!-- [root] output.s3_website_url (expand)&#45;&gt;[root] aws_s3_bucket_website_configuration.www (expand) -->
<g id="edge20" class="edge">
<title>[root] output.s3_website_url (expand)&#45;&gt;[root] aws_s3_bucket_website_configuration.www (expand)</title>
<path fill="none" stroke="black" d="M1756.54,-218.07C1702.99,-207.71 1631.14,-193.82 1573.01,-182.58"/>
<polygon fill="black" stroke="black" points="1573.92,-179.19 1563.43,-180.73 1572.59,-186.06 1573.92,-179.19"/>
</g>
<!-- [root] output.site_url (expand) -->
<g id="node20" class="node">
<title>[root] output.site_url (expand)</title>
<ellipse fill="none" stroke="black" cx="1181.76" cy="-378" rx="123.52" ry="18"/>
<text text-anchor="middle" x="1181.76" y="-372.95" font-family="Times,serif" font-size="14.00">[root] output.site_url (expand)</text>
</g>
<!-- [root] output.site_url (expand)&#45;&gt;[root] aws_route53_record.www (expand) -->
<g id="edge21" class="edge">
<title>[root] output.site_url (expand)&#45;&gt;[root] aws_route53_record.www (expand)</title>
<path fill="none" stroke="black" d="M1163.84,-360.05C1154.98,-351.67 1144.1,-341.38 1134.29,-332.1"/>
<polygon fill="black" stroke="black" points="1136.79,-329.64 1127.12,-325.32 1131.98,-334.73 1136.79,-329.64"/>
</g>
<!-- [root] provider[&quot;registry.terraform.io/hashicorp/aws&quot;] (close) -->
<g id="node21" class="node">
<title>[root] provider[&quot;registry.terraform.io/hashicorp/aws&quot;] (close)</title>
<ellipse fill="none" stroke="black" cx="745.76" cy="-378" rx="238.16" ry="18"/>
<text text-anchor="middle" x="745.76" y="-372.95" font-family="Times,serif" font-size="14.00">[root] provider[&quot;registry.terraform.io/hashicorp/aws&quot;] (close)</text>
</g>
<!-- [root] provider[&quot;registry.terraform.io/hashicorp/aws&quot;] (close)&#45;&gt;[root] aws_route53_record.mx (expand) -->
<g id="edge22" class="edge">
<title>[root] provider[&quot;registry.terraform.io/hashicorp/aws&quot;] (close)&#45;&gt;[root] aws_route53_record.mx (expand)</title>
<path fill="none" stroke="black" d="M693.45,-360C663.27,-349.98 624.69,-336.78 590.76,-324 533.6,-302.48 468.95,-275.48 425.39,-256.9"/>
<polygon fill="black" stroke="black" points="427.03,-253.79 416.46,-253.07 424.28,-260.22 427.03,-253.79"/>
</g>
<!-- [root] provider[&quot;registry.terraform.io/hashicorp/aws&quot;] (close)&#45;&gt;[root] aws_route53_record.txt (expand) -->
<g id="edge23" class="edge">
<title>[root] provider[&quot;registry.terraform.io/hashicorp/aws&quot;] (close)&#45;&gt;[root] aws_route53_record.txt (expand)</title>
<path fill="none" stroke="black" d="M704.28,-359.9C683.55,-350.55 658.52,-338.03 637.76,-324 610.06,-305.29 582.07,-279.32 562.95,-260.26"/>
<polygon fill="black" stroke="black" points="565.66,-258.02 556.14,-253.38 560.68,-262.95 565.66,-258.02"/>
</g>
<!-- [root] provider[&quot;registry.terraform.io/hashicorp/aws&quot;] (close)&#45;&gt;[root] aws_route53_record.www (expand) -->
<g id="edge24" class="edge">
<title>[root] provider[&quot;registry.terraform.io/hashicorp/aws&quot;] (close)&#45;&gt;[root] aws_route53_record.www (expand)</title>
<path fill="none" stroke="black" d="M829.72,-360.76C885.62,-349.95 959.06,-335.75 1016.42,-324.66"/>
<polygon fill="black" stroke="black" points="1017.03,-328.11 1026.18,-322.77 1015.7,-321.24 1017.03,-328.11"/>
</g>
<!-- [root] provider[&quot;registry.terraform.io/hashicorp/aws&quot;] (close)&#45;&gt;[root] aws_s3_bucket_acl.www (expand) -->
<g id="edge25" class="edge">
<title>[root] provider[&quot;registry.terraform.io/hashicorp/aws&quot;] (close)&#45;&gt;[root] aws_s3_bucket_acl.www (expand)</title>
<path fill="none" stroke="black" d="M728.78,-359.63C712.36,-340.68 692.2,-310.1 708.76,-288 720.6,-272.19 761.49,-259.51 801.41,-250.52"/>
<polygon fill="black" stroke="black" points="802.11,-253.95 811.14,-248.41 800.62,-247.11 802.11,-253.95"/>
</g>
<!-- [root] provider[&quot;registry.terraform.io/hashicorp/aws&quot;] (close)&#45;&gt;[root] aws_s3_bucket_policy.allow_access_from_anyone (expand) -->
<g id="edge26" class="edge">
<title>[root] provider[&quot;registry.terraform.io/hashicorp/aws&quot;] (close)&#45;&gt;[root] aws_s3_bucket_policy.allow_access_from_anyone (expand)</title>
<path fill="none" stroke="black" d="M774.92,-359.7C789.96,-350.78 808.5,-339.78 824.75,-330.14"/>
<polygon fill="black" stroke="black" points="826.4,-333.23 833.21,-325.12 822.83,-327.21 826.4,-333.23"/>
</g>
<!-- [root] provider[&quot;registry.terraform.io/hashicorp/aws&quot;] (close)&#45;&gt;[root] aws_s3_bucket_versioning.www (expand) -->
<g id="edge27" class="edge">
<title>[root] provider[&quot;registry.terraform.io/hashicorp/aws&quot;] (close)&#45;&gt;[root] aws_s3_bucket_versioning.www (expand)</title>
<path fill="none" stroke="black" d="M726.59,-359.99C716.73,-350.31 705.23,-337.46 697.76,-324 673.99,-281.23 661.59,-225.09 655.88,-191.66"/>
<polygon fill="black" stroke="black" points="659.36,-191.25 654.32,-181.94 652.45,-192.37 659.36,-191.25"/>
</g>
<!-- [root] provider[&quot;terraform.io/builtin/terraform&quot;] (close) -->
<g id="node22" class="node">
<title>[root] provider[&quot;terraform.io/builtin/terraform&quot;] (close)</title>
<ellipse fill="none" stroke="black" cx="272.76" cy="-378" rx="217.18" ry="18"/>
<text text-anchor="middle" x="272.76" y="-372.95" font-family="Times,serif" font-size="14.00">[root] provider[&quot;terraform.io/builtin/terraform&quot;] (close)</text>
</g>
<!-- [root] provider[&quot;terraform.io/builtin/terraform&quot;] (close)&#45;&gt;[root] data.terraform_remote_state.root (expand) -->
<g id="edge28" class="edge">
<title>[root] provider[&quot;terraform.io/builtin/terraform&quot;] (close)&#45;&gt;[root] data.terraform_remote_state.root (expand)</title>
<path fill="none" stroke="black" d="M270.29,-359.94C266.68,-328.75 263.2,-261.55 291.76,-216 299.35,-203.88 310.84,-194.03 322.88,-186.25"/>
<polygon fill="black" stroke="black" points="324.49,-189.36 331.28,-181.23 320.9,-183.35 324.49,-189.36"/>
</g>
<!-- [root] root -->
<g id="node23" class="node">
<title>[root] root</title>
<ellipse fill="none" stroke="black" cx="1375.76" cy="-450" rx="49.3" ry="18"/>
<text text-anchor="middle" x="1375.76" y="-444.95" font-family="Times,serif" font-size="14.00">[root] root</text>
</g>
<!-- [root] root&#45;&gt;[root] var.root_domain_name -->
<g id="edge35" class="edge">
<title>[root] root&#45;&gt;[root] var.root_domain_name</title>
<path fill="none" stroke="black" d="M1424.09,-445.74C1517.37,-439.11 1728.58,-422.38 1904.76,-396 1905.43,-395.9 1906.11,-395.8 1906.79,-395.69"/>
<polygon fill="black" stroke="black" points="1907.16,-399.18 1916.47,-394.11 1906.04,-392.27 1907.16,-399.18"/>
</g>
<!-- [root] root&#45;&gt;[root] output.cloudfront_url (expand) -->
<g id="edge29" class="edge">
<title>[root] root&#45;&gt;[root] output.cloudfront_url (expand)</title>
<path fill="none" stroke="black" d="M1407.25,-435.77C1466.02,-411.08 1592.82,-357.81 1663.52,-328.1"/>
<polygon fill="black" stroke="black" points="1664.69,-331.41 1672.56,-324.31 1661.98,-324.96 1664.69,-331.41"/>
</g>
<!-- [root] root&#45;&gt;[root] output.cloudfront_www_id (expand) -->
<g id="edge30" class="edge">
<title>[root] root&#45;&gt;[root] output.cloudfront_www_id (expand)</title>
<path fill="none" stroke="black" d="M1375.76,-431.59C1375.76,-407.61 1375.76,-364.14 1375.76,-335.42"/>
<polygon fill="black" stroke="black" points="1379.26,-335.62 1375.76,-325.62 1372.26,-335.62 1379.26,-335.62"/>
</g>
<!-- [root] root&#45;&gt;[root] output.s3_website_url (expand) -->
<g id="edge31" class="edge">
<title>[root] root&#45;&gt;[root] output.s3_website_url (expand)</title>
<path fill="none" stroke="black" d="M1422.77,-444.38C1535.55,-432.22 1816.22,-395.27 1871.76,-324 1886.49,-305.09 1873,-279.62 1858.17,-260.77"/>
<polygon fill="black" stroke="black" points="1860.98,-258.68 1851.87,-253.27 1855.62,-263.18 1860.98,-258.68"/>
</g>
<!-- [root] root&#45;&gt;[root] output.site_url (expand) -->
<g id="edge32" class="edge">
<title>[root] root&#45;&gt;[root] output.site_url (expand)</title>
<path fill="none" stroke="black" d="M1341.52,-436.65C1312.66,-426.23 1270.82,-411.14 1237.19,-399"/>
<polygon fill="black" stroke="black" points="1238.61,-395.79 1228.01,-395.69 1236.23,-402.38 1238.61,-395.79"/>
</g>
<!-- [root] root&#45;&gt;[root] provider[&quot;registry.terraform.io/hashicorp/aws&quot;] (close) -->
<g id="edge33" class="edge">
<title>[root] root&#45;&gt;[root] provider[&quot;registry.terraform.io/hashicorp/aws&quot;] (close)</title>
<path fill="none" stroke="black" d="M1328.92,-443.8C1236.67,-433.55 1028.2,-410.38 887.19,-394.71"/>
<polygon fill="black" stroke="black" points="887.71,-391.25 877.39,-393.63 886.94,-398.21 887.71,-391.25"/>
</g>
<!-- [root] root&#45;&gt;[root] provider[&quot;terraform.io/builtin/terraform&quot;] (close) -->
<g id="edge34" class="edge">
<title>[root] root&#45;&gt;[root] provider[&quot;terraform.io/builtin/terraform&quot;] (close)</title>
<path fill="none" stroke="black" d="M1327.25,-446.32C1194.59,-438.94 814.54,-417.42 498.76,-396 479.47,-394.69 459.26,-393.26 439.2,-391.8"/>
<polygon fill="black" stroke="black" points="439.48,-388.31 429.25,-391.07 438.97,-395.29 439.48,-388.31"/>
</g>
</g>
</svg>
