<?xml version="1.0" encoding="UTF-8" standalone="no"?>
<!DOCTYPE svg PUBLIC "-//W3C//DTD SVG 1.1//EN"
 "http://www.w3.org/Graphics/SVG/1.1/DTD/svg11.dtd">
<!-- Generated by graphviz version 10.0.1 (20240210.2158)
 -->
<!-- Pages: 1 -->
<svg width="2076pt" height="476pt"
 viewBox="0.00 0.00 2076.04 476.00" xmlns="http://www.w3.org/2000/svg" xmlns:xlink="http://www.w3.org/1999/xlink">
<g id="graph0" class="graph" transform="scale(1 1) rotate(0) translate(4 472)">
<polygon fill="white" stroke="none" points="-4,4 -4,-472 2072.04,-472 2072.04,4 -4,4"/>
<!-- [root] aws_cloudfront_distribution.www_distribution (expand) -->
<g id="node1" class="node">
<title>[root] aws_cloudfront_distribution.www_distribution (expand)</title>
<polygon fill="none" stroke="black" points="666.17,-252 395.17,-252 395.17,-216 666.17,-216 666.17,-252"/>
<text text-anchor="middle" x="530.67" y="-228.95" font-family="Times,serif" font-size="14.00">aws_cloudfront_distribution.www_distribution</text>
</g>
<!-- [root] aws_s3_bucket_website_configuration.www (expand) -->
<g id="node13" class="node">
<title>[root] aws_s3_bucket_website_configuration.www (expand)</title>
<polygon fill="none" stroke="black" points="655.17,-180 396.17,-180 396.17,-144 655.17,-144 655.17,-180"/>
<text text-anchor="middle" x="525.67" y="-156.95" font-family="Times,serif" font-size="14.00">aws_s3_bucket_website_configuration.www</text>
</g>
<!-- [root] aws_cloudfront_distribution.www_distribution (expand)&#45;&gt;[root] aws_s3_bucket_website_configuration.www (expand) -->
<g id="edge1" class="edge">
<title>[root] aws_cloudfront_distribution.www_distribution (expand)&#45;&gt;[root] aws_s3_bucket_website_configuration.www (expand)</title>
<path fill="none" stroke="black" d="M529.43,-215.7C528.91,-208.41 528.29,-199.73 527.7,-191.54"/>
<polygon fill="black" stroke="black" points="531.2,-191.34 527,-181.61 524.22,-191.84 531.2,-191.34"/>
</g>
<!-- [root] data.terraform_remote_state.root (expand) -->
<g id="node14" class="node">
<title>[root] data.terraform_remote_state.root (expand)</title>
<polygon fill="none" stroke="black" points="1770.67,-180 1574.67,-180 1574.67,-144 1770.67,-144 1770.67,-180"/>
<text text-anchor="middle" x="1672.67" y="-156.95" font-family="Times,serif" font-size="14.00">data.terraform_remote_state.root</text>
</g>
<!-- [root] aws_cloudfront_distribution.www_distribution (expand)&#45;&gt;[root] data.terraform_remote_state.root (expand) -->
<g id="edge2" class="edge">
<title>[root] aws_cloudfront_distribution.www_distribution (expand)&#45;&gt;[root] data.terraform_remote_state.root (expand)</title>
<path fill="none" stroke="black" d="M666.36,-225.86C845.05,-216.29 1169.01,-198.37 1445.67,-180 1483.9,-177.46 1525.74,-174.41 1562.97,-171.59"/>
<polygon fill="black" stroke="black" points="1563.15,-175.09 1572.86,-170.84 1562.62,-168.11 1563.15,-175.09"/>
</g>
<!-- [root] aws_route53_record.dkim (expand) -->
<g id="node2" class="node">
<title>[root] aws_route53_record.dkim (expand)</title>
<polygon fill="none" stroke="black" points="1397.92,-252 1239.42,-252 1239.42,-216 1397.92,-216 1397.92,-252"/>
<text text-anchor="middle" x="1318.67" y="-228.95" font-family="Times,serif" font-size="14.00">aws_route53_record.dkim</text>
</g>
<!-- [root] aws_route53_record.dkim (expand)&#45;&gt;[root] data.terraform_remote_state.root (expand) -->
<g id="edge3" class="edge">
<title>[root] aws_route53_record.dkim (expand)&#45;&gt;[root] data.terraform_remote_state.root (expand)</title>
<path fill="none" stroke="black" d="M1398.11,-217.29C1449.89,-207.05 1517.86,-193.61 1573.22,-182.66"/>
<polygon fill="black" stroke="black" points="1573.86,-186.11 1582.99,-180.73 1572.5,-179.24 1573.86,-186.11"/>
</g>
<!-- [root] provider[&quot;registry.terraform.io/hashicorp/aws&quot;] -->
<g id="node15" class="node">
<title>[root] provider[&quot;registry.terraform.io/hashicorp/aws&quot;]</title>
<polygon fill="none" stroke="black" points="1502.67,-36 1238.24,-18 1502.67,0 1767.1,-18 1502.67,-36"/>
<text text-anchor="middle" x="1502.67" y="-12.95" font-family="Times,serif" font-size="14.00">provider[&quot;registry.terraform.io/hashicorp/aws&quot;]</text>
</g>
<!-- [root] aws_route53_record.dkim (expand)&#45;&gt;[root] provider[&quot;registry.terraform.io/hashicorp/aws&quot;] -->
<g id="edge4" class="edge">
<title>[root] aws_route53_record.dkim (expand)&#45;&gt;[root] provider[&quot;registry.terraform.io/hashicorp/aws&quot;]</title>
<path fill="none" stroke="black" d="M1388.99,-215.53C1409.46,-207.55 1430.39,-196.14 1445.67,-180 1480.85,-142.82 1494.5,-82.56 1499.66,-47.27"/>
<polygon fill="black" stroke="black" points="1503.13,-47.77 1500.96,-37.4 1496.19,-46.86 1503.13,-47.77"/>
</g>
<!-- [root] aws_route53_record.dmarc (expand) -->
<g id="node3" class="node">
<title>[root] aws_route53_record.dmarc (expand)</title>
<polygon fill="none" stroke="black" points="1580.92,-252 1416.42,-252 1416.42,-216 1580.92,-216 1580.92,-252"/>
<text text-anchor="middle" x="1498.67" y="-228.95" font-family="Times,serif" font-size="14.00">aws_route53_record.dmarc</text>
</g>
<!-- [root] aws_route53_record.dmarc (expand)&#45;&gt;[root] data.terraform_remote_state.root (expand) -->
<g id="edge5" class="edge">
<title>[root] aws_route53_record.dmarc (expand)&#45;&gt;[root] data.terraform_remote_state.root (expand)</title>
<path fill="none" stroke="black" d="M1542.12,-215.52C1565.36,-206.17 1594.18,-194.57 1618.82,-184.66"/>
<polygon fill="black" stroke="black" points="1620.08,-187.93 1628.06,-180.95 1617.47,-181.43 1620.08,-187.93"/>
</g>
<!-- [root] aws_route53_record.dmarc (expand)&#45;&gt;[root] provider[&quot;registry.terraform.io/hashicorp/aws&quot;] -->
<g id="edge6" class="edge">
<title>[root] aws_route53_record.dmarc (expand)&#45;&gt;[root] provider[&quot;registry.terraform.io/hashicorp/aws&quot;]</title>
<path fill="none" stroke="black" d="M1498.99,-215.85C1499.67,-179.14 1501.29,-92.66 1502.13,-47.53"/>
<polygon fill="black" stroke="black" points="1505.63,-47.81 1502.32,-37.75 1498.63,-47.68 1505.63,-47.81"/>
</g>
<!-- [root] aws_route53_record.mx (expand) -->
<g id="node4" class="node">
<title>[root] aws_route53_record.mx (expand)</title>
<polygon fill="none" stroke="black" points="1746.67,-252 1598.67,-252 1598.67,-216 1746.67,-216 1746.67,-252"/>
<text text-anchor="middle" x="1672.67" y="-228.95" font-family="Times,serif" font-size="14.00">aws_route53_record.mx</text>
</g>
<!-- [root] aws_route53_record.mx (expand)&#45;&gt;[root] data.terraform_remote_state.root (expand) -->
<g id="edge7" class="edge">
<title>[root] aws_route53_record.mx (expand)&#45;&gt;[root] data.terraform_remote_state.root (expand)</title>
<path fill="none" stroke="black" d="M1672.67,-215.7C1672.67,-208.41 1672.67,-199.73 1672.67,-191.54"/>
<polygon fill="black" stroke="black" points="1676.17,-191.62 1672.67,-181.62 1669.17,-191.62 1676.17,-191.62"/>
</g>
<!-- [root] aws_route53_record.mx (expand)&#45;&gt;[root] provider[&quot;registry.terraform.io/hashicorp/aws&quot;] -->
<g id="edge8" class="edge">
<title>[root] aws_route53_record.mx (expand)&#45;&gt;[root] provider[&quot;registry.terraform.io/hashicorp/aws&quot;]</title>
<path fill="none" stroke="black" d="M1747.03,-215.88C1836.6,-193.58 1978.93,-152.18 2009.67,-108 2018.8,-94.87 2020.38,-83.89 2009.67,-72 1987.32,-47.19 1815.13,-33.22 1677.53,-25.92"/>
<polygon fill="black" stroke="black" points="1678.11,-22.45 1667.94,-25.42 1677.74,-29.44 1678.11,-22.45"/>
</g>
<!-- [root] aws_route53_record.txt (expand) -->
<g id="node5" class="node">
<title>[root] aws_route53_record.txt (expand)</title>
<polygon fill="none" stroke="black" points="1946.79,-252 1802.54,-252 1802.54,-216 1946.79,-216 1946.79,-252"/>
<text text-anchor="middle" x="1874.67" y="-228.95" font-family="Times,serif" font-size="14.00">aws_route53_record.txt</text>
</g>
<!-- [root] aws_route53_record.txt (expand)&#45;&gt;[root] data.terraform_remote_state.root (expand) -->
<g id="edge9" class="edge">
<title>[root] aws_route53_record.txt (expand)&#45;&gt;[root] data.terraform_remote_state.root (expand)</title>
<path fill="none" stroke="black" d="M1824.21,-215.52C1796.75,-206 1762.58,-194.16 1733.64,-184.13"/>
<polygon fill="black" stroke="black" points="1734.85,-180.84 1724.25,-180.88 1732.56,-187.46 1734.85,-180.84"/>
</g>
<!-- [root] aws_route53_record.txt (expand)&#45;&gt;[root] provider[&quot;registry.terraform.io/hashicorp/aws&quot;] -->
<g id="edge10" class="edge">
<title>[root] aws_route53_record.txt (expand)&#45;&gt;[root] provider[&quot;registry.terraform.io/hashicorp/aws&quot;]</title>
<path fill="none" stroke="black" d="M1912.82,-215.6C1972.1,-186.32 2074.74,-125.18 2026.67,-72 2003.53,-46.41 1825.58,-32.57 1683.37,-25.52"/>
<polygon fill="black" stroke="black" points="1683.57,-22.03 1673.41,-25.04 1683.23,-29.02 1683.57,-22.03"/>
</g>
<!-- [root] aws_route53_record.www (expand) -->
<g id="node6" class="node">
<title>[root] aws_route53_record.www (expand)</title>
<polygon fill="none" stroke="black" points="878.29,-324 719.04,-324 719.04,-288 878.29,-288 878.29,-324"/>
<text text-anchor="middle" x="798.67" y="-300.95" font-family="Times,serif" font-size="14.00">aws_route53_record.www</text>
</g>
<!-- [root] aws_route53_record.www (expand)&#45;&gt;[root] aws_cloudfront_distribution.www_distribution (expand) -->
<g id="edge11" class="edge">
<title>[root] aws_route53_record.www (expand)&#45;&gt;[root] aws_cloudfront_distribution.www_distribution (expand)</title>
<path fill="none" stroke="black" d="M731.73,-287.52C694.26,-277.73 647.35,-265.48 608.28,-255.27"/>
<polygon fill="black" stroke="black" points="609.24,-251.91 598.68,-252.76 607.47,-258.68 609.24,-251.91"/>
</g>
<!-- [root] aws_s3_bucket.www (expand) -->
<g id="node7" class="node">
<title>[root] aws_s3_bucket.www (expand)</title>
<polygon fill="none" stroke="black" points="1038.42,-108 906.92,-108 906.92,-72 1038.42,-72 1038.42,-108"/>
<text text-anchor="middle" x="972.67" y="-84.95" font-family="Times,serif" font-size="14.00">aws_s3_bucket.www</text>
</g>
<!-- [root] aws_s3_bucket.www (expand)&#45;&gt;[root] provider[&quot;registry.terraform.io/hashicorp/aws&quot;] -->
<g id="edge12" class="edge">
<title>[root] aws_s3_bucket.www (expand)&#45;&gt;[root] provider[&quot;registry.terraform.io/hashicorp/aws&quot;]</title>
<path fill="none" stroke="black" d="M1038.72,-80.28C1130.55,-68.15 1297.5,-46.1 1404.1,-32.02"/>
<polygon fill="black" stroke="black" points="1404.55,-35.49 1414,-30.71 1403.63,-28.55 1404.55,-35.49"/>
</g>
<!-- [root] var.www_domain_name -->
<g id="node18" class="node">
<title>[root] var.www_domain_name</title>
<polygon fill="none" stroke="black" points="1041.79,-36 897.54,-36 897.54,0 1047.79,0 1047.79,-30 1041.79,-36"/>
<polyline fill="none" stroke="black" points="1041.79,-36 1041.79,-30"/>
<polyline fill="none" stroke="black" points="1047.79,-30 1041.79,-30"/>
<text text-anchor="middle" x="972.67" y="-12.95" font-family="Times,serif" font-size="14.00">var.www_domain_name</text>
</g>
<!-- [root] aws_s3_bucket.www (expand)&#45;&gt;[root] var.www_domain_name -->
<g id="edge13" class="edge">
<title>[root] aws_s3_bucket.www (expand)&#45;&gt;[root] var.www_domain_name</title>
<path fill="none" stroke="black" d="M972.67,-71.7C972.67,-64.41 972.67,-55.73 972.67,-47.54"/>
<polygon fill="black" stroke="black" points="976.17,-47.62 972.67,-37.62 969.17,-47.62 976.17,-47.62"/>
</g>
<!-- [root] aws_s3_bucket_acl.www (expand) -->
<g id="node8" class="node">
<title>[root] aws_s3_bucket_acl.www (expand)</title>
<polygon fill="none" stroke="black" points="1221.67,-252 1067.67,-252 1067.67,-216 1221.67,-216 1221.67,-252"/>
<text text-anchor="middle" x="1144.67" y="-228.95" font-family="Times,serif" font-size="14.00">aws_s3_bucket_acl.www</text>
</g>
<!-- [root] aws_s3_bucket_ownership_controls.www (expand) -->
<g id="node9" class="node">
<title>[root] aws_s3_bucket_ownership_controls.www (expand)</title>
<polygon fill="none" stroke="black" points="1437.04,-180 1192.29,-180 1192.29,-144 1437.04,-144 1437.04,-180"/>
<text text-anchor="middle" x="1314.67" y="-156.95" font-family="Times,serif" font-size="14.00">aws_s3_bucket_ownership_controls.www</text>
</g>
<!-- [root] aws_s3_bucket_acl.www (expand)&#45;&gt;[root] aws_s3_bucket_ownership_controls.www (expand) -->
<g id="edge14" class="edge">
<title>[root] aws_s3_bucket_acl.www (expand)&#45;&gt;[root] aws_s3_bucket_ownership_controls.www (expand)</title>
<path fill="none" stroke="black" d="M1187.13,-215.52C1209.83,-206.17 1237.98,-194.57 1262.06,-184.66"/>
<polygon fill="black" stroke="black" points="1263.14,-188 1271.05,-180.96 1260.47,-181.53 1263.14,-188"/>
</g>
<!-- [root] aws_s3_bucket_public_access_block.www (expand) -->
<g id="node11" class="node">
<title>[root] aws_s3_bucket_public_access_block.www (expand)</title>
<polygon fill="none" stroke="black" points="1174.67,-180 924.67,-180 924.67,-144 1174.67,-144 1174.67,-180"/>
<text text-anchor="middle" x="1049.67" y="-156.95" font-family="Times,serif" font-size="14.00">aws_s3_bucket_public_access_block.www</text>
</g>
<!-- [root] aws_s3_bucket_acl.www (expand)&#45;&gt;[root] aws_s3_bucket_public_access_block.www (expand) -->
<g id="edge15" class="edge">
<title>[root] aws_s3_bucket_acl.www (expand)&#45;&gt;[root] aws_s3_bucket_public_access_block.www (expand)</title>
<path fill="none" stroke="black" d="M1121.18,-215.7C1109.42,-207.03 1094.99,-196.4 1082.19,-186.96"/>
<polygon fill="black" stroke="black" points="1084.55,-184.36 1074.43,-181.24 1080.4,-189.99 1084.55,-184.36"/>
</g>
<!-- [root] aws_s3_bucket_ownership_controls.www (expand)&#45;&gt;[root] aws_s3_bucket.www (expand) -->
<g id="edge16" class="edge">
<title>[root] aws_s3_bucket_ownership_controls.www (expand)&#45;&gt;[root] aws_s3_bucket.www (expand)</title>
<path fill="none" stroke="black" d="M1229.25,-143.52C1174.2,-132.25 1103.22,-117.72 1049.87,-106.8"/>
<polygon fill="black" stroke="black" points="1050.75,-103.41 1040.25,-104.83 1049.35,-110.27 1050.75,-103.41"/>
</g>
<!-- [root] aws_s3_bucket_policy.allow_access_from_anyone (expand) -->
<g id="node10" class="node">
<title>[root] aws_s3_bucket_policy.allow_access_from_anyone (expand)</title>
<polygon fill="none" stroke="black" points="1227.04,-324 934.29,-324 934.29,-288 1227.04,-288 1227.04,-324"/>
<text text-anchor="middle" x="1080.67" y="-300.95" font-family="Times,serif" font-size="14.00">aws_s3_bucket_policy.allow_access_from_anyone</text>
</g>
<!-- [root] aws_s3_bucket_policy.allow_access_from_anyone (expand)&#45;&gt;[root] aws_s3_bucket.www (expand) -->
<g id="edge17" class="edge">
<title>[root] aws_s3_bucket_policy.allow_access_from_anyone (expand)&#45;&gt;[root] aws_s3_bucket.www (expand)</title>
<path fill="none" stroke="black" d="M1040,-287.54C1000.04,-267.9 941.42,-231.81 915.67,-180 908.54,-165.67 909.28,-158.67 915.67,-144 920.36,-133.22 928.45,-123.65 937.08,-115.71"/>
<polygon fill="black" stroke="black" points="939.27,-118.44 944.63,-109.3 934.74,-113.1 939.27,-118.44"/>
</g>
<!-- [root] aws_s3_bucket_public_access_block.www (expand)&#45;&gt;[root] aws_s3_bucket.www (expand) -->
<g id="edge18" class="edge">
<title>[root] aws_s3_bucket_public_access_block.www (expand)&#45;&gt;[root] aws_s3_bucket.www (expand)</title>
<path fill="none" stroke="black" d="M1030.63,-143.7C1021.47,-135.37 1010.31,-125.22 1000.24,-116.07"/>
<polygon fill="black" stroke="black" points="1002.62,-113.5 992.87,-109.37 997.91,-118.68 1002.62,-113.5"/>
</g>
<!-- [root] aws_s3_bucket_versioning.www (expand) -->
<g id="node12" class="node">
<title>[root] aws_s3_bucket_versioning.www (expand)</title>
<polygon fill="none" stroke="black" points="868.29,-180 673.04,-180 673.04,-144 868.29,-144 868.29,-180"/>
<text text-anchor="middle" x="770.67" y="-156.95" font-family="Times,serif" font-size="14.00">aws_s3_bucket_versioning.www</text>
</g>
<!-- [root] aws_s3_bucket_versioning.www (expand)&#45;&gt;[root] aws_s3_bucket.www (expand) -->
<g id="edge19" class="edge">
<title>[root] aws_s3_bucket_versioning.www (expand)&#45;&gt;[root] aws_s3_bucket.www (expand)</title>
<path fill="none" stroke="black" d="M821.12,-143.52C848.58,-134 882.75,-122.16 911.7,-112.13"/>
<polygon fill="black" stroke="black" points="912.77,-115.46 921.08,-108.88 910.48,-108.84 912.77,-115.46"/>
</g>
<!-- [root] aws_s3_bucket_website_configuration.www (expand)&#45;&gt;[root] aws_s3_bucket.www (expand) -->
<g id="edge20" class="edge">
<title>[root] aws_s3_bucket_website_configuration.www (expand)&#45;&gt;[root] aws_s3_bucket.www (expand)</title>
<path fill="none" stroke="black" d="M637.31,-143.52C717.82,-130.91 824.42,-114.21 895.61,-103.07"/>
<polygon fill="black" stroke="black" points="895.89,-106.57 905.23,-101.56 894.81,-99.65 895.89,-106.57"/>
</g>
<!-- [root] provider[&quot;terraform.io/builtin/terraform&quot;] -->
<g id="node16" class="node">
<title>[root] provider[&quot;terraform.io/builtin/terraform&quot;]</title>
<polygon fill="none" stroke="black" points="1765.67,-108 1530.91,-90 1765.67,-72 2000.42,-90 1765.67,-108"/>
<text text-anchor="middle" x="1765.67" y="-84.95" font-family="Times,serif" font-size="14.00">provider[&quot;terraform.io/builtin/terraform&quot;]</text>
</g>
<!-- [root] data.terraform_remote_state.root (expand)&#45;&gt;[root] provider[&quot;terraform.io/builtin/terraform&quot;] -->
<g id="edge21" class="edge">
<title>[root] data.terraform_remote_state.root (expand)&#45;&gt;[root] provider[&quot;terraform.io/builtin/terraform&quot;]</title>
<path fill="none" stroke="black" d="M1695.65,-143.7C1707.77,-134.57 1722.78,-123.28 1735.8,-113.48"/>
<polygon fill="black" stroke="black" points="1737.75,-116.39 1743.64,-107.58 1733.54,-110.8 1737.75,-116.39"/>
</g>
<!-- [root] var.root_domain_name -->
<g id="node17" class="node">
<title>[root] var.root_domain_name</title>
<polygon fill="none" stroke="black" points="2062.04,-396 1925.29,-396 1925.29,-360 2068.04,-360 2068.04,-390 2062.04,-396"/>
<polyline fill="none" stroke="black" points="2062.04,-396 2062.04,-390"/>
<polyline fill="none" stroke="black" points="2068.04,-390 2062.04,-390"/>
<text text-anchor="middle" x="1996.67" y="-372.95" font-family="Times,serif" font-size="14.00">var.root_domain_name</text>
</g>
<!-- [root] output.cloudfront_url (expand) -->
<g id="node19" class="node">
<title>[root] output.cloudfront_url (expand)</title>
<ellipse fill="none" stroke="black" cx="416.67" cy="-378" rx="149.11" ry="18"/>
<text text-anchor="middle" x="416.67" y="-372.95" font-family="Times,serif" font-size="14.00">[root] output.cloudfront_url (expand)</text>
</g>
<!-- [root] output.cloudfront_url (expand)&#45;&gt;[root] aws_cloudfront_distribution.www_distribution (expand) -->
<g id="edge22" class="edge">
<title>[root] output.cloudfront_url (expand)&#45;&gt;[root] aws_cloudfront_distribution.www_distribution (expand)</title>
<path fill="none" stroke="black" d="M384.96,-360.11C371.79,-351.27 357.91,-339.11 350.67,-324 343.75,-309.57 341.08,-300.81 350.67,-288 360.57,-274.76 390.92,-263.69 423.95,-255.14"/>
<polygon fill="black" stroke="black" points="424.42,-258.63 433.28,-252.82 422.73,-251.84 424.42,-258.63"/>
</g>
<!-- [root] output.cloudfront_www_id (expand) -->
<g id="node20" class="node">
<title>[root] output.cloudfront_www_id (expand)</title>
<ellipse fill="none" stroke="black" cx="530.67" cy="-306" rx="170.6" ry="18"/>
<text text-anchor="middle" x="530.67" y="-300.95" font-family="Times,serif" font-size="14.00">[root] output.cloudfront_www_id (expand)</text>
</g>
<!-- [root] output.cloudfront_www_id (expand)&#45;&gt;[root] aws_cloudfront_distribution.www_distribution (expand) -->
<g id="edge23" class="edge">
<title>[root] output.cloudfront_www_id (expand)&#45;&gt;[root] aws_cloudfront_distribution.www_distribution (expand)</title>
<path fill="none" stroke="black" d="M530.67,-287.7C530.67,-280.41 530.67,-271.73 530.67,-263.54"/>
<polygon fill="black" stroke="black" points="534.17,-263.62 530.67,-253.62 527.17,-263.62 534.17,-263.62"/>
</g>
<!-- [root] output.s3_website_url (expand) -->
<g id="node21" class="node">
<title>[root] output.s3_website_url (expand)</title>
<ellipse fill="none" stroke="black" cx="151.67" cy="-306" rx="151.67" ry="18"/>
<text text-anchor="middle" x="151.67" y="-300.95" font-family="Times,serif" font-size="14.00">[root] output.s3_website_url (expand)</text>
</g>
<!-- [root] output.s3_website_url (expand)&#45;&gt;[root] aws_s3_bucket_website_configuration.www (expand) -->
<g id="edge24" class="edge">
<title>[root] output.s3_website_url (expand)&#45;&gt;[root] aws_s3_bucket_website_configuration.www (expand)</title>
<path fill="none" stroke="black" d="M195.22,-288.41C242.2,-270.52 319.22,-241.21 385.67,-216 413.09,-205.59 443.55,-194.06 469.03,-184.42"/>
<polygon fill="black" stroke="black" points="470.1,-187.76 478.21,-180.94 467.62,-181.21 470.1,-187.76"/>
</g>
<!-- [root] output.site_url (expand) -->
<g id="node22" class="node">
<title>[root] output.site_url (expand)</title>
<ellipse fill="none" stroke="black" cx="798.67" cy="-378" rx="123.52" ry="18"/>
<text text-anchor="middle" x="798.67" y="-372.95" font-family="Times,serif" font-size="14.00">[root] output.site_url (expand)</text>
</g>
<!-- [root] output.site_url (expand)&#45;&gt;[root] aws_route53_record.www (expand) -->
<g id="edge25" class="edge">
<title>[root] output.site_url (expand)&#45;&gt;[root] aws_route53_record.www (expand)</title>
<path fill="none" stroke="black" d="M798.67,-359.7C798.67,-352.41 798.67,-343.73 798.67,-335.54"/>
<polygon fill="black" stroke="black" points="802.17,-335.62 798.67,-325.62 795.17,-335.62 802.17,-335.62"/>
</g>
<!-- [root] provider[&quot;registry.terraform.io/hashicorp/aws&quot;] (close) -->
<g id="node23" class="node">
<title>[root] provider[&quot;registry.terraform.io/hashicorp/aws&quot;] (close)</title>
<ellipse fill="none" stroke="black" cx="1216.67" cy="-378" rx="238.16" ry="18"/>
<text text-anchor="middle" x="1216.67" y="-372.95" font-family="Times,serif" font-size="14.00">[root] provider[&quot;registry.terraform.io/hashicorp/aws&quot;] (close)</text>
</g>
<!-- [root] provider[&quot;registry.terraform.io/hashicorp/aws&quot;] (close)&#45;&gt;[root] aws_route53_record.dkim (expand) -->
<g id="edge26" class="edge">
<title>[root] provider[&quot;registry.terraform.io/hashicorp/aws&quot;] (close)&#45;&gt;[root] aws_route53_record.dkim (expand)</title>
<path fill="none" stroke="black" d="M1229.17,-359.59C1246.86,-334.97 1279.3,-289.8 1299.89,-261.14"/>
<polygon fill="black" stroke="black" points="1302.5,-263.5 1305.49,-253.34 1296.82,-259.42 1302.5,-263.5"/>
</g>
<!-- [root] provider[&quot;registry.terraform.io/hashicorp/aws&quot;] (close)&#45;&gt;[root] aws_route53_record.dmarc (expand) -->
<g id="edge27" class="edge">
<title>[root] provider[&quot;registry.terraform.io/hashicorp/aws&quot;] (close)&#45;&gt;[root] aws_route53_record.dmarc (expand)</title>
<path fill="none" stroke="black" d="M1250.96,-359.73C1301.95,-334.05 1397.78,-285.8 1454.12,-257.43"/>
<polygon fill="black" stroke="black" points="1455.46,-260.68 1462.82,-253.05 1452.31,-254.42 1455.46,-260.68"/>
</g>
<!-- [root] provider[&quot;registry.terraform.io/hashicorp/aws&quot;] (close)&#45;&gt;[root] aws_route53_record.mx (expand) -->
<g id="edge28" class="edge">
<title>[root] provider[&quot;registry.terraform.io/hashicorp/aws&quot;] (close)&#45;&gt;[root] aws_route53_record.mx (expand)</title>
<path fill="none" stroke="black" d="M1271.22,-360.01C1354.96,-333.94 1514.98,-284.1 1605.65,-255.87"/>
<polygon fill="black" stroke="black" points="1606.67,-259.22 1615.18,-252.9 1604.59,-252.53 1606.67,-259.22"/>
</g>
<!-- [root] provider[&quot;registry.terraform.io/hashicorp/aws&quot;] (close)&#45;&gt;[root] aws_route53_record.txt (expand) -->
<g id="edge29" class="edge">
<title>[root] provider[&quot;registry.terraform.io/hashicorp/aws&quot;] (close)&#45;&gt;[root] aws_route53_record.txt (expand)</title>
<path fill="none" stroke="black" d="M1293.11,-360.5C1417.5,-333.66 1662.7,-280.74 1791.37,-252.98"/>
<polygon fill="black" stroke="black" points="1791.8,-256.46 1800.84,-250.93 1790.33,-249.62 1791.8,-256.46"/>
</g>
<!-- [root] provider[&quot;registry.terraform.io/hashicorp/aws&quot;] (close)&#45;&gt;[root] aws_route53_record.www (expand) -->
<g id="edge30" class="edge">
<title>[root] provider[&quot;registry.terraform.io/hashicorp/aws&quot;] (close)&#45;&gt;[root] aws_route53_record.www (expand)</title>
<path fill="none" stroke="black" d="M1117.33,-361.19C1053.18,-350.88 967.93,-336.96 892.67,-324 891.66,-323.83 890.66,-323.65 889.65,-323.48"/>
<polygon fill="black" stroke="black" points="890.59,-320.09 880.14,-321.82 889.39,-326.99 890.59,-320.09"/>
</g>
<!-- [root] provider[&quot;registry.terraform.io/hashicorp/aws&quot;] (close)&#45;&gt;[root] aws_s3_bucket_acl.www (expand) -->
<g id="edge31" class="edge">
<title>[root] provider[&quot;registry.terraform.io/hashicorp/aws&quot;] (close)&#45;&gt;[root] aws_s3_bucket_acl.www (expand)</title>
<path fill="none" stroke="black" d="M1227.09,-359.83C1237.01,-341.04 1248.66,-310.6 1235.67,-288 1228.48,-275.49 1217.07,-265.66 1204.74,-258.04"/>
<polygon fill="black" stroke="black" points="1206.46,-254.99 1196.03,-253.14 1203.03,-261.09 1206.46,-254.99"/>
</g>
<!-- [root] provider[&quot;registry.terraform.io/hashicorp/aws&quot;] (close)&#45;&gt;[root] aws_s3_bucket_policy.allow_access_from_anyone (expand) -->
<g id="edge32" class="edge">
<title>[root] provider[&quot;registry.terraform.io/hashicorp/aws&quot;] (close)&#45;&gt;[root] aws_s3_bucket_policy.allow_access_from_anyone (expand)</title>
<path fill="none" stroke="black" d="M1183.05,-359.7C1165.39,-350.61 1143.54,-339.36 1124.57,-329.6"/>
<polygon fill="black" stroke="black" points="1126.21,-326.5 1115.71,-325.04 1123,-332.73 1126.21,-326.5"/>
</g>
<!-- [root] provider[&quot;registry.terraform.io/hashicorp/aws&quot;] (close)&#45;&gt;[root] aws_s3_bucket_versioning.www (expand) -->
<g id="edge33" class="edge">
<title>[root] provider[&quot;registry.terraform.io/hashicorp/aws&quot;] (close)&#45;&gt;[root] aws_s3_bucket_versioning.www (expand)</title>
<path fill="none" stroke="black" d="M1049.82,-364.84C1007.55,-356.95 963.45,-344.27 925.67,-324 917.53,-319.64 835.83,-232.78 794.44,-188.5"/>
<polygon fill="black" stroke="black" points="797.15,-186.27 787.76,-181.35 792.03,-191.05 797.15,-186.27"/>
</g>
<!-- [root] provider[&quot;terraform.io/builtin/terraform&quot;] (close) -->
<g id="node24" class="node">
<title>[root] provider[&quot;terraform.io/builtin/terraform&quot;] (close)</title>
<ellipse fill="none" stroke="black" cx="1689.67" cy="-378" rx="217.18" ry="18"/>
<text text-anchor="middle" x="1689.67" y="-372.95" font-family="Times,serif" font-size="14.00">[root] provider[&quot;terraform.io/builtin/terraform&quot;] (close)</text>
</g>
<!-- [root] provider[&quot;terraform.io/builtin/terraform&quot;] (close)&#45;&gt;[root] data.terraform_remote_state.root (expand) -->
<g id="edge34" class="edge">
<title>[root] provider[&quot;terraform.io/builtin/terraform&quot;] (close)&#45;&gt;[root] data.terraform_remote_state.root (expand)</title>
<path fill="none" stroke="black" d="M1706.5,-359.98C1734.05,-329.96 1783.1,-266.07 1755.67,-216 1748.92,-203.7 1737.98,-193.83 1726.21,-186.11"/>
<polygon fill="black" stroke="black" points="1728.34,-183.31 1717.96,-181.15 1724.73,-189.31 1728.34,-183.31"/>
</g>
<!-- [root] root -->
<g id="node25" class="node">
<title>[root] root</title>
<ellipse fill="none" stroke="black" cx="798.67" cy="-450" rx="49.3" ry="18"/>
<text text-anchor="middle" x="798.67" y="-444.95" font-family="Times,serif" font-size="14.00">[root] root</text>
</g>
<!-- [root] root&#45;&gt;[root] var.root_domain_name -->
<g id="edge41" class="edge">
<title>[root] root&#45;&gt;[root] var.root_domain_name</title>
<path fill="none" stroke="black" d="M848.18,-449.46C1003.77,-450.3 1496.71,-448.44 1913.83,-396.08"/>
<polygon fill="black" stroke="black" points="1914.24,-399.56 1923.72,-394.83 1913.35,-392.62 1914.24,-399.56"/>
</g>
<!-- [root] root&#45;&gt;[root] output.cloudfront_url (expand) -->
<g id="edge35" class="edge">
<title>[root] root&#45;&gt;[root] output.cloudfront_url (expand)</title>
<path fill="none" stroke="black" d="M755.22,-441.04C695.29,-430.06 585.83,-410 507.59,-395.66"/>
<polygon fill="black" stroke="black" points="508.24,-392.22 497.77,-393.86 506.98,-399.11 508.24,-392.22"/>
</g>
<!-- [root] root&#45;&gt;[root] output.cloudfront_www_id (expand) -->
<g id="edge36" class="edge">
<title>[root] root&#45;&gt;[root] output.cloudfront_www_id (expand)</title>
<path fill="none" stroke="black" d="M763.36,-437.15C736.04,-427.46 697.62,-412.68 665.67,-396 628.87,-376.8 589.55,-350.09 562.89,-330.95"/>
<polygon fill="black" stroke="black" points="565.05,-328.19 554.9,-325.16 560.94,-333.86 565.05,-328.19"/>
</g>
<!-- [root] root&#45;&gt;[root] output.s3_website_url (expand) -->
<g id="edge37" class="edge">
<title>[root] root&#45;&gt;[root] output.s3_website_url (expand)</title>
<path fill="none" stroke="black" d="M749.3,-447.84C633.33,-444.53 346.67,-432.77 258.67,-396 224.96,-381.92 193.75,-353.43 173.84,-332.46"/>
<polygon fill="black" stroke="black" points="176.67,-330.36 167.31,-325.39 171.53,-335.11 176.67,-330.36"/>
</g>
<!-- [root] root&#45;&gt;[root] output.site_url (expand) -->
<g id="edge38" class="edge">
<title>[root] root&#45;&gt;[root] output.site_url (expand)</title>
<path fill="none" stroke="black" d="M798.67,-431.7C798.67,-424.41 798.67,-415.73 798.67,-407.54"/>
<polygon fill="black" stroke="black" points="802.17,-407.62 798.67,-397.62 795.17,-407.62 802.17,-407.62"/>
</g>
<!-- [root] root&#45;&gt;[root] provider[&quot;registry.terraform.io/hashicorp/aws&quot;] (close) -->
<g id="edge39" class="edge">
<title>[root] root&#45;&gt;[root] provider[&quot;registry.terraform.io/hashicorp/aws&quot;] (close)</title>
<path fill="none" stroke="black" d="M843,-441.58C906.11,-431.01 1023.75,-411.31 1110.24,-396.82"/>
<polygon fill="black" stroke="black" points="1110.65,-400.3 1119.93,-395.2 1109.49,-393.4 1110.65,-400.3"/>
</g>
<!-- [root] root&#45;&gt;[root] provider[&quot;terraform.io/builtin/terraform&quot;] (close) -->
<g id="edge40" class="edge">
<title>[root] root&#45;&gt;[root] provider[&quot;terraform.io/builtin/terraform&quot;] (close)</title>
<path fill="none" stroke="black" d="M846.57,-445.24C972.48,-435.34 1317.32,-408.25 1524.9,-391.94"/>
<polygon fill="black" stroke="black" points="1525.02,-395.45 1534.71,-391.17 1524.47,-388.47 1525.02,-395.45"/>
</g>
</g>
</svg>
