<?xml version="1.0" encoding="UTF-8" standalone="no"?>
<!DOCTYPE svg PUBLIC "-//W3C//DTD SVG 1.1//EN"
 "http://www.w3.org/Graphics/SVG/1.1/DTD/svg11.dtd">
<!-- Generated by graphviz version 12.0.0 (20240704.0754)
 -->
<!-- Pages: 1 -->
<svg width="2450pt" height="404pt"
 viewBox="0.00 0.00 2449.75 404.00" xmlns="http://www.w3.org/2000/svg" xmlns:xlink="http://www.w3.org/1999/xlink">
<g id="graph0" class="graph" transform="scale(1 1) rotate(0) translate(4 400)">
<polygon fill="white" stroke="none" points="-4,4 -4,-400 2445.75,-400 2445.75,4 -4,4"/>
<!-- [root] aws_cloudfront_distribution.www_distribution (expand) -->
<g id="node1" class="node">
<title>[root] aws_cloudfront_distribution.www_distribution (expand)</title>
<polygon fill="none" stroke="black" points="1054.88,-252 783.88,-252 783.88,-216 1054.88,-216 1054.88,-252"/>
<text text-anchor="middle" x="919.38" y="-228.95" font-family="Times,serif" font-size="14.00">aws_cloudfront_distribution.www_distribution</text>
</g>
<!-- [root] aws_s3_bucket_website_configuration.www (expand) -->
<g id="node15" class="node">
<title>[root] aws_s3_bucket_website_configuration.www (expand)</title>
<polygon fill="none" stroke="black" points="789.88,-180 530.88,-180 530.88,-144 789.88,-144 789.88,-180"/>
<text text-anchor="middle" x="660.38" y="-156.95" font-family="Times,serif" font-size="14.00">aws_s3_bucket_website_configuration.www</text>
</g>
<!-- [root] aws_cloudfront_distribution.www_distribution (expand)&#45;&gt;[root] aws_s3_bucket_website_configuration.www (expand) -->
<g id="edge1" class="edge">
<title>[root] aws_cloudfront_distribution.www_distribution (expand)&#45;&gt;[root] aws_s3_bucket_website_configuration.www (expand)</title>
<path fill="none" stroke="black" d="M854.69,-215.52C818.55,-205.75 773.34,-193.53 735.62,-183.34"/>
<polygon fill="black" stroke="black" points="736.72,-180.01 726.15,-180.78 734.89,-186.76 736.72,-180.01"/>
</g>
<!-- [root] data.terraform_remote_state.root (expand) -->
<g id="node16" class="node">
<title>[root] data.terraform_remote_state.root (expand)</title>
<polygon fill="none" stroke="black" points="1803.38,-180 1607.38,-180 1607.38,-144 1803.38,-144 1803.38,-180"/>
<text text-anchor="middle" x="1705.38" y="-156.95" font-family="Times,serif" font-size="14.00">data.terraform_remote_state.root</text>
</g>
<!-- [root] aws_cloudfront_distribution.www_distribution (expand)&#45;&gt;[root] data.terraform_remote_state.root (expand) -->
<g id="edge2" class="edge">
<title>[root] aws_cloudfront_distribution.www_distribution (expand)&#45;&gt;[root] data.terraform_remote_state.root (expand)</title>
<path fill="none" stroke="black" d="M1054.94,-220.93C1208.01,-207.29 1454.12,-185.38 1595.65,-172.77"/>
<polygon fill="black" stroke="black" points="1595.75,-176.28 1605.4,-171.9 1595.13,-169.3 1595.75,-176.28"/>
</g>
<!-- [root] aws_route53_record.a (expand) -->
<g id="node2" class="node">
<title>[root] aws_route53_record.a (expand)</title>
<polygon fill="none" stroke="black" points="1493.38,-252 1357.38,-252 1357.38,-216 1493.38,-216 1493.38,-252"/>
<text text-anchor="middle" x="1425.38" y="-228.95" font-family="Times,serif" font-size="14.00">aws_route53_record.a</text>
</g>
<!-- [root] aws_route53_record.a (expand)&#45;&gt;[root] data.terraform_remote_state.root (expand) -->
<g id="edge3" class="edge">
<title>[root] aws_route53_record.a (expand)&#45;&gt;[root] data.terraform_remote_state.root (expand)</title>
<path fill="none" stroke="black" d="M1493.87,-215.88C1533.32,-206.01 1583.12,-193.56 1624.49,-183.22"/>
<polygon fill="black" stroke="black" points="1625.32,-186.62 1634.17,-180.8 1623.62,-179.83 1625.32,-186.62"/>
</g>
<!-- [root] provider[&quot;registry.terraform.io/hashicorp/aws&quot;] -->
<g id="node17" class="node">
<title>[root] provider[&quot;registry.terraform.io/hashicorp/aws&quot;]</title>
<polygon fill="none" stroke="black" points="1614.38,-36 1349.94,-18 1614.38,0 1878.81,-18 1614.38,-36"/>
<text text-anchor="middle" x="1614.38" y="-12.95" font-family="Times,serif" font-size="14.00">provider[&quot;registry.terraform.io/hashicorp/aws&quot;]</text>
</g>
<!-- [root] aws_route53_record.a (expand)&#45;&gt;[root] provider[&quot;registry.terraform.io/hashicorp/aws&quot;] -->
<g id="edge4" class="edge">
<title>[root] aws_route53_record.a (expand)&#45;&gt;[root] provider[&quot;registry.terraform.io/hashicorp/aws&quot;]</title>
<path fill="none" stroke="black" d="M1424.13,-215.54C1422.82,-183.08 1424.76,-113.03 1461.38,-72 1477.37,-54.08 1499.74,-42.21 1522.44,-34.36"/>
<polygon fill="black" stroke="black" points="1523.32,-37.75 1531.79,-31.38 1521.2,-31.08 1523.32,-37.75"/>
</g>
<!-- [root] aws_route53_record.dkim (expand) -->
<g id="node3" class="node">
<title>[root] aws_route53_record.dkim (expand)</title>
<polygon fill="none" stroke="black" points="1669.62,-252 1511.12,-252 1511.12,-216 1669.62,-216 1669.62,-252"/>
<text text-anchor="middle" x="1590.38" y="-228.95" font-family="Times,serif" font-size="14.00">aws_route53_record.dkim</text>
</g>
<!-- [root] aws_route53_record.dkim (expand)&#45;&gt;[root] data.terraform_remote_state.root (expand) -->
<g id="edge5" class="edge">
<title>[root] aws_route53_record.dkim (expand)&#45;&gt;[root] data.terraform_remote_state.root (expand)</title>
<path fill="none" stroke="black" d="M1619.1,-215.52C1633.75,-206.6 1651.77,-195.63 1667.54,-186.03"/>
<polygon fill="black" stroke="black" points="1669,-189.24 1675.73,-181.05 1665.36,-183.26 1669,-189.24"/>
</g>
<!-- [root] aws_route53_record.dkim (expand)&#45;&gt;[root] provider[&quot;registry.terraform.io/hashicorp/aws&quot;] -->
<g id="edge6" class="edge">
<title>[root] aws_route53_record.dkim (expand)&#45;&gt;[root] provider[&quot;registry.terraform.io/hashicorp/aws&quot;]</title>
<path fill="none" stroke="black" d="M1561.51,-215.51C1516.68,-186.09 1439.03,-124.75 1475.38,-72 1487.42,-54.51 1506.07,-42.79 1525.84,-34.94"/>
<polygon fill="black" stroke="black" points="1526.93,-38.26 1535.14,-31.58 1524.55,-31.68 1526.93,-38.26"/>
</g>
<!-- [root] aws_route53_record.dmarc (expand) -->
<g id="node4" class="node">
<title>[root] aws_route53_record.dmarc (expand)</title>
<polygon fill="none" stroke="black" points="1889.62,-252 1725.12,-252 1725.12,-216 1889.62,-216 1889.62,-252"/>
<text text-anchor="middle" x="1807.38" y="-228.95" font-family="Times,serif" font-size="14.00">aws_route53_record.dmarc</text>
</g>
<!-- [root] aws_route53_record.dmarc (expand)&#45;&gt;[root] data.terraform_remote_state.root (expand) -->
<g id="edge7" class="edge">
<title>[root] aws_route53_record.dmarc (expand)&#45;&gt;[root] data.terraform_remote_state.root (expand)</title>
<path fill="none" stroke="black" d="M1781.9,-215.52C1769.15,-206.76 1753.52,-196.04 1739.73,-186.58"/>
<polygon fill="black" stroke="black" points="1742,-183.89 1731.77,-181.12 1738.04,-189.66 1742,-183.89"/>
</g>
<!-- [root] aws_route53_record.dmarc (expand)&#45;&gt;[root] provider[&quot;registry.terraform.io/hashicorp/aws&quot;] -->
<g id="edge8" class="edge">
<title>[root] aws_route53_record.dmarc (expand)&#45;&gt;[root] provider[&quot;registry.terraform.io/hashicorp/aws&quot;]</title>
<path fill="none" stroke="black" d="M1847.06,-215.55C1907.39,-186.69 2010.44,-126.75 1963.38,-72 1940.95,-45.92 1871.1,-32.52 1799.72,-25.69"/>
<polygon fill="black" stroke="black" points="1800.04,-22.21 1789.77,-24.79 1799.41,-29.18 1800.04,-22.21"/>
</g>
<!-- [root] aws_route53_record.mx (expand) -->
<g id="node5" class="node">
<title>[root] aws_route53_record.mx (expand)</title>
<polygon fill="none" stroke="black" points="2055.38,-252 1907.38,-252 1907.38,-216 2055.38,-216 2055.38,-252"/>
<text text-anchor="middle" x="1981.38" y="-228.95" font-family="Times,serif" font-size="14.00">aws_route53_record.mx</text>
</g>
<!-- [root] aws_route53_record.mx (expand)&#45;&gt;[root] data.terraform_remote_state.root (expand) -->
<g id="edge9" class="edge">
<title>[root] aws_route53_record.mx (expand)&#45;&gt;[root] data.terraform_remote_state.root (expand)</title>
<path fill="none" stroke="black" d="M1912.44,-215.52C1873.77,-205.71 1825.34,-193.43 1785.04,-183.21"/>
<polygon fill="black" stroke="black" points="1785.93,-179.82 1775.38,-180.75 1784.21,-186.6 1785.93,-179.82"/>
</g>
<!-- [root] aws_route53_record.mx (expand)&#45;&gt;[root] provider[&quot;registry.terraform.io/hashicorp/aws&quot;] -->
<g id="edge10" class="edge">
<title>[root] aws_route53_record.mx (expand)&#45;&gt;[root] provider[&quot;registry.terraform.io/hashicorp/aws&quot;]</title>
<path fill="none" stroke="black" d="M1988.03,-215.7C1999.29,-183.21 2017.61,-112.67 1982.38,-72 1958.98,-45 1887.02,-31.44 1812.86,-24.74"/>
<polygon fill="black" stroke="black" points="1813.2,-21.26 1802.93,-23.9 1812.6,-28.23 1813.2,-21.26"/>
</g>
<!-- [root] aws_route53_record.txt (expand) -->
<g id="node6" class="node">
<title>[root] aws_route53_record.txt (expand)</title>
<polygon fill="none" stroke="black" points="2397.5,-252 2253.25,-252 2253.25,-216 2397.5,-216 2397.5,-252"/>
<text text-anchor="middle" x="2325.38" y="-228.95" font-family="Times,serif" font-size="14.00">aws_route53_record.txt</text>
</g>
<!-- [root] aws_route53_record.txt (expand)&#45;&gt;[root] data.terraform_remote_state.root (expand) -->
<g id="edge11" class="edge">
<title>[root] aws_route53_record.txt (expand)&#45;&gt;[root] data.terraform_remote_state.root (expand)</title>
<path fill="none" stroke="black" d="M2253.02,-217.41C2250.11,-216.91 2247.22,-216.44 2244.38,-216 2096.49,-193.28 1924.21,-178.33 1814.99,-170.26"/>
<polygon fill="black" stroke="black" points="1815.38,-166.78 1805.15,-169.54 1814.87,-173.76 1815.38,-166.78"/>
</g>
<!-- [root] aws_route53_record.txt (expand)&#45;&gt;[root] provider[&quot;registry.terraform.io/hashicorp/aws&quot;] -->
<g id="edge12" class="edge">
<title>[root] aws_route53_record.txt (expand)&#45;&gt;[root] provider[&quot;registry.terraform.io/hashicorp/aws&quot;]</title>
<path fill="none" stroke="black" d="M2302.29,-215.58C2255.87,-181.56 2146.73,-106.61 2042.38,-72 1964.31,-46.11 1874.44,-32.68 1797.26,-25.78"/>
<polygon fill="black" stroke="black" points="1797.74,-22.31 1787.48,-24.94 1797.14,-29.29 1797.74,-22.31"/>
</g>
<!-- [root] aws_route53_record.verify (expand) -->
<g id="node7" class="node">
<title>[root] aws_route53_record.verify (expand)</title>
<polygon fill="none" stroke="black" points="2235.5,-252 2073.25,-252 2073.25,-216 2235.5,-216 2235.5,-252"/>
<text text-anchor="middle" x="2154.38" y="-228.95" font-family="Times,serif" font-size="14.00">aws_route53_record.verify</text>
</g>
<!-- [root] aws_route53_record.verify (expand)&#45;&gt;[root] data.terraform_remote_state.root (expand) -->
<g id="edge13" class="edge">
<title>[root] aws_route53_record.verify (expand)&#45;&gt;[root] data.terraform_remote_state.root (expand)</title>
<path fill="none" stroke="black" d="M2072.97,-217.47C2070.07,-216.97 2067.2,-216.47 2064.38,-216 1980.93,-201.96 1886.22,-188.07 1815.04,-178.03"/>
<polygon fill="black" stroke="black" points="1815.71,-174.59 1805.32,-176.66 1814.74,-181.52 1815.71,-174.59"/>
</g>
<!-- [root] aws_route53_record.verify (expand)&#45;&gt;[root] provider[&quot;registry.terraform.io/hashicorp/aws&quot;] -->
<g id="edge14" class="edge">
<title>[root] aws_route53_record.verify (expand)&#45;&gt;[root] provider[&quot;registry.terraform.io/hashicorp/aws&quot;]</title>
<path fill="none" stroke="black" d="M2143.99,-215.51C2122.66,-181.36 2070.35,-106.17 2004.38,-72 1962.18,-50.14 1850.7,-36.39 1757.68,-28.39"/>
<polygon fill="black" stroke="black" points="1758.2,-24.92 1747.95,-27.57 1757.62,-31.9 1758.2,-24.92"/>
</g>
<!-- [root] aws_route53_record.www (expand) -->
<g id="node8" class="node">
<title>[root] aws_route53_record.www (expand)</title>
<polygon fill="none" stroke="black" points="1339,-252 1179.75,-252 1179.75,-216 1339,-216 1339,-252"/>
<text text-anchor="middle" x="1259.38" y="-228.95" font-family="Times,serif" font-size="14.00">aws_route53_record.www</text>
</g>
<!-- [root] aws_route53_record.www (expand)&#45;&gt;[root] data.terraform_remote_state.root (expand) -->
<g id="edge15" class="edge">
<title>[root] aws_route53_record.www (expand)&#45;&gt;[root] data.terraform_remote_state.root (expand)</title>
<path fill="none" stroke="black" d="M1339.4,-217.55C1342.43,-217.02 1345.43,-216.5 1348.38,-216 1431.2,-201.95 1525.2,-188.08 1595.94,-178.05"/>
<polygon fill="black" stroke="black" points="1596.18,-181.55 1605.59,-176.69 1595.2,-174.62 1596.18,-181.55"/>
</g>
<!-- [root] aws_route53_record.www (expand)&#45;&gt;[root] provider[&quot;registry.terraform.io/hashicorp/aws&quot;] -->
<g id="edge16" class="edge">
<title>[root] aws_route53_record.www (expand)&#45;&gt;[root] provider[&quot;registry.terraform.io/hashicorp/aws&quot;]</title>
<path fill="none" stroke="black" d="M1289.57,-215.59C1305.13,-205.98 1324.02,-193.32 1339.38,-180 1387.88,-137.91 1381.17,-106.44 1435.38,-72 1463.52,-54.12 1497.94,-42.05 1529.06,-34.01"/>
<polygon fill="black" stroke="black" points="1529.58,-37.49 1538.45,-31.7 1527.9,-30.69 1529.58,-37.49"/>
</g>
<!-- [root] var.www_domain_name -->
<g id="node20" class="node">
<title>[root] var.www_domain_name</title>
<polygon fill="none" stroke="black" points="1253.5,-36 1109.25,-36 1109.25,0 1259.5,0 1259.5,-30 1253.5,-36"/>
<polyline fill="none" stroke="black" points="1253.5,-36 1253.5,-30"/>
<polyline fill="none" stroke="black" points="1259.5,-30 1253.5,-30"/>
<text text-anchor="middle" x="1184.38" y="-12.95" font-family="Times,serif" font-size="14.00">var.www_domain_name</text>
</g>
<!-- [root] aws_route53_record.www (expand)&#45;&gt;[root] var.www_domain_name -->
<g id="edge17" class="edge">
<title>[root] aws_route53_record.www (expand)&#45;&gt;[root] var.www_domain_name</title>
<path fill="none" stroke="black" d="M1290.48,-215.67C1303.16,-206.81 1316.44,-194.75 1323.38,-180 1330.18,-165.52 1329.89,-158.61 1323.38,-144 1303.48,-99.35 1258.87,-63.96 1225.52,-42.4"/>
<polygon fill="black" stroke="black" points="1227.62,-39.59 1217.29,-37.23 1223.9,-45.51 1227.62,-39.59"/>
</g>
<!-- [root] aws_s3_bucket.www (expand) -->
<g id="node9" class="node">
<title>[root] aws_s3_bucket.www (expand)</title>
<polygon fill="none" stroke="black" points="1020.12,-108 888.62,-108 888.62,-72 1020.12,-72 1020.12,-108"/>
<text text-anchor="middle" x="954.38" y="-84.95" font-family="Times,serif" font-size="14.00">aws_s3_bucket.www</text>
</g>
<!-- [root] aws_s3_bucket.www (expand)&#45;&gt;[root] provider[&quot;registry.terraform.io/hashicorp/aws&quot;] -->
<g id="edge18" class="edge">
<title>[root] aws_s3_bucket.www (expand)&#45;&gt;[root] provider[&quot;registry.terraform.io/hashicorp/aws&quot;]</title>
<path fill="none" stroke="black" d="M1020.38,-82C1133.18,-70.04 1364.27,-45.53 1502.61,-30.85"/>
<polygon fill="black" stroke="black" points="1502.97,-34.34 1512.55,-29.8 1502.23,-27.37 1502.97,-34.34"/>
</g>
<!-- [root] aws_s3_bucket.www (expand)&#45;&gt;[root] var.www_domain_name -->
<g id="edge19" class="edge">
<title>[root] aws_s3_bucket.www (expand)&#45;&gt;[root] var.www_domain_name</title>
<path fill="none" stroke="black" d="M1011.82,-71.52C1043.5,-61.88 1083.03,-49.84 1116.26,-39.73"/>
<polygon fill="black" stroke="black" points="1117.27,-43.08 1125.82,-36.82 1115.23,-36.39 1117.27,-43.08"/>
</g>
<!-- [root] aws_s3_bucket_acl.www (expand) -->
<g id="node10" class="node">
<title>[root] aws_s3_bucket_acl.www (expand)</title>
<polygon fill="none" stroke="black" points="464.38,-252 310.38,-252 310.38,-216 464.38,-216 464.38,-252"/>
<text text-anchor="middle" x="387.38" y="-228.95" font-family="Times,serif" font-size="14.00">aws_s3_bucket_acl.www</text>
</g>
<!-- [root] aws_s3_bucket_ownership_controls.www (expand) -->
<g id="node11" class="node">
<title>[root] aws_s3_bucket_ownership_controls.www (expand)</title>
<polygon fill="none" stroke="black" points="244.75,-180 0,-180 0,-144 244.75,-144 244.75,-180"/>
<text text-anchor="middle" x="122.38" y="-156.95" font-family="Times,serif" font-size="14.00">aws_s3_bucket_ownership_controls.www</text>
</g>
<!-- [root] aws_s3_bucket_acl.www (expand)&#45;&gt;[root] aws_s3_bucket_ownership_controls.www (expand) -->
<g id="edge20" class="edge">
<title>[root] aws_s3_bucket_acl.www (expand)&#45;&gt;[root] aws_s3_bucket_ownership_controls.www (expand)</title>
<path fill="none" stroke="black" d="M321.19,-215.52C284.05,-205.71 237.56,-193.43 198.87,-183.21"/>
<polygon fill="black" stroke="black" points="200.2,-179.94 189.64,-180.77 198.42,-186.71 200.2,-179.94"/>
</g>
<!-- [root] aws_s3_bucket_public_access_block.www (expand) -->
<g id="node13" class="node">
<title>[root] aws_s3_bucket_public_access_block.www (expand)</title>
<polygon fill="none" stroke="black" points="512.38,-180 262.38,-180 262.38,-144 512.38,-144 512.38,-180"/>
<text text-anchor="middle" x="387.38" y="-156.95" font-family="Times,serif" font-size="14.00">aws_s3_bucket_public_access_block.www</text>
</g>
<!-- [root] aws_s3_bucket_acl.www (expand)&#45;&gt;[root] aws_s3_bucket_public_access_block.www (expand) -->
<g id="edge21" class="edge">
<title>[root] aws_s3_bucket_acl.www (expand)&#45;&gt;[root] aws_s3_bucket_public_access_block.www (expand)</title>
<path fill="none" stroke="black" d="M387.38,-215.7C387.38,-208.41 387.38,-199.73 387.38,-191.54"/>
<polygon fill="black" stroke="black" points="390.88,-191.62 387.38,-181.62 383.88,-191.62 390.88,-191.62"/>
</g>
<!-- [root] aws_s3_bucket_ownership_controls.www (expand)&#45;&gt;[root] aws_s3_bucket.www (expand) -->
<g id="edge22" class="edge">
<title>[root] aws_s3_bucket_ownership_controls.www (expand)&#45;&gt;[root] aws_s3_bucket.www (expand)</title>
<path fill="none" stroke="black" d="M245.08,-144.87C247.87,-144.57 250.64,-144.28 253.38,-144 479.66,-120.78 748.01,-103.28 877.24,-95.48"/>
<polygon fill="black" stroke="black" points="877.27,-98.98 887.04,-94.89 876.85,-91.99 877.27,-98.98"/>
</g>
<!-- [root] aws_s3_bucket_policy.allow_access_from_anyone (expand) -->
<g id="node12" class="node">
<title>[root] aws_s3_bucket_policy.allow_access_from_anyone (expand)</title>
<polygon fill="none" stroke="black" points="1100.75,-180 808,-180 808,-144 1100.75,-144 1100.75,-180"/>
<text text-anchor="middle" x="954.38" y="-156.95" font-family="Times,serif" font-size="14.00">aws_s3_bucket_policy.allow_access_from_anyone</text>
</g>
<!-- [root] aws_s3_bucket_policy.allow_access_from_anyone (expand)&#45;&gt;[root] aws_s3_bucket.www (expand) -->
<g id="edge23" class="edge">
<title>[root] aws_s3_bucket_policy.allow_access_from_anyone (expand)&#45;&gt;[root] aws_s3_bucket.www (expand)</title>
<path fill="none" stroke="black" d="M954.38,-143.7C954.38,-136.41 954.38,-127.73 954.38,-119.54"/>
<polygon fill="black" stroke="black" points="957.88,-119.62 954.38,-109.62 950.88,-119.62 957.88,-119.62"/>
</g>
<!-- [root] aws_s3_bucket_public_access_block.www (expand)&#45;&gt;[root] aws_s3_bucket.www (expand) -->
<g id="edge24" class="edge">
<title>[root] aws_s3_bucket_public_access_block.www (expand)&#45;&gt;[root] aws_s3_bucket.www (expand)</title>
<path fill="none" stroke="black" d="M512.55,-145.1C515.52,-144.73 518.47,-144.36 521.38,-144 645.8,-128.49 790.4,-110.87 877.03,-100.36"/>
<polygon fill="black" stroke="black" points="877.33,-103.85 886.84,-99.17 876.49,-96.9 877.33,-103.85"/>
</g>
<!-- [root] aws_s3_bucket_versioning.www (expand) -->
<g id="node14" class="node">
<title>[root] aws_s3_bucket_versioning.www (expand)</title>
<polygon fill="none" stroke="black" points="1314,-180 1118.75,-180 1118.75,-144 1314,-144 1314,-180"/>
<text text-anchor="middle" x="1216.38" y="-156.95" font-family="Times,serif" font-size="14.00">aws_s3_bucket_versioning.www</text>
</g>
<!-- [root] aws_s3_bucket_versioning.www (expand)&#45;&gt;[root] aws_s3_bucket.www (expand) -->
<g id="edge25" class="edge">
<title>[root] aws_s3_bucket_versioning.www (expand)&#45;&gt;[root] aws_s3_bucket.www (expand)</title>
<path fill="none" stroke="black" d="M1150.94,-143.52C1114.38,-133.75 1068.65,-121.53 1030.49,-111.34"/>
<polygon fill="black" stroke="black" points="1031.46,-107.97 1020.89,-108.77 1029.65,-114.74 1031.46,-107.97"/>
</g>
<!-- [root] aws_s3_bucket_website_configuration.www (expand)&#45;&gt;[root] aws_s3_bucket.www (expand) -->
<g id="edge26" class="edge">
<title>[root] aws_s3_bucket_website_configuration.www (expand)&#45;&gt;[root] aws_s3_bucket.www (expand)</title>
<path fill="none" stroke="black" d="M733.81,-143.52C777.55,-133.1 833.01,-119.9 877.37,-109.33"/>
<polygon fill="black" stroke="black" points="878,-112.78 886.92,-107.06 876.38,-105.97 878,-112.78"/>
</g>
<!-- [root] provider[&quot;terraform.io/builtin/terraform&quot;] -->
<g id="node18" class="node">
<title>[root] provider[&quot;terraform.io/builtin/terraform&quot;]</title>
<polygon fill="none" stroke="black" points="1719.38,-108 1484.62,-90 1719.38,-72 1954.13,-90 1719.38,-108"/>
<text text-anchor="middle" x="1719.38" y="-84.95" font-family="Times,serif" font-size="14.00">provider[&quot;terraform.io/builtin/terraform&quot;]</text>
</g>
<!-- [root] data.terraform_remote_state.root (expand)&#45;&gt;[root] provider[&quot;terraform.io/builtin/terraform&quot;] -->
<g id="edge27" class="edge">
<title>[root] data.terraform_remote_state.root (expand)&#45;&gt;[root] provider[&quot;terraform.io/builtin/terraform&quot;]</title>
<path fill="none" stroke="black" d="M1708.84,-143.7C1710.31,-136.32 1712.07,-127.52 1713.72,-119.25"/>
<polygon fill="black" stroke="black" points="1717.13,-120.08 1715.66,-109.59 1710.26,-118.71 1717.13,-120.08"/>
</g>
<!-- [root] var.root_domain_name -->
<g id="node19" class="node">
<title>[root] var.root_domain_name</title>
<polygon fill="none" stroke="black" points="2435.75,-324 2299,-324 2299,-288 2441.75,-288 2441.75,-318 2435.75,-324"/>
<polyline fill="none" stroke="black" points="2435.75,-324 2435.75,-318"/>
<polyline fill="none" stroke="black" points="2441.75,-318 2435.75,-318"/>
<text text-anchor="middle" x="2370.38" y="-300.95" font-family="Times,serif" font-size="14.00">var.root_domain_name</text>
</g>
<!-- [root] output.cloudfront_url (expand) -->
<g id="node21" class="node">
<title>[root] output.cloudfront_url (expand)</title>
<ellipse fill="none" stroke="black" cx="919.38" cy="-306" rx="149.11" ry="18"/>
<text text-anchor="middle" x="919.38" y="-300.95" font-family="Times,serif" font-size="14.00">[root] output.cloudfront_url (expand)</text>
</g>
<!-- [root] output.cloudfront_url (expand)&#45;&gt;[root] aws_cloudfront_distribution.www_distribution (expand) -->
<g id="edge28" class="edge">
<title>[root] output.cloudfront_url (expand)&#45;&gt;[root] aws_cloudfront_distribution.www_distribution (expand)</title>
<path fill="none" stroke="black" d="M919.38,-287.7C919.38,-280.41 919.38,-271.73 919.38,-263.54"/>
<polygon fill="black" stroke="black" points="922.88,-263.62 919.38,-253.62 915.88,-263.62 922.88,-263.62"/>
</g>
<!-- [root] output.cloudfront_www_id (expand) -->
<g id="node22" class="node">
<title>[root] output.cloudfront_www_id (expand)</title>
<ellipse fill="none" stroke="black" cx="581.38" cy="-306" rx="170.6" ry="18"/>
<text text-anchor="middle" x="581.38" y="-300.95" font-family="Times,serif" font-size="14.00">[root] output.cloudfront_www_id (expand)</text>
</g>
<!-- [root] output.cloudfront_www_id (expand)&#45;&gt;[root] aws_cloudfront_distribution.www_distribution (expand) -->
<g id="edge29" class="edge">
<title>[root] output.cloudfront_www_id (expand)&#45;&gt;[root] aws_cloudfront_distribution.www_distribution (expand)</title>
<path fill="none" stroke="black" d="M656.39,-289.46C705.78,-279.24 770.87,-265.76 823.93,-254.77"/>
<polygon fill="black" stroke="black" points="824.5,-258.22 833.58,-252.77 823.08,-251.37 824.5,-258.22"/>
</g>
<!-- [root] output.s3_website_url (expand) -->
<g id="node23" class="node">
<title>[root] output.s3_website_url (expand)</title>
<ellipse fill="none" stroke="black" cx="241.38" cy="-306" rx="151.67" ry="18"/>
<text text-anchor="middle" x="241.38" y="-300.95" font-family="Times,serif" font-size="14.00">[root] output.s3_website_url (expand)</text>
</g>
<!-- [root] output.s3_website_url (expand)&#45;&gt;[root] aws_s3_bucket_website_configuration.www (expand) -->
<g id="edge30" class="edge">
<title>[root] output.s3_website_url (expand)&#45;&gt;[root] aws_s3_bucket_website_configuration.www (expand)</title>
<path fill="none" stroke="black" d="M324.75,-290.56C369.49,-281.67 425.18,-268.75 473.38,-252 525.37,-233.93 582.06,-205.64 619.23,-185.82"/>
<polygon fill="black" stroke="black" points="620.7,-189.01 627.84,-181.19 617.38,-182.84 620.7,-189.01"/>
</g>
<!-- [root] output.site_url (expand) -->
<g id="node24" class="node">
<title>[root] output.site_url (expand)</title>
<ellipse fill="none" stroke="black" cx="1210.38" cy="-306" rx="123.52" ry="18"/>
<text text-anchor="middle" x="1210.38" y="-300.95" font-family="Times,serif" font-size="14.00">[root] output.site_url (expand)</text>
</g>
<!-- [root] output.site_url (expand)&#45;&gt;[root] aws_route53_record.www (expand) -->
<g id="edge31" class="edge">
<title>[root] output.site_url (expand)&#45;&gt;[root] aws_route53_record.www (expand)</title>
<path fill="none" stroke="black" d="M1222.49,-287.7C1228.07,-279.73 1234.81,-270.1 1240.99,-261.26"/>
<polygon fill="black" stroke="black" points="1243.67,-263.54 1246.53,-253.34 1237.93,-259.53 1243.67,-263.54"/>
</g>
<!-- [root] provider[&quot;registry.terraform.io/hashicorp/aws&quot;] (close) -->
<g id="node25" class="node">
<title>[root] provider[&quot;registry.terraform.io/hashicorp/aws&quot;] (close)</title>
<ellipse fill="none" stroke="black" cx="1590.38" cy="-306" rx="238.16" ry="18"/>
<text text-anchor="middle" x="1590.38" y="-300.95" font-family="Times,serif" font-size="14.00">[root] provider[&quot;registry.terraform.io/hashicorp/aws&quot;] (close)</text>
</g>
<!-- [root] provider[&quot;registry.terraform.io/hashicorp/aws&quot;] (close)&#45;&gt;[root] aws_cloudfront_distribution.www_distribution (expand) -->
<g id="edge32" class="edge">
<title>[root] provider[&quot;registry.terraform.io/hashicorp/aws&quot;] (close)&#45;&gt;[root] aws_cloudfront_distribution.www_distribution (expand)</title>
<path fill="none" stroke="black" d="M1454.59,-290.83C1342.02,-279.09 1182.28,-262.43 1066.65,-250.36"/>
<polygon fill="black" stroke="black" points="1067.06,-246.89 1056.75,-249.33 1066.34,-253.85 1067.06,-246.89"/>
</g>
<!-- [root] provider[&quot;registry.terraform.io/hashicorp/aws&quot;] (close)&#45;&gt;[root] aws_route53_record.a (expand) -->
<g id="edge33" class="edge">
<title>[root] provider[&quot;registry.terraform.io/hashicorp/aws&quot;] (close)&#45;&gt;[root] aws_route53_record.a (expand)</title>
<path fill="none" stroke="black" d="M1550.01,-287.88C1528,-278.54 1500.53,-266.88 1476.98,-256.89"/>
<polygon fill="black" stroke="black" points="1478.43,-253.71 1467.86,-253.02 1475.7,-260.15 1478.43,-253.71"/>
</g>
<!-- [root] provider[&quot;registry.terraform.io/hashicorp/aws&quot;] (close)&#45;&gt;[root] aws_route53_record.dkim (expand) -->
<g id="edge34" class="edge">
<title>[root] provider[&quot;registry.terraform.io/hashicorp/aws&quot;] (close)&#45;&gt;[root] aws_route53_record.dkim (expand)</title>
<path fill="none" stroke="black" d="M1590.38,-287.7C1590.38,-280.41 1590.38,-271.73 1590.38,-263.54"/>
<polygon fill="black" stroke="black" points="1593.88,-263.62 1590.38,-253.62 1586.88,-263.62 1593.88,-263.62"/>
</g>
<!-- [root] provider[&quot;registry.terraform.io/hashicorp/aws&quot;] (close)&#45;&gt;[root] aws_route53_record.dmarc (expand) -->
<g id="edge35" class="edge">
<title>[root] provider[&quot;registry.terraform.io/hashicorp/aws&quot;] (close)&#45;&gt;[root] aws_route53_record.dmarc (expand)</title>
<path fill="none" stroke="black" d="M1643.18,-287.97C1673.03,-278.34 1710.6,-266.22 1742.27,-256"/>
<polygon fill="black" stroke="black" points="1743.31,-259.34 1751.76,-252.94 1741.17,-252.68 1743.31,-259.34"/>
</g>
<!-- [root] provider[&quot;registry.terraform.io/hashicorp/aws&quot;] (close)&#45;&gt;[root] aws_route53_record.mx (expand) -->
<g id="edge36" class="edge">
<title>[root] provider[&quot;registry.terraform.io/hashicorp/aws&quot;] (close)&#45;&gt;[root] aws_route53_record.mx (expand)</title>
<path fill="none" stroke="black" d="M1687.27,-289.13C1745.16,-279.46 1820.41,-266.56 1896.03,-252.41"/>
<polygon fill="black" stroke="black" points="1896.52,-255.88 1905.7,-250.6 1895.22,-249 1896.52,-255.88"/>
</g>
<!-- [root] provider[&quot;registry.terraform.io/hashicorp/aws&quot;] (close)&#45;&gt;[root] aws_route53_record.txt (expand) -->
<g id="edge37" class="edge">
<title>[root] provider[&quot;registry.terraform.io/hashicorp/aws&quot;] (close)&#45;&gt;[root] aws_route53_record.txt (expand)</title>
<path fill="none" stroke="black" d="M1755.88,-292.68C1923.66,-280.02 2167.76,-261.11 2241.62,-252.16"/>
<polygon fill="black" stroke="black" points="2242.07,-255.63 2251.53,-250.85 2241.16,-248.69 2242.07,-255.63"/>
</g>
<!-- [root] provider[&quot;registry.terraform.io/hashicorp/aws&quot;] (close)&#45;&gt;[root] aws_route53_record.verify (expand) -->
<g id="edge38" class="edge">
<title>[root] provider[&quot;registry.terraform.io/hashicorp/aws&quot;] (close)&#45;&gt;[root] aws_route53_record.verify (expand)</title>
<path fill="none" stroke="black" d="M1737.28,-291.45C1828.15,-282.39 1947.43,-269.25 2061.92,-252.31"/>
<polygon fill="black" stroke="black" points="2062.12,-255.82 2071.49,-250.88 2061.08,-248.9 2062.12,-255.82"/>
</g>
<!-- [root] provider[&quot;registry.terraform.io/hashicorp/aws&quot;] (close)&#45;&gt;[root] aws_route53_record.www (expand) -->
<g id="edge39" class="edge">
<title>[root] provider[&quot;registry.terraform.io/hashicorp/aws&quot;] (close)&#45;&gt;[root] aws_route53_record.www (expand)</title>
<path fill="none" stroke="black" d="M1512.77,-288.59C1464.17,-278.31 1401.33,-265.02 1350.38,-254.25"/>
<polygon fill="black" stroke="black" points="1351.36,-250.88 1340.85,-252.23 1349.91,-257.72 1351.36,-250.88"/>
</g>
<!-- [root] provider[&quot;registry.terraform.io/hashicorp/aws&quot;] (close)&#45;&gt;[root] aws_s3_bucket_acl.www (expand) -->
<g id="edge40" class="edge">
<title>[root] provider[&quot;registry.terraform.io/hashicorp/aws&quot;] (close)&#45;&gt;[root] aws_s3_bucket_acl.www (expand)</title>
<path fill="none" stroke="black" d="M1420.65,-293.02C1394.77,-291.28 1368.36,-289.55 1343.38,-288 1024.28,-268.17 645.05,-248.22 476.15,-239.53"/>
<polygon fill="black" stroke="black" points="476.52,-236.04 466.36,-239.02 476.16,-243.03 476.52,-236.04"/>
</g>
<!-- [root] provider[&quot;registry.terraform.io/hashicorp/aws&quot;] (close)&#45;&gt;[root] aws_s3_bucket_policy.allow_access_from_anyone (expand) -->
<g id="edge41" class="edge">
<title>[root] provider[&quot;registry.terraform.io/hashicorp/aws&quot;] (close)&#45;&gt;[root] aws_s3_bucket_policy.allow_access_from_anyone (expand)</title>
<path fill="none" stroke="black" d="M1407.26,-294.16C1329.8,-286.59 1239.21,-273.75 1159.38,-252 1128.36,-243.55 1051.6,-208.75 1001.31,-185.25"/>
<polygon fill="black" stroke="black" points="1002.92,-182.14 992.38,-181.06 999.95,-188.48 1002.92,-182.14"/>
</g>
<!-- [root] provider[&quot;registry.terraform.io/hashicorp/aws&quot;] (close)&#45;&gt;[root] aws_s3_bucket_versioning.www (expand) -->
<g id="edge42" class="edge">
<title>[root] provider[&quot;registry.terraform.io/hashicorp/aws&quot;] (close)&#45;&gt;[root] aws_s3_bucket_versioning.www (expand)</title>
<path fill="none" stroke="black" d="M1413.87,-293.58C1306.57,-284.78 1187.05,-270.92 1170.38,-252 1153.74,-233.14 1170.58,-207.19 1188.38,-188.17"/>
<polygon fill="black" stroke="black" points="1190.62,-190.88 1195.17,-181.31 1185.65,-185.95 1190.62,-190.88"/>
</g>
<!-- [root] provider[&quot;terraform.io/builtin/terraform&quot;] (close) -->
<g id="node26" class="node">
<title>[root] provider[&quot;terraform.io/builtin/terraform&quot;] (close)</title>
<ellipse fill="none" stroke="black" cx="2063.38" cy="-306" rx="217.18" ry="18"/>
<text text-anchor="middle" x="2063.38" y="-300.95" font-family="Times,serif" font-size="14.00">[root] provider[&quot;terraform.io/builtin/terraform&quot;] (close)</text>
</g>
<!-- [root] provider[&quot;terraform.io/builtin/terraform&quot;] (close)&#45;&gt;[root] data.terraform_remote_state.root (expand) -->
<g id="edge43" class="edge">
<title>[root] provider[&quot;terraform.io/builtin/terraform&quot;] (close)&#45;&gt;[root] data.terraform_remote_state.root (expand)</title>
<path fill="none" stroke="black" d="M1924.8,-291.8C1834.72,-281.87 1731.32,-267.38 1716.38,-252 1701.19,-236.37 1699.32,-211.23 1700.75,-191.65"/>
<polygon fill="black" stroke="black" points="1704.21,-192.14 1701.81,-181.82 1697.25,-191.38 1704.21,-192.14"/>
</g>
<!-- [root] root -->
<g id="node27" class="node">
<title>[root] root</title>
<ellipse fill="none" stroke="black" cx="1210.38" cy="-378" rx="49.3" ry="18"/>
<text text-anchor="middle" x="1210.38" y="-372.95" font-family="Times,serif" font-size="14.00">[root] root</text>
</g>
<!-- [root] root&#45;&gt;[root] var.root_domain_name -->
<g id="edge50" class="edge">
<title>[root] root&#45;&gt;[root] var.root_domain_name</title>
<path fill="none" stroke="black" d="M1260.09,-377.34C1412.42,-377.79 1886.12,-374.8 2287.66,-324.07"/>
<polygon fill="black" stroke="black" points="2287.95,-327.56 2297.42,-322.83 2287.06,-320.62 2287.95,-327.56"/>
</g>
<!-- [root] root&#45;&gt;[root] output.cloudfront_url (expand) -->
<g id="edge44" class="edge">
<title>[root] root&#45;&gt;[root] output.cloudfront_url (expand)</title>
<path fill="none" stroke="black" d="M1169.91,-367.27C1124.89,-356.44 1051.14,-338.7 995.29,-325.26"/>
<polygon fill="black" stroke="black" points="996.38,-321.92 985.84,-322.99 994.75,-328.73 996.38,-321.92"/>
</g>
<!-- [root] root&#45;&gt;[root] output.cloudfront_www_id (expand) -->
<g id="edge45" class="edge">
<title>[root] root&#45;&gt;[root] output.cloudfront_www_id (expand)</title>
<path fill="none" stroke="black" d="M1163.61,-371.8C1068.05,-361.16 847.54,-336.62 706.99,-320.98"/>
<polygon fill="black" stroke="black" points="707.58,-317.52 697.25,-319.9 706.81,-324.48 707.58,-317.52"/>
</g>
<!-- [root] root&#45;&gt;[root] output.s3_website_url (expand) -->
<g id="edge46" class="edge">
<title>[root] root&#45;&gt;[root] output.s3_website_url (expand)</title>
<path fill="none" stroke="black" d="M1161.54,-374.49C1035.54,-367.87 689.21,-348.71 401.38,-324 387.98,-322.85 373.96,-321.53 360.04,-320.15"/>
<polygon fill="black" stroke="black" points="360.71,-316.7 350.41,-319.18 360,-323.66 360.71,-316.7"/>
</g>
<!-- [root] root&#45;&gt;[root] output.site_url (expand) -->
<g id="edge47" class="edge">
<title>[root] root&#45;&gt;[root] output.site_url (expand)</title>
<path fill="none" stroke="black" d="M1210.38,-359.7C1210.38,-352.41 1210.38,-343.73 1210.38,-335.54"/>
<polygon fill="black" stroke="black" points="1213.88,-335.62 1210.38,-325.62 1206.88,-335.62 1213.88,-335.62"/>
</g>
<!-- [root] root&#45;&gt;[root] provider[&quot;registry.terraform.io/hashicorp/aws&quot;] (close) -->
<g id="edge48" class="edge">
<title>[root] root&#45;&gt;[root] provider[&quot;registry.terraform.io/hashicorp/aws&quot;] (close)</title>
<path fill="none" stroke="black" d="M1253.6,-369.04C1311.07,-358.45 1414.37,-339.42 1491.46,-325.22"/>
<polygon fill="black" stroke="black" points="1491.95,-328.69 1501.15,-323.44 1490.68,-321.81 1491.95,-328.69"/>
</g>
<!-- [root] root&#45;&gt;[root] provider[&quot;terraform.io/builtin/terraform&quot;] (close) -->
<g id="edge49" class="edge">
<title>[root] root&#45;&gt;[root] provider[&quot;terraform.io/builtin/terraform&quot;] (close)</title>
<path fill="none" stroke="black" d="M1258.37,-373.06C1379.79,-363.1 1703.58,-336.53 1901.55,-320.28"/>
<polygon fill="black" stroke="black" points="1901.74,-323.78 1911.42,-319.47 1901.17,-316.8 1901.74,-323.78"/>
</g>
</g>
</svg>
