<?xml version="1.0" encoding="UTF-8" standalone="no"?>
<!DOCTYPE svg PUBLIC "-//W3C//DTD SVG 1.1//EN"
 "http://www.w3.org/Graphics/SVG/1.1/DTD/svg11.dtd">
<!-- Generated by graphviz version 10.0.1 (20240210.2158)
 -->
<!-- Pages: 1 -->
<svg width="1893pt" height="476pt"
 viewBox="0.00 0.00 1892.55 476.00" xmlns="http://www.w3.org/2000/svg" xmlns:xlink="http://www.w3.org/1999/xlink">
<g id="graph0" class="graph" transform="scale(1 1) rotate(0) translate(4 472)">
<polygon fill="white" stroke="none" points="-4,4 -4,-472 1888.55,-472 1888.55,4 -4,4"/>
<!-- [root] aws_cloudfront_distribution.www_distribution (expand) -->
<g id="node1" class="node">
<title>[root] aws_cloudfront_distribution.www_distribution (expand)</title>
<polygon fill="none" stroke="black" points="1373.88,-252 1102.88,-252 1102.88,-216 1373.88,-216 1373.88,-252"/>
<text text-anchor="middle" x="1238.38" y="-228.95" font-family="Times,serif" font-size="14.00">aws_cloudfront_distribution.www_distribution</text>
</g>
<!-- [root] aws_s3_bucket_website_configuration.www (expand) -->
<g id="node9" class="node">
<title>[root] aws_s3_bucket_website_configuration.www (expand)</title>
<polygon fill="none" stroke="black" points="1062.88,-180 803.88,-180 803.88,-144 1062.88,-144 1062.88,-180"/>
<text text-anchor="middle" x="933.38" y="-156.95" font-family="Times,serif" font-size="14.00">aws_s3_bucket_website_configuration.www</text>
</g>
<!-- [root] aws_cloudfront_distribution.www_distribution (expand)&#45;&gt;[root] aws_s3_bucket_website_configuration.www (expand) -->
<g id="edge1" class="edge">
<title>[root] aws_cloudfront_distribution.www_distribution (expand)&#45;&gt;[root] aws_s3_bucket_website_configuration.www (expand)</title>
<path fill="none" stroke="black" d="M1162.2,-215.52C1119.17,-205.64 1065.23,-193.26 1020.53,-183"/>
<polygon fill="black" stroke="black" points="1021.38,-179.61 1010.85,-180.78 1019.81,-186.43 1021.38,-179.61"/>
</g>
<!-- [root] data.terraform_remote_state.root (expand) -->
<g id="node10" class="node">
<title>[root] data.terraform_remote_state.root (expand)</title>
<polygon fill="none" stroke="black" points="1521.38,-180 1325.38,-180 1325.38,-144 1521.38,-144 1521.38,-180"/>
<text text-anchor="middle" x="1423.38" y="-156.95" font-family="Times,serif" font-size="14.00">data.terraform_remote_state.root</text>
</g>
<!-- [root] aws_cloudfront_distribution.www_distribution (expand)&#45;&gt;[root] data.terraform_remote_state.root (expand) -->
<g id="edge2" class="edge">
<title>[root] aws_cloudfront_distribution.www_distribution (expand)&#45;&gt;[root] data.terraform_remote_state.root (expand)</title>
<path fill="none" stroke="black" d="M1284.58,-215.52C1309.51,-206.08 1340.48,-194.37 1366.83,-184.39"/>
<polygon fill="black" stroke="black" points="1367.91,-187.73 1376.02,-180.92 1365.43,-181.18 1367.91,-187.73"/>
</g>
<!-- [root] aws_route53_record.www (expand) -->
<g id="node2" class="node">
<title>[root] aws_route53_record.www (expand)</title>
<polygon fill="none" stroke="black" points="1022,-324 862.75,-324 862.75,-288 1022,-288 1022,-324"/>
<text text-anchor="middle" x="942.38" y="-300.95" font-family="Times,serif" font-size="14.00">aws_route53_record.www</text>
</g>
<!-- [root] aws_route53_record.www (expand)&#45;&gt;[root] aws_cloudfront_distribution.www_distribution (expand) -->
<g id="edge3" class="edge">
<title>[root] aws_route53_record.www (expand)&#45;&gt;[root] aws_cloudfront_distribution.www_distribution (expand)</title>
<path fill="none" stroke="black" d="M1016.3,-287.52C1057.97,-277.66 1110.19,-265.31 1153.52,-255.07"/>
<polygon fill="black" stroke="black" points="1154.22,-258.5 1163.15,-252.79 1152.61,-251.69 1154.22,-258.5"/>
</g>
<!-- [root] aws_s3_bucket.www (expand) -->
<g id="node3" class="node">
<title>[root] aws_s3_bucket.www (expand)</title>
<polygon fill="none" stroke="black" points="606.12,-108 474.62,-108 474.62,-72 606.12,-72 606.12,-108"/>
<text text-anchor="middle" x="540.38" y="-84.95" font-family="Times,serif" font-size="14.00">aws_s3_bucket.www</text>
</g>
<!-- [root] provider[&quot;registry.terraform.io/hashicorp/aws&quot;] -->
<g id="node11" class="node">
<title>[root] provider[&quot;registry.terraform.io/hashicorp/aws&quot;]</title>
<polygon fill="none" stroke="black" points="361.38,-36 96.94,-18 361.37,0 625.81,-18 361.38,-36"/>
<text text-anchor="middle" x="361.38" y="-12.95" font-family="Times,serif" font-size="14.00">provider[&quot;registry.terraform.io/hashicorp/aws&quot;]</text>
</g>
<!-- [root] aws_s3_bucket.www (expand)&#45;&gt;[root] provider[&quot;registry.terraform.io/hashicorp/aws&quot;] -->
<g id="edge4" class="edge">
<title>[root] aws_s3_bucket.www (expand)&#45;&gt;[root] provider[&quot;registry.terraform.io/hashicorp/aws&quot;]</title>
<path fill="none" stroke="black" d="M495.67,-71.52C469.64,-61.34 436.8,-48.49 410.11,-38.06"/>
<polygon fill="black" stroke="black" points="411.46,-34.83 400.87,-34.45 408.91,-41.35 411.46,-34.83"/>
</g>
<!-- [root] var.www_domain_name -->
<g id="node14" class="node">
<title>[root] var.www_domain_name</title>
<polygon fill="none" stroke="black" points="788.5,-36 644.25,-36 644.25,0 794.5,0 794.5,-30 788.5,-36"/>
<polyline fill="none" stroke="black" points="788.5,-36 788.5,-30"/>
<polyline fill="none" stroke="black" points="794.5,-30 788.5,-30"/>
<text text-anchor="middle" x="719.38" y="-12.95" font-family="Times,serif" font-size="14.00">var.www_domain_name</text>
</g>
<!-- [root] aws_s3_bucket.www (expand)&#45;&gt;[root] var.www_domain_name -->
<g id="edge5" class="edge">
<title>[root] aws_s3_bucket.www (expand)&#45;&gt;[root] var.www_domain_name</title>
<path fill="none" stroke="black" d="M585.08,-71.52C609.09,-62.13 638.9,-50.47 664.33,-40.53"/>
<polygon fill="black" stroke="black" points="665.48,-43.83 673.52,-36.93 662.93,-37.32 665.48,-43.83"/>
</g>
<!-- [root] aws_s3_bucket_acl.www (expand) -->
<g id="node4" class="node">
<title>[root] aws_s3_bucket_acl.www (expand)</title>
<polygon fill="none" stroke="black" points="443.38,-252 289.38,-252 289.38,-216 443.38,-216 443.38,-252"/>
<text text-anchor="middle" x="366.38" y="-228.95" font-family="Times,serif" font-size="14.00">aws_s3_bucket_acl.www</text>
</g>
<!-- [root] aws_s3_bucket_ownership_controls.www (expand) -->
<g id="node5" class="node">
<title>[root] aws_s3_bucket_ownership_controls.www (expand)</title>
<polygon fill="none" stroke="black" points="244.75,-180 0,-180 0,-144 244.75,-144 244.75,-180"/>
<text text-anchor="middle" x="122.38" y="-156.95" font-family="Times,serif" font-size="14.00">aws_s3_bucket_ownership_controls.www</text>
</g>
<!-- [root] aws_s3_bucket_acl.www (expand)&#45;&gt;[root] aws_s3_bucket_ownership_controls.www (expand) -->
<g id="edge6" class="edge">
<title>[root] aws_s3_bucket_acl.www (expand)&#45;&gt;[root] aws_s3_bucket_ownership_controls.www (expand)</title>
<path fill="none" stroke="black" d="M305.43,-215.52C271.53,-205.79 229.16,-193.64 193.72,-183.47"/>
<polygon fill="black" stroke="black" points="194.99,-180.19 184.42,-180.8 193.06,-186.92 194.99,-180.19"/>
</g>
<!-- [root] aws_s3_bucket_public_access_block.www (expand) -->
<g id="node7" class="node">
<title>[root] aws_s3_bucket_public_access_block.www (expand)</title>
<polygon fill="none" stroke="black" points="512.38,-180 262.38,-180 262.38,-144 512.38,-144 512.38,-180"/>
<text text-anchor="middle" x="387.38" y="-156.95" font-family="Times,serif" font-size="14.00">aws_s3_bucket_public_access_block.www</text>
</g>
<!-- [root] aws_s3_bucket_acl.www (expand)&#45;&gt;[root] aws_s3_bucket_public_access_block.www (expand) -->
<g id="edge7" class="edge">
<title>[root] aws_s3_bucket_acl.www (expand)&#45;&gt;[root] aws_s3_bucket_public_access_block.www (expand)</title>
<path fill="none" stroke="black" d="M371.57,-215.7C373.8,-208.24 376.48,-199.32 378.99,-190.97"/>
<polygon fill="black" stroke="black" points="382.29,-192.14 381.81,-181.55 375.58,-190.13 382.29,-192.14"/>
</g>
<!-- [root] aws_s3_bucket_ownership_controls.www (expand)&#45;&gt;[root] aws_s3_bucket.www (expand) -->
<g id="edge8" class="edge">
<title>[root] aws_s3_bucket_ownership_controls.www (expand)&#45;&gt;[root] aws_s3_bucket.www (expand)</title>
<path fill="none" stroke="black" d="M226.78,-143.52C300.15,-131.23 396.71,-115.06 463.19,-103.93"/>
<polygon fill="black" stroke="black" points="463.64,-107.4 472.92,-102.3 462.48,-100.5 463.64,-107.4"/>
</g>
<!-- [root] aws_s3_bucket_policy.allow_access_from_anyone (expand) -->
<g id="node6" class="node">
<title>[root] aws_s3_bucket_policy.allow_access_from_anyone (expand)</title>
<polygon fill="none" stroke="black" points="686.75,-324 394,-324 394,-288 686.75,-288 686.75,-324"/>
<text text-anchor="middle" x="540.38" y="-300.95" font-family="Times,serif" font-size="14.00">aws_s3_bucket_policy.allow_access_from_anyone</text>
</g>
<!-- [root] aws_s3_bucket_policy.allow_access_from_anyone (expand)&#45;&gt;[root] aws_s3_bucket.www (expand) -->
<g id="edge9" class="edge">
<title>[root] aws_s3_bucket_policy.allow_access_from_anyone (expand)&#45;&gt;[root] aws_s3_bucket.www (expand)</title>
<path fill="none" stroke="black" d="M540.38,-287.85C540.38,-251.14 540.38,-164.66 540.38,-119.53"/>
<polygon fill="black" stroke="black" points="543.88,-119.75 540.38,-109.75 536.88,-119.75 543.88,-119.75"/>
</g>
<!-- [root] aws_s3_bucket_public_access_block.www (expand)&#45;&gt;[root] aws_s3_bucket.www (expand) -->
<g id="edge10" class="edge">
<title>[root] aws_s3_bucket_public_access_block.www (expand)&#45;&gt;[root] aws_s3_bucket.www (expand)</title>
<path fill="none" stroke="black" d="M425.59,-143.52C445.75,-134.29 470.68,-122.89 492.16,-113.06"/>
<polygon fill="black" stroke="black" points="493.37,-116.35 501.01,-109.01 490.46,-109.99 493.37,-116.35"/>
</g>
<!-- [root] aws_s3_bucket_versioning.www (expand) -->
<g id="node8" class="node">
<title>[root] aws_s3_bucket_versioning.www (expand)</title>
<polygon fill="none" stroke="black" points="764,-252 568.75,-252 568.75,-216 764,-216 764,-252"/>
<text text-anchor="middle" x="666.38" y="-228.95" font-family="Times,serif" font-size="14.00">aws_s3_bucket_versioning.www</text>
</g>
<!-- [root] aws_s3_bucket_versioning.www (expand)&#45;&gt;[root] aws_s3_bucket.www (expand) -->
<g id="edge11" class="edge">
<title>[root] aws_s3_bucket_versioning.www (expand)&#45;&gt;[root] aws_s3_bucket.www (expand)</title>
<path fill="none" stroke="black" d="M650.92,-215.59C628.89,-190.76 588.3,-145.01 562.91,-116.4"/>
<polygon fill="black" stroke="black" points="565.82,-114.4 556.56,-109.24 560.58,-119.05 565.82,-114.4"/>
</g>
<!-- [root] aws_s3_bucket_website_configuration.www (expand)&#45;&gt;[root] aws_s3_bucket.www (expand) -->
<g id="edge12" class="edge">
<title>[root] aws_s3_bucket_website_configuration.www (expand)&#45;&gt;[root] aws_s3_bucket.www (expand)</title>
<path fill="none" stroke="black" d="M835.22,-143.52C768.01,-131.55 680.13,-115.89 617.85,-104.8"/>
<polygon fill="black" stroke="black" points="618.47,-101.36 608.01,-103.05 617.25,-108.25 618.47,-101.36"/>
</g>
<!-- [root] provider[&quot;terraform.io/builtin/terraform&quot;] -->
<g id="node12" class="node">
<title>[root] provider[&quot;terraform.io/builtin/terraform&quot;]</title>
<polygon fill="none" stroke="black" points="1423.38,-108 1188.62,-90 1423.38,-72 1658.13,-90 1423.38,-108"/>
<text text-anchor="middle" x="1423.38" y="-84.95" font-family="Times,serif" font-size="14.00">provider[&quot;terraform.io/builtin/terraform&quot;]</text>
</g>
<!-- [root] data.terraform_remote_state.root (expand)&#45;&gt;[root] provider[&quot;terraform.io/builtin/terraform&quot;] -->
<g id="edge13" class="edge">
<title>[root] data.terraform_remote_state.root (expand)&#45;&gt;[root] provider[&quot;terraform.io/builtin/terraform&quot;]</title>
<path fill="none" stroke="black" d="M1423.38,-143.7C1423.38,-136.41 1423.38,-127.73 1423.38,-119.54"/>
<polygon fill="black" stroke="black" points="1426.88,-119.62 1423.38,-109.62 1419.88,-119.62 1426.88,-119.62"/>
</g>
<!-- [root] var.root_domain_name -->
<g id="node13" class="node">
<title>[root] var.root_domain_name</title>
<polygon fill="none" stroke="black" points="1376.75,-396 1240,-396 1240,-360 1382.75,-360 1382.75,-390 1376.75,-396"/>
<polyline fill="none" stroke="black" points="1376.75,-396 1376.75,-390"/>
<polyline fill="none" stroke="black" points="1382.75,-390 1376.75,-390"/>
<text text-anchor="middle" x="1311.38" y="-372.95" font-family="Times,serif" font-size="14.00">var.root_domain_name</text>
</g>
<!-- [root] output.cloudfront_url (expand) -->
<g id="node15" class="node">
<title>[root] output.cloudfront_url (expand)</title>
<ellipse fill="none" stroke="black" cx="1548.38" cy="-306" rx="149.11" ry="18"/>
<text text-anchor="middle" x="1548.38" y="-300.95" font-family="Times,serif" font-size="14.00">[root] output.cloudfront_url (expand)</text>
</g>
<!-- [root] output.cloudfront_url (expand)&#45;&gt;[root] aws_cloudfront_distribution.www_distribution (expand) -->
<g id="edge14" class="edge">
<title>[root] output.cloudfront_url (expand)&#45;&gt;[root] aws_cloudfront_distribution.www_distribution (expand)</title>
<path fill="none" stroke="black" d="M1479.96,-289.55C1434.88,-279.37 1375.42,-265.95 1326.77,-254.96"/>
<polygon fill="black" stroke="black" points="1327.61,-251.56 1317.09,-252.77 1326.07,-258.39 1327.61,-251.56"/>
</g>
<!-- [root] output.cloudfront_www_id (expand) -->
<g id="node16" class="node">
<title>[root] output.cloudfront_www_id (expand)</title>
<ellipse fill="none" stroke="black" cx="1210.38" cy="-306" rx="170.6" ry="18"/>
<text text-anchor="middle" x="1210.38" y="-300.95" font-family="Times,serif" font-size="14.00">[root] output.cloudfront_www_id (expand)</text>
</g>
<!-- [root] output.cloudfront_www_id (expand)&#45;&gt;[root] aws_cloudfront_distribution.www_distribution (expand) -->
<g id="edge15" class="edge">
<title>[root] output.cloudfront_www_id (expand)&#45;&gt;[root] aws_cloudfront_distribution.www_distribution (expand)</title>
<path fill="none" stroke="black" d="M1217.3,-287.7C1220.31,-280.15 1223.93,-271.12 1227.3,-262.68"/>
<polygon fill="black" stroke="black" points="1230.51,-264.09 1230.97,-253.51 1224.01,-261.49 1230.51,-264.09"/>
</g>
<!-- [root] output.s3_website_url (expand) -->
<g id="node17" class="node">
<title>[root] output.s3_website_url (expand)</title>
<ellipse fill="none" stroke="black" cx="933.38" cy="-234" rx="151.67" ry="18"/>
<text text-anchor="middle" x="933.38" y="-228.95" font-family="Times,serif" font-size="14.00">[root] output.s3_website_url (expand)</text>
</g>
<!-- [root] output.s3_website_url (expand)&#45;&gt;[root] aws_s3_bucket_website_configuration.www (expand) -->
<g id="edge16" class="edge">
<title>[root] output.s3_website_url (expand)&#45;&gt;[root] aws_s3_bucket_website_configuration.www (expand)</title>
<path fill="none" stroke="black" d="M933.38,-215.7C933.38,-208.41 933.38,-199.73 933.38,-191.54"/>
<polygon fill="black" stroke="black" points="936.88,-191.62 933.38,-181.62 929.88,-191.62 936.88,-191.62"/>
</g>
<!-- [root] output.site_url (expand) -->
<g id="node18" class="node">
<title>[root] output.site_url (expand)</title>
<ellipse fill="none" stroke="black" cx="1004.38" cy="-378" rx="123.52" ry="18"/>
<text text-anchor="middle" x="1004.38" y="-372.95" font-family="Times,serif" font-size="14.00">[root] output.site_url (expand)</text>
</g>
<!-- [root] output.site_url (expand)&#45;&gt;[root] aws_route53_record.www (expand) -->
<g id="edge17" class="edge">
<title>[root] output.site_url (expand)&#45;&gt;[root] aws_route53_record.www (expand)</title>
<path fill="none" stroke="black" d="M989.05,-359.7C981.84,-351.56 973.1,-341.69 965.14,-332.7"/>
<polygon fill="black" stroke="black" points="967.78,-330.4 958.53,-325.24 962.54,-335.04 967.78,-330.4"/>
</g>
<!-- [root] provider[&quot;registry.terraform.io/hashicorp/aws&quot;] (close) -->
<g id="node19" class="node">
<title>[root] provider[&quot;registry.terraform.io/hashicorp/aws&quot;] (close)</title>
<ellipse fill="none" stroke="black" cx="568.38" cy="-378" rx="238.16" ry="18"/>
<text text-anchor="middle" x="568.38" y="-372.95" font-family="Times,serif" font-size="14.00">[root] provider[&quot;registry.terraform.io/hashicorp/aws&quot;] (close)</text>
</g>
<!-- [root] provider[&quot;registry.terraform.io/hashicorp/aws&quot;] (close)&#45;&gt;[root] aws_route53_record.www (expand) -->
<g id="edge18" class="edge">
<title>[root] provider[&quot;registry.terraform.io/hashicorp/aws&quot;] (close)&#45;&gt;[root] aws_route53_record.www (expand)</title>
<path fill="none" stroke="black" d="M654.65,-360.85C713.54,-349.83 791.44,-335.25 851.32,-324.04"/>
<polygon fill="black" stroke="black" points="851.61,-327.55 860.8,-322.27 850.33,-320.67 851.61,-327.55"/>
</g>
<!-- [root] provider[&quot;registry.terraform.io/hashicorp/aws&quot;] (close)&#45;&gt;[root] aws_s3_bucket_acl.www (expand) -->
<g id="edge19" class="edge">
<title>[root] provider[&quot;registry.terraform.io/hashicorp/aws&quot;] (close)&#45;&gt;[root] aws_s3_bucket_acl.www (expand)</title>
<path fill="none" stroke="black" d="M448.17,-362.05C424.68,-354.06 402.16,-342.04 385.38,-324 370.47,-307.99 366.13,-283.26 365.29,-263.93"/>
<polygon fill="black" stroke="black" points="368.79,-263.91 365.17,-253.95 361.79,-263.98 368.79,-263.91"/>
</g>
<!-- [root] provider[&quot;registry.terraform.io/hashicorp/aws&quot;] (close)&#45;&gt;[root] aws_s3_bucket_policy.allow_access_from_anyone (expand) -->
<g id="edge20" class="edge">
<title>[root] provider[&quot;registry.terraform.io/hashicorp/aws&quot;] (close)&#45;&gt;[root] aws_s3_bucket_policy.allow_access_from_anyone (expand)</title>
<path fill="none" stroke="black" d="M561.45,-359.7C558.44,-352.15 554.82,-343.12 551.45,-334.68"/>
<polygon fill="black" stroke="black" points="554.74,-333.49 547.78,-325.51 548.24,-336.09 554.74,-333.49"/>
</g>
<!-- [root] provider[&quot;registry.terraform.io/hashicorp/aws&quot;] (close)&#45;&gt;[root] aws_s3_bucket_versioning.www (expand) -->
<g id="edge21" class="edge">
<title>[root] provider[&quot;registry.terraform.io/hashicorp/aws&quot;] (close)&#45;&gt;[root] aws_s3_bucket_versioning.www (expand)</title>
<path fill="none" stroke="black" d="M646.94,-360.55C665.91,-352.69 683.98,-341.1 695.38,-324 707.98,-305.08 698.15,-280.27 686.65,-261.65"/>
<polygon fill="black" stroke="black" points="689.7,-259.92 681.24,-253.54 683.87,-263.8 689.7,-259.92"/>
</g>
<!-- [root] provider[&quot;terraform.io/builtin/terraform&quot;] (close) -->
<g id="node20" class="node">
<title>[root] provider[&quot;terraform.io/builtin/terraform&quot;] (close)</title>
<ellipse fill="none" stroke="black" cx="1667.38" cy="-234" rx="217.18" ry="18"/>
<text text-anchor="middle" x="1667.38" y="-228.95" font-family="Times,serif" font-size="14.00">[root] provider[&quot;terraform.io/builtin/terraform&quot;] (close)</text>
</g>
<!-- [root] provider[&quot;terraform.io/builtin/terraform&quot;] (close)&#45;&gt;[root] data.terraform_remote_state.root (expand) -->
<g id="edge22" class="edge">
<title>[root] provider[&quot;terraform.io/builtin/terraform&quot;] (close)&#45;&gt;[root] data.terraform_remote_state.root (expand)</title>
<path fill="none" stroke="black" d="M1608.93,-216.23C1574.82,-206.45 1531.5,-194.02 1495.31,-183.64"/>
<polygon fill="black" stroke="black" points="1496.35,-180.29 1485.77,-180.9 1494.42,-187.02 1496.35,-180.29"/>
</g>
<!-- [root] root -->
<g id="node21" class="node">
<title>[root] root</title>
<ellipse fill="none" stroke="black" cx="1174.38" cy="-450" rx="49.3" ry="18"/>
<text text-anchor="middle" x="1174.38" y="-444.95" font-family="Times,serif" font-size="14.00">[root] root</text>
</g>
<!-- [root] root&#45;&gt;[root] var.root_domain_name -->
<g id="edge29" class="edge">
<title>[root] root&#45;&gt;[root] var.root_domain_name</title>
<path fill="none" stroke="black" d="M1202.1,-434.83C1220.71,-425.32 1245.64,-412.59 1266.98,-401.68"/>
<polygon fill="black" stroke="black" points="1268.47,-404.85 1275.78,-397.18 1265.29,-398.62 1268.47,-404.85"/>
</g>
<!-- [root] root&#45;&gt;[root] output.cloudfront_url (expand) -->
<g id="edge23" class="edge">
<title>[root] root&#45;&gt;[root] output.cloudfront_url (expand)</title>
<path fill="none" stroke="black" d="M1183.02,-432.14C1195.26,-408.95 1217.67,-369.05 1231.38,-360 1248.65,-348.6 1352.34,-332.62 1436.5,-321.19"/>
<polygon fill="black" stroke="black" points="1436.77,-324.68 1446.21,-319.88 1435.83,-317.75 1436.77,-324.68"/>
</g>
<!-- [root] root&#45;&gt;[root] output.cloudfront_www_id (expand) -->
<g id="edge24" class="edge">
<title>[root] root&#45;&gt;[root] output.cloudfront_www_id (expand)</title>
<path fill="none" stroke="black" d="M1178.79,-431.59C1184.89,-407.5 1195.99,-363.75 1203.27,-335.03"/>
<polygon fill="black" stroke="black" points="1206.6,-336.13 1205.67,-325.58 1199.81,-334.41 1206.6,-336.13"/>
</g>
<!-- [root] root&#45;&gt;[root] output.s3_website_url (expand) -->
<g id="edge25" class="edge">
<title>[root] root&#45;&gt;[root] output.s3_website_url (expand)</title>
<path fill="none" stroke="black" d="M1125.42,-446.78C1049.29,-442.31 907.49,-429.61 871.38,-396 835.75,-362.85 830.35,-330.87 853.38,-288 860.09,-275.49 871.2,-265.44 883.04,-257.59"/>
<polygon fill="black" stroke="black" points="884.59,-260.74 891.32,-252.55 880.96,-254.76 884.59,-260.74"/>
</g>
<!-- [root] root&#45;&gt;[root] output.site_url (expand) -->
<g id="edge26" class="edge">
<title>[root] root&#45;&gt;[root] output.site_url (expand)</title>
<path fill="none" stroke="black" d="M1142.4,-435.83C1117.75,-425.68 1083.2,-411.46 1054.83,-399.78"/>
<polygon fill="black" stroke="black" points="1056.28,-396.59 1045.7,-396.02 1053.61,-403.06 1056.28,-396.59"/>
</g>
<!-- [root] root&#45;&gt;[root] provider[&quot;registry.terraform.io/hashicorp/aws&quot;] (close) -->
<g id="edge27" class="edge">
<title>[root] root&#45;&gt;[root] provider[&quot;registry.terraform.io/hashicorp/aws&quot;] (close)</title>
<path fill="none" stroke="black" d="M1127.83,-443.62C1038.8,-433.34 841.28,-410.52 706.44,-394.95"/>
<polygon fill="black" stroke="black" points="707.05,-391.5 696.72,-393.83 706.25,-398.45 707.05,-391.5"/>
</g>
<!-- [root] root&#45;&gt;[root] provider[&quot;terraform.io/builtin/terraform&quot;] (close) -->
<g id="edge28" class="edge">
<title>[root] root&#45;&gt;[root] provider[&quot;terraform.io/builtin/terraform&quot;] (close)</title>
<path fill="none" stroke="black" d="M1222.11,-445.17C1341.17,-434.53 1645.98,-400.22 1706.38,-324 1721.32,-305.14 1707.5,-279.66 1692.33,-260.8"/>
<polygon fill="black" stroke="black" points="1695.05,-258.59 1685.88,-253.28 1689.73,-263.15 1695.05,-258.59"/>
</g>
</g>
</svg>
