<?xml version="1.0" encoding="UTF-8" standalone="no"?>
<!DOCTYPE svg PUBLIC "-//W3C//DTD SVG 1.1//EN"
 "http://www.w3.org/Graphics/SVG/1.1/DTD/svg11.dtd">
<!-- Generated by graphviz version 2.44.1 (20200629.0846)
 -->
<!-- Pages: 1 -->
<svg width="1031pt" height="692pt"
 viewBox="0.00 0.00 1030.77 692.00" xmlns="http://www.w3.org/2000/svg" xmlns:xlink="http://www.w3.org/1999/xlink">
<g id="graph0" class="graph" transform="scale(1 1) rotate(0) translate(4 688)">
<polygon fill="white" stroke="transparent" points="-4,4 -4,-688 1026.77,-688 1026.77,4 -4,4"/>
<!-- [root] module.root.aws_acm_certificate.certificate (expand) -->
<g id="node1" class="node">
<title>[root] module.root.aws_acm_certificate.certificate (expand)</title>
<polygon fill="none" stroke="black" points="619.27,-180 364.27,-180 364.27,-144 619.27,-144 619.27,-180"/>
<text text-anchor="middle" x="491.77" y="-158.3" font-family="Times,serif" font-size="14.00">module.root.aws_acm_certificate.certificate</text>
</g>
<!-- [root] provider[&quot;registry.terraform.io/hashicorp/aws&quot;] -->
<g id="node8" class="node">
<title>[root] provider[&quot;registry.terraform.io/hashicorp/aws&quot;]</title>
<polygon fill="none" stroke="black" points="252.77,-108 0.23,-90 252.77,-72 505.3,-90 252.77,-108"/>
<text text-anchor="middle" x="252.77" y="-86.3" font-family="Times,serif" font-size="14.00">provider[&quot;registry.terraform.io/hashicorp/aws&quot;]</text>
</g>
<!-- [root] module.root.aws_acm_certificate.certificate (expand)&#45;&gt;[root] provider[&quot;registry.terraform.io/hashicorp/aws&quot;] -->
<g id="edge7" class="edge">
<title>[root] module.root.aws_acm_certificate.certificate (expand)&#45;&gt;[root] provider[&quot;registry.terraform.io/hashicorp/aws&quot;]</title>
<path fill="none" stroke="black" d="M433.61,-143.97C395.81,-132.9 346.78,-118.53 309.31,-107.56"/>
<polygon fill="black" stroke="black" points="310.14,-104.16 299.56,-104.7 308.17,-110.87 310.14,-104.16"/>
</g>
<!-- [root] module.root.var.root_domain_name (expand) -->
<g id="node15" class="node">
<title>[root] module.root.var.root_domain_name (expand)</title>
<ellipse fill="none" stroke="black" cx="718.77" cy="-90" rx="194.97" ry="18"/>
<text text-anchor="middle" x="718.77" y="-86.3" font-family="Times,serif" font-size="14.00">[root] module.root.var.root_domain_name (expand)</text>
</g>
<!-- [root] module.root.aws_acm_certificate.certificate (expand)&#45;&gt;[root] module.root.var.root_domain_name (expand) -->
<g id="edge6" class="edge">
<title>[root] module.root.aws_acm_certificate.certificate (expand)&#45;&gt;[root] module.root.var.root_domain_name (expand)</title>
<path fill="none" stroke="black" d="M547.01,-143.97C579.86,-133.84 621.63,-120.95 655.76,-110.43"/>
<polygon fill="black" stroke="black" points="657.11,-113.68 665.63,-107.39 655.04,-106.99 657.11,-113.68"/>
</g>
<!-- [root] module.root.aws_acm_certificate_validation.certificate (expand) -->
<g id="node2" class="node">
<title>[root] module.root.aws_acm_certificate_validation.certificate (expand)</title>
<polygon fill="none" stroke="black" points="677.77,-324 361.77,-324 361.77,-288 677.77,-288 677.77,-324"/>
<text text-anchor="middle" x="519.77" y="-302.3" font-family="Times,serif" font-size="14.00">module.root.aws_acm_certificate_validation.certificate</text>
</g>
<!-- [root] module.root.aws_route53_record.cert_validation (expand) -->
<g id="node4" class="node">
<title>[root] module.root.aws_route53_record.cert_validation (expand)</title>
<polygon fill="none" stroke="black" points="632.77,-252 350.77,-252 350.77,-216 632.77,-216 632.77,-252"/>
<text text-anchor="middle" x="491.77" y="-230.3" font-family="Times,serif" font-size="14.00">module.root.aws_route53_record.cert_validation</text>
</g>
<!-- [root] module.root.aws_acm_certificate_validation.certificate (expand)&#45;&gt;[root] module.root.aws_route53_record.cert_validation (expand) -->
<g id="edge8" class="edge">
<title>[root] module.root.aws_acm_certificate_validation.certificate (expand)&#45;&gt;[root] module.root.aws_route53_record.cert_validation (expand)</title>
<path fill="none" stroke="black" d="M512.85,-287.7C509.69,-279.81 505.89,-270.3 502.39,-261.55"/>
<polygon fill="black" stroke="black" points="505.57,-260.09 498.61,-252.1 499.07,-262.69 505.57,-260.09"/>
</g>
<!-- [root] module.root.aws_cloudfront_distribution.root_distribution (expand) -->
<g id="node3" class="node">
<title>[root] module.root.aws_cloudfront_distribution.root_distribution (expand)</title>
<polygon fill="none" stroke="black" points="780.27,-396 445.27,-396 445.27,-360 780.27,-360 780.27,-396"/>
<text text-anchor="middle" x="612.77" y="-374.3" font-family="Times,serif" font-size="14.00">module.root.aws_cloudfront_distribution.root_distribution</text>
</g>
<!-- [root] module.root.aws_cloudfront_distribution.root_distribution (expand)&#45;&gt;[root] module.root.aws_acm_certificate_validation.certificate (expand) -->
<g id="edge9" class="edge">
<title>[root] module.root.aws_cloudfront_distribution.root_distribution (expand)&#45;&gt;[root] module.root.aws_acm_certificate_validation.certificate (expand)</title>
<path fill="none" stroke="black" d="M589.78,-359.7C577.95,-350.8 563.38,-339.82 550.59,-330.2"/>
<polygon fill="black" stroke="black" points="552.59,-327.32 542.49,-324.1 548.38,-332.91 552.59,-327.32"/>
</g>
<!-- [root] module.root.aws_s3_bucket.root (expand) -->
<g id="node7" class="node">
<title>[root] module.root.aws_s3_bucket.root (expand)</title>
<polygon fill="none" stroke="black" points="832.27,-180 637.27,-180 637.27,-144 832.27,-144 832.27,-180"/>
<text text-anchor="middle" x="734.77" y="-158.3" font-family="Times,serif" font-size="14.00">module.root.aws_s3_bucket.root</text>
</g>
<!-- [root] module.root.aws_cloudfront_distribution.root_distribution (expand)&#45;&gt;[root] module.root.aws_s3_bucket.root (expand) -->
<g id="edge10" class="edge">
<title>[root] module.root.aws_cloudfront_distribution.root_distribution (expand)&#45;&gt;[root] module.root.aws_s3_bucket.root (expand)</title>
<path fill="none" stroke="black" d="M645.78,-359.94C660.21,-350.99 676.22,-338.8 686.77,-324 715.96,-283.07 727.6,-224.28 732.09,-190.23"/>
<polygon fill="black" stroke="black" points="735.59,-190.44 733.31,-180.1 728.64,-189.6 735.59,-190.44"/>
</g>
<!-- [root] module.root.aws_route53_record.cert_validation (expand)&#45;&gt;[root] module.root.aws_acm_certificate.certificate (expand) -->
<g id="edge11" class="edge">
<title>[root] module.root.aws_route53_record.cert_validation (expand)&#45;&gt;[root] module.root.aws_acm_certificate.certificate (expand)</title>
<path fill="none" stroke="black" d="M491.77,-215.7C491.77,-207.98 491.77,-198.71 491.77,-190.11"/>
<polygon fill="black" stroke="black" points="495.27,-190.1 491.77,-180.1 488.27,-190.1 495.27,-190.1"/>
</g>
<!-- [root] module.root.aws_route53_zone.zone (expand) -->
<g id="node6" class="node">
<title>[root] module.root.aws_route53_zone.zone (expand)</title>
<polygon fill="none" stroke="black" points="345.77,-180 127.77,-180 127.77,-144 345.77,-144 345.77,-180"/>
<text text-anchor="middle" x="236.77" y="-158.3" font-family="Times,serif" font-size="14.00">module.root.aws_route53_zone.zone</text>
</g>
<!-- [root] module.root.aws_route53_record.cert_validation (expand)&#45;&gt;[root] module.root.aws_route53_zone.zone (expand) -->
<g id="edge12" class="edge">
<title>[root] module.root.aws_route53_record.cert_validation (expand)&#45;&gt;[root] module.root.aws_route53_zone.zone (expand)</title>
<path fill="none" stroke="black" d="M429.71,-215.97C393.31,-205.97 347.14,-193.3 309.09,-182.85"/>
<polygon fill="black" stroke="black" points="309.67,-179.38 299.1,-180.11 307.82,-186.13 309.67,-179.38"/>
</g>
<!-- [root] module.root.aws_route53_record.root (expand) -->
<g id="node5" class="node">
<title>[root] module.root.aws_route53_record.root (expand)</title>
<polygon fill="none" stroke="black" points="578.27,-468 355.27,-468 355.27,-432 578.27,-432 578.27,-468"/>
<text text-anchor="middle" x="466.77" y="-446.3" font-family="Times,serif" font-size="14.00">module.root.aws_route53_record.root</text>
</g>
<!-- [root] module.root.aws_route53_record.root (expand)&#45;&gt;[root] module.root.aws_cloudfront_distribution.root_distribution (expand) -->
<g id="edge13" class="edge">
<title>[root] module.root.aws_route53_record.root (expand)&#45;&gt;[root] module.root.aws_cloudfront_distribution.root_distribution (expand)</title>
<path fill="none" stroke="black" d="M502.48,-431.88C522.27,-422.39 547.04,-410.51 568.09,-400.42"/>
<polygon fill="black" stroke="black" points="569.66,-403.55 577.17,-396.07 566.64,-397.24 569.66,-403.55"/>
</g>
<!-- [root] module.root.aws_route53_zone.zone (expand)&#45;&gt;[root] provider[&quot;registry.terraform.io/hashicorp/aws&quot;] -->
<g id="edge15" class="edge">
<title>[root] module.root.aws_route53_zone.zone (expand)&#45;&gt;[root] provider[&quot;registry.terraform.io/hashicorp/aws&quot;]</title>
<path fill="none" stroke="black" d="M240.72,-143.7C242.49,-135.98 244.61,-126.71 246.57,-118.11"/>
<polygon fill="black" stroke="black" points="250.04,-118.63 248.86,-108.1 243.22,-117.07 250.04,-118.63"/>
</g>
<!-- [root] module.root.aws_route53_zone.zone (expand)&#45;&gt;[root] module.root.var.root_domain_name (expand) -->
<g id="edge14" class="edge">
<title>[root] module.root.aws_route53_zone.zone (expand)&#45;&gt;[root] module.root.var.root_domain_name (expand)</title>
<path fill="none" stroke="black" d="M345.84,-145.16C424.4,-133.75 530,-118.41 608.78,-106.97"/>
<polygon fill="black" stroke="black" points="609.34,-110.43 618.73,-105.53 608.33,-103.5 609.34,-110.43"/>
</g>
<!-- [root] module.root.aws_s3_bucket.root (expand)&#45;&gt;[root] provider[&quot;registry.terraform.io/hashicorp/aws&quot;] -->
<g id="edge17" class="edge">
<title>[root] module.root.aws_s3_bucket.root (expand)&#45;&gt;[root] provider[&quot;registry.terraform.io/hashicorp/aws&quot;]</title>
<path fill="none" stroke="black" d="M637.1,-145.41C633.96,-144.93 630.84,-144.46 627.77,-144 531.31,-129.52 420.73,-114.03 344.78,-103.56"/>
<polygon fill="black" stroke="black" points="345.14,-100.07 334.76,-102.18 344.19,-107.01 345.14,-100.07"/>
</g>
<!-- [root] module.root.aws_s3_bucket.root (expand)&#45;&gt;[root] module.root.var.root_domain_name (expand) -->
<g id="edge16" class="edge">
<title>[root] module.root.aws_s3_bucket.root (expand)&#45;&gt;[root] module.root.var.root_domain_name (expand)</title>
<path fill="none" stroke="black" d="M730.81,-143.7C729.05,-135.98 726.93,-126.71 724.97,-118.11"/>
<polygon fill="black" stroke="black" points="728.32,-117.07 722.68,-108.1 721.49,-118.63 728.32,-117.07"/>
</g>
<!-- [root] var.region -->
<g id="node10" class="node">
<title>[root] var.region</title>
<polygon fill="none" stroke="black" points="282.27,-36 217.27,-36 217.27,0 288.27,0 288.27,-30 282.27,-36"/>
<polyline fill="none" stroke="black" points="282.27,-36 282.27,-30 "/>
<polyline fill="none" stroke="black" points="288.27,-30 282.27,-30 "/>
<text text-anchor="middle" x="252.77" y="-14.3" font-family="Times,serif" font-size="14.00">var.region</text>
</g>
<!-- [root] provider[&quot;registry.terraform.io/hashicorp/aws&quot;]&#45;&gt;[root] var.region -->
<g id="edge22" class="edge">
<title>[root] provider[&quot;registry.terraform.io/hashicorp/aws&quot;]&#45;&gt;[root] var.region</title>
<path fill="none" stroke="black" d="M252.77,-71.7C252.77,-63.98 252.77,-54.71 252.77,-46.11"/>
<polygon fill="black" stroke="black" points="256.27,-46.1 252.77,-36.1 249.27,-46.1 256.27,-46.1"/>
</g>
<!-- [root] var.env -->
<g id="node9" class="node">
<title>[root] var.env</title>
<polygon fill="none" stroke="black" points="1016.77,-540 966.77,-540 966.77,-504 1022.77,-504 1022.77,-534 1016.77,-540"/>
<polyline fill="none" stroke="black" points="1016.77,-540 1016.77,-534 "/>
<polyline fill="none" stroke="black" points="1022.77,-534 1016.77,-534 "/>
<text text-anchor="middle" x="994.77" y="-518.3" font-family="Times,serif" font-size="14.00">var.env</text>
</g>
<!-- [root] meta.count&#45;boundary (EachMode fixup) -->
<g id="node11" class="node">
<title>[root] meta.count&#45;boundary (EachMode fixup)</title>
<ellipse fill="none" stroke="black" cx="820.77" cy="-594" rx="176.27" ry="18"/>
<text text-anchor="middle" x="820.77" y="-590.3" font-family="Times,serif" font-size="14.00">[root] meta.count&#45;boundary (EachMode fixup)</text>
</g>
<!-- [root] meta.count&#45;boundary (EachMode fixup)&#45;&gt;[root] var.env -->
<g id="edge3" class="edge">
<title>[root] meta.count&#45;boundary (EachMode fixup)&#45;&gt;[root] var.env</title>
<path fill="none" stroke="black" d="M865.47,-576.5C890.17,-567.2 921.57,-555.09 956.98,-540.23"/>
<polygon fill="black" stroke="black" points="958.72,-543.29 966.57,-536.17 955.99,-536.84 958.72,-543.29"/>
</g>
<!-- [root] module.root (close) -->
<g id="node12" class="node">
<title>[root] module.root (close)</title>
<ellipse fill="none" stroke="black" cx="553.77" cy="-522" rx="102.88" ry="18"/>
<text text-anchor="middle" x="553.77" y="-518.3" font-family="Times,serif" font-size="14.00">[root] module.root (close)</text>
</g>
<!-- [root] meta.count&#45;boundary (EachMode fixup)&#45;&gt;[root] module.root (close) -->
<g id="edge1" class="edge">
<title>[root] meta.count&#45;boundary (EachMode fixup)&#45;&gt;[root] module.root (close)</title>
<path fill="none" stroke="black" d="M759.85,-577.03C717.58,-565.95 661.37,-551.21 618.33,-539.93"/>
<polygon fill="black" stroke="black" points="619.09,-536.51 608.53,-537.36 617.32,-543.28 619.09,-536.51"/>
</g>
<!-- [root] output.root_domain (expand) -->
<g id="node13" class="node">
<title>[root] output.root_domain (expand)</title>
<ellipse fill="none" stroke="black" cx="811.77" cy="-522" rx="137.28" ry="18"/>
<text text-anchor="middle" x="811.77" y="-518.3" font-family="Times,serif" font-size="14.00">[root] output.root_domain (expand)</text>
</g>
<!-- [root] meta.count&#45;boundary (EachMode fixup)&#45;&gt;[root] output.root_domain (expand) -->
<g id="edge2" class="edge">
<title>[root] meta.count&#45;boundary (EachMode fixup)&#45;&gt;[root] output.root_domain (expand)</title>
<path fill="none" stroke="black" d="M818.54,-575.7C817.55,-567.98 816.36,-558.71 815.25,-550.11"/>
<polygon fill="black" stroke="black" points="818.71,-549.58 813.97,-540.1 811.77,-550.47 818.71,-549.58"/>
</g>
<!-- [root] module.root (close)&#45;&gt;[root] module.root.aws_route53_record.root (expand) -->
<g id="edge4" class="edge">
<title>[root] module.root (close)&#45;&gt;[root] module.root.aws_route53_record.root (expand)</title>
<path fill="none" stroke="black" d="M532.71,-504.05C521.68,-495.18 507.99,-484.17 495.95,-474.48"/>
<polygon fill="black" stroke="black" points="497.92,-471.57 487.94,-468.03 493.53,-477.03 497.92,-471.57"/>
</g>
<!-- [root] module.root.output.outputs (expand) -->
<g id="node14" class="node">
<title>[root] module.root.output.outputs (expand)</title>
<ellipse fill="none" stroke="black" cx="759.77" cy="-450" rx="163.27" ry="18"/>
<text text-anchor="middle" x="759.77" y="-446.3" font-family="Times,serif" font-size="14.00">[root] module.root.output.outputs (expand)</text>
</g>
<!-- [root] module.root (close)&#45;&gt;[root] module.root.output.outputs (expand) -->
<g id="edge5" class="edge">
<title>[root] module.root (close)&#45;&gt;[root] module.root.output.outputs (expand)</title>
<path fill="none" stroke="black" d="M598.72,-505.72C629.08,-495.41 669.44,-481.7 702.15,-470.58"/>
<polygon fill="black" stroke="black" points="703.7,-473.75 712.04,-467.22 701.45,-467.12 703.7,-473.75"/>
</g>
<!-- [root] output.root_domain (expand)&#45;&gt;[root] module.root.output.outputs (expand) -->
<g id="edge20" class="edge">
<title>[root] output.root_domain (expand)&#45;&gt;[root] module.root.output.outputs (expand)</title>
<path fill="none" stroke="black" d="M799.18,-504.05C793.01,-495.75 785.46,-485.58 778.62,-476.38"/>
<polygon fill="black" stroke="black" points="781.37,-474.22 772.6,-468.28 775.75,-478.39 781.37,-474.22"/>
</g>
<!-- [root] module.root.output.outputs (expand)&#45;&gt;[root] module.root.aws_cloudfront_distribution.root_distribution (expand) -->
<g id="edge18" class="edge">
<title>[root] module.root.output.outputs (expand)&#45;&gt;[root] module.root.aws_cloudfront_distribution.root_distribution (expand)</title>
<path fill="none" stroke="black" d="M724.93,-432.41C704.89,-422.87 679.48,-410.77 657.92,-400.5"/>
<polygon fill="black" stroke="black" points="659.17,-397.22 648.63,-396.08 656.16,-403.54 659.17,-397.22"/>
</g>
<!-- [root] module.root (expand) -->
<g id="node16" class="node">
<title>[root] module.root (expand)</title>
<ellipse fill="none" stroke="black" cx="718.77" cy="-18" rx="110.48" ry="18"/>
<text text-anchor="middle" x="718.77" y="-14.3" font-family="Times,serif" font-size="14.00">[root] module.root (expand)</text>
</g>
<!-- [root] module.root.var.root_domain_name (expand)&#45;&gt;[root] module.root (expand) -->
<g id="edge19" class="edge">
<title>[root] module.root.var.root_domain_name (expand)&#45;&gt;[root] module.root (expand)</title>
<path fill="none" stroke="black" d="M718.77,-71.7C718.77,-63.98 718.77,-54.71 718.77,-46.11"/>
<polygon fill="black" stroke="black" points="722.27,-46.1 718.77,-36.1 715.27,-46.1 722.27,-46.1"/>
</g>
<!-- [root] provider[&quot;registry.terraform.io/hashicorp/aws&quot;] (close) -->
<g id="node17" class="node">
<title>[root] provider[&quot;registry.terraform.io/hashicorp/aws&quot;] (close)</title>
<ellipse fill="none" stroke="black" cx="398.77" cy="-594" rx="227.46" ry="18"/>
<text text-anchor="middle" x="398.77" y="-590.3" font-family="Times,serif" font-size="14.00">[root] provider[&quot;registry.terraform.io/hashicorp/aws&quot;] (close)</text>
</g>
<!-- [root] provider[&quot;registry.terraform.io/hashicorp/aws&quot;] (close)&#45;&gt;[root] module.root.aws_route53_record.root (expand) -->
<g id="edge21" class="edge">
<title>[root] provider[&quot;registry.terraform.io/hashicorp/aws&quot;] (close)&#45;&gt;[root] module.root.aws_route53_record.root (expand)</title>
<path fill="none" stroke="black" d="M406.97,-575.87C418.71,-551.35 440.41,-506.03 454.19,-477.26"/>
<polygon fill="black" stroke="black" points="457.37,-478.72 458.54,-468.19 451.06,-475.7 457.37,-478.72"/>
</g>
<!-- [root] root -->
<g id="node18" class="node">
<title>[root] root</title>
<ellipse fill="none" stroke="black" cx="609.77" cy="-666" rx="47.39" ry="18"/>
<text text-anchor="middle" x="609.77" y="-662.3" font-family="Times,serif" font-size="14.00">[root] root</text>
</g>
<!-- [root] root&#45;&gt;[root] meta.count&#45;boundary (EachMode fixup) -->
<g id="edge23" class="edge">
<title>[root] root&#45;&gt;[root] meta.count&#45;boundary (EachMode fixup)</title>
<path fill="none" stroke="black" d="M644.61,-653.44C676.42,-642.89 724.08,-627.08 761.81,-614.56"/>
<polygon fill="black" stroke="black" points="763.27,-617.76 771.66,-611.29 761.07,-611.12 763.27,-617.76"/>
</g>
<!-- [root] root&#45;&gt;[root] provider[&quot;registry.terraform.io/hashicorp/aws&quot;] (close) -->
<g id="edge24" class="edge">
<title>[root] root&#45;&gt;[root] provider[&quot;registry.terraform.io/hashicorp/aws&quot;] (close)</title>
<path fill="none" stroke="black" d="M574.93,-653.44C543.44,-643 496.42,-627.4 458.88,-614.94"/>
<polygon fill="black" stroke="black" points="459.65,-611.51 449.06,-611.68 457.45,-618.16 459.65,-611.51"/>
</g>
</g>
</svg>
