<?xml version="1.0" encoding="UTF-8" standalone="no"?>
<!DOCTYPE svg PUBLIC "-//W3C//DTD SVG 1.1//EN"
 "http://www.w3.org/Graphics/SVG/1.1/DTD/svg11.dtd">
<!-- Generated by graphviz version 2.44.1 (20200629.0846)
 -->
<!-- Pages: 1 -->
<svg width="588pt" height="404pt"
 viewBox="0.00 0.00 587.78 404.00" xmlns="http://www.w3.org/2000/svg" xmlns:xlink="http://www.w3.org/1999/xlink">
<g id="graph0" class="graph" transform="scale(1 1) rotate(0) translate(4 400)">
<polygon fill="white" stroke="transparent" points="-4,4 -4,-400 583.78,-400 583.78,4 -4,4"/>
<!-- [root] aws_route53_zone.zone -->
<g id="node1" class="node">
<title>[root] aws_route53_zone.zone</title>
<polygon fill="none" stroke="black" points="378.63,-180 231.63,-180 231.63,-144 378.63,-144 378.63,-180"/>
<text text-anchor="middle" x="305.13" y="-158.3" font-family="Times,serif" font-size="14.00">aws_route53_zone.zone</text>
</g>
<!-- [root] provider.aws -->
<g id="node4" class="node">
<title>[root] provider.aws</title>
<polygon fill="none" stroke="black" points="243.13,-108 164.04,-90 243.13,-72 322.23,-90 243.13,-108"/>
<text text-anchor="middle" x="243.13" y="-86.3" font-family="Times,serif" font-size="14.00">provider.aws</text>
</g>
<!-- [root] aws_route53_zone.zone&#45;&gt;[root] provider.aws -->
<g id="edge1" class="edge">
<title>[root] aws_route53_zone.zone&#45;&gt;[root] provider.aws</title>
<path fill="none" stroke="black" d="M289.81,-143.7C281.55,-134.37 271.27,-122.76 262.46,-112.82"/>
<polygon fill="black" stroke="black" points="265.03,-110.44 255.78,-105.28 259.79,-115.09 265.03,-110.44"/>
</g>
<!-- [root] var.env -->
<g id="node5" class="node">
<title>[root] var.env</title>
<polygon fill="none" stroke="black" points="390.13,-108 340.13,-108 340.13,-72 396.13,-72 396.13,-102 390.13,-108"/>
<polyline fill="none" stroke="black" points="390.13,-108 390.13,-102 "/>
<polyline fill="none" stroke="black" points="396.13,-102 390.13,-102 "/>
<text text-anchor="middle" x="368.13" y="-86.3" font-family="Times,serif" font-size="14.00">var.env</text>
</g>
<!-- [root] aws_route53_zone.zone&#45;&gt;[root] var.env -->
<g id="edge2" class="edge">
<title>[root] aws_route53_zone.zone&#45;&gt;[root] var.env</title>
<path fill="none" stroke="black" d="M320.71,-143.7C328.34,-135.22 337.66,-124.86 346.01,-115.58"/>
<polygon fill="black" stroke="black" points="348.65,-117.88 352.74,-108.1 343.45,-113.2 348.65,-117.88"/>
</g>
<!-- [root] output.nameservers -->
<g id="node2" class="node">
<title>[root] output.nameservers</title>
<polygon fill="none" stroke="black" points="231.63,-252 114.63,-252 114.63,-216 237.63,-216 237.63,-246 231.63,-252"/>
<polyline fill="none" stroke="black" points="231.63,-252 231.63,-246 "/>
<polyline fill="none" stroke="black" points="237.63,-246 231.63,-246 "/>
<text text-anchor="middle" x="176.13" y="-230.3" font-family="Times,serif" font-size="14.00">output.nameservers</text>
</g>
<!-- [root] output.nameservers&#45;&gt;[root] aws_route53_zone.zone -->
<g id="edge5" class="edge">
<title>[root] output.nameservers&#45;&gt;[root] aws_route53_zone.zone</title>
<path fill="none" stroke="black" d="M207.69,-215.88C224.79,-206.6 246.12,-195.03 264.45,-185.08"/>
<polygon fill="black" stroke="black" points="266.34,-188.04 273.46,-180.19 263,-181.88 266.34,-188.04"/>
</g>
<!-- [root] output.zone_id -->
<g id="node3" class="node">
<title>[root] output.zone_id</title>
<polygon fill="none" stroke="black" points="348.13,-252 256.13,-252 256.13,-216 354.13,-216 354.13,-246 348.13,-252"/>
<polyline fill="none" stroke="black" points="348.13,-252 348.13,-246 "/>
<polyline fill="none" stroke="black" points="354.13,-246 348.13,-246 "/>
<text text-anchor="middle" x="305.13" y="-230.3" font-family="Times,serif" font-size="14.00">output.zone_id</text>
</g>
<!-- [root] output.zone_id&#45;&gt;[root] aws_route53_zone.zone -->
<g id="edge6" class="edge">
<title>[root] output.zone_id&#45;&gt;[root] aws_route53_zone.zone</title>
<path fill="none" stroke="black" d="M305.13,-215.7C305.13,-207.98 305.13,-198.71 305.13,-190.11"/>
<polygon fill="black" stroke="black" points="308.63,-190.1 305.13,-180.1 301.63,-190.1 308.63,-190.1"/>
</g>
<!-- [root] var.region -->
<g id="node6" class="node">
<title>[root] var.region</title>
<polygon fill="none" stroke="black" points="272.63,-36 207.63,-36 207.63,0 278.63,0 278.63,-30 272.63,-36"/>
<polyline fill="none" stroke="black" points="272.63,-36 272.63,-30 "/>
<polyline fill="none" stroke="black" points="278.63,-30 272.63,-30 "/>
<text text-anchor="middle" x="243.13" y="-14.3" font-family="Times,serif" font-size="14.00">var.region</text>
</g>
<!-- [root] provider.aws&#45;&gt;[root] var.region -->
<g id="edge8" class="edge">
<title>[root] provider.aws&#45;&gt;[root] var.region</title>
<path fill="none" stroke="black" d="M243.13,-71.7C243.13,-63.98 243.13,-54.71 243.13,-46.11"/>
<polygon fill="black" stroke="black" points="246.63,-46.1 243.13,-36.1 239.63,-46.1 246.63,-46.1"/>
</g>
<!-- [root] meta.count&#45;boundary (EachMode fixup) -->
<g id="node7" class="node">
<title>[root] meta.count&#45;boundary (EachMode fixup)</title>
<ellipse fill="none" stroke="black" cx="176.13" cy="-306" rx="176.27" ry="18"/>
<text text-anchor="middle" x="176.13" y="-302.3" font-family="Times,serif" font-size="14.00">[root] meta.count&#45;boundary (EachMode fixup)</text>
</g>
<!-- [root] meta.count&#45;boundary (EachMode fixup)&#45;&gt;[root] output.nameservers -->
<g id="edge3" class="edge">
<title>[root] meta.count&#45;boundary (EachMode fixup)&#45;&gt;[root] output.nameservers</title>
<path fill="none" stroke="black" d="M176.13,-287.7C176.13,-279.98 176.13,-270.71 176.13,-262.11"/>
<polygon fill="black" stroke="black" points="179.63,-262.1 176.13,-252.1 172.63,-262.1 179.63,-262.1"/>
</g>
<!-- [root] meta.count&#45;boundary (EachMode fixup)&#45;&gt;[root] output.zone_id -->
<g id="edge4" class="edge">
<title>[root] meta.count&#45;boundary (EachMode fixup)&#45;&gt;[root] output.zone_id</title>
<path fill="none" stroke="black" d="M207.03,-288.23C224.33,-278.85 246.1,-267.04 264.73,-256.93"/>
<polygon fill="black" stroke="black" points="266.47,-259.96 273.59,-252.12 263.13,-253.81 266.47,-259.96"/>
</g>
<!-- [root] provider.aws (close) -->
<g id="node8" class="node">
<title>[root] provider.aws (close)</title>
<ellipse fill="none" stroke="black" cx="475.13" cy="-306" rx="104.78" ry="18"/>
<text text-anchor="middle" x="475.13" y="-302.3" font-family="Times,serif" font-size="14.00">[root] provider.aws (close)</text>
</g>
<!-- [root] provider.aws (close)&#45;&gt;[root] aws_route53_zone.zone -->
<g id="edge7" class="edge">
<title>[root] provider.aws (close)&#45;&gt;[root] aws_route53_zone.zone</title>
<path fill="none" stroke="black" d="M454.97,-288.15C424.76,-262.92 367.65,-215.22 333.33,-186.55"/>
<polygon fill="black" stroke="black" points="335.46,-183.77 325.54,-180.05 330.97,-189.14 335.46,-183.77"/>
</g>
<!-- [root] root -->
<g id="node9" class="node">
<title>[root] root</title>
<ellipse fill="none" stroke="black" cx="325.13" cy="-378" rx="47.39" ry="18"/>
<text text-anchor="middle" x="325.13" y="-374.3" font-family="Times,serif" font-size="14.00">[root] root</text>
</g>
<!-- [root] root&#45;&gt;[root] meta.count&#45;boundary (EachMode fixup) -->
<g id="edge9" class="edge">
<title>[root] root&#45;&gt;[root] meta.count&#45;boundary (EachMode fixup)</title>
<path fill="none" stroke="black" d="M296.41,-363.5C274.96,-353.43 245.25,-339.47 220.73,-327.95"/>
<polygon fill="black" stroke="black" points="222.15,-324.75 211.61,-323.67 219.17,-331.09 222.15,-324.75"/>
</g>
<!-- [root] root&#45;&gt;[root] provider.aws (close) -->
<g id="edge10" class="edge">
<title>[root] root&#45;&gt;[root] provider.aws (close)</title>
<path fill="none" stroke="black" d="M354.06,-363.5C376.02,-353.25 406.6,-338.98 431.53,-327.35"/>
<polygon fill="black" stroke="black" points="433.2,-330.43 440.78,-323.03 430.24,-324.09 433.2,-330.43"/>
</g>
</g>
</svg>
