<?xml version="1.0" encoding="UTF-8" standalone="no"?>
<!DOCTYPE svg PUBLIC "-//W3C//DTD SVG 1.1//EN"
 "http://www.w3.org/Graphics/SVG/1.1/DTD/svg11.dtd">
<!-- Generated by graphviz version 12.2.1 (20241206.2353)
 -->
<!-- Pages: 1 -->
<svg width="1684pt" height="476pt"
 viewBox="0.00 0.00 1684.19 476.00" xmlns="http://www.w3.org/2000/svg" xmlns:xlink="http://www.w3.org/1999/xlink">
<g id="graph0" class="graph" transform="scale(1 1) rotate(0) translate(4 472)">
<polygon fill="white" stroke="none" points="-4,4 -4,-472 1680.19,-472 1680.19,4 -4,4"/>
<!-- [root] aws_iam_policy.eq_data_expansion_access (expand) -->
<g id="node1" class="node">
<title>[root] aws_iam_policy.eq_data_expansion_access (expand)</title>
<polygon fill="none" stroke="black" points="715.38,-252 462.38,-252 462.38,-216 715.38,-216 715.38,-252"/>
<text text-anchor="middle" x="588.88" y="-228.95" font-family="Times,serif" font-size="14.00">aws_iam_policy.eq_data_expansion_access</text>
</g>
<!-- [root] aws_s3_bucket.eq&#45;data&#45;expansion (expand) -->
<g id="node6" class="node">
<title>[root] aws_s3_bucket.eq&#45;data&#45;expansion (expand)</title>
<polygon fill="none" stroke="black" points="922.5,-180 721.25,-180 721.25,-144 922.5,-144 922.5,-180"/>
<text text-anchor="middle" x="821.88" y="-156.95" font-family="Times,serif" font-size="14.00">aws_s3_bucket.eq&#45;data&#45;expansion</text>
</g>
<!-- [root] aws_iam_policy.eq_data_expansion_access (expand)&#45;&gt;[root] aws_s3_bucket.eq&#45;data&#45;expansion (expand) -->
<g id="edge1" class="edge">
<title>[root] aws_iam_policy.eq_data_expansion_access (expand)&#45;&gt;[root] aws_s3_bucket.eq&#45;data&#45;expansion (expand)</title>
<path fill="none" stroke="black" d="M647.07,-215.52C679.3,-205.83 719.55,-193.74 753.31,-183.6"/>
<polygon fill="black" stroke="black" points="754,-187.05 762.57,-180.82 751.99,-180.34 754,-187.05"/>
</g>
<!-- [root] aws_iam_user.aliza (expand) -->
<g id="node2" class="node">
<title>[root] aws_iam_user.aliza (expand)</title>
<polygon fill="none" stroke="black" points="659.12,-180 536.62,-180 536.62,-144 659.12,-144 659.12,-180"/>
<text text-anchor="middle" x="597.88" y="-156.95" font-family="Times,serif" font-size="14.00">aws_iam_user.aliza</text>
</g>
<!-- [root] provider[&quot;registry.terraform.io/hashicorp/aws&quot;] -->
<g id="node11" class="node">
<title>[root] provider[&quot;registry.terraform.io/hashicorp/aws&quot;]</title>
<polygon fill="none" stroke="black" points="374.88,-108 110.44,-90 374.87,-72 639.31,-90 374.88,-108"/>
<text text-anchor="middle" x="374.88" y="-84.95" font-family="Times,serif" font-size="14.00">provider[&quot;registry.terraform.io/hashicorp/aws&quot;]</text>
</g>
<!-- [root] aws_iam_user.aliza (expand)&#45;&gt;[root] provider[&quot;registry.terraform.io/hashicorp/aws&quot;] -->
<g id="edge2" class="edge">
<title>[root] aws_iam_user.aliza (expand)&#45;&gt;[root] provider[&quot;registry.terraform.io/hashicorp/aws&quot;]</title>
<path fill="none" stroke="black" d="M542.18,-143.52C508.3,-132.88 465.17,-119.34 431.18,-108.68"/>
<polygon fill="black" stroke="black" points="432.53,-105.43 421.94,-105.77 430.43,-112.11 432.53,-105.43"/>
</g>
<!-- [root] var.env -->
<g id="node12" class="node">
<title>[root] var.env</title>
<polygon fill="none" stroke="black" points="706.75,-108 657,-108 657,-72 712.75,-72 712.75,-102 706.75,-108"/>
<polyline fill="none" stroke="black" points="706.75,-108 706.75,-102"/>
<polyline fill="none" stroke="black" points="712.75,-102 706.75,-102"/>
<text text-anchor="middle" x="684.88" y="-84.95" font-family="Times,serif" font-size="14.00">var.env</text>
</g>
<!-- [root] aws_iam_user.aliza (expand)&#45;&gt;[root] var.env -->
<g id="edge3" class="edge">
<title>[root] aws_iam_user.aliza (expand)&#45;&gt;[root] var.env</title>
<path fill="none" stroke="black" d="M619.38,-143.7C629.94,-135.2 642.85,-124.81 654.41,-115.51"/>
<polygon fill="black" stroke="black" points="656.54,-118.29 662.14,-109.3 652.15,-112.84 656.54,-118.29"/>
</g>
<!-- [root] aws_iam_user.claire (expand) -->
<g id="node3" class="node">
<title>[root] aws_iam_user.claire (expand)</title>
<polygon fill="none" stroke="black" points="432.38,-180 305.38,-180 305.38,-144 432.38,-144 432.38,-180"/>
<text text-anchor="middle" x="368.88" y="-156.95" font-family="Times,serif" font-size="14.00">aws_iam_user.claire</text>
</g>
<!-- [root] aws_iam_user.claire (expand)&#45;&gt;[root] provider[&quot;registry.terraform.io/hashicorp/aws&quot;] -->
<g id="edge4" class="edge">
<title>[root] aws_iam_user.claire (expand)&#45;&gt;[root] provider[&quot;registry.terraform.io/hashicorp/aws&quot;]</title>
<path fill="none" stroke="black" d="M370.36,-143.7C370.98,-136.41 371.73,-127.73 372.43,-119.54"/>
<polygon fill="black" stroke="black" points="375.91,-119.87 373.28,-109.61 368.94,-119.28 375.91,-119.87"/>
</g>
<!-- [root] aws_iam_user.claire (expand)&#45;&gt;[root] var.env -->
<g id="edge5" class="edge">
<title>[root] aws_iam_user.claire (expand)&#45;&gt;[root] var.env</title>
<path fill="none" stroke="black" d="M432.85,-153.35C487.54,-145.81 568.25,-132.28 645.94,-108.19"/>
<polygon fill="black" stroke="black" points="646.96,-111.54 655.43,-105.18 644.84,-104.86 646.96,-111.54"/>
</g>
<!-- [root] aws_iam_user_policy_attachment.aliza_eq_access (expand) -->
<g id="node4" class="node">
<title>[root] aws_iam_user_policy_attachment.aliza_eq_access (expand)</title>
<polygon fill="none" stroke="black" points="643.5,-324 352.25,-324 352.25,-288 643.5,-288 643.5,-324"/>
<text text-anchor="middle" x="497.88" y="-300.95" font-family="Times,serif" font-size="14.00">aws_iam_user_policy_attachment.aliza_eq_access</text>
</g>
<!-- [root] aws_iam_user_policy_attachment.aliza_eq_access (expand)&#45;&gt;[root] aws_iam_policy.eq_data_expansion_access (expand) -->
<g id="edge6" class="edge">
<title>[root] aws_iam_user_policy_attachment.aliza_eq_access (expand)&#45;&gt;[root] aws_iam_policy.eq_data_expansion_access (expand)</title>
<path fill="none" stroke="black" d="M520.37,-287.7C531.53,-279.11 545.19,-268.61 557.37,-259.24"/>
<polygon fill="black" stroke="black" points="559.33,-262.14 565.12,-253.27 555.06,-256.59 559.33,-262.14"/>
</g>
<!-- [root] aws_iam_user_policy_attachment.aliza_eq_access (expand)&#45;&gt;[root] aws_iam_user.aliza (expand) -->
<g id="edge7" class="edge">
<title>[root] aws_iam_user_policy_attachment.aliza_eq_access (expand)&#45;&gt;[root] aws_iam_user.aliza (expand)</title>
<path fill="none" stroke="black" d="M634.32,-287.54C675.1,-279.35 712.33,-267.81 724.88,-252 734.82,-239.47 733.75,-229.32 724.88,-216 712.24,-197.03 691.39,-184.84 670.2,-177.01"/>
<polygon fill="black" stroke="black" points="671.5,-173.76 660.9,-173.89 669.27,-180.39 671.5,-173.76"/>
</g>
<!-- [root] aws_iam_user_policy_attachment.claire_eq_access (expand) -->
<g id="node5" class="node">
<title>[root] aws_iam_user_policy_attachment.claire_eq_access (expand)</title>
<polygon fill="none" stroke="black" points="295.75,-324 0,-324 0,-288 295.75,-288 295.75,-324"/>
<text text-anchor="middle" x="147.88" y="-300.95" font-family="Times,serif" font-size="14.00">aws_iam_user_policy_attachment.claire_eq_access</text>
</g>
<!-- [root] aws_iam_user_policy_attachment.claire_eq_access (expand)&#45;&gt;[root] aws_iam_policy.eq_data_expansion_access (expand) -->
<g id="edge8" class="edge">
<title>[root] aws_iam_user_policy_attachment.claire_eq_access (expand)&#45;&gt;[root] aws_iam_policy.eq_data_expansion_access (expand)</title>
<path fill="none" stroke="black" d="M258.02,-287.52C321.81,-277.39 402.2,-264.63 467.76,-254.22"/>
<polygon fill="black" stroke="black" points="468.17,-257.7 477.49,-252.68 467.07,-250.79 468.17,-257.7"/>
</g>
<!-- [root] aws_iam_user_policy_attachment.claire_eq_access (expand)&#45;&gt;[root] aws_iam_user.claire (expand) -->
<g id="edge9" class="edge">
<title>[root] aws_iam_user_policy_attachment.claire_eq_access (expand)&#45;&gt;[root] aws_iam_user.claire (expand)</title>
<path fill="none" stroke="black" d="M152.37,-287.66C158.47,-267.56 171.28,-234.8 193.88,-216 222.05,-192.56 260.4,-179.48 294.02,-172.19"/>
<polygon fill="black" stroke="black" points="294.63,-175.64 303.74,-170.23 293.25,-168.78 294.63,-175.64"/>
</g>
<!-- [root] aws_s3_bucket.eq&#45;data&#45;expansion (expand)&#45;&gt;[root] provider[&quot;registry.terraform.io/hashicorp/aws&quot;] -->
<g id="edge10" class="edge">
<title>[root] aws_s3_bucket.eq&#45;data&#45;expansion (expand)&#45;&gt;[root] provider[&quot;registry.terraform.io/hashicorp/aws&quot;]</title>
<path fill="none" stroke="black" d="M721,-145.2C643.61,-133.08 537.8,-116.51 463.6,-104.9"/>
<polygon fill="black" stroke="black" points="464.35,-101.47 453.93,-103.38 463.27,-108.39 464.35,-101.47"/>
</g>
<!-- [root] aws_s3_bucket.eq&#45;data&#45;expansion (expand)&#45;&gt;[root] var.env -->
<g id="edge11" class="edge">
<title>[root] aws_s3_bucket.eq&#45;data&#45;expansion (expand)&#45;&gt;[root] var.env</title>
<path fill="none" stroke="black" d="M787.66,-143.52C768.09,-133.52 743.48,-120.95 723.25,-110.61"/>
<polygon fill="black" stroke="black" points="724.97,-107.56 714.47,-106.12 721.79,-113.79 724.97,-107.56"/>
</g>
<!-- [root] aws_s3_bucket_policy.eq&#45;data&#45;expansion (expand) -->
<g id="node7" class="node">
<title>[root] aws_s3_bucket_policy.eq&#45;data&#45;expansion (expand)</title>
<polygon fill="none" stroke="black" points="444.38,-252 203.38,-252 203.38,-216 444.38,-216 444.38,-252"/>
<text text-anchor="middle" x="323.88" y="-228.95" font-family="Times,serif" font-size="14.00">aws_s3_bucket_policy.eq&#45;data&#45;expansion</text>
</g>
<!-- [root] aws_s3_bucket_policy.eq&#45;data&#45;expansion (expand)&#45;&gt;[root] aws_iam_user.aliza (expand) -->
<g id="edge12" class="edge">
<title>[root] aws_s3_bucket_policy.eq&#45;data&#45;expansion (expand)&#45;&gt;[root] aws_iam_user.aliza (expand)</title>
<path fill="none" stroke="black" d="M392.31,-215.52C432.82,-205.17 484.11,-192.06 525.32,-181.54"/>
<polygon fill="black" stroke="black" points="526.09,-184.95 534.92,-179.08 524.36,-178.17 526.09,-184.95"/>
</g>
<!-- [root] aws_s3_bucket_policy.eq&#45;data&#45;expansion (expand)&#45;&gt;[root] aws_iam_user.claire (expand) -->
<g id="edge13" class="edge">
<title>[root] aws_s3_bucket_policy.eq&#45;data&#45;expansion (expand)&#45;&gt;[root] aws_iam_user.claire (expand)</title>
<path fill="none" stroke="black" d="M335,-215.7C340.07,-207.81 346.18,-198.3 351.81,-189.55"/>
<polygon fill="black" stroke="black" points="354.6,-191.68 357.06,-181.38 348.71,-187.9 354.6,-191.68"/>
</g>
<!-- [root] aws_s3_bucket_policy.eq&#45;data&#45;expansion (expand)&#45;&gt;[root] aws_s3_bucket.eq&#45;data&#45;expansion (expand) -->
<g id="edge14" class="edge">
<title>[root] aws_s3_bucket_policy.eq&#45;data&#45;expansion (expand)&#45;&gt;[root] aws_s3_bucket.eq&#45;data&#45;expansion (expand)</title>
<path fill="none" stroke="black" d="M444.74,-216.01C525.58,-204.65 631.18,-189.8 710.07,-178.72"/>
<polygon fill="black" stroke="black" points="710.1,-182.25 719.52,-177.39 709.13,-175.31 710.1,-182.25"/>
</g>
<!-- [root] aws_s3_bucket_public_access_block.eq&#45;data&#45;expansion (expand) -->
<g id="node8" class="node">
<title>[root] aws_s3_bucket_public_access_block.eq&#45;data&#45;expansion (expand)</title>
<polygon fill="none" stroke="black" points="981.75,-324 662,-324 662,-288 981.75,-288 981.75,-324"/>
<text text-anchor="middle" x="821.88" y="-300.95" font-family="Times,serif" font-size="14.00">aws_s3_bucket_public_access_block.eq&#45;data&#45;expansion</text>
</g>
<!-- [root] aws_s3_bucket_public_access_block.eq&#45;data&#45;expansion (expand)&#45;&gt;[root] aws_s3_bucket.eq&#45;data&#45;expansion (expand) -->
<g id="edge15" class="edge">
<title>[root] aws_s3_bucket_public_access_block.eq&#45;data&#45;expansion (expand)&#45;&gt;[root] aws_s3_bucket.eq&#45;data&#45;expansion (expand)</title>
<path fill="none" stroke="black" d="M821.88,-287.59C821.88,-263.61 821.88,-220.14 821.88,-191.42"/>
<polygon fill="black" stroke="black" points="825.38,-191.62 821.88,-181.62 818.38,-191.62 825.38,-191.62"/>
</g>
<!-- [root] aws_s3_bucket_public_access_block.state (expand) -->
<g id="node9" class="node">
<title>[root] aws_s3_bucket_public_access_block.state (expand)</title>
<polygon fill="none" stroke="black" points="1114.62,-252 869.12,-252 869.12,-216 1114.62,-216 1114.62,-252"/>
<text text-anchor="middle" x="991.88" y="-228.95" font-family="Times,serif" font-size="14.00">aws_s3_bucket_public_access_block.state</text>
</g>
<!-- [root] aws_s3_bucket_public_access_block.state (expand)&#45;&gt;[root] aws_s3_bucket.eq&#45;data&#45;expansion (expand) -->
<g id="edge16" class="edge">
<title>[root] aws_s3_bucket_public_access_block.state (expand)&#45;&gt;[root] aws_s3_bucket.eq&#45;data&#45;expansion (expand)</title>
<path fill="none" stroke="black" d="M949.42,-215.52C926.71,-206.17 898.56,-194.57 874.48,-184.66"/>
<polygon fill="black" stroke="black" points="876.07,-181.53 865.49,-180.96 873.4,-188 876.07,-181.53"/>
</g>
<!-- [root] aws_s3_bucket_versioning.eq&#45;data&#45;expansion (expand) -->
<g id="node10" class="node">
<title>[root] aws_s3_bucket_versioning.eq&#45;data&#45;expansion (expand)</title>
<polygon fill="none" stroke="black" points="1303.38,-324 1038.38,-324 1038.38,-288 1303.38,-288 1303.38,-324"/>
<text text-anchor="middle" x="1170.88" y="-300.95" font-family="Times,serif" font-size="14.00">aws_s3_bucket_versioning.eq&#45;data&#45;expansion</text>
</g>
<!-- [root] aws_s3_bucket_versioning.eq&#45;data&#45;expansion (expand)&#45;&gt;[root] aws_s3_bucket.eq&#45;data&#45;expansion (expand) -->
<g id="edge17" class="edge">
<title>[root] aws_s3_bucket_versioning.eq&#45;data&#45;expansion (expand)&#45;&gt;[root] aws_s3_bucket.eq&#45;data&#45;expansion (expand)</title>
<path fill="none" stroke="black" d="M1166.66,-287.54C1160.74,-266.99 1147.89,-233.48 1123.88,-216 1093.84,-194.13 1006.77,-180.35 933.8,-172.35"/>
<polygon fill="black" stroke="black" points="934.5,-168.9 924.19,-171.32 933.76,-175.86 934.5,-168.9"/>
</g>
<!-- [root] var.region -->
<g id="node13" class="node">
<title>[root] var.region</title>
<polygon fill="none" stroke="black" points="404.25,-36 339.5,-36 339.5,0 410.25,0 410.25,-30 404.25,-36"/>
<polyline fill="none" stroke="black" points="404.25,-36 404.25,-30"/>
<polyline fill="none" stroke="black" points="410.25,-30 404.25,-30"/>
<text text-anchor="middle" x="374.88" y="-12.95" font-family="Times,serif" font-size="14.00">var.region</text>
</g>
<!-- [root] provider[&quot;registry.terraform.io/hashicorp/aws&quot;]&#45;&gt;[root] var.region -->
<g id="edge26" class="edge">
<title>[root] provider[&quot;registry.terraform.io/hashicorp/aws&quot;]&#45;&gt;[root] var.region</title>
<path fill="none" stroke="black" d="M374.88,-71.7C374.88,-64.41 374.88,-55.73 374.88,-47.54"/>
<polygon fill="black" stroke="black" points="378.38,-47.62 374.88,-37.62 371.38,-47.62 378.38,-47.62"/>
</g>
<!-- [root] output.s3_bucket_arn (expand) -->
<g id="node14" class="node">
<title>[root] output.s3_bucket_arn (expand)</title>
<ellipse fill="none" stroke="black" cx="1331.88" cy="-378" rx="149.62" ry="18"/>
<text text-anchor="middle" x="1331.88" y="-372.95" font-family="Times,serif" font-size="14.00">[root] output.s3_bucket_arn (expand)</text>
</g>
<!-- [root] output.s3_bucket_arn (expand)&#45;&gt;[root] aws_s3_bucket.eq&#45;data&#45;expansion (expand) -->
<g id="edge18" class="edge">
<title>[root] output.s3_bucket_arn (expand)&#45;&gt;[root] aws_s3_bucket.eq&#45;data&#45;expansion (expand)</title>
<path fill="none" stroke="black" d="M1332.6,-359.65C1332.5,-340.14 1329.47,-308.51 1312.88,-288 1263.57,-227.06 1226.99,-238.41 1151.88,-216 1080.78,-194.79 998.39,-181.55 933.72,-173.6"/>
<polygon fill="black" stroke="black" points="934.52,-170.18 924.18,-172.46 933.69,-177.13 934.52,-170.18"/>
</g>
<!-- [root] output.s3_bucket_name (expand) -->
<g id="node15" class="node">
<title>[root] output.s3_bucket_name (expand)</title>
<ellipse fill="none" stroke="black" cx="1517.88" cy="-234" rx="158.32" ry="18"/>
<text text-anchor="middle" x="1517.88" y="-228.95" font-family="Times,serif" font-size="14.00">[root] output.s3_bucket_name (expand)</text>
</g>
<!-- [root] output.s3_bucket_name (expand)&#45;&gt;[root] aws_s3_bucket.eq&#45;data&#45;expansion (expand) -->
<g id="edge19" class="edge">
<title>[root] output.s3_bucket_name (expand)&#45;&gt;[root] aws_s3_bucket.eq&#45;data&#45;expansion (expand)</title>
<path fill="none" stroke="black" d="M1402.16,-221.36C1272.24,-208.3 1062.83,-187.23 934.28,-174.3"/>
<polygon fill="black" stroke="black" points="934.67,-170.83 924.37,-173.31 933.97,-177.79 934.67,-170.83"/>
</g>
<!-- [root] provider[&quot;registry.terraform.io/hashicorp/aws&quot;] (close) -->
<g id="node16" class="node">
<title>[root] provider[&quot;registry.terraform.io/hashicorp/aws&quot;] (close)</title>
<ellipse fill="none" stroke="black" cx="821.88" cy="-378" rx="238.16" ry="18"/>
<text text-anchor="middle" x="821.88" y="-372.95" font-family="Times,serif" font-size="14.00">[root] provider[&quot;registry.terraform.io/hashicorp/aws&quot;] (close)</text>
</g>
<!-- [root] provider[&quot;registry.terraform.io/hashicorp/aws&quot;] (close)&#45;&gt;[root] aws_iam_user_policy_attachment.aliza_eq_access (expand) -->
<g id="edge20" class="edge">
<title>[root] provider[&quot;registry.terraform.io/hashicorp/aws&quot;] (close)&#45;&gt;[root] aws_iam_user_policy_attachment.aliza_eq_access (expand)</title>
<path fill="none" stroke="black" d="M745.5,-360.5C698.89,-350.43 639,-337.49 589.8,-326.86"/>
<polygon fill="black" stroke="black" points="590.82,-323.5 580.31,-324.81 589.34,-330.34 590.82,-323.5"/>
</g>
<!-- [root] provider[&quot;registry.terraform.io/hashicorp/aws&quot;] (close)&#45;&gt;[root] aws_iam_user_policy_attachment.claire_eq_access (expand) -->
<g id="edge21" class="edge">
<title>[root] provider[&quot;registry.terraform.io/hashicorp/aws&quot;] (close)&#45;&gt;[root] aws_iam_user_policy_attachment.claire_eq_access (expand)</title>
<path fill="none" stroke="black" d="M684.96,-362.88C581.84,-352.23 436.98,-337.25 309.88,-324 309.03,-323.91 308.18,-323.82 307.34,-323.74"/>
<polygon fill="black" stroke="black" points="308,-320.29 297.69,-322.73 307.28,-327.25 308,-320.29"/>
</g>
<!-- [root] provider[&quot;registry.terraform.io/hashicorp/aws&quot;] (close)&#45;&gt;[root] aws_s3_bucket_policy.eq&#45;data&#45;expansion (expand) -->
<g id="edge22" class="edge">
<title>[root] provider[&quot;registry.terraform.io/hashicorp/aws&quot;] (close)&#45;&gt;[root] aws_s3_bucket_policy.eq&#45;data&#45;expansion (expand)</title>
<path fill="none" stroke="black" d="M633.96,-366.64C509.36,-358 364.86,-343.89 342.88,-324 326.38,-309.08 322.28,-283.65 321.93,-263.79"/>
<polygon fill="black" stroke="black" points="325.43,-263.85 322.1,-253.8 318.43,-263.74 325.43,-263.85"/>
</g>
<!-- [root] provider[&quot;registry.terraform.io/hashicorp/aws&quot;] (close)&#45;&gt;[root] aws_s3_bucket_public_access_block.eq&#45;data&#45;expansion (expand) -->
<g id="edge23" class="edge">
<title>[root] provider[&quot;registry.terraform.io/hashicorp/aws&quot;] (close)&#45;&gt;[root] aws_s3_bucket_public_access_block.eq&#45;data&#45;expansion (expand)</title>
<path fill="none" stroke="black" d="M821.88,-359.7C821.88,-352.41 821.88,-343.73 821.88,-335.54"/>
<polygon fill="black" stroke="black" points="825.38,-335.62 821.88,-325.62 818.38,-335.62 825.38,-335.62"/>
</g>
<!-- [root] provider[&quot;registry.terraform.io/hashicorp/aws&quot;] (close)&#45;&gt;[root] aws_s3_bucket_public_access_block.state (expand) -->
<g id="edge24" class="edge">
<title>[root] provider[&quot;registry.terraform.io/hashicorp/aws&quot;] (close)&#45;&gt;[root] aws_s3_bucket_public_access_block.state (expand)</title>
<path fill="none" stroke="black" d="M937.39,-361.93C958.26,-353.9 977.58,-341.89 990.88,-324 1003.56,-306.93 1002.89,-282.49 999.57,-263.53"/>
<polygon fill="black" stroke="black" points="1002.99,-262.82 997.49,-253.76 996.14,-264.27 1002.99,-262.82"/>
</g>
<!-- [root] provider[&quot;registry.terraform.io/hashicorp/aws&quot;] (close)&#45;&gt;[root] aws_s3_bucket_versioning.eq&#45;data&#45;expansion (expand) -->
<g id="edge25" class="edge">
<title>[root] provider[&quot;registry.terraform.io/hashicorp/aws&quot;] (close)&#45;&gt;[root] aws_s3_bucket_versioning.eq&#45;data&#45;expansion (expand)</title>
<path fill="none" stroke="black" d="M903.26,-360.68C953.84,-350.53 1019.19,-337.42 1072.65,-326.7"/>
<polygon fill="black" stroke="black" points="1073.26,-330.15 1082.38,-324.75 1071.89,-323.28 1073.26,-330.15"/>
</g>
<!-- [root] root -->
<g id="node17" class="node">
<title>[root] root</title>
<ellipse fill="none" stroke="black" cx="1331.88" cy="-450" rx="49.3" ry="18"/>
<text text-anchor="middle" x="1331.88" y="-444.95" font-family="Times,serif" font-size="14.00">[root] root</text>
</g>
<!-- [root] root&#45;&gt;[root] output.s3_bucket_arn (expand) -->
<g id="edge27" class="edge">
<title>[root] root&#45;&gt;[root] output.s3_bucket_arn (expand)</title>
<path fill="none" stroke="black" d="M1331.88,-431.7C1331.88,-424.41 1331.88,-415.73 1331.88,-407.54"/>
<polygon fill="black" stroke="black" points="1335.38,-407.62 1331.88,-397.62 1328.38,-407.62 1335.38,-407.62"/>
</g>
<!-- [root] root&#45;&gt;[root] output.s3_bucket_name (expand) -->
<g id="edge28" class="edge">
<title>[root] root&#45;&gt;[root] output.s3_bucket_name (expand)</title>
<path fill="none" stroke="black" d="M1380.16,-445.83C1416.08,-440.81 1463.45,-428.06 1490.88,-396 1522.52,-359.01 1523.85,-299.19 1521.31,-263.82"/>
<polygon fill="black" stroke="black" points="1524.8,-263.56 1520.42,-253.91 1517.83,-264.18 1524.8,-263.56"/>
</g>
<!-- [root] root&#45;&gt;[root] provider[&quot;registry.terraform.io/hashicorp/aws&quot;] (close) -->
<g id="edge29" class="edge">
<title>[root] root&#45;&gt;[root] provider[&quot;registry.terraform.io/hashicorp/aws&quot;] (close)</title>
<path fill="none" stroke="black" d="M1286.17,-442.73C1210,-432.27 1054.61,-410.94 944.62,-395.85"/>
<polygon fill="black" stroke="black" points="945.34,-392.41 934.95,-394.52 944.38,-399.35 945.34,-392.41"/>
</g>
</g>
</svg>
