<?xml version="1.0" encoding="UTF-8" standalone="no"?>
<!DOCTYPE svg PUBLIC "-//W3C//DTD SVG 1.1//EN"
 "http://www.w3.org/Graphics/SVG/1.1/DTD/svg11.dtd">
<!-- Generated by graphviz version 6.0.1 (20220911.1526)
 -->
<!-- Pages: 1 -->
<svg width="154pt" height="116pt"
 viewBox="0.00 0.00 153.50 116.00" xmlns="http://www.w3.org/2000/svg" xmlns:xlink="http://www.w3.org/1999/xlink">
<g id="graph0" class="graph" transform="scale(1 1) rotate(0) translate(4 112)">
<polygon fill="white" stroke="none" points="-4,4 -4,-112 149.5,-112 149.5,4 -4,4"/>
<!-- [root] var.env -->
<g id="node1" class="node">
<title>[root] var.env</title>
<polygon fill="none" stroke="black" points="50,-36 0,-36 0,0 56,0 56,-30 50,-36"/>
<polyline fill="none" stroke="black" points="50,-36 50,-30"/>
<polyline fill="none" stroke="black" points="56,-30 50,-30"/>
<text text-anchor="middle" x="28" y="-14.3" font-family="Times,serif" font-size="14.00">var.env</text>
</g>
<!-- [root] var.region -->
<g id="node2" class="node">
<title>[root] var.region</title>
<polygon fill="none" stroke="black" points="139.5,-36 74.5,-36 74.5,0 145.5,0 145.5,-30 139.5,-36"/>
<polyline fill="none" stroke="black" points="139.5,-36 139.5,-30"/>
<polyline fill="none" stroke="black" points="145.5,-30 139.5,-30"/>
<text text-anchor="middle" x="110" y="-14.3" font-family="Times,serif" font-size="14.00">var.region</text>
</g>
<!-- [root] root -->
<g id="node3" class="node">
<title>[root] root</title>
<ellipse fill="none" stroke="black" cx="69" cy="-90" rx="47.39" ry="18"/>
<text text-anchor="middle" x="69" y="-86.3" font-family="Times,serif" font-size="14.00">[root] root</text>
</g>
<!-- [root] root&#45;&gt;[root] var.env -->
<g id="edge1" class="edge">
<title>[root] root&#45;&gt;[root] var.env</title>
<path fill="none" stroke="black" d="M59.08,-72.05C54.31,-63.92 48.5,-54 43.19,-44.94"/>
<polygon fill="black" stroke="black" points="46.19,-43.14 38.12,-36.28 40.15,-46.67 46.19,-43.14"/>
</g>
<!-- [root] root&#45;&gt;[root] var.region -->
<g id="edge2" class="edge">
<title>[root] root&#45;&gt;[root] var.region</title>
<path fill="none" stroke="black" d="M78.92,-72.05C83.69,-63.92 89.5,-54 94.81,-44.94"/>
<polygon fill="black" stroke="black" points="97.85,-46.67 99.88,-36.28 91.81,-43.14 97.85,-46.67"/>
</g>
</g>
</svg>
