<?xml version="1.0" encoding="UTF-8" standalone="no"?>
<!DOCTYPE svg PUBLIC "-//W3C//DTD SVG 1.1//EN"
 "http://www.w3.org/Graphics/SVG/1.1/DTD/svg11.dtd">
<!-- Generated by graphviz version 6.0.1 (20220911.1526)
 -->
<!-- Pages: 1 -->
<svg width="1194pt" height="620pt"
 viewBox="0.00 0.00 1194.14 620.00" xmlns="http://www.w3.org/2000/svg" xmlns:xlink="http://www.w3.org/1999/xlink">
<g id="graph0" class="graph" transform="scale(1 1) rotate(0) translate(4 616)">
<polygon fill="white" stroke="none" points="-4,4 -4,-616 1190.14,-616 1190.14,4 -4,4"/>
<!-- [root] module.root.aws_acm_certificate.certificate (expand) -->
<g id="node1" class="node">
<title>[root] module.root.aws_acm_certificate.certificate (expand)</title>
<polygon fill="none" stroke="black" points="696.64,-180 439.64,-180 439.64,-144 696.64,-144 696.64,-180"/>
<text text-anchor="middle" x="568.14" y="-158.3" font-family="Times,serif" font-size="14.00">module.root.aws_acm_certificate.certificate</text>
</g>
<!-- [root] provider[&quot;registry.terraform.io/hashicorp/aws&quot;] -->
<g id="node11" class="node">
<title>[root] provider[&quot;registry.terraform.io/hashicorp/aws&quot;]</title>
<polygon fill="none" stroke="black" points="312.14,-108 59.6,-90 312.14,-72 564.67,-90 312.14,-108"/>
<text text-anchor="middle" x="312.14" y="-86.3" font-family="Times,serif" font-size="14.00">provider[&quot;registry.terraform.io/hashicorp/aws&quot;]</text>
</g>
<!-- [root] module.root.aws_acm_certificate.certificate (expand)&#45;&gt;[root] provider[&quot;registry.terraform.io/hashicorp/aws&quot;] -->
<g id="edge6" class="edge">
<title>[root] module.root.aws_acm_certificate.certificate (expand)&#45;&gt;[root] provider[&quot;registry.terraform.io/hashicorp/aws&quot;]</title>
<path fill="none" stroke="black" d="M505.84,-143.97C464.96,-132.79 411.81,-118.25 371.53,-107.24"/>
<polygon fill="black" stroke="black" points="372.41,-103.85 361.84,-104.59 370.56,-110.6 372.41,-103.85"/>
</g>
<!-- [root] module.root.var.root_domain_name (expand) -->
<g id="node16" class="node">
<title>[root] module.root.var.root_domain_name (expand)</title>
<ellipse fill="none" stroke="black" cx="778.14" cy="-90" rx="194.97" ry="18"/>
<text text-anchor="middle" x="778.14" y="-86.3" font-family="Times,serif" font-size="14.00">[root] module.root.var.root_domain_name (expand)</text>
</g>
<!-- [root] module.root.aws_acm_certificate.certificate (expand)&#45;&gt;[root] module.root.var.root_domain_name (expand) -->
<g id="edge5" class="edge">
<title>[root] module.root.aws_acm_certificate.certificate (expand)&#45;&gt;[root] module.root.var.root_domain_name (expand)</title>
<path fill="none" stroke="black" d="M619.24,-143.97C649.39,-133.92 687.67,-121.16 719.1,-110.68"/>
<polygon fill="black" stroke="black" points="720.24,-113.99 728.62,-107.51 718.02,-107.35 720.24,-113.99"/>
</g>
<!-- [root] module.root.aws_acm_certificate_validation.certificate (expand) -->
<g id="node2" class="node">
<title>[root] module.root.aws_acm_certificate_validation.certificate (expand)</title>
<polygon fill="none" stroke="black" points="413.64,-324 96.64,-324 96.64,-288 413.64,-288 413.64,-324"/>
<text text-anchor="middle" x="255.14" y="-302.3" font-family="Times,serif" font-size="14.00">module.root.aws_acm_certificate_validation.certificate</text>
</g>
<!-- [root] module.root.aws_route53_record.cert_validation (expand) -->
<g id="node4" class="node">
<title>[root] module.root.aws_route53_record.cert_validation (expand)</title>
<polygon fill="none" stroke="black" points="453.14,-252 171.14,-252 171.14,-216 453.14,-216 453.14,-252"/>
<text text-anchor="middle" x="312.14" y="-230.3" font-family="Times,serif" font-size="14.00">module.root.aws_route53_record.cert_validation</text>
</g>
<!-- [root] module.root.aws_acm_certificate_validation.certificate (expand)&#45;&gt;[root] module.root.aws_route53_record.cert_validation (expand) -->
<g id="edge7" class="edge">
<title>[root] module.root.aws_acm_certificate_validation.certificate (expand)&#45;&gt;[root] module.root.aws_route53_record.cert_validation (expand)</title>
<path fill="none" stroke="black" d="M269.23,-287.7C276.06,-279.3 284.39,-269.07 291.89,-259.86"/>
<polygon fill="black" stroke="black" points="294.61,-262.07 298.21,-252.1 289.18,-257.65 294.61,-262.07"/>
</g>
<!-- [root] module.root.aws_cloudfront_distribution.root_distribution (expand) -->
<g id="node3" class="node">
<title>[root] module.root.aws_cloudfront_distribution.root_distribution (expand)</title>
<polygon fill="none" stroke="black" points="556.64,-396 221.64,-396 221.64,-360 556.64,-360 556.64,-396"/>
<text text-anchor="middle" x="389.14" y="-374.3" font-family="Times,serif" font-size="14.00">module.root.aws_cloudfront_distribution.root_distribution</text>
</g>
<!-- [root] module.root.aws_cloudfront_distribution.root_distribution (expand)&#45;&gt;[root] module.root.aws_acm_certificate_validation.certificate (expand) -->
<g id="edge8" class="edge">
<title>[root] module.root.aws_cloudfront_distribution.root_distribution (expand)&#45;&gt;[root] module.root.aws_acm_certificate_validation.certificate (expand)</title>
<path fill="none" stroke="black" d="M356.36,-359.88C338.51,-350.55 316.24,-338.92 297.13,-328.94"/>
<polygon fill="black" stroke="black" points="298.53,-325.72 288.04,-324.19 295.28,-331.92 298.53,-325.72"/>
</g>
<!-- [root] module.root.aws_s3_bucket_website_configuration.https_redirect (expand) -->
<g id="node10" class="node">
<title>[root] module.root.aws_s3_bucket_website_configuration.https_redirect (expand)</title>
<polygon fill="none" stroke="black" points="806.64,-324 431.64,-324 431.64,-288 806.64,-288 806.64,-324"/>
<text text-anchor="middle" x="619.14" y="-302.3" font-family="Times,serif" font-size="14.00">module.root.aws_s3_bucket_website_configuration.https_redirect</text>
</g>
<!-- [root] module.root.aws_cloudfront_distribution.root_distribution (expand)&#45;&gt;[root] module.root.aws_s3_bucket_website_configuration.https_redirect (expand) -->
<g id="edge9" class="edge">
<title>[root] module.root.aws_cloudfront_distribution.root_distribution (expand)&#45;&gt;[root] module.root.aws_s3_bucket_website_configuration.https_redirect (expand)</title>
<path fill="none" stroke="black" d="M445.11,-359.97C477.66,-350.06 518.88,-337.51 553.02,-327.12"/>
<polygon fill="black" stroke="black" points="554.37,-330.37 562.91,-324.11 552.33,-323.67 554.37,-330.37"/>
</g>
<!-- [root] module.root.aws_route53_record.cert_validation (expand)&#45;&gt;[root] module.root.aws_acm_certificate.certificate (expand) -->
<g id="edge10" class="edge">
<title>[root] module.root.aws_route53_record.cert_validation (expand)&#45;&gt;[root] module.root.aws_acm_certificate.certificate (expand)</title>
<path fill="none" stroke="black" d="M374.43,-215.97C410.98,-205.97 457.33,-193.3 495.53,-182.85"/>
<polygon fill="black" stroke="black" points="496.84,-186.12 505.56,-180.11 494.99,-179.37 496.84,-186.12"/>
</g>
<!-- [root] module.root.aws_route53_zone.zone (expand) -->
<g id="node6" class="node">
<title>[root] module.root.aws_route53_zone.zone (expand)</title>
<polygon fill="none" stroke="black" points="421.14,-180 203.14,-180 203.14,-144 421.14,-144 421.14,-180"/>
<text text-anchor="middle" x="312.14" y="-158.3" font-family="Times,serif" font-size="14.00">module.root.aws_route53_zone.zone</text>
</g>
<!-- [root] module.root.aws_route53_record.cert_validation (expand)&#45;&gt;[root] module.root.aws_route53_zone.zone (expand) -->
<g id="edge11" class="edge">
<title>[root] module.root.aws_route53_record.cert_validation (expand)&#45;&gt;[root] module.root.aws_route53_zone.zone (expand)</title>
<path fill="none" stroke="black" d="M312.14,-215.7C312.14,-207.98 312.14,-198.71 312.14,-190.11"/>
<polygon fill="black" stroke="black" points="315.64,-190.1 312.14,-180.1 308.64,-190.1 315.64,-190.1"/>
</g>
<!-- [root] module.root.aws_route53_record.root (expand) -->
<g id="node5" class="node">
<title>[root] module.root.aws_route53_record.root (expand)</title>
<polygon fill="none" stroke="black" points="567.64,-468 344.64,-468 344.64,-432 567.64,-432 567.64,-468"/>
<text text-anchor="middle" x="456.14" y="-446.3" font-family="Times,serif" font-size="14.00">module.root.aws_route53_record.root</text>
</g>
<!-- [root] module.root.aws_route53_record.root (expand)&#45;&gt;[root] module.root.aws_cloudfront_distribution.root_distribution (expand) -->
<g id="edge12" class="edge">
<title>[root] module.root.aws_route53_record.root (expand)&#45;&gt;[root] module.root.aws_cloudfront_distribution.root_distribution (expand)</title>
<path fill="none" stroke="black" d="M439.57,-431.7C431.46,-423.22 421.55,-412.86 412.66,-403.58"/>
<polygon fill="black" stroke="black" points="414.95,-400.91 405.51,-396.1 409.89,-405.75 414.95,-400.91"/>
</g>
<!-- [root] module.root.aws_route53_zone.zone (expand)&#45;&gt;[root] provider[&quot;registry.terraform.io/hashicorp/aws&quot;] -->
<g id="edge14" class="edge">
<title>[root] module.root.aws_route53_zone.zone (expand)&#45;&gt;[root] provider[&quot;registry.terraform.io/hashicorp/aws&quot;]</title>
<path fill="none" stroke="black" d="M312.14,-143.7C312.14,-135.98 312.14,-126.71 312.14,-118.11"/>
<polygon fill="black" stroke="black" points="315.64,-118.1 312.14,-108.1 308.64,-118.1 315.64,-118.1"/>
</g>
<!-- [root] module.root.aws_route53_zone.zone (expand)&#45;&gt;[root] module.root.var.root_domain_name (expand) -->
<g id="edge13" class="edge">
<title>[root] module.root.aws_route53_zone.zone (expand)&#45;&gt;[root] module.root.var.root_domain_name (expand)</title>
<path fill="none" stroke="black" d="M421.39,-144.59C496.57,-133.3 595.96,-118.37 670.73,-107.13"/>
<polygon fill="black" stroke="black" points="671.28,-110.59 680.65,-105.64 670.24,-103.67 671.28,-110.59"/>
</g>
<!-- [root] module.root.aws_s3_bucket.root (expand) -->
<g id="node7" class="node">
<title>[root] module.root.aws_s3_bucket.root (expand)</title>
<polygon fill="none" stroke="black" points="875.64,-252 680.64,-252 680.64,-216 875.64,-216 875.64,-252"/>
<text text-anchor="middle" x="778.14" y="-230.3" font-family="Times,serif" font-size="14.00">module.root.aws_s3_bucket.root</text>
</g>
<!-- [root] module.root.aws_s3_bucket.root (expand)&#45;&gt;[root] provider[&quot;registry.terraform.io/hashicorp/aws&quot;] -->
<g id="edge16" class="edge">
<title>[root] module.root.aws_s3_bucket.root (expand)&#45;&gt;[root] provider[&quot;registry.terraform.io/hashicorp/aws&quot;]</title>
<path fill="none" stroke="black" d="M769.41,-215.95C757.79,-195.17 735.15,-160.75 705.14,-144 663.08,-120.53 549.62,-106.89 455.36,-99.34"/>
<polygon fill="black" stroke="black" points="455.38,-95.83 445.14,-98.53 454.83,-102.81 455.38,-95.83"/>
</g>
<!-- [root] module.root.aws_s3_bucket.root (expand)&#45;&gt;[root] module.root.var.root_domain_name (expand) -->
<g id="edge15" class="edge">
<title>[root] module.root.aws_s3_bucket.root (expand)&#45;&gt;[root] module.root.var.root_domain_name (expand)</title>
<path fill="none" stroke="black" d="M778.14,-215.87C778.14,-191.67 778.14,-147.21 778.14,-118.39"/>
<polygon fill="black" stroke="black" points="781.64,-118.19 778.14,-108.19 774.64,-118.19 781.64,-118.19"/>
</g>
<!-- [root] module.root.aws_s3_bucket_acl.root (expand) -->
<g id="node8" class="node">
<title>[root] module.root.aws_s3_bucket_acl.root (expand)</title>
<polygon fill="none" stroke="black" points="1186.14,-468 968.14,-468 968.14,-432 1186.14,-432 1186.14,-468"/>
<text text-anchor="middle" x="1077.14" y="-446.3" font-family="Times,serif" font-size="14.00">module.root.aws_s3_bucket_acl.root</text>
</g>
<!-- [root] module.root.aws_s3_bucket_acl.root (expand)&#45;&gt;[root] module.root.aws_s3_bucket.root (expand) -->
<g id="edge17" class="edge">
<title>[root] module.root.aws_s3_bucket_acl.root (expand)&#45;&gt;[root] module.root.aws_s3_bucket.root (expand)</title>
<path fill="none" stroke="black" d="M1053.17,-431.85C999.81,-393.66 871.15,-301.57 810.63,-258.26"/>
<polygon fill="black" stroke="black" points="812.38,-255.21 802.21,-252.23 808.31,-260.9 812.38,-255.21"/>
</g>
<!-- [root] module.root.aws_s3_bucket_policy.allow_access_from_anyone (expand) -->
<g id="node9" class="node">
<title>[root] module.root.aws_s3_bucket_policy.allow_access_from_anyone (expand)</title>
<polygon fill="none" stroke="black" points="950.14,-468 586.14,-468 586.14,-432 950.14,-432 950.14,-468"/>
<text text-anchor="middle" x="768.14" y="-446.3" font-family="Times,serif" font-size="14.00">module.root.aws_s3_bucket_policy.allow_access_from_anyone</text>
</g>
<!-- [root] module.root.aws_s3_bucket_policy.allow_access_from_anyone (expand)&#45;&gt;[root] module.root.aws_s3_bucket.root (expand) -->
<g id="edge18" class="edge">
<title>[root] module.root.aws_s3_bucket_policy.allow_access_from_anyone (expand)&#45;&gt;[root] module.root.aws_s3_bucket.root (expand)</title>
<path fill="none" stroke="black" d="M777.08,-431.79C788.79,-408.22 808.68,-364.23 816.14,-324 819.05,-308.27 821.03,-303.23 816.14,-288 812.95,-278.08 807.14,-268.44 801.01,-260.17"/>
<polygon fill="black" stroke="black" points="803.55,-257.74 794.6,-252.08 798.07,-262.09 803.55,-257.74"/>
</g>
<!-- [root] module.root.aws_s3_bucket_website_configuration.https_redirect (expand)&#45;&gt;[root] module.root.aws_s3_bucket.root (expand) -->
<g id="edge19" class="edge">
<title>[root] module.root.aws_s3_bucket_website_configuration.https_redirect (expand)&#45;&gt;[root] module.root.aws_s3_bucket.root (expand)</title>
<path fill="none" stroke="black" d="M658.03,-287.88C679.77,-278.31 707.04,-266.3 730.1,-256.15"/>
<polygon fill="black" stroke="black" points="731.62,-259.3 739.37,-252.07 728.8,-252.89 731.62,-259.3"/>
</g>
<!-- [root] var.region -->
<g id="node13" class="node">
<title>[root] var.region</title>
<polygon fill="none" stroke="black" points="341.64,-36 276.64,-36 276.64,0 347.64,0 347.64,-30 341.64,-36"/>
<polyline fill="none" stroke="black" points="341.64,-36 341.64,-30"/>
<polyline fill="none" stroke="black" points="347.64,-30 341.64,-30"/>
<text text-anchor="middle" x="312.14" y="-14.3" font-family="Times,serif" font-size="14.00">var.region</text>
</g>
<!-- [root] provider[&quot;registry.terraform.io/hashicorp/aws&quot;]&#45;&gt;[root] var.region -->
<g id="edge26" class="edge">
<title>[root] provider[&quot;registry.terraform.io/hashicorp/aws&quot;]&#45;&gt;[root] var.region</title>
<path fill="none" stroke="black" d="M312.14,-71.7C312.14,-63.98 312.14,-54.71 312.14,-46.11"/>
<polygon fill="black" stroke="black" points="315.64,-46.1 312.14,-36.1 308.64,-46.1 315.64,-46.1"/>
</g>
<!-- [root] var.env -->
<g id="node12" class="node">
<title>[root] var.env</title>
<polygon fill="none" stroke="black" points="1090.14,-540 1040.14,-540 1040.14,-504 1096.14,-504 1096.14,-534 1090.14,-540"/>
<polyline fill="none" stroke="black" points="1090.14,-540 1090.14,-534"/>
<polyline fill="none" stroke="black" points="1096.14,-534 1090.14,-534"/>
<text text-anchor="middle" x="1068.14" y="-518.3" font-family="Times,serif" font-size="14.00">var.env</text>
</g>
<!-- [root] module.root (close) -->
<g id="node14" class="node">
<title>[root] module.root (close)</title>
<ellipse fill="none" stroke="black" cx="447.14" cy="-522" rx="102.88" ry="18"/>
<text text-anchor="middle" x="447.14" y="-518.3" font-family="Times,serif" font-size="14.00">[root] module.root (close)</text>
</g>
<!-- [root] module.root (close)&#45;&gt;[root] module.root.aws_route53_record.root (expand) -->
<g id="edge1" class="edge">
<title>[root] module.root (close)&#45;&gt;[root] module.root.aws_route53_record.root (expand)</title>
<path fill="none" stroke="black" d="M449.36,-503.7C450.35,-495.98 451.54,-486.71 452.65,-478.11"/>
<polygon fill="black" stroke="black" points="456.13,-478.47 453.94,-468.1 449.19,-477.58 456.13,-478.47"/>
</g>
<!-- [root] module.root (close)&#45;&gt;[root] module.root.aws_s3_bucket_acl.root (expand) -->
<g id="edge2" class="edge">
<title>[root] module.root (close)&#45;&gt;[root] module.root.aws_s3_bucket_acl.root (expand)</title>
<path fill="none" stroke="black" d="M519.95,-509.29C532.98,-507.38 546.44,-505.53 559.14,-504 733.14,-482.98 780.16,-488.52 957.92,-468.1"/>
<polygon fill="black" stroke="black" points="958.34,-471.58 967.87,-466.95 957.53,-464.63 958.34,-471.58"/>
</g>
<!-- [root] module.root (close)&#45;&gt;[root] module.root.aws_s3_bucket_policy.allow_access_from_anyone (expand) -->
<g id="edge3" class="edge">
<title>[root] module.root (close)&#45;&gt;[root] module.root.aws_s3_bucket_policy.allow_access_from_anyone (expand)</title>
<path fill="none" stroke="black" d="M508.65,-507.59C557.23,-496.99 625.68,-482.07 680.07,-470.2"/>
<polygon fill="black" stroke="black" points="681.03,-473.58 690.06,-468.03 679.54,-466.74 681.03,-473.58"/>
</g>
<!-- [root] module.root.output.outputs (expand) -->
<g id="node15" class="node">
<title>[root] module.root.output.outputs (expand)</title>
<ellipse fill="none" stroke="black" cx="163.14" cy="-450" rx="163.27" ry="18"/>
<text text-anchor="middle" x="163.14" y="-446.3" font-family="Times,serif" font-size="14.00">[root] module.root.output.outputs (expand)</text>
</g>
<!-- [root] module.root (close)&#45;&gt;[root] module.root.output.outputs (expand) -->
<g id="edge4" class="edge">
<title>[root] module.root (close)&#45;&gt;[root] module.root.output.outputs (expand)</title>
<path fill="none" stroke="black" d="M390.35,-507C346.05,-496.08 284.2,-480.84 236.21,-469.01"/>
<polygon fill="black" stroke="black" points="237.05,-465.61 226.5,-466.62 235.37,-472.41 237.05,-465.61"/>
</g>
<!-- [root] module.root.output.outputs (expand)&#45;&gt;[root] module.root.aws_cloudfront_distribution.root_distribution (expand) -->
<g id="edge20" class="edge">
<title>[root] module.root.output.outputs (expand)&#45;&gt;[root] module.root.aws_cloudfront_distribution.root_distribution (expand)</title>
<path fill="none" stroke="black" d="M215.27,-432.85C247.8,-422.78 289.92,-409.73 324.56,-399"/>
<polygon fill="black" stroke="black" points="325.6,-402.34 334.11,-396.04 323.52,-395.66 325.6,-402.34"/>
</g>
<!-- [root] module.root (expand) -->
<g id="node17" class="node">
<title>[root] module.root (expand)</title>
<ellipse fill="none" stroke="black" cx="778.14" cy="-18" rx="110.48" ry="18"/>
<text text-anchor="middle" x="778.14" y="-14.3" font-family="Times,serif" font-size="14.00">[root] module.root (expand)</text>
</g>
<!-- [root] module.root.var.root_domain_name (expand)&#45;&gt;[root] module.root (expand) -->
<g id="edge21" class="edge">
<title>[root] module.root.var.root_domain_name (expand)&#45;&gt;[root] module.root (expand)</title>
<path fill="none" stroke="black" d="M778.14,-71.7C778.14,-63.98 778.14,-54.71 778.14,-46.11"/>
<polygon fill="black" stroke="black" points="781.64,-46.1 778.14,-36.1 774.64,-46.1 781.64,-46.1"/>
</g>
<!-- [root] output.root_domain (expand) -->
<g id="node18" class="node">
<title>[root] output.root_domain (expand)</title>
<ellipse fill="none" stroke="black" cx="180.14" cy="-522" rx="137.28" ry="18"/>
<text text-anchor="middle" x="180.14" y="-518.3" font-family="Times,serif" font-size="14.00">[root] output.root_domain (expand)</text>
</g>
<!-- [root] output.root_domain (expand)&#45;&gt;[root] module.root.output.outputs (expand) -->
<g id="edge22" class="edge">
<title>[root] output.root_domain (expand)&#45;&gt;[root] module.root.output.outputs (expand)</title>
<path fill="none" stroke="black" d="M175.93,-503.7C174.04,-495.9 171.76,-486.51 169.65,-477.83"/>
<polygon fill="black" stroke="black" points="173.05,-477 167.29,-468.1 166.25,-478.65 173.05,-477"/>
</g>
<!-- [root] provider[&quot;registry.terraform.io/hashicorp/aws&quot;] (close) -->
<g id="node19" class="node">
<title>[root] provider[&quot;registry.terraform.io/hashicorp/aws&quot;] (close)</title>
<ellipse fill="none" stroke="black" cx="795.14" cy="-522" rx="227.46" ry="18"/>
<text text-anchor="middle" x="795.14" y="-518.3" font-family="Times,serif" font-size="14.00">[root] provider[&quot;registry.terraform.io/hashicorp/aws&quot;] (close)</text>
</g>
<!-- [root] provider[&quot;registry.terraform.io/hashicorp/aws&quot;] (close)&#45;&gt;[root] module.root.aws_route53_record.root (expand) -->
<g id="edge23" class="edge">
<title>[root] provider[&quot;registry.terraform.io/hashicorp/aws&quot;] (close)&#45;&gt;[root] module.root.aws_route53_record.root (expand)</title>
<path fill="none" stroke="black" d="M717.79,-505.03C667.49,-494.64 601.63,-481.04 548.57,-470.09"/>
<polygon fill="black" stroke="black" points="548.98,-466.6 538.48,-468 547.56,-473.45 548.98,-466.6"/>
</g>
<!-- [root] provider[&quot;registry.terraform.io/hashicorp/aws&quot;] (close)&#45;&gt;[root] module.root.aws_s3_bucket_acl.root (expand) -->
<g id="edge24" class="edge">
<title>[root] provider[&quot;registry.terraform.io/hashicorp/aws&quot;] (close)&#45;&gt;[root] module.root.aws_s3_bucket_acl.root (expand)</title>
<path fill="none" stroke="black" d="M860.9,-504.68C901.97,-494.48 955.08,-481.3 998.39,-470.55"/>
<polygon fill="black" stroke="black" points="999.46,-473.89 1008.32,-468.08 997.77,-467.09 999.46,-473.89"/>
</g>
<!-- [root] provider[&quot;registry.terraform.io/hashicorp/aws&quot;] (close)&#45;&gt;[root] module.root.aws_s3_bucket_policy.allow_access_from_anyone (expand) -->
<g id="edge25" class="edge">
<title>[root] provider[&quot;registry.terraform.io/hashicorp/aws&quot;] (close)&#45;&gt;[root] module.root.aws_s3_bucket_policy.allow_access_from_anyone (expand)</title>
<path fill="none" stroke="black" d="M788.46,-503.7C785.42,-495.81 781.75,-486.3 778.37,-477.55"/>
<polygon fill="black" stroke="black" points="781.6,-476.17 774.73,-468.1 775.07,-478.69 781.6,-476.17"/>
</g>
<!-- [root] root -->
<g id="node20" class="node">
<title>[root] root</title>
<ellipse fill="none" stroke="black" cx="621.14" cy="-594" rx="47.39" ry="18"/>
<text text-anchor="middle" x="621.14" y="-590.3" font-family="Times,serif" font-size="14.00">[root] root</text>
</g>
<!-- [root] root&#45;&gt;[root] var.env -->
<g id="edge30" class="edge">
<title>[root] root&#45;&gt;[root] var.env</title>
<path fill="none" stroke="black" d="M668.18,-591.52C743.57,-588.15 895.82,-577.27 1030.14,-539.8"/>
<polygon fill="black" stroke="black" points="1031.12,-543.16 1039.78,-537.06 1029.2,-536.43 1031.12,-543.16"/>
</g>
<!-- [root] root&#45;&gt;[root] module.root (close) -->
<g id="edge27" class="edge">
<title>[root] root&#45;&gt;[root] module.root (close)</title>
<path fill="none" stroke="black" d="M589.63,-580.32C563.47,-569.8 525.82,-554.66 495.8,-542.58"/>
<polygon fill="black" stroke="black" points="496.92,-539.26 486.34,-538.77 494.31,-545.75 496.92,-539.26"/>
</g>
<!-- [root] root&#45;&gt;[root] output.root_domain (expand) -->
<g id="edge28" class="edge">
<title>[root] root&#45;&gt;[root] output.root_domain (expand)</title>
<path fill="none" stroke="black" d="M578.05,-586.16C507.99,-575.04 367.81,-552.79 273.96,-537.89"/>
<polygon fill="black" stroke="black" points="274.31,-534.41 263.89,-536.29 273.22,-541.32 274.31,-534.41"/>
</g>
<!-- [root] root&#45;&gt;[root] provider[&quot;registry.terraform.io/hashicorp/aws&quot;] (close) -->
<g id="edge29" class="edge">
<title>[root] root&#45;&gt;[root] provider[&quot;registry.terraform.io/hashicorp/aws&quot;] (close)</title>
<path fill="none" stroke="black" d="M652.65,-580.32C678.1,-570.08 714.42,-555.47 744.02,-543.56"/>
<polygon fill="black" stroke="black" points="745.4,-546.78 753.38,-539.8 742.79,-540.29 745.4,-546.78"/>
</g>
</g>
</svg>
