<?xml version="1.0" encoding="UTF-8" standalone="no"?>
<!DOCTYPE svg PUBLIC "-//W3C//DTD SVG 1.1//EN"
 "http://www.w3.org/Graphics/SVG/1.1/DTD/svg11.dtd">
<!-- Generated by graphviz version 12.0.0 (20240704.0754)
 -->
<!-- Pages: 1 -->
<svg width="1275pt" height="620pt"
 viewBox="0.00 0.00 1274.61 620.00" xmlns="http://www.w3.org/2000/svg" xmlns:xlink="http://www.w3.org/1999/xlink">
<g id="graph0" class="graph" transform="scale(1 1) rotate(0) translate(4 616)">
<polygon fill="white" stroke="none" points="-4,4 -4,-616 1270.61,-616 1270.61,4 -4,4"/>
<!-- [root] module.root.aws_acm_certificate.certificate (expand) -->
<g id="node1" class="node">
<title>[root] module.root.aws_acm_certificate.certificate (expand)</title>
<polygon fill="none" stroke="black" points="806.5,-180 550.5,-180 550.5,-144 806.5,-144 806.5,-180"/>
<text text-anchor="middle" x="678.5" y="-156.95" font-family="Times,serif" font-size="14.00">module.root.aws_acm_certificate.certificate</text>
</g>
<!-- [root] provider[&quot;registry.terraform.io/hashicorp/aws&quot;] -->
<g id="node13" class="node">
<title>[root] provider[&quot;registry.terraform.io/hashicorp/aws&quot;]</title>
<polygon fill="none" stroke="black" points="484.5,-108 220.07,-90 484.5,-72 748.93,-90 484.5,-108"/>
<text text-anchor="middle" x="484.5" y="-84.95" font-family="Times,serif" font-size="14.00">provider[&quot;registry.terraform.io/hashicorp/aws&quot;]</text>
</g>
<!-- [root] module.root.aws_acm_certificate.certificate (expand)&#45;&gt;[root] provider[&quot;registry.terraform.io/hashicorp/aws&quot;] -->
<g id="edge6" class="edge">
<title>[root] module.root.aws_acm_certificate.certificate (expand)&#45;&gt;[root] provider[&quot;registry.terraform.io/hashicorp/aws&quot;]</title>
<path fill="none" stroke="black" d="M630.05,-143.52C601.39,-133.18 565.11,-120.08 535.94,-109.56"/>
<polygon fill="black" stroke="black" points="537.16,-106.28 526.56,-106.18 534.78,-112.86 537.16,-106.28"/>
</g>
<!-- [root] module.root.var.root_domain_name (expand) -->
<g id="node18" class="node">
<title>[root] module.root.var.root_domain_name (expand)</title>
<ellipse fill="none" stroke="black" cx="971.5" cy="-90" rx="204.38" ry="18"/>
<text text-anchor="middle" x="971.5" y="-84.95" font-family="Times,serif" font-size="14.00">[root] module.root.var.root_domain_name (expand)</text>
</g>
<!-- [root] module.root.aws_acm_certificate.certificate (expand)&#45;&gt;[root] module.root.var.root_domain_name (expand) -->
<g id="edge5" class="edge">
<title>[root] module.root.aws_acm_certificate.certificate (expand)&#45;&gt;[root] module.root.var.root_domain_name (expand)</title>
<path fill="none" stroke="black" d="M751.68,-143.52C794.25,-133.35 847.94,-120.52 891.61,-110.09"/>
<polygon fill="black" stroke="black" points="892.39,-113.5 901.3,-107.77 890.76,-106.69 892.39,-113.5"/>
</g>
<!-- [root] module.root.aws_acm_certificate_validation.certificate (expand) -->
<g id="node2" class="node">
<title>[root] module.root.aws_acm_certificate_validation.certificate (expand)</title>
<polygon fill="none" stroke="black" points="1221.88,-324 905.12,-324 905.12,-288 1221.88,-288 1221.88,-324"/>
<text text-anchor="middle" x="1063.5" y="-300.95" font-family="Times,serif" font-size="14.00">module.root.aws_acm_certificate_validation.certificate</text>
</g>
<!-- [root] module.root.aws_route53_record.cert_validation (expand) -->
<g id="node4" class="node">
<title>[root] module.root.aws_route53_record.cert_validation (expand)</title>
<polygon fill="none" stroke="black" points="1112.25,-252 830.75,-252 830.75,-216 1112.25,-216 1112.25,-252"/>
<text text-anchor="middle" x="971.5" y="-228.95" font-family="Times,serif" font-size="14.00">module.root.aws_route53_record.cert_validation</text>
</g>
<!-- [root] module.root.aws_acm_certificate_validation.certificate (expand)&#45;&gt;[root] module.root.aws_route53_record.cert_validation (expand) -->
<g id="edge7" class="edge">
<title>[root] module.root.aws_acm_certificate_validation.certificate (expand)&#45;&gt;[root] module.root.aws_route53_record.cert_validation (expand)</title>
<path fill="none" stroke="black" d="M1040.76,-287.7C1029.48,-279.11 1015.67,-268.61 1003.36,-259.24"/>
<polygon fill="black" stroke="black" points="1005.58,-256.53 995.5,-253.26 1001.34,-262.1 1005.58,-256.53"/>
</g>
<!-- [root] module.root.aws_cloudfront_distribution.root_distribution (expand) -->
<g id="node3" class="node">
<title>[root] module.root.aws_cloudfront_distribution.root_distribution (expand)</title>
<polygon fill="none" stroke="black" points="1096.5,-396 762.5,-396 762.5,-360 1096.5,-360 1096.5,-396"/>
<text text-anchor="middle" x="929.5" y="-372.95" font-family="Times,serif" font-size="14.00">module.root.aws_cloudfront_distribution.root_distribution</text>
</g>
<!-- [root] module.root.aws_cloudfront_distribution.root_distribution (expand)&#45;&gt;[root] module.root.aws_acm_certificate_validation.certificate (expand) -->
<g id="edge8" class="edge">
<title>[root] module.root.aws_cloudfront_distribution.root_distribution (expand)&#45;&gt;[root] module.root.aws_acm_certificate_validation.certificate (expand)</title>
<path fill="none" stroke="black" d="M962.97,-359.52C980.37,-350.43 1001.83,-339.22 1020.45,-329.49"/>
<polygon fill="black" stroke="black" points="1021.87,-332.69 1029.12,-324.96 1018.63,-326.49 1021.87,-332.69"/>
</g>
<!-- [root] module.root.aws_s3_bucket_website_configuration.https_redirect (expand) -->
<g id="node12" class="node">
<title>[root] module.root.aws_s3_bucket_website_configuration.https_redirect (expand)</title>
<polygon fill="none" stroke="black" points="886.75,-324 512.25,-324 512.25,-288 886.75,-288 886.75,-324"/>
<text text-anchor="middle" x="699.5" y="-300.95" font-family="Times,serif" font-size="14.00">module.root.aws_s3_bucket_website_configuration.https_redirect</text>
</g>
<!-- [root] module.root.aws_cloudfront_distribution.root_distribution (expand)&#45;&gt;[root] module.root.aws_s3_bucket_website_configuration.https_redirect (expand) -->
<g id="edge9" class="edge">
<title>[root] module.root.aws_cloudfront_distribution.root_distribution (expand)&#45;&gt;[root] module.root.aws_s3_bucket_website_configuration.https_redirect (expand)</title>
<path fill="none" stroke="black" d="M872.05,-359.52C840.38,-349.88 800.85,-337.84 767.62,-327.73"/>
<polygon fill="black" stroke="black" points="768.65,-324.39 758.06,-324.82 766.61,-331.08 768.65,-324.39"/>
</g>
<!-- [root] module.root.aws_route53_record.cert_validation (expand)&#45;&gt;[root] module.root.aws_acm_certificate.certificate (expand) -->
<g id="edge10" class="edge">
<title>[root] module.root.aws_route53_record.cert_validation (expand)&#45;&gt;[root] module.root.aws_acm_certificate.certificate (expand)</title>
<path fill="none" stroke="black" d="M898.32,-215.52C857.08,-205.66 805.39,-193.31 762.5,-183.07"/>
<polygon fill="black" stroke="black" points="763.52,-179.71 752.98,-180.79 761.89,-186.52 763.52,-179.71"/>
</g>
<!-- [root] module.root.aws_route53_zone.zone (expand) -->
<g id="node6" class="node">
<title>[root] module.root.aws_route53_zone.zone (expand)</title>
<polygon fill="none" stroke="black" points="1080,-180 863,-180 863,-144 1080,-144 1080,-180"/>
<text text-anchor="middle" x="971.5" y="-156.95" font-family="Times,serif" font-size="14.00">module.root.aws_route53_zone.zone</text>
</g>
<!-- [root] module.root.aws_route53_record.cert_validation (expand)&#45;&gt;[root] module.root.aws_route53_zone.zone (expand) -->
<g id="edge11" class="edge">
<title>[root] module.root.aws_route53_record.cert_validation (expand)&#45;&gt;[root] module.root.aws_route53_zone.zone (expand)</title>
<path fill="none" stroke="black" d="M971.5,-215.7C971.5,-208.41 971.5,-199.73 971.5,-191.54"/>
<polygon fill="black" stroke="black" points="975,-191.62 971.5,-181.62 968,-191.62 975,-191.62"/>
</g>
<!-- [root] module.root.aws_route53_record.root (expand) -->
<g id="node5" class="node">
<title>[root] module.root.aws_route53_record.root (expand)</title>
<polygon fill="none" stroke="black" points="906.62,-468 684.38,-468 684.38,-432 906.62,-432 906.62,-468"/>
<text text-anchor="middle" x="795.5" y="-444.95" font-family="Times,serif" font-size="14.00">module.root.aws_route53_record.root</text>
</g>
<!-- [root] module.root.aws_route53_record.root (expand)&#45;&gt;[root] module.root.aws_cloudfront_distribution.root_distribution (expand) -->
<g id="edge12" class="edge">
<title>[root] module.root.aws_route53_record.root (expand)&#45;&gt;[root] module.root.aws_cloudfront_distribution.root_distribution (expand)</title>
<path fill="none" stroke="black" d="M828.97,-431.52C846.37,-422.43 867.83,-411.22 886.45,-401.49"/>
<polygon fill="black" stroke="black" points="887.87,-404.69 895.12,-396.96 884.63,-398.49 887.87,-404.69"/>
</g>
<!-- [root] module.root.aws_route53_zone.zone (expand)&#45;&gt;[root] provider[&quot;registry.terraform.io/hashicorp/aws&quot;] -->
<g id="edge14" class="edge">
<title>[root] module.root.aws_route53_zone.zone (expand)&#45;&gt;[root] provider[&quot;registry.terraform.io/hashicorp/aws&quot;]</title>
<path fill="none" stroke="black" d="M862.51,-145.33C777.09,-133.06 659.48,-116.15 578.23,-104.47"/>
<polygon fill="black" stroke="black" points="578.91,-101.03 568.51,-103.08 577.91,-107.96 578.91,-101.03"/>
</g>
<!-- [root] module.root.aws_route53_zone.zone (expand)&#45;&gt;[root] module.root.var.root_domain_name (expand) -->
<g id="edge13" class="edge">
<title>[root] module.root.aws_route53_zone.zone (expand)&#45;&gt;[root] module.root.var.root_domain_name (expand)</title>
<path fill="none" stroke="black" d="M971.5,-143.7C971.5,-136.41 971.5,-127.73 971.5,-119.54"/>
<polygon fill="black" stroke="black" points="975,-119.62 971.5,-109.62 968,-119.62 975,-119.62"/>
</g>
<!-- [root] module.root.aws_s3_bucket.root (expand) -->
<g id="node7" class="node">
<title>[root] module.root.aws_s3_bucket.root (expand)</title>
<polygon fill="none" stroke="black" points="581.75,-252 387.25,-252 387.25,-216 581.75,-216 581.75,-252"/>
<text text-anchor="middle" x="484.5" y="-228.95" font-family="Times,serif" font-size="14.00">module.root.aws_s3_bucket.root</text>
</g>
<!-- [root] module.root.aws_s3_bucket.root (expand)&#45;&gt;[root] provider[&quot;registry.terraform.io/hashicorp/aws&quot;] -->
<g id="edge16" class="edge">
<title>[root] module.root.aws_s3_bucket.root (expand)&#45;&gt;[root] provider[&quot;registry.terraform.io/hashicorp/aws&quot;]</title>
<path fill="none" stroke="black" d="M484.5,-215.59C484.5,-191.61 484.5,-148.14 484.5,-119.42"/>
<polygon fill="black" stroke="black" points="488,-119.62 484.5,-109.62 481,-119.62 488,-119.62"/>
</g>
<!-- [root] module.root.aws_s3_bucket.root (expand)&#45;&gt;[root] module.root.var.root_domain_name (expand) -->
<g id="edge15" class="edge">
<title>[root] module.root.aws_s3_bucket.root (expand)&#45;&gt;[root] module.root.var.root_domain_name (expand)</title>
<path fill="none" stroke="black" d="M582.02,-232.12C650.42,-228.06 742.34,-215.53 815.5,-180 836.72,-169.7 834.84,-157.03 854.5,-144 873.09,-131.68 895.02,-120.89 914.83,-112.33"/>
<polygon fill="black" stroke="black" points="916.03,-115.62 923.88,-108.51 913.31,-109.17 916.03,-115.62"/>
</g>
<!-- [root] module.root.aws_s3_bucket_acl.root (expand) -->
<g id="node8" class="node">
<title>[root] module.root.aws_s3_bucket_acl.root (expand)</title>
<polygon fill="none" stroke="black" points="285,-468 68,-468 68,-432 285,-432 285,-468"/>
<text text-anchor="middle" x="176.5" y="-444.95" font-family="Times,serif" font-size="14.00">module.root.aws_s3_bucket_acl.root</text>
</g>
<!-- [root] module.root.aws_s3_bucket_ownership_controls.root (expand) -->
<g id="node9" class="node">
<title>[root] module.root.aws_s3_bucket_ownership_controls.root (expand)</title>
<polygon fill="none" stroke="black" points="456.38,-396 148.62,-396 148.62,-360 456.38,-360 456.38,-396"/>
<text text-anchor="middle" x="302.5" y="-372.95" font-family="Times,serif" font-size="14.00">module.root.aws_s3_bucket_ownership_controls.root</text>
</g>
<!-- [root] module.root.aws_s3_bucket_acl.root (expand)&#45;&gt;[root] module.root.aws_s3_bucket_ownership_controls.root (expand) -->
<g id="edge17" class="edge">
<title>[root] module.root.aws_s3_bucket_acl.root (expand)&#45;&gt;[root] module.root.aws_s3_bucket_ownership_controls.root (expand)</title>
<path fill="none" stroke="black" d="M207.97,-431.52C224.18,-422.51 244.14,-411.42 261.53,-401.76"/>
<polygon fill="black" stroke="black" points="263.07,-404.91 270.11,-397 259.67,-398.79 263.07,-404.91"/>
</g>
<!-- [root] module.root.aws_s3_bucket_public_access_block.root (expand) -->
<g id="node11" class="node">
<title>[root] module.root.aws_s3_bucket_public_access_block.root (expand)</title>
<polygon fill="none" stroke="black" points="313,-324 0,-324 0,-288 313,-288 313,-324"/>
<text text-anchor="middle" x="156.5" y="-300.95" font-family="Times,serif" font-size="14.00">module.root.aws_s3_bucket_public_access_block.root</text>
</g>
<!-- [root] module.root.aws_s3_bucket_acl.root (expand)&#45;&gt;[root] module.root.aws_s3_bucket_public_access_block.root (expand) -->
<g id="edge18" class="edge">
<title>[root] module.root.aws_s3_bucket_acl.root (expand)&#45;&gt;[root] module.root.aws_s3_bucket_public_access_block.root (expand)</title>
<path fill="none" stroke="black" d="M160.46,-431.85C152.49,-422.12 143.67,-409.27 139.5,-396 133.23,-376.06 138.05,-352.84 144.14,-335.12"/>
<polygon fill="black" stroke="black" points="147.41,-336.36 147.68,-325.77 140.86,-333.88 147.41,-336.36"/>
</g>
<!-- [root] module.root.aws_s3_bucket_ownership_controls.root (expand)&#45;&gt;[root] module.root.aws_s3_bucket.root (expand) -->
<g id="edge19" class="edge">
<title>[root] module.root.aws_s3_bucket_ownership_controls.root (expand)&#45;&gt;[root] module.root.aws_s3_bucket.root (expand)</title>
<path fill="none" stroke="black" d="M324.82,-359.59C357.11,-334.4 416.98,-287.68 453.53,-259.17"/>
<polygon fill="black" stroke="black" points="455.36,-262.17 461.09,-253.26 451.06,-256.66 455.36,-262.17"/>
</g>
<!-- [root] module.root.aws_s3_bucket_policy.allow_access_from_anyone (expand) -->
<g id="node10" class="node">
<title>[root] module.root.aws_s3_bucket_policy.allow_access_from_anyone (expand)</title>
<polygon fill="none" stroke="black" points="666.12,-468 302.88,-468 302.88,-432 666.12,-432 666.12,-468"/>
<text text-anchor="middle" x="484.5" y="-444.95" font-family="Times,serif" font-size="14.00">module.root.aws_s3_bucket_policy.allow_access_from_anyone</text>
</g>
<!-- [root] module.root.aws_s3_bucket_policy.allow_access_from_anyone (expand)&#45;&gt;[root] module.root.aws_s3_bucket.root (expand) -->
<g id="edge20" class="edge">
<title>[root] module.root.aws_s3_bucket_policy.allow_access_from_anyone (expand)&#45;&gt;[root] module.root.aws_s3_bucket.root (expand)</title>
<path fill="none" stroke="black" d="M484.5,-431.85C484.5,-395.14 484.5,-308.66 484.5,-263.53"/>
<polygon fill="black" stroke="black" points="488,-263.75 484.5,-253.75 481,-263.75 488,-263.75"/>
</g>
<!-- [root] module.root.aws_s3_bucket_public_access_block.root (expand)&#45;&gt;[root] module.root.aws_s3_bucket.root (expand) -->
<g id="edge21" class="edge">
<title>[root] module.root.aws_s3_bucket_public_access_block.root (expand)&#45;&gt;[root] module.root.aws_s3_bucket.root (expand)</title>
<path fill="none" stroke="black" d="M238.42,-287.52C284.98,-277.58 343.44,-265.1 391.69,-254.81"/>
<polygon fill="black" stroke="black" points="392.24,-258.27 401.29,-252.76 390.78,-251.42 392.24,-258.27"/>
</g>
<!-- [root] module.root.aws_s3_bucket_website_configuration.https_redirect (expand)&#45;&gt;[root] module.root.aws_s3_bucket.root (expand) -->
<g id="edge22" class="edge">
<title>[root] module.root.aws_s3_bucket_website_configuration.https_redirect (expand)&#45;&gt;[root] module.root.aws_s3_bucket.root (expand)</title>
<path fill="none" stroke="black" d="M645.8,-287.52C616.32,-277.92 579.56,-265.95 548.58,-255.86"/>
<polygon fill="black" stroke="black" points="549.92,-252.62 539.33,-252.85 547.75,-259.27 549.92,-252.62"/>
</g>
<!-- [root] var.region -->
<g id="node15" class="node">
<title>[root] var.region</title>
<polygon fill="none" stroke="black" points="513.88,-36 449.12,-36 449.12,0 519.88,0 519.88,-30 513.88,-36"/>
<polyline fill="none" stroke="black" points="513.88,-36 513.88,-30"/>
<polyline fill="none" stroke="black" points="519.88,-30 513.88,-30"/>
<text text-anchor="middle" x="484.5" y="-12.95" font-family="Times,serif" font-size="14.00">var.region</text>
</g>
<!-- [root] provider[&quot;registry.terraform.io/hashicorp/aws&quot;]&#45;&gt;[root] var.region -->
<g id="edge29" class="edge">
<title>[root] provider[&quot;registry.terraform.io/hashicorp/aws&quot;]&#45;&gt;[root] var.region</title>
<path fill="none" stroke="black" d="M484.5,-71.7C484.5,-64.41 484.5,-55.73 484.5,-47.54"/>
<polygon fill="black" stroke="black" points="488,-47.62 484.5,-37.62 481,-47.62 488,-47.62"/>
</g>
<!-- [root] var.env -->
<g id="node14" class="node">
<title>[root] var.env</title>
<polygon fill="none" stroke="black" points="177.38,-540 127.62,-540 127.62,-504 183.38,-504 183.38,-534 177.38,-540"/>
<polyline fill="none" stroke="black" points="177.38,-540 177.38,-534"/>
<polyline fill="none" stroke="black" points="183.38,-534 177.38,-534"/>
<text text-anchor="middle" x="155.5" y="-516.95" font-family="Times,serif" font-size="14.00">var.env</text>
</g>
<!-- [root] module.root (close) -->
<g id="node16" class="node">
<title>[root] module.root (close)</title>
<ellipse fill="none" stroke="black" cx="803.5" cy="-522" rx="107.65" ry="18"/>
<text text-anchor="middle" x="803.5" y="-516.95" font-family="Times,serif" font-size="14.00">[root] module.root (close)</text>
</g>
<!-- [root] module.root (close)&#45;&gt;[root] module.root.aws_route53_record.root (expand) -->
<g id="edge1" class="edge">
<title>[root] module.root (close)&#45;&gt;[root] module.root.aws_route53_record.root (expand)</title>
<path fill="none" stroke="black" d="M801.52,-503.7C800.69,-496.41 799.7,-487.73 798.76,-479.54"/>
<polygon fill="black" stroke="black" points="802.24,-479.15 797.63,-469.61 795.28,-479.94 802.24,-479.15"/>
</g>
<!-- [root] module.root (close)&#45;&gt;[root] module.root.aws_s3_bucket_acl.root (expand) -->
<g id="edge2" class="edge">
<title>[root] module.root (close)&#45;&gt;[root] module.root.aws_s3_bucket_acl.root (expand)</title>
<path fill="none" stroke="black" d="M725.85,-509.13C712.73,-507.29 699.24,-505.51 686.5,-504 515.98,-483.82 469.61,-488.41 296.76,-468.35"/>
<polygon fill="black" stroke="black" points="297.31,-464.89 286.97,-467.2 296.49,-471.84 297.31,-464.89"/>
</g>
<!-- [root] module.root (close)&#45;&gt;[root] module.root.aws_s3_bucket_policy.allow_access_from_anyone (expand) -->
<g id="edge3" class="edge">
<title>[root] module.root (close)&#45;&gt;[root] module.root.aws_s3_bucket_policy.allow_access_from_anyone (expand)</title>
<path fill="none" stroke="black" d="M740.09,-507.09C692.94,-496.74 627.91,-482.47 575.25,-470.91"/>
<polygon fill="black" stroke="black" points="576.21,-467.54 565.69,-468.82 574.71,-474.38 576.21,-467.54"/>
</g>
<!-- [root] module.root.output.outputs (expand) -->
<g id="node17" class="node">
<title>[root] module.root.output.outputs (expand)</title>
<ellipse fill="none" stroke="black" cx="1095.5" cy="-450" rx="171.11" ry="18"/>
<text text-anchor="middle" x="1095.5" y="-444.95" font-family="Times,serif" font-size="14.00">[root] module.root.output.outputs (expand)</text>
</g>
<!-- [root] module.root (close)&#45;&gt;[root] module.root.output.outputs (expand) -->
<g id="edge4" class="edge">
<title>[root] module.root (close)&#45;&gt;[root] module.root.output.outputs (expand)</title>
<path fill="none" stroke="black" d="M863.3,-506.67C907.88,-495.98 969.16,-481.29 1017.58,-469.68"/>
<polygon fill="black" stroke="black" points="1018.27,-473.11 1027.17,-467.38 1016.63,-466.31 1018.27,-473.11"/>
</g>
<!-- [root] module.root.output.outputs (expand)&#45;&gt;[root] module.root.aws_cloudfront_distribution.root_distribution (expand) -->
<g id="edge23" class="edge">
<title>[root] module.root.output.outputs (expand)&#45;&gt;[root] module.root.aws_cloudfront_distribution.root_distribution (expand)</title>
<path fill="none" stroke="black" d="M1055.32,-432.05C1033,-422.64 1004.99,-410.84 981.08,-400.75"/>
<polygon fill="black" stroke="black" points="982.73,-397.65 972.15,-396.99 980.01,-404.1 982.73,-397.65"/>
</g>
<!-- [root] module.root (expand) -->
<g id="node19" class="node">
<title>[root] module.root (expand)</title>
<ellipse fill="none" stroke="black" cx="971.5" cy="-18" rx="115.33" ry="18"/>
<text text-anchor="middle" x="971.5" y="-12.95" font-family="Times,serif" font-size="14.00">[root] module.root (expand)</text>
</g>
<!-- [root] module.root.var.root_domain_name (expand)&#45;&gt;[root] module.root (expand) -->
<g id="edge24" class="edge">
<title>[root] module.root.var.root_domain_name (expand)&#45;&gt;[root] module.root (expand)</title>
<path fill="none" stroke="black" d="M971.5,-71.7C971.5,-64.41 971.5,-55.73 971.5,-47.54"/>
<polygon fill="black" stroke="black" points="975,-47.62 971.5,-37.62 968,-47.62 975,-47.62"/>
</g>
<!-- [root] output.root_domain (expand) -->
<g id="node20" class="node">
<title>[root] output.root_domain (expand)</title>
<ellipse fill="none" stroke="black" cx="1087.5" cy="-522" rx="143.48" ry="18"/>
<text text-anchor="middle" x="1087.5" y="-516.95" font-family="Times,serif" font-size="14.00">[root] output.root_domain (expand)</text>
</g>
<!-- [root] output.root_domain (expand)&#45;&gt;[root] module.root.output.outputs (expand) -->
<g id="edge25" class="edge">
<title>[root] output.root_domain (expand)&#45;&gt;[root] module.root.output.outputs (expand)</title>
<path fill="none" stroke="black" d="M1089.48,-503.7C1090.31,-496.41 1091.3,-487.73 1092.24,-479.54"/>
<polygon fill="black" stroke="black" points="1095.72,-479.94 1093.37,-469.61 1088.76,-479.15 1095.72,-479.94"/>
</g>
<!-- [root] provider[&quot;registry.terraform.io/hashicorp/aws&quot;] (close) -->
<g id="node21" class="node">
<title>[root] provider[&quot;registry.terraform.io/hashicorp/aws&quot;] (close)</title>
<ellipse fill="none" stroke="black" cx="439.5" cy="-522" rx="238.16" ry="18"/>
<text text-anchor="middle" x="439.5" y="-516.95" font-family="Times,serif" font-size="14.00">[root] provider[&quot;registry.terraform.io/hashicorp/aws&quot;] (close)</text>
</g>
<!-- [root] provider[&quot;registry.terraform.io/hashicorp/aws&quot;] (close)&#45;&gt;[root] module.root.aws_route53_record.root (expand) -->
<g id="edge26" class="edge">
<title>[root] provider[&quot;registry.terraform.io/hashicorp/aws&quot;] (close)&#45;&gt;[root] module.root.aws_route53_record.root (expand)</title>
<path fill="none" stroke="black" d="M522.52,-504.68C574.22,-494.51 641.05,-481.37 695.64,-470.63"/>
<polygon fill="black" stroke="black" points="696.12,-474.11 705.26,-468.74 694.77,-467.24 696.12,-474.11"/>
</g>
<!-- [root] provider[&quot;registry.terraform.io/hashicorp/aws&quot;] (close)&#45;&gt;[root] module.root.aws_s3_bucket_acl.root (expand) -->
<g id="edge27" class="edge">
<title>[root] provider[&quot;registry.terraform.io/hashicorp/aws&quot;] (close)&#45;&gt;[root] module.root.aws_s3_bucket_acl.root (expand)</title>
<path fill="none" stroke="black" d="M376.5,-504.23C339.5,-494.38 292.44,-481.86 253.28,-471.43"/>
<polygon fill="black" stroke="black" points="254.22,-468.06 243.65,-468.87 252.41,-474.83 254.22,-468.06"/>
</g>
<!-- [root] provider[&quot;registry.terraform.io/hashicorp/aws&quot;] (close)&#45;&gt;[root] module.root.aws_s3_bucket_policy.allow_access_from_anyone (expand) -->
<g id="edge28" class="edge">
<title>[root] provider[&quot;registry.terraform.io/hashicorp/aws&quot;] (close)&#45;&gt;[root] module.root.aws_s3_bucket_policy.allow_access_from_anyone (expand)</title>
<path fill="none" stroke="black" d="M450.62,-503.7C455.69,-495.81 461.8,-486.3 467.43,-477.55"/>
<polygon fill="black" stroke="black" points="470.22,-479.68 472.69,-469.38 464.33,-475.9 470.22,-479.68"/>
</g>
<!-- [root] root -->
<g id="node22" class="node">
<title>[root] root</title>
<ellipse fill="none" stroke="black" cx="621.5" cy="-594" rx="49.3" ry="18"/>
<text text-anchor="middle" x="621.5" y="-588.95" font-family="Times,serif" font-size="14.00">[root] root</text>
</g>
<!-- [root] root&#45;&gt;[root] var.env -->
<g id="edge33" class="edge">
<title>[root] root&#45;&gt;[root] var.env</title>
<path fill="none" stroke="black" d="M572.28,-591.81C493.56,-588.86 334.74,-578.58 194.75,-540.14"/>
<polygon fill="black" stroke="black" points="195.88,-536.82 185.31,-537.49 193.99,-543.56 195.88,-536.82"/>
</g>
<!-- [root] root&#45;&gt;[root] module.root (close) -->
<g id="edge30" class="edge">
<title>[root] root&#45;&gt;[root] module.root (close)</title>
<path fill="none" stroke="black" d="M654.46,-580.32C681.4,-569.96 719.99,-555.12 751.15,-543.14"/>
<polygon fill="black" stroke="black" points="752.34,-546.43 760.42,-539.57 749.83,-539.89 752.34,-546.43"/>
</g>
<!-- [root] root&#45;&gt;[root] output.root_domain (expand) -->
<g id="edge31" class="edge">
<title>[root] root&#45;&gt;[root] output.root_domain (expand)</title>
<path fill="none" stroke="black" d="M666.61,-586.22C740.06,-575.19 887.31,-553.07 986.65,-538.15"/>
<polygon fill="black" stroke="black" points="987.05,-541.63 996.42,-536.68 986.01,-534.71 987.05,-541.63"/>
</g>
<!-- [root] root&#45;&gt;[root] provider[&quot;registry.terraform.io/hashicorp/aws&quot;] (close) -->
<g id="edge32" class="edge">
<title>[root] root&#45;&gt;[root] provider[&quot;registry.terraform.io/hashicorp/aws&quot;] (close)</title>
<path fill="none" stroke="black" d="M588.54,-580.32C562.33,-570.24 525.1,-555.92 494.41,-544.12"/>
<polygon fill="black" stroke="black" points="495.86,-540.93 485.27,-540.6 493.35,-547.46 495.86,-540.93"/>
</g>
</g>
</svg>
