<?xml version="1.0" encoding="UTF-8" standalone="no"?>
<!DOCTYPE svg PUBLIC "-//W3C//DTD SVG 1.1//EN"
 "http://www.w3.org/Graphics/SVG/1.1/DTD/svg11.dtd">
<!-- Generated by graphviz version 2.46.0 (20210118.1747)
 -->
<!-- Pages: 1 -->
<svg width="996pt" height="692pt"
 viewBox="0.00 0.00 995.55 692.00" xmlns="http://www.w3.org/2000/svg" xmlns:xlink="http://www.w3.org/1999/xlink">
<g id="graph0" class="graph" transform="scale(1 1) rotate(0) translate(4 688)">
<polygon fill="white" stroke="transparent" points="-4,4 -4,-688 991.55,-688 991.55,4 -4,4"/>
<!-- [root] module.root.aws_acm_certificate.certificate (expand) -->
<g id="node1" class="node">
<title>[root] module.root.aws_acm_certificate.certificate (expand)</title>
<polygon fill="none" stroke="black" points="620.27,-180 363.27,-180 363.27,-144 620.27,-144 620.27,-180"/>
<text text-anchor="middle" x="491.77" y="-158.3" font-family="Times,serif" font-size="14.00">module.root.aws_acm_certificate.certificate</text>
</g>
<!-- [root] provider[&quot;registry.terraform.io/hashicorp/aws&quot;] -->
<g id="node9" class="node">
<title>[root] provider[&quot;registry.terraform.io/hashicorp/aws&quot;]</title>
<polygon fill="none" stroke="black" points="252.77,-108 0.23,-90 252.77,-72 505.3,-90 252.77,-108"/>
<text text-anchor="middle" x="252.77" y="-86.3" font-family="Times,serif" font-size="14.00">provider[&quot;registry.terraform.io/hashicorp/aws&quot;]</text>
</g>
<!-- [root] module.root.aws_acm_certificate.certificate (expand)&#45;&gt;[root] provider[&quot;registry.terraform.io/hashicorp/aws&quot;] -->
<g id="edge7" class="edge">
<title>[root] module.root.aws_acm_certificate.certificate (expand)&#45;&gt;[root] provider[&quot;registry.terraform.io/hashicorp/aws&quot;]</title>
<path fill="none" stroke="black" d="M433.61,-143.97C395.81,-132.9 346.78,-118.53 309.31,-107.56"/>
<polygon fill="black" stroke="black" points="310.14,-104.16 299.56,-104.7 308.17,-110.87 310.14,-104.16"/>
</g>
<!-- [root] module.root.var.root_domain_name (expand) -->
<g id="node15" class="node">
<title>[root] module.root.var.root_domain_name (expand)</title>
<ellipse fill="none" stroke="black" cx="718.77" cy="-90" rx="194.97" ry="18"/>
<text text-anchor="middle" x="718.77" y="-86.3" font-family="Times,serif" font-size="14.00">[root] module.root.var.root_domain_name (expand)</text>
</g>
<!-- [root] module.root.aws_acm_certificate.certificate (expand)&#45;&gt;[root] module.root.var.root_domain_name (expand) -->
<g id="edge6" class="edge">
<title>[root] module.root.aws_acm_certificate.certificate (expand)&#45;&gt;[root] module.root.var.root_domain_name (expand)</title>
<path fill="none" stroke="black" d="M547.01,-143.97C579.86,-133.84 621.63,-120.95 655.76,-110.43"/>
<polygon fill="black" stroke="black" points="657.11,-113.68 665.63,-107.39 655.04,-106.99 657.11,-113.68"/>
</g>
<!-- [root] module.root.aws_acm_certificate_validation.certificate (expand) -->
<g id="node2" class="node">
<title>[root] module.root.aws_acm_certificate_validation.certificate (expand)</title>
<polygon fill="none" stroke="black" points="678.27,-324 361.27,-324 361.27,-288 678.27,-288 678.27,-324"/>
<text text-anchor="middle" x="519.77" y="-302.3" font-family="Times,serif" font-size="14.00">module.root.aws_acm_certificate_validation.certificate</text>
</g>
<!-- [root] module.root.aws_route53_record.cert_validation (expand) -->
<g id="node4" class="node">
<title>[root] module.root.aws_route53_record.cert_validation (expand)</title>
<polygon fill="none" stroke="black" points="632.77,-252 350.77,-252 350.77,-216 632.77,-216 632.77,-252"/>
<text text-anchor="middle" x="491.77" y="-230.3" font-family="Times,serif" font-size="14.00">module.root.aws_route53_record.cert_validation</text>
</g>
<!-- [root] module.root.aws_acm_certificate_validation.certificate (expand)&#45;&gt;[root] module.root.aws_route53_record.cert_validation (expand) -->
<g id="edge8" class="edge">
<title>[root] module.root.aws_acm_certificate_validation.certificate (expand)&#45;&gt;[root] module.root.aws_route53_record.cert_validation (expand)</title>
<path fill="none" stroke="black" d="M512.85,-287.7C509.69,-279.81 505.89,-270.3 502.39,-261.55"/>
<polygon fill="black" stroke="black" points="505.57,-260.09 498.61,-252.1 499.07,-262.69 505.57,-260.09"/>
</g>
<!-- [root] module.root.aws_cloudfront_distribution.root_distribution (expand) -->
<g id="node3" class="node">
<title>[root] module.root.aws_cloudfront_distribution.root_distribution (expand)</title>
<polygon fill="none" stroke="black" points="780.27,-396 445.27,-396 445.27,-360 780.27,-360 780.27,-396"/>
<text text-anchor="middle" x="612.77" y="-374.3" font-family="Times,serif" font-size="14.00">module.root.aws_cloudfront_distribution.root_distribution</text>
</g>
<!-- [root] module.root.aws_cloudfront_distribution.root_distribution (expand)&#45;&gt;[root] module.root.aws_acm_certificate_validation.certificate (expand) -->
<g id="edge9" class="edge">
<title>[root] module.root.aws_cloudfront_distribution.root_distribution (expand)&#45;&gt;[root] module.root.aws_acm_certificate_validation.certificate (expand)</title>
<path fill="none" stroke="black" d="M589.78,-359.7C577.95,-350.8 563.38,-339.82 550.59,-330.2"/>
<polygon fill="black" stroke="black" points="552.59,-327.32 542.49,-324.1 548.38,-332.91 552.59,-327.32"/>
</g>
<!-- [root] module.root.aws_s3_bucket.root (expand) -->
<g id="node7" class="node">
<title>[root] module.root.aws_s3_bucket.root (expand)</title>
<polygon fill="none" stroke="black" points="833.27,-180 638.27,-180 638.27,-144 833.27,-144 833.27,-180"/>
<text text-anchor="middle" x="735.77" y="-158.3" font-family="Times,serif" font-size="14.00">module.root.aws_s3_bucket.root</text>
</g>
<!-- [root] module.root.aws_cloudfront_distribution.root_distribution (expand)&#45;&gt;[root] module.root.aws_s3_bucket.root (expand) -->
<g id="edge10" class="edge">
<title>[root] module.root.aws_cloudfront_distribution.root_distribution (expand)&#45;&gt;[root] module.root.aws_s3_bucket.root (expand)</title>
<path fill="none" stroke="black" d="M646.61,-359.8C661.14,-350.89 677.17,-338.76 687.77,-324 717.09,-283.17 728.68,-224.34 733.13,-190.26"/>
<polygon fill="black" stroke="black" points="736.63,-190.46 734.34,-180.12 729.68,-189.63 736.63,-190.46"/>
</g>
<!-- [root] module.root.aws_route53_record.cert_validation (expand)&#45;&gt;[root] module.root.aws_acm_certificate.certificate (expand) -->
<g id="edge11" class="edge">
<title>[root] module.root.aws_route53_record.cert_validation (expand)&#45;&gt;[root] module.root.aws_acm_certificate.certificate (expand)</title>
<path fill="none" stroke="black" d="M491.77,-215.7C491.77,-207.98 491.77,-198.71 491.77,-190.11"/>
<polygon fill="black" stroke="black" points="495.27,-190.1 491.77,-180.1 488.27,-190.1 495.27,-190.1"/>
</g>
<!-- [root] module.root.aws_route53_zone.zone (expand) -->
<g id="node6" class="node">
<title>[root] module.root.aws_route53_zone.zone (expand)</title>
<polygon fill="none" stroke="black" points="344.77,-180 126.77,-180 126.77,-144 344.77,-144 344.77,-180"/>
<text text-anchor="middle" x="235.77" y="-158.3" font-family="Times,serif" font-size="14.00">module.root.aws_route53_zone.zone</text>
</g>
<!-- [root] module.root.aws_route53_record.cert_validation (expand)&#45;&gt;[root] module.root.aws_route53_zone.zone (expand) -->
<g id="edge12" class="edge">
<title>[root] module.root.aws_route53_record.cert_validation (expand)&#45;&gt;[root] module.root.aws_route53_zone.zone (expand)</title>
<path fill="none" stroke="black" d="M429.47,-215.97C392.92,-205.97 346.57,-193.3 308.38,-182.85"/>
<polygon fill="black" stroke="black" points="308.91,-179.37 298.34,-180.11 307.07,-186.12 308.91,-179.37"/>
</g>
<!-- [root] module.root.aws_route53_record.root (expand) -->
<g id="node5" class="node">
<title>[root] module.root.aws_route53_record.root (expand)</title>
<polygon fill="none" stroke="black" points="578.27,-468 355.27,-468 355.27,-432 578.27,-432 578.27,-468"/>
<text text-anchor="middle" x="466.77" y="-446.3" font-family="Times,serif" font-size="14.00">module.root.aws_route53_record.root</text>
</g>
<!-- [root] module.root.aws_route53_record.root (expand)&#45;&gt;[root] module.root.aws_cloudfront_distribution.root_distribution (expand) -->
<g id="edge13" class="edge">
<title>[root] module.root.aws_route53_record.root (expand)&#45;&gt;[root] module.root.aws_cloudfront_distribution.root_distribution (expand)</title>
<path fill="none" stroke="black" d="M502.48,-431.88C522.27,-422.39 547.04,-410.51 568.09,-400.42"/>
<polygon fill="black" stroke="black" points="569.66,-403.55 577.17,-396.07 566.64,-397.24 569.66,-403.55"/>
</g>
<!-- [root] module.root.aws_route53_zone.zone (expand)&#45;&gt;[root] provider[&quot;registry.terraform.io/hashicorp/aws&quot;] -->
<g id="edge15" class="edge">
<title>[root] module.root.aws_route53_zone.zone (expand)&#45;&gt;[root] provider[&quot;registry.terraform.io/hashicorp/aws&quot;]</title>
<path fill="none" stroke="black" d="M239.97,-143.7C241.86,-135.9 244.14,-126.51 246.25,-117.83"/>
<polygon fill="black" stroke="black" points="249.66,-118.65 248.61,-108.1 242.85,-117 249.66,-118.65"/>
</g>
<!-- [root] module.root.aws_route53_zone.zone (expand)&#45;&gt;[root] module.root.var.root_domain_name (expand) -->
<g id="edge14" class="edge">
<title>[root] module.root.aws_route53_zone.zone (expand)&#45;&gt;[root] module.root.var.root_domain_name (expand)</title>
<path fill="none" stroke="black" d="M345.07,-145.16C423.93,-133.73 529.97,-118.36 608.95,-106.92"/>
<polygon fill="black" stroke="black" points="609.54,-110.37 618.93,-105.47 608.53,-103.44 609.54,-110.37"/>
</g>
<!-- [root] module.root.aws_s3_bucket.root (expand)&#45;&gt;[root] provider[&quot;registry.terraform.io/hashicorp/aws&quot;] -->
<g id="edge17" class="edge">
<title>[root] module.root.aws_s3_bucket.root (expand)&#45;&gt;[root] provider[&quot;registry.terraform.io/hashicorp/aws&quot;]</title>
<path fill="none" stroke="black" d="M638.17,-145.27C635.34,-144.84 632.53,-144.42 629.77,-144 532.97,-129.44 422,-113.98 345.64,-103.55"/>
<polygon fill="black" stroke="black" points="345.96,-100.06 335.57,-102.17 345.01,-106.99 345.96,-100.06"/>
</g>
<!-- [root] module.root.aws_s3_bucket.root (expand)&#45;&gt;[root] module.root.var.root_domain_name (expand) -->
<g id="edge16" class="edge">
<title>[root] module.root.aws_s3_bucket.root (expand)&#45;&gt;[root] module.root.var.root_domain_name (expand)</title>
<path fill="none" stroke="black" d="M731.57,-143.7C729.67,-135.9 727.39,-126.51 725.28,-117.83"/>
<polygon fill="black" stroke="black" points="728.68,-117 722.92,-108.1 721.88,-118.65 728.68,-117"/>
</g>
<!-- [root] output.root_domain -->
<g id="node8" class="node">
<title>[root] output.root_domain</title>
<polygon fill="none" stroke="black" points="840.27,-540 721.27,-540 721.27,-504 846.27,-504 846.27,-534 840.27,-540"/>
<polyline fill="none" stroke="black" points="840.27,-540 840.27,-534 "/>
<polyline fill="none" stroke="black" points="846.27,-534 840.27,-534 "/>
<text text-anchor="middle" x="783.77" y="-518.3" font-family="Times,serif" font-size="14.00">output.root_domain</text>
</g>
<!-- [root] module.root.output.outputs (expand) -->
<g id="node14" class="node">
<title>[root] module.root.output.outputs (expand)</title>
<ellipse fill="none" stroke="black" cx="759.77" cy="-450" rx="163.27" ry="18"/>
<text text-anchor="middle" x="759.77" y="-446.3" font-family="Times,serif" font-size="14.00">[root] module.root.output.outputs (expand)</text>
</g>
<!-- [root] output.root_domain&#45;&gt;[root] module.root.output.outputs (expand) -->
<g id="edge20" class="edge">
<title>[root] output.root_domain&#45;&gt;[root] module.root.output.outputs (expand)</title>
<path fill="none" stroke="black" d="M777.84,-503.7C775.16,-495.9 771.94,-486.51 768.97,-477.83"/>
<polygon fill="black" stroke="black" points="772.19,-476.43 765.63,-468.1 765.57,-478.7 772.19,-476.43"/>
</g>
<!-- [root] var.region -->
<g id="node11" class="node">
<title>[root] var.region</title>
<polygon fill="none" stroke="black" points="282.27,-36 217.27,-36 217.27,0 288.27,0 288.27,-30 282.27,-36"/>
<polyline fill="none" stroke="black" points="282.27,-36 282.27,-30 "/>
<polyline fill="none" stroke="black" points="288.27,-30 282.27,-30 "/>
<text text-anchor="middle" x="252.77" y="-14.3" font-family="Times,serif" font-size="14.00">var.region</text>
</g>
<!-- [root] provider[&quot;registry.terraform.io/hashicorp/aws&quot;]&#45;&gt;[root] var.region -->
<g id="edge22" class="edge">
<title>[root] provider[&quot;registry.terraform.io/hashicorp/aws&quot;]&#45;&gt;[root] var.region</title>
<path fill="none" stroke="black" d="M252.77,-71.7C252.77,-63.98 252.77,-54.71 252.77,-46.11"/>
<polygon fill="black" stroke="black" points="256.27,-46.1 252.77,-36.1 249.27,-46.1 256.27,-46.1"/>
</g>
<!-- [root] var.env -->
<g id="node10" class="node">
<title>[root] var.env</title>
<polygon fill="none" stroke="black" points="914.77,-540 864.77,-540 864.77,-504 920.77,-504 920.77,-534 914.77,-540"/>
<polyline fill="none" stroke="black" points="914.77,-540 914.77,-534 "/>
<polyline fill="none" stroke="black" points="920.77,-534 914.77,-534 "/>
<text text-anchor="middle" x="892.77" y="-518.3" font-family="Times,serif" font-size="14.00">var.env</text>
</g>
<!-- [root] meta.count&#45;boundary (EachMode fixup) -->
<g id="node12" class="node">
<title>[root] meta.count&#45;boundary (EachMode fixup)</title>
<ellipse fill="none" stroke="black" cx="810.77" cy="-594" rx="176.57" ry="18"/>
<text text-anchor="middle" x="810.77" y="-590.3" font-family="Times,serif" font-size="14.00">[root] meta.count&#45;boundary (EachMode fixup)</text>
</g>
<!-- [root] meta.count&#45;boundary (EachMode fixup)&#45;&gt;[root] output.root_domain -->
<g id="edge2" class="edge">
<title>[root] meta.count&#45;boundary (EachMode fixup)&#45;&gt;[root] output.root_domain</title>
<path fill="none" stroke="black" d="M804.09,-575.7C801.05,-567.81 797.39,-558.3 794.01,-549.55"/>
<polygon fill="black" stroke="black" points="797.23,-548.17 790.37,-540.1 790.7,-550.69 797.23,-548.17"/>
</g>
<!-- [root] meta.count&#45;boundary (EachMode fixup)&#45;&gt;[root] var.env -->
<g id="edge3" class="edge">
<title>[root] meta.count&#45;boundary (EachMode fixup)&#45;&gt;[root] var.env</title>
<path fill="none" stroke="black" d="M830.62,-576.05C840.92,-567.26 853.67,-556.38 864.93,-546.76"/>
<polygon fill="black" stroke="black" points="867.48,-549.19 872.82,-540.03 862.94,-543.86 867.48,-549.19"/>
</g>
<!-- [root] module.root (close) -->
<g id="node13" class="node">
<title>[root] module.root (close)</title>
<ellipse fill="none" stroke="black" cx="600.77" cy="-522" rx="102.88" ry="18"/>
<text text-anchor="middle" x="600.77" y="-518.3" font-family="Times,serif" font-size="14.00">[root] module.root (close)</text>
</g>
<!-- [root] meta.count&#45;boundary (EachMode fixup)&#45;&gt;[root] module.root (close) -->
<g id="edge1" class="edge">
<title>[root] meta.count&#45;boundary (EachMode fixup)&#45;&gt;[root] module.root (close)</title>
<path fill="none" stroke="black" d="M761.8,-576.68C730.16,-566.13 688.94,-552.39 656.12,-541.45"/>
<polygon fill="black" stroke="black" points="656.82,-537.99 646.22,-538.15 654.6,-544.63 656.82,-537.99"/>
</g>
<!-- [root] module.root (close)&#45;&gt;[root] module.root.aws_route53_record.root (expand) -->
<g id="edge4" class="edge">
<title>[root] module.root (close)&#45;&gt;[root] module.root.aws_route53_record.root (expand)</title>
<path fill="none" stroke="black" d="M569.69,-504.76C551.53,-495.28 528.38,-483.19 508.64,-472.87"/>
<polygon fill="black" stroke="black" points="510.03,-469.65 499.55,-468.12 506.79,-475.86 510.03,-469.65"/>
</g>
<!-- [root] module.root (close)&#45;&gt;[root] module.root.output.outputs (expand) -->
<g id="edge5" class="edge">
<title>[root] module.root (close)&#45;&gt;[root] module.root.output.outputs (expand)</title>
<path fill="none" stroke="black" d="M636.85,-505.12C659.33,-495.22 688.51,-482.37 712.79,-471.68"/>
<polygon fill="black" stroke="black" points="714.43,-474.78 722.17,-467.55 711.61,-468.38 714.43,-474.78"/>
</g>
<!-- [root] module.root.output.outputs (expand)&#45;&gt;[root] module.root.aws_cloudfront_distribution.root_distribution (expand) -->
<g id="edge18" class="edge">
<title>[root] module.root.output.outputs (expand)&#45;&gt;[root] module.root.aws_cloudfront_distribution.root_distribution (expand)</title>
<path fill="none" stroke="black" d="M724.93,-432.41C704.89,-422.87 679.48,-410.77 657.92,-400.5"/>
<polygon fill="black" stroke="black" points="659.17,-397.22 648.63,-396.08 656.16,-403.54 659.17,-397.22"/>
</g>
<!-- [root] module.root (expand) -->
<g id="node16" class="node">
<title>[root] module.root (expand)</title>
<ellipse fill="none" stroke="black" cx="718.77" cy="-18" rx="110.48" ry="18"/>
<text text-anchor="middle" x="718.77" y="-14.3" font-family="Times,serif" font-size="14.00">[root] module.root (expand)</text>
</g>
<!-- [root] module.root.var.root_domain_name (expand)&#45;&gt;[root] module.root (expand) -->
<g id="edge19" class="edge">
<title>[root] module.root.var.root_domain_name (expand)&#45;&gt;[root] module.root (expand)</title>
<path fill="none" stroke="black" d="M718.77,-71.7C718.77,-63.98 718.77,-54.71 718.77,-46.11"/>
<polygon fill="black" stroke="black" points="722.27,-46.1 718.77,-36.1 715.27,-46.1 722.27,-46.1"/>
</g>
<!-- [root] provider[&quot;registry.terraform.io/hashicorp/aws&quot;] (close) -->
<g id="node17" class="node">
<title>[root] provider[&quot;registry.terraform.io/hashicorp/aws&quot;] (close)</title>
<ellipse fill="none" stroke="black" cx="388.77" cy="-594" rx="227.46" ry="18"/>
<text text-anchor="middle" x="388.77" y="-590.3" font-family="Times,serif" font-size="14.00">[root] provider[&quot;registry.terraform.io/hashicorp/aws&quot;] (close)</text>
</g>
<!-- [root] provider[&quot;registry.terraform.io/hashicorp/aws&quot;] (close)&#45;&gt;[root] module.root.aws_route53_record.root (expand) -->
<g id="edge21" class="edge">
<title>[root] provider[&quot;registry.terraform.io/hashicorp/aws&quot;] (close)&#45;&gt;[root] module.root.aws_route53_record.root (expand)</title>
<path fill="none" stroke="black" d="M398.18,-575.87C411.65,-551.35 436.54,-506.03 452.34,-477.26"/>
<polygon fill="black" stroke="black" points="455.58,-478.64 457.33,-468.19 449.44,-475.27 455.58,-478.64"/>
</g>
<!-- [root] root -->
<g id="node18" class="node">
<title>[root] root</title>
<ellipse fill="none" stroke="black" cx="599.77" cy="-666" rx="47.39" ry="18"/>
<text text-anchor="middle" x="599.77" y="-662.3" font-family="Times,serif" font-size="14.00">[root] root</text>
</g>
<!-- [root] root&#45;&gt;[root] meta.count&#45;boundary (EachMode fixup) -->
<g id="edge23" class="edge">
<title>[root] root&#45;&gt;[root] meta.count&#45;boundary (EachMode fixup)</title>
<path fill="none" stroke="black" d="M634.61,-653.44C666.31,-642.93 713.75,-627.18 751.42,-614.69"/>
<polygon fill="black" stroke="black" points="752.88,-617.89 761.27,-611.42 750.68,-611.25 752.88,-617.89"/>
</g>
<!-- [root] root&#45;&gt;[root] provider[&quot;registry.terraform.io/hashicorp/aws&quot;] (close) -->
<g id="edge24" class="edge">
<title>[root] root&#45;&gt;[root] provider[&quot;registry.terraform.io/hashicorp/aws&quot;] (close)</title>
<path fill="none" stroke="black" d="M564.93,-653.44C533.44,-643 486.42,-627.4 448.88,-614.94"/>
<polygon fill="black" stroke="black" points="449.65,-611.51 439.06,-611.68 447.45,-618.16 449.65,-611.51"/>
</g>
</g>
</svg>
