<?xml version="1.0" encoding="UTF-8" standalone="no"?>
<!DOCTYPE svg PUBLIC "-//W3C//DTD SVG 1.1//EN"
 "http://www.w3.org/Graphics/SVG/1.1/DTD/svg11.dtd">
<!-- Generated by graphviz version 2.44.0 (20200408.0750)
 -->
<!-- Pages: 1 -->
<svg width="1055pt" height="692pt"
 viewBox="0.00 0.00 1055.00 692.00" xmlns="http://www.w3.org/2000/svg" xmlns:xlink="http://www.w3.org/1999/xlink">
<g id="graph0" class="graph" transform="scale(1 1) rotate(0) translate(4 688)">
<polygon fill="white" stroke="transparent" points="-4,4 -4,-688 1051,-688 1051,4 -4,4"/>
<!-- [root] module.root.aws_acm_certificate.certificate -->
<g id="node1" class="node">
<title>[root] module.root.aws_acm_certificate.certificate</title>
<polygon fill="none" stroke="black" points="491.5,-180 236.5,-180 236.5,-144 491.5,-144 491.5,-180"/>
<text text-anchor="middle" x="364" y="-158.3" font-family="Times,serif" font-size="14.00">module.root.aws_acm_certificate.certificate</text>
</g>
<!-- [root] module.root.var.root_domain_name -->
<g id="node9" class="node">
<title>[root] module.root.var.root_domain_name</title>
<polygon fill="none" stroke="black" points="363,-108 155,-108 155,-72 369,-72 369,-102 363,-108"/>
<polyline fill="none" stroke="black" points="363,-108 363,-102 "/>
<polyline fill="none" stroke="black" points="369,-102 363,-102 "/>
<text text-anchor="middle" x="262" y="-86.3" font-family="Times,serif" font-size="14.00">module.root.var.root_domain_name</text>
</g>
<!-- [root] module.root.aws_acm_certificate.certificate&#45;&gt;[root] module.root.var.root_domain_name -->
<g id="edge7" class="edge">
<title>[root] module.root.aws_acm_certificate.certificate&#45;&gt;[root] module.root.var.root_domain_name</title>
<path fill="none" stroke="black" d="M339.05,-143.88C325.96,-134.89 309.74,-123.76 295.56,-114.03"/>
<polygon fill="black" stroke="black" points="297.27,-110.96 287.05,-108.19 293.31,-116.73 297.27,-110.96"/>
</g>
<!-- [root] provider.aws -->
<g id="node14" class="node">
<title>[root] provider.aws</title>
<polygon fill="none" stroke="black" points="466,-108 386.9,-90 466,-72 545.1,-90 466,-108"/>
<text text-anchor="middle" x="466" y="-86.3" font-family="Times,serif" font-size="14.00">provider.aws</text>
</g>
<!-- [root] module.root.aws_acm_certificate.certificate&#45;&gt;[root] provider.aws -->
<g id="edge8" class="edge">
<title>[root] module.root.aws_acm_certificate.certificate&#45;&gt;[root] provider.aws</title>
<path fill="none" stroke="black" d="M388.95,-143.88C404.04,-133.52 423.28,-120.32 438.76,-109.69"/>
<polygon fill="black" stroke="black" points="441.12,-112.32 447.38,-103.78 437.16,-106.55 441.12,-112.32"/>
</g>
<!-- [root] module.root.aws_acm_certificate_validation.certificate -->
<g id="node2" class="node">
<title>[root] module.root.aws_acm_certificate_validation.certificate</title>
<polygon fill="none" stroke="black" points="550,-324 234,-324 234,-288 550,-288 550,-324"/>
<text text-anchor="middle" x="392" y="-302.3" font-family="Times,serif" font-size="14.00">module.root.aws_acm_certificate_validation.certificate</text>
</g>
<!-- [root] module.root.aws_route53_record.cert_validation -->
<g id="node4" class="node">
<title>[root] module.root.aws_route53_record.cert_validation</title>
<polygon fill="none" stroke="black" points="505,-252 223,-252 223,-216 505,-216 505,-252"/>
<text text-anchor="middle" x="364" y="-230.3" font-family="Times,serif" font-size="14.00">module.root.aws_route53_record.cert_validation</text>
</g>
<!-- [root] module.root.aws_acm_certificate_validation.certificate&#45;&gt;[root] module.root.aws_route53_record.cert_validation -->
<g id="edge9" class="edge">
<title>[root] module.root.aws_acm_certificate_validation.certificate&#45;&gt;[root] module.root.aws_route53_record.cert_validation</title>
<path fill="none" stroke="black" d="M385.08,-287.7C381.93,-279.81 378.12,-270.3 374.62,-261.55"/>
<polygon fill="black" stroke="black" points="377.81,-260.09 370.84,-252.1 371.31,-262.69 377.81,-260.09"/>
</g>
<!-- [root] module.root.aws_cloudfront_distribution.root_distribution -->
<g id="node3" class="node">
<title>[root] module.root.aws_cloudfront_distribution.root_distribution</title>
<polygon fill="none" stroke="black" points="652.5,-396 317.5,-396 317.5,-360 652.5,-360 652.5,-396"/>
<text text-anchor="middle" x="485" y="-374.3" font-family="Times,serif" font-size="14.00">module.root.aws_cloudfront_distribution.root_distribution</text>
</g>
<!-- [root] module.root.aws_cloudfront_distribution.root_distribution&#45;&gt;[root] module.root.aws_acm_certificate_validation.certificate -->
<g id="edge10" class="edge">
<title>[root] module.root.aws_cloudfront_distribution.root_distribution&#45;&gt;[root] module.root.aws_acm_certificate_validation.certificate</title>
<path fill="none" stroke="black" d="M462.01,-359.7C450.19,-350.8 435.61,-339.82 422.82,-330.2"/>
<polygon fill="black" stroke="black" points="424.82,-327.32 414.72,-324.1 420.61,-332.91 424.82,-327.32"/>
</g>
<!-- [root] module.root.aws_s3_bucket.root -->
<g id="node7" class="node">
<title>[root] module.root.aws_s3_bucket.root</title>
<polygon fill="none" stroke="black" points="704.5,-180 509.5,-180 509.5,-144 704.5,-144 704.5,-180"/>
<text text-anchor="middle" x="607" y="-158.3" font-family="Times,serif" font-size="14.00">module.root.aws_s3_bucket.root</text>
</g>
<!-- [root] module.root.aws_cloudfront_distribution.root_distribution&#45;&gt;[root] module.root.aws_s3_bucket.root -->
<g id="edge11" class="edge">
<title>[root] module.root.aws_cloudfront_distribution.root_distribution&#45;&gt;[root] module.root.aws_s3_bucket.root</title>
<path fill="none" stroke="black" d="M518.01,-359.94C532.44,-350.99 548.45,-338.8 559,-324 588.19,-283.07 599.83,-224.28 604.32,-190.23"/>
<polygon fill="black" stroke="black" points="607.82,-190.44 605.54,-180.1 600.87,-189.6 607.82,-190.44"/>
</g>
<!-- [root] module.root.aws_route53_record.cert_validation&#45;&gt;[root] module.root.aws_acm_certificate.certificate -->
<g id="edge12" class="edge">
<title>[root] module.root.aws_route53_record.cert_validation&#45;&gt;[root] module.root.aws_acm_certificate.certificate</title>
<path fill="none" stroke="black" d="M364,-215.7C364,-207.98 364,-198.71 364,-190.11"/>
<polygon fill="black" stroke="black" points="367.5,-190.1 364,-180.1 360.5,-190.1 367.5,-190.1"/>
</g>
<!-- [root] module.root.aws_route53_zone.zone -->
<g id="node6" class="node">
<title>[root] module.root.aws_route53_zone.zone</title>
<polygon fill="none" stroke="black" points="218,-180 0,-180 0,-144 218,-144 218,-180"/>
<text text-anchor="middle" x="109" y="-158.3" font-family="Times,serif" font-size="14.00">module.root.aws_route53_zone.zone</text>
</g>
<!-- [root] module.root.aws_route53_record.cert_validation&#45;&gt;[root] module.root.aws_route53_zone.zone -->
<g id="edge13" class="edge">
<title>[root] module.root.aws_route53_record.cert_validation&#45;&gt;[root] module.root.aws_route53_zone.zone</title>
<path fill="none" stroke="black" d="M301.95,-215.97C265.54,-205.97 219.37,-193.3 181.32,-182.85"/>
<polygon fill="black" stroke="black" points="181.9,-179.38 171.33,-180.11 180.05,-186.13 181.9,-179.38"/>
</g>
<!-- [root] module.root.aws_route53_record.root -->
<g id="node5" class="node">
<title>[root] module.root.aws_route53_record.root</title>
<polygon fill="none" stroke="black" points="390.5,-540 167.5,-540 167.5,-504 390.5,-504 390.5,-540"/>
<text text-anchor="middle" x="279" y="-518.3" font-family="Times,serif" font-size="14.00">module.root.aws_route53_record.root</text>
</g>
<!-- [root] module.root.aws_route53_record.root&#45;&gt;[root] module.root.aws_cloudfront_distribution.root_distribution -->
<g id="edge14" class="edge">
<title>[root] module.root.aws_route53_record.root&#45;&gt;[root] module.root.aws_cloudfront_distribution.root_distribution</title>
<path fill="none" stroke="black" d="M303.85,-503.87C340.81,-478.39 410.36,-430.45 451.69,-401.96"/>
<polygon fill="black" stroke="black" points="453.82,-404.75 460.06,-396.19 449.84,-398.98 453.82,-404.75"/>
</g>
<!-- [root] module.root.aws_route53_zone.zone&#45;&gt;[root] module.root.var.root_domain_name -->
<g id="edge15" class="edge">
<title>[root] module.root.aws_route53_zone.zone&#45;&gt;[root] module.root.var.root_domain_name</title>
<path fill="none" stroke="black" d="M146.43,-143.88C167.25,-134.35 193.35,-122.41 215.48,-112.28"/>
<polygon fill="black" stroke="black" points="217.06,-115.41 224.69,-108.07 214.14,-109.05 217.06,-115.41"/>
</g>
<!-- [root] module.root.aws_route53_zone.zone&#45;&gt;[root] provider.aws -->
<g id="edge16" class="edge">
<title>[root] module.root.aws_route53_zone.zone&#45;&gt;[root] provider.aws</title>
<path fill="none" stroke="black" d="M195.88,-143.97C264.8,-130.45 358.73,-112.03 415.72,-100.86"/>
<polygon fill="black" stroke="black" points="416.44,-104.28 425.58,-98.93 415.09,-97.42 416.44,-104.28"/>
</g>
<!-- [root] module.root.aws_s3_bucket.root&#45;&gt;[root] module.root.var.root_domain_name -->
<g id="edge17" class="edge">
<title>[root] module.root.aws_s3_bucket.root&#45;&gt;[root] module.root.var.root_domain_name</title>
<path fill="none" stroke="black" d="M523.04,-143.97C472.55,-133.72 408.16,-120.66 355.96,-110.07"/>
<polygon fill="black" stroke="black" points="356.53,-106.61 346.03,-108.05 355.14,-113.47 356.53,-106.61"/>
</g>
<!-- [root] module.root.aws_s3_bucket.root&#45;&gt;[root] provider.aws -->
<g id="edge18" class="edge">
<title>[root] module.root.aws_s3_bucket.root&#45;&gt;[root] provider.aws</title>
<path fill="none" stroke="black" d="M572.51,-143.88C549.96,-132.68 520.71,-118.16 498.56,-107.17"/>
<polygon fill="black" stroke="black" points="500.06,-104 489.55,-102.69 496.95,-110.27 500.06,-104"/>
</g>
<!-- [root] module.root.output.outputs -->
<g id="node8" class="node">
<title>[root] module.root.output.outputs</title>
<polygon fill="none" stroke="black" points="767.5,-468 608.5,-468 608.5,-432 773.5,-432 773.5,-462 767.5,-468"/>
<polyline fill="none" stroke="black" points="767.5,-468 767.5,-462 "/>
<polyline fill="none" stroke="black" points="773.5,-462 767.5,-462 "/>
<text text-anchor="middle" x="691" y="-446.3" font-family="Times,serif" font-size="14.00">module.root.output.outputs</text>
</g>
<!-- [root] module.root.output.outputs&#45;&gt;[root] module.root.aws_cloudfront_distribution.root_distribution -->
<g id="edge19" class="edge">
<title>[root] module.root.output.outputs&#45;&gt;[root] module.root.aws_cloudfront_distribution.root_distribution</title>
<path fill="none" stroke="black" d="M640.87,-431.97C611.96,-422.14 575.43,-409.73 545,-399.39"/>
<polygon fill="black" stroke="black" points="545.95,-396.01 535.35,-396.11 543.7,-402.64 545.95,-396.01"/>
</g>
<!-- [root] output.certificate_arn -->
<g id="node10" class="node">
<title>[root] output.certificate_arn</title>
<polygon fill="none" stroke="black" points="1041,-540 915,-540 915,-504 1047,-504 1047,-534 1041,-540"/>
<polyline fill="none" stroke="black" points="1041,-540 1041,-534 "/>
<polyline fill="none" stroke="black" points="1047,-534 1041,-534 "/>
<text text-anchor="middle" x="981" y="-518.3" font-family="Times,serif" font-size="14.00">output.certificate_arn</text>
</g>
<!-- [root] output.certificate_arn&#45;&gt;[root] module.root.output.outputs -->
<g id="edge20" class="edge">
<title>[root] output.certificate_arn&#45;&gt;[root] module.root.output.outputs</title>
<path fill="none" stroke="black" d="M914.83,-505.03C872.16,-494.73 816.4,-481.27 771.21,-470.36"/>
<polygon fill="black" stroke="black" points="771.98,-466.95 761.44,-468 770.34,-473.75 771.98,-466.95"/>
</g>
<!-- [root] output.cloudfront_id -->
<g id="node11" class="node">
<title>[root] output.cloudfront_id</title>
<polygon fill="none" stroke="black" points="531,-540 409,-540 409,-504 537,-504 537,-534 531,-540"/>
<polyline fill="none" stroke="black" points="531,-540 531,-534 "/>
<polyline fill="none" stroke="black" points="537,-534 531,-534 "/>
<text text-anchor="middle" x="473" y="-518.3" font-family="Times,serif" font-size="14.00">output.cloudfront_id</text>
</g>
<!-- [root] output.cloudfront_id&#45;&gt;[root] module.root.output.outputs -->
<g id="edge21" class="edge">
<title>[root] output.cloudfront_id&#45;&gt;[root] module.root.output.outputs</title>
<path fill="none" stroke="black" d="M526.05,-503.97C556.77,-494.1 595.64,-481.62 627.92,-471.25"/>
<polygon fill="black" stroke="black" points="629.26,-474.5 637.71,-468.11 627.12,-467.84 629.26,-474.5"/>
</g>
<!-- [root] output.nameservers -->
<g id="node12" class="node">
<title>[root] output.nameservers</title>
<polygon fill="none" stroke="black" points="746.5,-540 629.5,-540 629.5,-504 752.5,-504 752.5,-534 746.5,-540"/>
<polyline fill="none" stroke="black" points="746.5,-540 746.5,-534 "/>
<polyline fill="none" stroke="black" points="752.5,-534 746.5,-534 "/>
<text text-anchor="middle" x="691" y="-518.3" font-family="Times,serif" font-size="14.00">output.nameservers</text>
</g>
<!-- [root] output.nameservers&#45;&gt;[root] module.root.output.outputs -->
<g id="edge22" class="edge">
<title>[root] output.nameservers&#45;&gt;[root] module.root.output.outputs</title>
<path fill="none" stroke="black" d="M691,-503.7C691,-495.98 691,-486.71 691,-478.11"/>
<polygon fill="black" stroke="black" points="694.5,-478.1 691,-468.1 687.5,-478.1 694.5,-478.1"/>
</g>
<!-- [root] output.root_zone_id -->
<g id="node13" class="node">
<title>[root] output.root_zone_id</title>
<polygon fill="none" stroke="black" points="891,-540 771,-540 771,-504 897,-504 897,-534 891,-540"/>
<polyline fill="none" stroke="black" points="891,-540 891,-534 "/>
<polyline fill="none" stroke="black" points="897,-534 891,-534 "/>
<text text-anchor="middle" x="834" y="-518.3" font-family="Times,serif" font-size="14.00">output.root_zone_id</text>
</g>
<!-- [root] output.root_zone_id&#45;&gt;[root] module.root.output.outputs -->
<g id="edge23" class="edge">
<title>[root] output.root_zone_id&#45;&gt;[root] module.root.output.outputs</title>
<path fill="none" stroke="black" d="M799.02,-503.88C779.8,-494.47 755.77,-482.71 735.26,-472.67"/>
<polygon fill="black" stroke="black" points="736.64,-469.44 726.12,-468.19 733.56,-475.73 736.64,-469.44"/>
</g>
<!-- [root] var.region -->
<g id="node16" class="node">
<title>[root] var.region</title>
<polygon fill="none" stroke="black" points="495.5,-36 430.5,-36 430.5,0 501.5,0 501.5,-30 495.5,-36"/>
<polyline fill="none" stroke="black" points="495.5,-36 495.5,-30 "/>
<polyline fill="none" stroke="black" points="501.5,-30 495.5,-30 "/>
<text text-anchor="middle" x="466" y="-14.3" font-family="Times,serif" font-size="14.00">var.region</text>
</g>
<!-- [root] provider.aws&#45;&gt;[root] var.region -->
<g id="edge25" class="edge">
<title>[root] provider.aws&#45;&gt;[root] var.region</title>
<path fill="none" stroke="black" d="M466,-71.7C466,-63.98 466,-54.71 466,-46.11"/>
<polygon fill="black" stroke="black" points="469.5,-46.1 466,-36.1 462.5,-46.1 469.5,-46.1"/>
</g>
<!-- [root] var.env -->
<g id="node15" class="node">
<title>[root] var.env</title>
<polygon fill="none" stroke="black" points="605,-540 555,-540 555,-504 611,-504 611,-534 605,-540"/>
<polyline fill="none" stroke="black" points="605,-540 605,-534 "/>
<polyline fill="none" stroke="black" points="611,-534 605,-534 "/>
<text text-anchor="middle" x="583" y="-518.3" font-family="Times,serif" font-size="14.00">var.env</text>
</g>
<!-- [root] meta.count&#45;boundary (EachMode fixup) -->
<g id="node17" class="node">
<title>[root] meta.count&#45;boundary (EachMode fixup)</title>
<ellipse fill="none" stroke="black" cx="583" cy="-594" rx="176.27" ry="18"/>
<text text-anchor="middle" x="583" y="-590.3" font-family="Times,serif" font-size="14.00">[root] meta.count&#45;boundary (EachMode fixup)</text>
</g>
<!-- [root] meta.count&#45;boundary (EachMode fixup)&#45;&gt;[root] module.root.aws_route53_record.root -->
<g id="edge1" class="edge">
<title>[root] meta.count&#45;boundary (EachMode fixup)&#45;&gt;[root] module.root.aws_route53_record.root</title>
<path fill="none" stroke="black" d="M515.15,-577.38C470.23,-567.03 410.98,-553.39 363.07,-542.36"/>
<polygon fill="black" stroke="black" points="363.55,-538.88 353.02,-540.04 361.98,-545.7 363.55,-538.88"/>
</g>
<!-- [root] meta.count&#45;boundary (EachMode fixup)&#45;&gt;[root] output.certificate_arn -->
<g id="edge2" class="edge">
<title>[root] meta.count&#45;boundary (EachMode fixup)&#45;&gt;[root] output.certificate_arn</title>
<path fill="none" stroke="black" d="M678.67,-578.85C740.58,-569.33 823.12,-555.95 904.83,-540.17"/>
<polygon fill="black" stroke="black" points="905.64,-543.58 914.79,-538.23 904.31,-536.71 905.64,-543.58"/>
</g>
<!-- [root] meta.count&#45;boundary (EachMode fixup)&#45;&gt;[root] output.cloudfront_id -->
<g id="edge3" class="edge">
<title>[root] meta.count&#45;boundary (EachMode fixup)&#45;&gt;[root] output.cloudfront_id</title>
<path fill="none" stroke="black" d="M556.37,-576.05C542.02,-566.92 524.12,-555.53 508.59,-545.65"/>
<polygon fill="black" stroke="black" points="510.08,-542.45 499.76,-540.03 506.32,-548.35 510.08,-542.45"/>
</g>
<!-- [root] meta.count&#45;boundary (EachMode fixup)&#45;&gt;[root] output.nameservers -->
<g id="edge4" class="edge">
<title>[root] meta.count&#45;boundary (EachMode fixup)&#45;&gt;[root] output.nameservers</title>
<path fill="none" stroke="black" d="M609.14,-576.05C623.23,-566.92 640.81,-555.53 656.06,-545.65"/>
<polygon fill="black" stroke="black" points="658.23,-548.41 664.72,-540.03 654.43,-542.53 658.23,-548.41"/>
</g>
<!-- [root] meta.count&#45;boundary (EachMode fixup)&#45;&gt;[root] output.root_zone_id -->
<g id="edge5" class="edge">
<title>[root] meta.count&#45;boundary (EachMode fixup)&#45;&gt;[root] output.root_zone_id</title>
<path fill="none" stroke="black" d="M640.58,-576.94C677.01,-566.78 724.36,-553.58 763.09,-542.78"/>
<polygon fill="black" stroke="black" points="764.05,-546.14 772.74,-540.08 762.17,-539.4 764.05,-546.14"/>
</g>
<!-- [root] meta.count&#45;boundary (EachMode fixup)&#45;&gt;[root] var.env -->
<g id="edge6" class="edge">
<title>[root] meta.count&#45;boundary (EachMode fixup)&#45;&gt;[root] var.env</title>
<path fill="none" stroke="black" d="M583,-575.7C583,-567.98 583,-558.71 583,-550.11"/>
<polygon fill="black" stroke="black" points="586.5,-550.1 583,-540.1 579.5,-550.1 586.5,-550.1"/>
</g>
<!-- [root] provider.aws (close) -->
<g id="node18" class="node">
<title>[root] provider.aws (close)</title>
<ellipse fill="none" stroke="black" cx="282" cy="-594" rx="104.78" ry="18"/>
<text text-anchor="middle" x="282" y="-590.3" font-family="Times,serif" font-size="14.00">[root] provider.aws (close)</text>
</g>
<!-- [root] provider.aws (close)&#45;&gt;[root] module.root.aws_route53_record.root -->
<g id="edge24" class="edge">
<title>[root] provider.aws (close)&#45;&gt;[root] module.root.aws_route53_record.root</title>
<path fill="none" stroke="black" d="M281.26,-575.7C280.93,-567.98 280.53,-558.71 280.16,-550.11"/>
<polygon fill="black" stroke="black" points="283.66,-549.95 279.73,-540.1 276.66,-550.25 283.66,-549.95"/>
</g>
<!-- [root] root -->
<g id="node19" class="node">
<title>[root] root</title>
<ellipse fill="none" stroke="black" cx="431" cy="-666" rx="47.39" ry="18"/>
<text text-anchor="middle" x="431" y="-662.3" font-family="Times,serif" font-size="14.00">[root] root</text>
</g>
<!-- [root] root&#45;&gt;[root] meta.count&#45;boundary (EachMode fixup) -->
<g id="edge26" class="edge">
<title>[root] root&#45;&gt;[root] meta.count&#45;boundary (EachMode fixup)</title>
<path fill="none" stroke="black" d="M459.95,-651.67C481.79,-641.61 512.19,-627.61 537.3,-616.05"/>
<polygon fill="black" stroke="black" points="539.02,-619.11 546.64,-611.75 536.09,-612.75 539.02,-619.11"/>
</g>
<!-- [root] root&#45;&gt;[root] provider.aws (close) -->
<g id="edge27" class="edge">
<title>[root] root&#45;&gt;[root] provider.aws (close)</title>
<path fill="none" stroke="black" d="M402.27,-651.5C380.45,-641.25 350.08,-626.98 325.31,-615.35"/>
<polygon fill="black" stroke="black" points="326.66,-612.12 316.13,-611.03 323.69,-618.45 326.66,-612.12"/>
</g>
</g>
</svg>
