<?xml version="1.0" encoding="UTF-8" standalone="no"?>
<!DOCTYPE svg PUBLIC "-//W3C//DTD SVG 1.1//EN"
 "http://www.w3.org/Graphics/SVG/1.1/DTD/svg11.dtd">
<!-- Generated by graphviz version 6.0.1 (20220911.1526)
 -->
<!-- Pages: 1 -->
<svg width="1547pt" height="476pt"
 viewBox="0.00 0.00 1547.10 476.00" xmlns="http://www.w3.org/2000/svg" xmlns:xlink="http://www.w3.org/1999/xlink">
<g id="graph0" class="graph" transform="scale(1 1) rotate(0) translate(4 472)">
<polygon fill="white" stroke="none" points="-4,4 -4,-472 1543.1,-472 1543.1,4 -4,4"/>
<!-- [root] aws_cloudfront_distribution.www_distribution (expand) -->
<g id="node1" class="node">
<title>[root] aws_cloudfront_distribution.www_distribution (expand)</title>
<polygon fill="none" stroke="black" points="1077.77,-252 805.77,-252 805.77,-216 1077.77,-216 1077.77,-252"/>
<text text-anchor="middle" x="941.77" y="-230.3" font-family="Times,serif" font-size="14.00">aws_cloudfront_distribution.www_distribution</text>
</g>
<!-- [root] aws_s3_bucket_website_configuration.www (expand) -->
<g id="node7" class="node">
<title>[root] aws_s3_bucket_website_configuration.www (expand)</title>
<polygon fill="none" stroke="black" points="772.77,-180 512.77,-180 512.77,-144 772.77,-144 772.77,-180"/>
<text text-anchor="middle" x="642.77" y="-158.3" font-family="Times,serif" font-size="14.00">aws_s3_bucket_website_configuration.www</text>
</g>
<!-- [root] aws_cloudfront_distribution.www_distribution (expand)&#45;&gt;[root] aws_s3_bucket_website_configuration.www (expand) -->
<g id="edge1" class="edge">
<title>[root] aws_cloudfront_distribution.www_distribution (expand)&#45;&gt;[root] aws_s3_bucket_website_configuration.www (expand)</title>
<path fill="none" stroke="black" d="M869.01,-215.97C825.61,-205.8 770.37,-192.87 725.34,-182.33"/>
<polygon fill="black" stroke="black" points="726.13,-178.92 715.6,-180.05 724.54,-185.74 726.13,-178.92"/>
</g>
<!-- [root] data.terraform_remote_state.root (expand) -->
<g id="node8" class="node">
<title>[root] data.terraform_remote_state.root (expand)</title>
<polygon fill="none" stroke="black" points="1249.27,-180 1052.27,-180 1052.27,-144 1249.27,-144 1249.27,-180"/>
<text text-anchor="middle" x="1150.77" y="-158.3" font-family="Times,serif" font-size="14.00">data.terraform_remote_state.root</text>
</g>
<!-- [root] aws_cloudfront_distribution.www_distribution (expand)&#45;&gt;[root] data.terraform_remote_state.root (expand) -->
<g id="edge2" class="edge">
<title>[root] aws_cloudfront_distribution.www_distribution (expand)&#45;&gt;[root] data.terraform_remote_state.root (expand)</title>
<path fill="none" stroke="black" d="M992.63,-215.97C1021.96,-206.14 1059.02,-193.73 1089.89,-183.39"/>
<polygon fill="black" stroke="black" points="1091.31,-186.61 1099.68,-180.11 1089.09,-179.97 1091.31,-186.61"/>
</g>
<!-- [root] aws_route53_record.www (expand) -->
<g id="node2" class="node">
<title>[root] aws_route53_record.www (expand)</title>
<polygon fill="none" stroke="black" points="754.77,-324 594.77,-324 594.77,-288 754.77,-288 754.77,-324"/>
<text text-anchor="middle" x="674.77" y="-302.3" font-family="Times,serif" font-size="14.00">aws_route53_record.www</text>
</g>
<!-- [root] aws_route53_record.www (expand)&#45;&gt;[root] aws_cloudfront_distribution.www_distribution (expand) -->
<g id="edge3" class="edge">
<title>[root] aws_route53_record.www (expand)&#45;&gt;[root] aws_cloudfront_distribution.www_distribution (expand)</title>
<path fill="none" stroke="black" d="M739.74,-287.97C778.1,-277.91 826.82,-265.14 866.8,-254.65"/>
<polygon fill="black" stroke="black" points="867.72,-258.03 876.5,-252.11 865.94,-251.26 867.72,-258.03"/>
</g>
<!-- [root] aws_s3_bucket.www (expand) -->
<g id="node3" class="node">
<title>[root] aws_s3_bucket.www (expand)</title>
<polygon fill="none" stroke="black" points="491.77,-108 359.77,-108 359.77,-72 491.77,-72 491.77,-108"/>
<text text-anchor="middle" x="425.77" y="-86.3" font-family="Times,serif" font-size="14.00">aws_s3_bucket.www</text>
</g>
<!-- [root] provider[&quot;registry.terraform.io/hashicorp/aws&quot;] -->
<g id="node9" class="node">
<title>[root] provider[&quot;registry.terraform.io/hashicorp/aws&quot;]</title>
<polygon fill="none" stroke="black" points="252.77,-36 0.23,-18 252.77,0 505.3,-18 252.77,-36"/>
<text text-anchor="middle" x="252.77" y="-14.3" font-family="Times,serif" font-size="14.00">provider[&quot;registry.terraform.io/hashicorp/aws&quot;]</text>
</g>
<!-- [root] aws_s3_bucket.www (expand)&#45;&gt;[root] provider[&quot;registry.terraform.io/hashicorp/aws&quot;] -->
<g id="edge4" class="edge">
<title>[root] aws_s3_bucket.www (expand)&#45;&gt;[root] provider[&quot;registry.terraform.io/hashicorp/aws&quot;]</title>
<path fill="none" stroke="black" d="M383.45,-71.88C357.52,-61.39 324.36,-47.97 297.93,-37.27"/>
<polygon fill="black" stroke="black" points="299.1,-33.97 288.52,-33.47 296.48,-40.46 299.1,-33.97"/>
</g>
<!-- [root] var.www_domain_name -->
<g id="node12" class="node">
<title>[root] var.www_domain_name</title>
<polygon fill="none" stroke="black" points="668.27,-36 523.27,-36 523.27,0 674.27,0 674.27,-30 668.27,-36"/>
<polyline fill="none" stroke="black" points="668.27,-36 668.27,-30"/>
<polyline fill="none" stroke="black" points="674.27,-30 668.27,-30"/>
<text text-anchor="middle" x="598.77" y="-14.3" font-family="Times,serif" font-size="14.00">var.www_domain_name</text>
</g>
<!-- [root] aws_s3_bucket.www (expand)&#45;&gt;[root] var.www_domain_name -->
<g id="edge5" class="edge">
<title>[root] aws_s3_bucket.www (expand)&#45;&gt;[root] var.www_domain_name</title>
<path fill="none" stroke="black" d="M468.09,-71.88C491.95,-62.22 521.94,-50.09 547.17,-39.88"/>
<polygon fill="black" stroke="black" points="548.63,-43.06 556.59,-36.07 546,-36.57 548.63,-43.06"/>
</g>
<!-- [root] aws_s3_bucket_acl.www (expand) -->
<g id="node4" class="node">
<title>[root] aws_s3_bucket_acl.www (expand)</title>
<polygon fill="none" stroke="black" points="249.27,-180 94.27,-180 94.27,-144 249.27,-144 249.27,-180"/>
<text text-anchor="middle" x="171.77" y="-158.3" font-family="Times,serif" font-size="14.00">aws_s3_bucket_acl.www</text>
</g>
<!-- [root] aws_s3_bucket_acl.www (expand)&#45;&gt;[root] aws_s3_bucket.www (expand) -->
<g id="edge6" class="edge">
<title>[root] aws_s3_bucket_acl.www (expand)&#45;&gt;[root] aws_s3_bucket.www (expand)</title>
<path fill="none" stroke="black" d="M233.58,-143.97C269.84,-133.97 315.83,-121.3 353.73,-110.85"/>
<polygon fill="black" stroke="black" points="354.97,-114.14 363.68,-108.11 353.11,-107.39 354.97,-114.14"/>
</g>
<!-- [root] aws_s3_bucket_policy.allow_access_from_anyone (expand) -->
<g id="node5" class="node">
<title>[root] aws_s3_bucket_policy.allow_access_from_anyone (expand)</title>
<polygon fill="none" stroke="black" points="441.27,-252 148.27,-252 148.27,-216 441.27,-216 441.27,-252"/>
<text text-anchor="middle" x="294.77" y="-230.3" font-family="Times,serif" font-size="14.00">aws_s3_bucket_policy.allow_access_from_anyone</text>
</g>
<!-- [root] aws_s3_bucket_policy.allow_access_from_anyone (expand)&#45;&gt;[root] aws_s3_bucket.www (expand) -->
<g id="edge7" class="edge">
<title>[root] aws_s3_bucket_policy.allow_access_from_anyone (expand)&#45;&gt;[root] aws_s3_bucket.www (expand)</title>
<path fill="none" stroke="black" d="M310.57,-215.87C333.58,-190.92 376.46,-144.45 402.91,-115.77"/>
<polygon fill="black" stroke="black" points="405.7,-117.91 409.91,-108.19 400.56,-113.17 405.7,-117.91"/>
</g>
<!-- [root] aws_s3_bucket_versioning.www (expand) -->
<g id="node6" class="node">
<title>[root] aws_s3_bucket_versioning.www (expand)</title>
<polygon fill="none" stroke="black" points="531.77,-324 335.77,-324 335.77,-288 531.77,-288 531.77,-324"/>
<text text-anchor="middle" x="433.77" y="-302.3" font-family="Times,serif" font-size="14.00">aws_s3_bucket_versioning.www</text>
</g>
<!-- [root] aws_s3_bucket_versioning.www (expand)&#45;&gt;[root] aws_s3_bucket.www (expand) -->
<g id="edge8" class="edge">
<title>[root] aws_s3_bucket_versioning.www (expand)&#45;&gt;[root] aws_s3_bucket.www (expand)</title>
<path fill="none" stroke="black" d="M440.42,-287.63C443.97,-277.42 447.97,-264.17 449.77,-252 456.7,-205.03 444.2,-150.37 434.78,-118.34"/>
<polygon fill="black" stroke="black" points="438.01,-116.93 431.74,-108.39 431.32,-118.98 438.01,-116.93"/>
</g>
<!-- [root] aws_s3_bucket_website_configuration.www (expand)&#45;&gt;[root] aws_s3_bucket.www (expand) -->
<g id="edge9" class="edge">
<title>[root] aws_s3_bucket_website_configuration.www (expand)&#45;&gt;[root] aws_s3_bucket.www (expand)</title>
<path fill="none" stroke="black" d="M589.96,-143.97C559.38,-134.1 520.7,-121.62 488.56,-111.25"/>
<polygon fill="black" stroke="black" points="489.4,-107.85 478.81,-108.11 487.25,-114.51 489.4,-107.85"/>
</g>
<!-- [root] provider[&quot;terraform.io/builtin/terraform&quot;] -->
<g id="node10" class="node">
<title>[root] provider[&quot;terraform.io/builtin/terraform&quot;]</title>
<polygon fill="none" stroke="black" points="1150.77,-108 926.72,-90 1150.77,-72 1374.82,-90 1150.77,-108"/>
<text text-anchor="middle" x="1150.77" y="-86.3" font-family="Times,serif" font-size="14.00">provider[&quot;terraform.io/builtin/terraform&quot;]</text>
</g>
<!-- [root] data.terraform_remote_state.root (expand)&#45;&gt;[root] provider[&quot;terraform.io/builtin/terraform&quot;] -->
<g id="edge10" class="edge">
<title>[root] data.terraform_remote_state.root (expand)&#45;&gt;[root] provider[&quot;terraform.io/builtin/terraform&quot;]</title>
<path fill="none" stroke="black" d="M1150.77,-143.7C1150.77,-135.98 1150.77,-126.71 1150.77,-118.11"/>
<polygon fill="black" stroke="black" points="1154.27,-118.1 1150.77,-108.1 1147.27,-118.1 1154.27,-118.1"/>
</g>
<!-- [root] var.root_domain_name -->
<g id="node11" class="node">
<title>[root] var.root_domain_name</title>
<polygon fill="none" stroke="black" points="1326.27,-396 1189.27,-396 1189.27,-360 1332.27,-360 1332.27,-390 1326.27,-396"/>
<polyline fill="none" stroke="black" points="1326.27,-396 1326.27,-390"/>
<polyline fill="none" stroke="black" points="1332.27,-390 1326.27,-390"/>
<text text-anchor="middle" x="1260.77" y="-374.3" font-family="Times,serif" font-size="14.00">var.root_domain_name</text>
</g>
<!-- [root] output.cloudfront_url (expand) -->
<g id="node13" class="node">
<title>[root] output.cloudfront_url (expand)</title>
<ellipse fill="none" stroke="black" cx="1028.77" cy="-378" rx="142.17" ry="18"/>
<text text-anchor="middle" x="1028.77" y="-374.3" font-family="Times,serif" font-size="14.00">[root] output.cloudfront_url (expand)</text>
</g>
<!-- [root] output.cloudfront_url (expand)&#45;&gt;[root] aws_cloudfront_distribution.www_distribution (expand) -->
<g id="edge11" class="edge">
<title>[root] output.cloudfront_url (expand)&#45;&gt;[root] aws_cloudfront_distribution.www_distribution (expand)</title>
<path fill="none" stroke="black" d="M1068.2,-360.59C1083.43,-352.07 1099.22,-340.03 1107.77,-324 1115.3,-309.88 1117.21,-300.92 1107.77,-288 1097.7,-274.22 1084,-263.93 1068.77,-256.28"/>
<polygon fill="black" stroke="black" points="1070.19,-253.08 1059.64,-252.07 1067.26,-259.43 1070.19,-253.08"/>
</g>
<!-- [root] output.cloudfront_www_id (expand) -->
<g id="node14" class="node">
<title>[root] output.cloudfront_www_id (expand)</title>
<ellipse fill="none" stroke="black" cx="935.77" cy="-306" rx="163.27" ry="18"/>
<text text-anchor="middle" x="935.77" y="-302.3" font-family="Times,serif" font-size="14.00">[root] output.cloudfront_www_id (expand)</text>
</g>
<!-- [root] output.cloudfront_www_id (expand)&#45;&gt;[root] aws_cloudfront_distribution.www_distribution (expand) -->
<g id="edge12" class="edge">
<title>[root] output.cloudfront_www_id (expand)&#45;&gt;[root] aws_cloudfront_distribution.www_distribution (expand)</title>
<path fill="none" stroke="black" d="M937.25,-287.7C937.91,-279.98 938.71,-270.71 939.44,-262.11"/>
<polygon fill="black" stroke="black" points="942.94,-262.37 940.3,-252.1 935.96,-261.77 942.94,-262.37"/>
</g>
<!-- [root] output.s3_website_url (expand) -->
<g id="node15" class="node">
<title>[root] output.s3_website_url (expand)</title>
<ellipse fill="none" stroke="black" cx="642.77" cy="-234" rx="144.87" ry="18"/>
<text text-anchor="middle" x="642.77" y="-230.3" font-family="Times,serif" font-size="14.00">[root] output.s3_website_url (expand)</text>
</g>
<!-- [root] output.s3_website_url (expand)&#45;&gt;[root] aws_s3_bucket_website_configuration.www (expand) -->
<g id="edge13" class="edge">
<title>[root] output.s3_website_url (expand)&#45;&gt;[root] aws_s3_bucket_website_configuration.www (expand)</title>
<path fill="none" stroke="black" d="M642.77,-215.7C642.77,-207.98 642.77,-198.71 642.77,-190.11"/>
<polygon fill="black" stroke="black" points="646.27,-190.1 642.77,-180.1 639.27,-190.1 646.27,-190.1"/>
</g>
<!-- [root] output.site_url (expand) -->
<g id="node16" class="node">
<title>[root] output.site_url (expand)</title>
<ellipse fill="none" stroke="black" cx="712.77" cy="-378" rx="118.08" ry="18"/>
<text text-anchor="middle" x="712.77" y="-374.3" font-family="Times,serif" font-size="14.00">[root] output.site_url (expand)</text>
</g>
<!-- [root] output.site_url (expand)&#45;&gt;[root] aws_route53_record.www (expand) -->
<g id="edge14" class="edge">
<title>[root] output.site_url (expand)&#45;&gt;[root] aws_route53_record.www (expand)</title>
<path fill="none" stroke="black" d="M703.37,-359.7C699,-351.64 693.71,-341.89 688.87,-332.98"/>
<polygon fill="black" stroke="black" points="691.9,-331.22 684.05,-324.1 685.75,-334.56 691.9,-331.22"/>
</g>
<!-- [root] provider[&quot;registry.terraform.io/hashicorp/aws&quot;] (close) -->
<g id="node17" class="node">
<title>[root] provider[&quot;registry.terraform.io/hashicorp/aws&quot;] (close)</title>
<ellipse fill="none" stroke="black" cx="311.77" cy="-378" rx="227.46" ry="18"/>
<text text-anchor="middle" x="311.77" y="-374.3" font-family="Times,serif" font-size="14.00">[root] provider[&quot;registry.terraform.io/hashicorp/aws&quot;] (close)</text>
</g>
<!-- [root] provider[&quot;registry.terraform.io/hashicorp/aws&quot;] (close)&#45;&gt;[root] aws_route53_record.www (expand) -->
<g id="edge15" class="edge">
<title>[root] provider[&quot;registry.terraform.io/hashicorp/aws&quot;] (close)&#45;&gt;[root] aws_route53_record.www (expand)</title>
<path fill="none" stroke="black" d="M393.69,-361.2C450.52,-350.24 526.21,-335.65 584.73,-324.36"/>
<polygon fill="black" stroke="black" points="585.55,-327.77 594.71,-322.44 584.23,-320.89 585.55,-327.77"/>
</g>
<!-- [root] provider[&quot;registry.terraform.io/hashicorp/aws&quot;] (close)&#45;&gt;[root] aws_s3_bucket_acl.www (expand) -->
<g id="edge16" class="edge">
<title>[root] provider[&quot;registry.terraform.io/hashicorp/aws&quot;] (close)&#45;&gt;[root] aws_s3_bucket_acl.www (expand)</title>
<path fill="none" stroke="black" d="M269.59,-360.26C227.73,-341.09 166.01,-305.28 138.77,-252 128.26,-231.45 139.13,-206.74 151.13,-188.58"/>
<polygon fill="black" stroke="black" points="154.12,-190.42 157.03,-180.23 148.4,-186.38 154.12,-190.42"/>
</g>
<!-- [root] provider[&quot;registry.terraform.io/hashicorp/aws&quot;] (close)&#45;&gt;[root] aws_s3_bucket_policy.allow_access_from_anyone (expand) -->
<g id="edge17" class="edge">
<title>[root] provider[&quot;registry.terraform.io/hashicorp/aws&quot;] (close)&#45;&gt;[root] aws_s3_bucket_policy.allow_access_from_anyone (expand)</title>
<path fill="none" stroke="black" d="M309.72,-359.87C306.82,-335.67 301.5,-291.21 298.05,-262.39"/>
<polygon fill="black" stroke="black" points="301.49,-261.7 296.83,-252.19 294.54,-262.53 301.49,-261.7"/>
</g>
<!-- [root] provider[&quot;registry.terraform.io/hashicorp/aws&quot;] (close)&#45;&gt;[root] aws_s3_bucket_versioning.www (expand) -->
<g id="edge18" class="edge">
<title>[root] provider[&quot;registry.terraform.io/hashicorp/aws&quot;] (close)&#45;&gt;[root] aws_s3_bucket_versioning.www (expand)</title>
<path fill="none" stroke="black" d="M341.3,-360.05C357.52,-350.75 377.81,-339.11 395.26,-329.1"/>
<polygon fill="black" stroke="black" points="397.15,-332.04 404.08,-324.03 393.67,-325.97 397.15,-332.04"/>
</g>
<!-- [root] provider[&quot;terraform.io/builtin/terraform&quot;] (close) -->
<g id="node18" class="node">
<title>[root] provider[&quot;terraform.io/builtin/terraform&quot;] (close)</title>
<ellipse fill="none" stroke="black" cx="1331.77" cy="-234" rx="207.16" ry="18"/>
<text text-anchor="middle" x="1331.77" y="-230.3" font-family="Times,serif" font-size="14.00">[root] provider[&quot;terraform.io/builtin/terraform&quot;] (close)</text>
</g>
<!-- [root] provider[&quot;terraform.io/builtin/terraform&quot;] (close)&#45;&gt;[root] data.terraform_remote_state.root (expand) -->
<g id="edge19" class="edge">
<title>[root] provider[&quot;terraform.io/builtin/terraform&quot;] (close)&#45;&gt;[root] data.terraform_remote_state.root (expand)</title>
<path fill="none" stroke="black" d="M1288.41,-216.23C1263.26,-206.51 1231.38,-194.17 1204.63,-183.83"/>
<polygon fill="black" stroke="black" points="1205.62,-180.46 1195.03,-180.12 1203.09,-186.99 1205.62,-180.46"/>
</g>
<!-- [root] root -->
<g id="node19" class="node">
<title>[root] root</title>
<ellipse fill="none" stroke="black" cx="858.77" cy="-450" rx="47.39" ry="18"/>
<text text-anchor="middle" x="858.77" y="-446.3" font-family="Times,serif" font-size="14.00">[root] root</text>
</g>
<!-- [root] root&#45;&gt;[root] var.root_domain_name -->
<g id="edge26" class="edge">
<title>[root] root&#45;&gt;[root] var.root_domain_name</title>
<path fill="none" stroke="black" d="M901.97,-442.47C961.83,-433.3 1073.64,-415.68 1179.37,-396.03"/>
<polygon fill="black" stroke="black" points="1180.06,-399.46 1189.25,-394.19 1178.78,-392.58 1180.06,-399.46"/>
</g>
<!-- [root] root&#45;&gt;[root] output.cloudfront_url (expand) -->
<g id="edge20" class="edge">
<title>[root] root&#45;&gt;[root] output.cloudfront_url (expand)</title>
<path fill="none" stroke="black" d="M889.95,-436.16C915.01,-425.84 950.67,-411.16 979.58,-399.26"/>
<polygon fill="black" stroke="black" points="981.18,-402.38 989.1,-395.34 978.52,-395.91 981.18,-402.38"/>
</g>
<!-- [root] root&#45;&gt;[root] output.cloudfront_www_id (expand) -->
<g id="edge21" class="edge">
<title>[root] root&#45;&gt;[root] output.cloudfront_www_id (expand)</title>
<path fill="none" stroke="black" d="M859.35,-431.83C860.66,-413.05 864.81,-382.62 877.77,-360 884.13,-348.9 893.61,-338.83 903.07,-330.51"/>
<polygon fill="black" stroke="black" points="905.5,-333.04 910.94,-323.96 901.02,-327.66 905.5,-333.04"/>
</g>
<!-- [root] root&#45;&gt;[root] output.s3_website_url (expand) -->
<g id="edge22" class="edge">
<title>[root] root&#45;&gt;[root] output.s3_website_url (expand)</title>
<path fill="none" stroke="black" d="M811.98,-446.86C741.65,-442.56 613.91,-430.13 585.77,-396 555.23,-358.97 566.6,-332.01 585.77,-288 590.74,-276.58 599.53,-266.51 608.73,-258.3"/>
<polygon fill="black" stroke="black" points="611.03,-260.94 616.49,-251.86 606.56,-255.56 611.03,-260.94"/>
</g>
<!-- [root] root&#45;&gt;[root] output.site_url (expand) -->
<g id="edge23" class="edge">
<title>[root] root&#45;&gt;[root] output.site_url (expand)</title>
<path fill="none" stroke="black" d="M830.62,-435.5C809.48,-425.37 780.14,-411.3 756.03,-399.74"/>
<polygon fill="black" stroke="black" points="757.26,-396.45 746.73,-395.28 754.24,-402.76 757.26,-396.45"/>
</g>
<!-- [root] root&#45;&gt;[root] provider[&quot;registry.terraform.io/hashicorp/aws&quot;] (close) -->
<g id="edge24" class="edge">
<title>[root] root&#45;&gt;[root] provider[&quot;registry.terraform.io/hashicorp/aws&quot;] (close)</title>
<path fill="none" stroke="black" d="M814.47,-443.33C732.95,-432.9 556.52,-410.32 435.94,-394.89"/>
<polygon fill="black" stroke="black" points="436.27,-391.4 425.9,-393.61 435.38,-398.35 436.27,-391.4"/>
</g>
<!-- [root] root&#45;&gt;[root] provider[&quot;terraform.io/builtin/terraform&quot;] (close) -->
<g id="edge25" class="edge">
<title>[root] root&#45;&gt;[root] provider[&quot;terraform.io/builtin/terraform&quot;] (close)</title>
<path fill="none" stroke="black" d="M906.05,-447.33C1021.97,-442.74 1312.98,-428.12 1341.77,-396 1374.6,-359.37 1357.67,-297.2 1343.81,-261.79"/>
<polygon fill="black" stroke="black" points="1346.88,-260.06 1339.84,-252.14 1340.4,-262.72 1346.88,-260.06"/>
</g>
</g>
</svg>
