<?xml version="1.0" encoding="UTF-8" standalone="no"?>
<!DOCTYPE svg PUBLIC "-//W3C//DTD SVG 1.1//EN"
 "http://www.w3.org/Graphics/SVG/1.1/DTD/svg11.dtd">
<!-- Generated by graphviz version 2.44.0 (20200408.0750)
 -->
<!-- Pages: 1 -->
<svg width="658pt" height="548pt"
 viewBox="0.00 0.00 657.64 548.00" xmlns="http://www.w3.org/2000/svg" xmlns:xlink="http://www.w3.org/1999/xlink">
<g id="graph0" class="graph" transform="scale(1 1) rotate(0) translate(4 544)">
<polygon fill="white" stroke="transparent" points="-4,4 -4,-544 653.64,-544 653.64,4 -4,4"/>
<!-- [root] aws_s3_bucket.aws_logs -->
<g id="node1" class="node">
<title>[root] aws_s3_bucket.aws_logs</title>
<polygon fill="none" stroke="black" points="565.5,-324 412.5,-324 412.5,-288 565.5,-288 565.5,-324"/>
<text text-anchor="middle" x="489" y="-302.3" font-family="Times,serif" font-size="14.00">aws_s3_bucket.aws_logs</text>
</g>
<!-- [root] data.aws_iam_policy_document.main -->
<g id="node5" class="node">
<title>[root] data.aws_iam_policy_document.main</title>
<polygon fill="none" stroke="black" points="601,-252 377,-252 377,-216 601,-216 601,-252"/>
<text text-anchor="middle" x="489" y="-230.3" font-family="Times,serif" font-size="14.00">data.aws_iam_policy_document.main</text>
</g>
<!-- [root] aws_s3_bucket.aws_logs&#45;&gt;[root] data.aws_iam_policy_document.main -->
<g id="edge1" class="edge">
<title>[root] aws_s3_bucket.aws_logs&#45;&gt;[root] data.aws_iam_policy_document.main</title>
<path fill="none" stroke="black" d="M489,-287.7C489,-279.98 489,-270.71 489,-262.11"/>
<polygon fill="black" stroke="black" points="492.5,-262.1 489,-252.1 485.5,-262.1 492.5,-262.1"/>
</g>
<!-- [root] aws_ses_active_receipt_rule_set.main -->
<g id="node2" class="node">
<title>[root] aws_ses_active_receipt_rule_set.main</title>
<polygon fill="none" stroke="black" points="558,-396 334,-396 334,-360 558,-360 558,-396"/>
<text text-anchor="middle" x="446" y="-374.3" font-family="Times,serif" font-size="14.00">aws_ses_active_receipt_rule_set.main</text>
</g>
<!-- [root] aws_ses_receipt_rule_set.main -->
<g id="node3" class="node">
<title>[root] aws_ses_receipt_rule_set.main</title>
<polygon fill="none" stroke="black" points="331.5,-324 146.5,-324 146.5,-288 331.5,-288 331.5,-324"/>
<text text-anchor="middle" x="239" y="-302.3" font-family="Times,serif" font-size="14.00">aws_ses_receipt_rule_set.main</text>
</g>
<!-- [root] aws_ses_active_receipt_rule_set.main&#45;&gt;[root] aws_ses_receipt_rule_set.main -->
<g id="edge2" class="edge">
<title>[root] aws_ses_active_receipt_rule_set.main&#45;&gt;[root] aws_ses_receipt_rule_set.main</title>
<path fill="none" stroke="black" d="M395.63,-359.97C366.58,-350.14 329.87,-337.73 299.29,-327.39"/>
<polygon fill="black" stroke="black" points="300.19,-324 289.6,-324.11 297.95,-330.63 300.19,-324"/>
</g>
<!-- [root] provider.aws -->
<g id="node9" class="node">
<title>[root] provider.aws</title>
<polygon fill="none" stroke="black" points="301,-108 221.9,-90 301,-72 380.1,-90 301,-108"/>
<text text-anchor="middle" x="301" y="-86.3" font-family="Times,serif" font-size="14.00">provider.aws</text>
</g>
<!-- [root] aws_ses_receipt_rule_set.main&#45;&gt;[root] provider.aws -->
<g id="edge3" class="edge">
<title>[root] aws_ses_receipt_rule_set.main&#45;&gt;[root] provider.aws</title>
<path fill="none" stroke="black" d="M237.97,-287.76C236.81,-257.41 237.31,-193.01 258,-144 262.92,-132.35 271.21,-121.2 279.21,-112.16"/>
<polygon fill="black" stroke="black" points="281.81,-114.5 286.07,-104.8 276.69,-109.73 281.81,-114.5"/>
</g>
<!-- [root] data.aws_caller_identity.current -->
<g id="node4" class="node">
<title>[root] data.aws_caller_identity.current</title>
<polygon fill="none" stroke="black" points="457,-180 267,-180 267,-144 457,-144 457,-180"/>
<text text-anchor="middle" x="362" y="-158.3" font-family="Times,serif" font-size="14.00">data.aws_caller_identity.current</text>
</g>
<!-- [root] data.aws_caller_identity.current&#45;&gt;[root] provider.aws -->
<g id="edge4" class="edge">
<title>[root] data.aws_caller_identity.current&#45;&gt;[root] provider.aws</title>
<path fill="none" stroke="black" d="M346.92,-143.7C338.79,-134.37 328.68,-122.76 320.02,-112.82"/>
<polygon fill="black" stroke="black" points="322.65,-110.52 313.44,-105.28 317.37,-115.12 322.65,-110.52"/>
</g>
<!-- [root] data.aws_iam_policy_document.main&#45;&gt;[root] data.aws_caller_identity.current -->
<g id="edge5" class="edge">
<title>[root] data.aws_iam_policy_document.main&#45;&gt;[root] data.aws_caller_identity.current</title>
<path fill="none" stroke="black" d="M457.93,-215.88C441.17,-206.64 420.29,-195.13 402.3,-185.21"/>
<polygon fill="black" stroke="black" points="403.63,-181.95 393.19,-180.19 400.26,-188.08 403.63,-181.95"/>
</g>
<!-- [root] local.pre_log_bucket_arn -->
<g id="node6" class="node">
<title>[root] local.pre_log_bucket_arn</title>
<polygon fill="none" stroke="black" points="624.5,-180 475.5,-180 475.5,-144 630.5,-144 630.5,-174 624.5,-180"/>
<polyline fill="none" stroke="black" points="624.5,-180 624.5,-174 "/>
<polyline fill="none" stroke="black" points="630.5,-174 624.5,-174 "/>
<text text-anchor="middle" x="553" y="-158.3" font-family="Times,serif" font-size="14.00">local.pre_log_bucket_arn</text>
</g>
<!-- [root] data.aws_iam_policy_document.main&#45;&gt;[root] local.pre_log_bucket_arn -->
<g id="edge6" class="edge">
<title>[root] data.aws_iam_policy_document.main&#45;&gt;[root] local.pre_log_bucket_arn</title>
<path fill="none" stroke="black" d="M504.82,-215.7C512.57,-207.22 522.04,-196.86 530.52,-187.58"/>
<polygon fill="black" stroke="black" points="533.2,-189.85 537.36,-180.1 528.03,-185.12 533.2,-189.85"/>
</g>
<!-- [root] var.log_bucket_name -->
<g id="node10" class="node">
<title>[root] var.log_bucket_name</title>
<polygon fill="none" stroke="black" points="614,-108 486,-108 486,-72 620,-72 620,-102 614,-108"/>
<polyline fill="none" stroke="black" points="614,-108 614,-102 "/>
<polyline fill="none" stroke="black" points="620,-102 614,-102 "/>
<text text-anchor="middle" x="553" y="-86.3" font-family="Times,serif" font-size="14.00">var.log_bucket_name</text>
</g>
<!-- [root] local.pre_log_bucket_arn&#45;&gt;[root] var.log_bucket_name -->
<g id="edge7" class="edge">
<title>[root] local.pre_log_bucket_arn&#45;&gt;[root] var.log_bucket_name</title>
<path fill="none" stroke="black" d="M553,-143.7C553,-135.98 553,-126.71 553,-118.11"/>
<polygon fill="black" stroke="black" points="556.5,-118.1 553,-108.1 549.5,-118.1 556.5,-118.1"/>
</g>
<!-- [root] output.log_bucket_arn -->
<g id="node7" class="node">
<title>[root] output.log_bucket_arn</title>
<polygon fill="none" stroke="black" points="309.5,-396 176.5,-396 176.5,-360 315.5,-360 315.5,-390 309.5,-396"/>
<polyline fill="none" stroke="black" points="309.5,-396 309.5,-390 "/>
<polyline fill="none" stroke="black" points="315.5,-390 309.5,-390 "/>
<text text-anchor="middle" x="246" y="-374.3" font-family="Times,serif" font-size="14.00">output.log_bucket_arn</text>
</g>
<!-- [root] output.log_bucket_arn&#45;&gt;[root] aws_s3_bucket.aws_logs -->
<g id="edge11" class="edge">
<title>[root] output.log_bucket_arn&#45;&gt;[root] aws_s3_bucket.aws_logs</title>
<path fill="none" stroke="black" d="M305.13,-359.97C339.68,-350.01 383.45,-337.41 419.62,-326.99"/>
<polygon fill="black" stroke="black" points="420.96,-330.24 429.6,-324.11 419.02,-323.52 420.96,-330.24"/>
</g>
<!-- [root] output.ses_rule_set_name -->
<g id="node8" class="node">
<title>[root] output.ses_rule_set_name</title>
<polygon fill="none" stroke="black" points="152,-396 0,-396 0,-360 158,-360 158,-390 152,-396"/>
<polyline fill="none" stroke="black" points="152,-396 152,-390 "/>
<polyline fill="none" stroke="black" points="158,-390 152,-390 "/>
<text text-anchor="middle" x="79" y="-374.3" font-family="Times,serif" font-size="14.00">output.ses_rule_set_name</text>
</g>
<!-- [root] output.ses_rule_set_name&#45;&gt;[root] aws_ses_receipt_rule_set.main -->
<g id="edge12" class="edge">
<title>[root] output.ses_rule_set_name&#45;&gt;[root] aws_ses_receipt_rule_set.main</title>
<path fill="none" stroke="black" d="M118.14,-359.88C140.01,-350.31 167.46,-338.3 190.66,-328.15"/>
<polygon fill="black" stroke="black" points="192.23,-331.28 199.99,-324.07 189.42,-324.87 192.23,-331.28"/>
</g>
<!-- [root] var.region -->
<g id="node11" class="node">
<title>[root] var.region</title>
<polygon fill="none" stroke="black" points="330.5,-36 265.5,-36 265.5,0 336.5,0 336.5,-30 330.5,-36"/>
<polyline fill="none" stroke="black" points="330.5,-36 330.5,-30 "/>
<polyline fill="none" stroke="black" points="336.5,-30 330.5,-30 "/>
<text text-anchor="middle" x="301" y="-14.3" font-family="Times,serif" font-size="14.00">var.region</text>
</g>
<!-- [root] provider.aws&#45;&gt;[root] var.region -->
<g id="edge15" class="edge">
<title>[root] provider.aws&#45;&gt;[root] var.region</title>
<path fill="none" stroke="black" d="M301,-71.7C301,-63.98 301,-54.71 301,-46.11"/>
<polygon fill="black" stroke="black" points="304.5,-46.1 301,-36.1 297.5,-46.1 304.5,-46.1"/>
</g>
<!-- [root] meta.count&#45;boundary (EachMode fixup) -->
<g id="node12" class="node">
<title>[root] meta.count&#45;boundary (EachMode fixup)</title>
<ellipse fill="none" stroke="black" cx="246" cy="-450" rx="176.27" ry="18"/>
<text text-anchor="middle" x="246" y="-446.3" font-family="Times,serif" font-size="14.00">[root] meta.count&#45;boundary (EachMode fixup)</text>
</g>
<!-- [root] meta.count&#45;boundary (EachMode fixup)&#45;&gt;[root] aws_ses_active_receipt_rule_set.main -->
<g id="edge8" class="edge">
<title>[root] meta.count&#45;boundary (EachMode fixup)&#45;&gt;[root] aws_ses_active_receipt_rule_set.main</title>
<path fill="none" stroke="black" d="M292.89,-432.59C321.23,-422.67 357.58,-409.95 387.75,-399.39"/>
<polygon fill="black" stroke="black" points="389.03,-402.65 397.31,-396.04 386.72,-396.04 389.03,-402.65"/>
</g>
<!-- [root] meta.count&#45;boundary (EachMode fixup)&#45;&gt;[root] output.log_bucket_arn -->
<g id="edge9" class="edge">
<title>[root] meta.count&#45;boundary (EachMode fixup)&#45;&gt;[root] output.log_bucket_arn</title>
<path fill="none" stroke="black" d="M246,-431.7C246,-423.98 246,-414.71 246,-406.11"/>
<polygon fill="black" stroke="black" points="249.5,-406.1 246,-396.1 242.5,-406.1 249.5,-406.1"/>
</g>
<!-- [root] meta.count&#45;boundary (EachMode fixup)&#45;&gt;[root] output.ses_rule_set_name -->
<g id="edge10" class="edge">
<title>[root] meta.count&#45;boundary (EachMode fixup)&#45;&gt;[root] output.ses_rule_set_name</title>
<path fill="none" stroke="black" d="M206.42,-432.41C183.25,-422.7 153.76,-410.33 128.98,-399.95"/>
<polygon fill="black" stroke="black" points="130.32,-396.72 119.74,-396.08 127.61,-403.17 130.32,-396.72"/>
</g>
<!-- [root] provider.aws (close) -->
<g id="node13" class="node">
<title>[root] provider.aws (close)</title>
<ellipse fill="none" stroke="black" cx="545" cy="-450" rx="104.78" ry="18"/>
<text text-anchor="middle" x="545" y="-446.3" font-family="Times,serif" font-size="14.00">[root] provider.aws (close)</text>
</g>
<!-- [root] provider.aws (close)&#45;&gt;[root] aws_s3_bucket.aws_logs -->
<g id="edge13" class="edge">
<title>[root] provider.aws (close)&#45;&gt;[root] aws_s3_bucket.aws_logs</title>
<path fill="none" stroke="black" d="M556.02,-432.06C566.6,-413.47 579.29,-383.21 567,-360 560.4,-347.54 549.42,-337.47 537.75,-329.59"/>
<polygon fill="black" stroke="black" points="539.52,-326.56 529.18,-324.23 535.8,-332.5 539.52,-326.56"/>
</g>
<!-- [root] provider.aws (close)&#45;&gt;[root] aws_ses_active_receipt_rule_set.main -->
<g id="edge14" class="edge">
<title>[root] provider.aws (close)&#45;&gt;[root] aws_ses_active_receipt_rule_set.main</title>
<path fill="none" stroke="black" d="M521.54,-432.41C508.75,-423.37 492.73,-412.04 478.73,-402.14"/>
<polygon fill="black" stroke="black" points="480.51,-399.12 470.33,-396.2 476.47,-404.83 480.51,-399.12"/>
</g>
<!-- [root] root -->
<g id="node14" class="node">
<title>[root] root</title>
<ellipse fill="none" stroke="black" cx="395" cy="-522" rx="47.39" ry="18"/>
<text text-anchor="middle" x="395" y="-518.3" font-family="Times,serif" font-size="14.00">[root] root</text>
</g>
<!-- [root] root&#45;&gt;[root] meta.count&#45;boundary (EachMode fixup) -->
<g id="edge16" class="edge">
<title>[root] root&#45;&gt;[root] meta.count&#45;boundary (EachMode fixup)</title>
<path fill="none" stroke="black" d="M366.27,-507.5C344.83,-497.43 315.12,-483.47 290.59,-471.95"/>
<polygon fill="black" stroke="black" points="292.02,-468.75 281.48,-467.67 289.04,-475.09 292.02,-468.75"/>
</g>
<!-- [root] root&#45;&gt;[root] provider.aws (close) -->
<g id="edge17" class="edge">
<title>[root] root&#45;&gt;[root] provider.aws (close)</title>
<path fill="none" stroke="black" d="M423.92,-507.5C445.89,-497.25 476.47,-482.98 501.4,-471.35"/>
<polygon fill="black" stroke="black" points="503.06,-474.43 510.65,-467.03 500.1,-468.09 503.06,-474.43"/>
</g>
</g>
</svg>
