<?xml version="1.0" encoding="UTF-8" standalone="no"?>
<!DOCTYPE svg PUBLIC "-//W3C//DTD SVG 1.1//EN"
 "http://www.w3.org/Graphics/SVG/1.1/DTD/svg11.dtd">
<!-- Generated by graphviz version 2.44.0 (20200408.0750)
 -->
<!-- Pages: 1 -->
<svg width="492pt" height="404pt"
 viewBox="0.00 0.00 491.78 404.00" xmlns="http://www.w3.org/2000/svg" xmlns:xlink="http://www.w3.org/1999/xlink">
<g id="graph0" class="graph" transform="scale(1 1) rotate(0) translate(4 400)">
<polygon fill="white" stroke="transparent" points="-4,4 -4,-400 487.78,-400 487.78,4 -4,4"/>
<!-- [root] aws_ses_receipt_rule_set.main -->
<g id="node1" class="node">
<title>[root] aws_ses_receipt_rule_set.main</title>
<polygon fill="none" stroke="black" points="370.63,-180 185.63,-180 185.63,-144 370.63,-144 370.63,-180"/>
<text text-anchor="middle" x="278.13" y="-158.3" font-family="Times,serif" font-size="14.00">aws_ses_receipt_rule_set.main</text>
</g>
<!-- [root] provider.aws -->
<g id="node3" class="node">
<title>[root] provider.aws</title>
<polygon fill="none" stroke="black" points="278.13,-108 199.04,-90 278.13,-72 357.23,-90 278.13,-108"/>
<text text-anchor="middle" x="278.13" y="-86.3" font-family="Times,serif" font-size="14.00">provider.aws</text>
</g>
<!-- [root] aws_ses_receipt_rule_set.main&#45;&gt;[root] provider.aws -->
<g id="edge1" class="edge">
<title>[root] aws_ses_receipt_rule_set.main&#45;&gt;[root] provider.aws</title>
<path fill="none" stroke="black" d="M278.13,-143.7C278.13,-135.98 278.13,-126.71 278.13,-118.11"/>
<polygon fill="black" stroke="black" points="281.63,-118.1 278.13,-108.1 274.63,-118.1 281.63,-118.1"/>
</g>
<!-- [root] output.ses_rule_set_name -->
<g id="node2" class="node">
<title>[root] output.ses_rule_set_name</title>
<polygon fill="none" stroke="black" points="250.13,-252 98.13,-252 98.13,-216 256.13,-216 256.13,-246 250.13,-252"/>
<polyline fill="none" stroke="black" points="250.13,-252 250.13,-246 "/>
<polyline fill="none" stroke="black" points="256.13,-246 250.13,-246 "/>
<text text-anchor="middle" x="177.13" y="-230.3" font-family="Times,serif" font-size="14.00">output.ses_rule_set_name</text>
</g>
<!-- [root] output.ses_rule_set_name&#45;&gt;[root] aws_ses_receipt_rule_set.main -->
<g id="edge3" class="edge">
<title>[root] output.ses_rule_set_name&#45;&gt;[root] aws_ses_receipt_rule_set.main</title>
<path fill="none" stroke="black" d="M201.84,-215.88C214.8,-206.89 230.86,-195.76 244.9,-186.03"/>
<polygon fill="black" stroke="black" points="247.11,-188.76 253.33,-180.19 243.12,-183.01 247.11,-188.76"/>
</g>
<!-- [root] var.region -->
<g id="node4" class="node">
<title>[root] var.region</title>
<polygon fill="none" stroke="black" points="307.63,-36 242.63,-36 242.63,0 313.63,0 313.63,-30 307.63,-36"/>
<polyline fill="none" stroke="black" points="307.63,-36 307.63,-30 "/>
<polyline fill="none" stroke="black" points="313.63,-30 307.63,-30 "/>
<text text-anchor="middle" x="278.13" y="-14.3" font-family="Times,serif" font-size="14.00">var.region</text>
</g>
<!-- [root] provider.aws&#45;&gt;[root] var.region -->
<g id="edge5" class="edge">
<title>[root] provider.aws&#45;&gt;[root] var.region</title>
<path fill="none" stroke="black" d="M278.13,-71.7C278.13,-63.98 278.13,-54.71 278.13,-46.11"/>
<polygon fill="black" stroke="black" points="281.63,-46.1 278.13,-36.1 274.63,-46.1 281.63,-46.1"/>
</g>
<!-- [root] meta.count&#45;boundary (EachMode fixup) -->
<g id="node5" class="node">
<title>[root] meta.count&#45;boundary (EachMode fixup)</title>
<ellipse fill="none" stroke="black" cx="176.13" cy="-306" rx="176.27" ry="18"/>
<text text-anchor="middle" x="176.13" y="-302.3" font-family="Times,serif" font-size="14.00">[root] meta.count&#45;boundary (EachMode fixup)</text>
</g>
<!-- [root] meta.count&#45;boundary (EachMode fixup)&#45;&gt;[root] output.ses_rule_set_name -->
<g id="edge2" class="edge">
<title>[root] meta.count&#45;boundary (EachMode fixup)&#45;&gt;[root] output.ses_rule_set_name</title>
<path fill="none" stroke="black" d="M176.38,-287.7C176.49,-279.98 176.62,-270.71 176.75,-262.11"/>
<polygon fill="black" stroke="black" points="180.25,-262.15 176.89,-252.1 173.25,-262.05 180.25,-262.15"/>
</g>
<!-- [root] provider.aws (close) -->
<g id="node6" class="node">
<title>[root] provider.aws (close)</title>
<ellipse fill="none" stroke="black" cx="379.13" cy="-234" rx="104.78" ry="18"/>
<text text-anchor="middle" x="379.13" y="-230.3" font-family="Times,serif" font-size="14.00">[root] provider.aws (close)</text>
</g>
<!-- [root] provider.aws (close)&#45;&gt;[root] aws_ses_receipt_rule_set.main -->
<g id="edge4" class="edge">
<title>[root] provider.aws (close)&#45;&gt;[root] aws_ses_receipt_rule_set.main</title>
<path fill="none" stroke="black" d="M355.2,-216.41C342.16,-207.37 325.81,-196.04 311.53,-186.14"/>
<polygon fill="black" stroke="black" points="313.17,-183.02 302.95,-180.2 309.18,-188.77 313.17,-183.02"/>
</g>
<!-- [root] root -->
<g id="node7" class="node">
<title>[root] root</title>
<ellipse fill="none" stroke="black" cx="278.13" cy="-378" rx="47.39" ry="18"/>
<text text-anchor="middle" x="278.13" y="-374.3" font-family="Times,serif" font-size="14.00">[root] root</text>
</g>
<!-- [root] root&#45;&gt;[root] meta.count&#45;boundary (EachMode fixup) -->
<g id="edge6" class="edge">
<title>[root] root&#45;&gt;[root] meta.count&#45;boundary (EachMode fixup)</title>
<path fill="none" stroke="black" d="M256.25,-361.98C242.52,-352.56 224.56,-340.23 209.12,-329.64"/>
<polygon fill="black" stroke="black" points="211.07,-326.73 200.85,-323.96 207.11,-332.5 211.07,-326.73"/>
</g>
<!-- [root] root&#45;&gt;[root] provider.aws (close) -->
<g id="edge7" class="edge">
<title>[root] root&#45;&gt;[root] provider.aws (close)</title>
<path fill="none" stroke="black" d="M309.53,-364.44C327.36,-355.71 348.57,-342.33 361.13,-324 373.56,-305.87 377.79,-281.1 379.07,-262.29"/>
<polygon fill="black" stroke="black" points="382.57,-262.41 379.51,-252.26 375.57,-262.1 382.57,-262.41"/>
</g>
</g>
</svg>
