<?xml version="1.0" encoding="UTF-8" standalone="no"?>
<!DOCTYPE svg PUBLIC "-//W3C//DTD SVG 1.1//EN"
 "http://www.w3.org/Graphics/SVG/1.1/DTD/svg11.dtd">
<!-- Generated by graphviz version 2.44.0 (20200408.0750)
 -->
<!-- Pages: 1 -->
<svg width="646pt" height="548pt"
 viewBox="0.00 0.00 645.64 548.00" xmlns="http://www.w3.org/2000/svg" xmlns:xlink="http://www.w3.org/1999/xlink">
<g id="graph0" class="graph" transform="scale(1 1) rotate(0) translate(4 544)">
<polygon fill="white" stroke="transparent" points="-4,4 -4,-544 641.64,-544 641.64,4 -4,4"/>
<!-- [root] aws_s3_bucket.aws_logs -->
<g id="node1" class="node">
<title>[root] aws_s3_bucket.aws_logs</title>
<polygon fill="none" stroke="black" points="553.5,-324 400.5,-324 400.5,-288 553.5,-288 553.5,-324"/>
<text text-anchor="middle" x="477" y="-302.3" font-family="Times,serif" font-size="14.00">aws_s3_bucket.aws_logs</text>
</g>
<!-- [root] data.aws_iam_policy_document.main -->
<g id="node5" class="node">
<title>[root] data.aws_iam_policy_document.main</title>
<polygon fill="none" stroke="black" points="589,-252 365,-252 365,-216 589,-216 589,-252"/>
<text text-anchor="middle" x="477" y="-230.3" font-family="Times,serif" font-size="14.00">data.aws_iam_policy_document.main</text>
</g>
<!-- [root] aws_s3_bucket.aws_logs&#45;&gt;[root] data.aws_iam_policy_document.main -->
<g id="edge1" class="edge">
<title>[root] aws_s3_bucket.aws_logs&#45;&gt;[root] data.aws_iam_policy_document.main</title>
<path fill="none" stroke="black" d="M477,-287.7C477,-279.98 477,-270.71 477,-262.11"/>
<polygon fill="black" stroke="black" points="480.5,-262.1 477,-252.1 473.5,-262.1 480.5,-262.1"/>
</g>
<!-- [root] aws_ses_active_receipt_rule_set.main -->
<g id="node2" class="node">
<title>[root] aws_ses_active_receipt_rule_set.main</title>
<polygon fill="none" stroke="black" points="534,-396 310,-396 310,-360 534,-360 534,-396"/>
<text text-anchor="middle" x="422" y="-374.3" font-family="Times,serif" font-size="14.00">aws_ses_active_receipt_rule_set.main</text>
</g>
<!-- [root] aws_ses_receipt_rule_set.main -->
<g id="node3" class="node">
<title>[root] aws_ses_receipt_rule_set.main</title>
<polygon fill="none" stroke="black" points="319.5,-324 134.5,-324 134.5,-288 319.5,-288 319.5,-324"/>
<text text-anchor="middle" x="227" y="-302.3" font-family="Times,serif" font-size="14.00">aws_ses_receipt_rule_set.main</text>
</g>
<!-- [root] aws_ses_active_receipt_rule_set.main&#45;&gt;[root] aws_ses_receipt_rule_set.main -->
<g id="edge2" class="edge">
<title>[root] aws_ses_active_receipt_rule_set.main&#45;&gt;[root] aws_ses_receipt_rule_set.main</title>
<path fill="none" stroke="black" d="M374.3,-359.88C347.05,-350.09 312.7,-337.77 284.03,-327.47"/>
<polygon fill="black" stroke="black" points="285.14,-324.15 274.55,-324.07 282.78,-330.74 285.14,-324.15"/>
</g>
<!-- [root] provider.aws -->
<g id="node9" class="node">
<title>[root] provider.aws</title>
<polygon fill="none" stroke="black" points="289,-108 209.9,-90 289,-72 368.1,-90 289,-108"/>
<text text-anchor="middle" x="289" y="-86.3" font-family="Times,serif" font-size="14.00">provider.aws</text>
</g>
<!-- [root] aws_ses_receipt_rule_set.main&#45;&gt;[root] provider.aws -->
<g id="edge3" class="edge">
<title>[root] aws_ses_receipt_rule_set.main&#45;&gt;[root] provider.aws</title>
<path fill="none" stroke="black" d="M225.97,-287.76C224.81,-257.41 225.31,-193.01 246,-144 250.92,-132.35 259.21,-121.2 267.21,-112.16"/>
<polygon fill="black" stroke="black" points="269.81,-114.5 274.07,-104.8 264.69,-109.73 269.81,-114.5"/>
</g>
<!-- [root] data.aws_caller_identity.current -->
<g id="node4" class="node">
<title>[root] data.aws_caller_identity.current</title>
<polygon fill="none" stroke="black" points="445,-180 255,-180 255,-144 445,-144 445,-180"/>
<text text-anchor="middle" x="350" y="-158.3" font-family="Times,serif" font-size="14.00">data.aws_caller_identity.current</text>
</g>
<!-- [root] data.aws_caller_identity.current&#45;&gt;[root] provider.aws -->
<g id="edge4" class="edge">
<title>[root] data.aws_caller_identity.current&#45;&gt;[root] provider.aws</title>
<path fill="none" stroke="black" d="M334.92,-143.7C326.79,-134.37 316.68,-122.76 308.02,-112.82"/>
<polygon fill="black" stroke="black" points="310.65,-110.52 301.44,-105.28 305.37,-115.12 310.65,-110.52"/>
</g>
<!-- [root] data.aws_iam_policy_document.main&#45;&gt;[root] data.aws_caller_identity.current -->
<g id="edge5" class="edge">
<title>[root] data.aws_iam_policy_document.main&#45;&gt;[root] data.aws_caller_identity.current</title>
<path fill="none" stroke="black" d="M445.93,-215.88C429.17,-206.64 408.29,-195.13 390.3,-185.21"/>
<polygon fill="black" stroke="black" points="391.63,-181.95 381.19,-180.19 388.26,-188.08 391.63,-181.95"/>
</g>
<!-- [root] local.pre_log_bucket_arn -->
<g id="node6" class="node">
<title>[root] local.pre_log_bucket_arn</title>
<polygon fill="none" stroke="black" points="612.5,-180 463.5,-180 463.5,-144 618.5,-144 618.5,-174 612.5,-180"/>
<polyline fill="none" stroke="black" points="612.5,-180 612.5,-174 "/>
<polyline fill="none" stroke="black" points="618.5,-174 612.5,-174 "/>
<text text-anchor="middle" x="541" y="-158.3" font-family="Times,serif" font-size="14.00">local.pre_log_bucket_arn</text>
</g>
<!-- [root] data.aws_iam_policy_document.main&#45;&gt;[root] local.pre_log_bucket_arn -->
<g id="edge6" class="edge">
<title>[root] data.aws_iam_policy_document.main&#45;&gt;[root] local.pre_log_bucket_arn</title>
<path fill="none" stroke="black" d="M492.82,-215.7C500.57,-207.22 510.04,-196.86 518.52,-187.58"/>
<polygon fill="black" stroke="black" points="521.2,-189.85 525.36,-180.1 516.03,-185.12 521.2,-189.85"/>
</g>
<!-- [root] var.log_bucket_name -->
<g id="node10" class="node">
<title>[root] var.log_bucket_name</title>
<polygon fill="none" stroke="black" points="602,-108 474,-108 474,-72 608,-72 608,-102 602,-108"/>
<polyline fill="none" stroke="black" points="602,-108 602,-102 "/>
<polyline fill="none" stroke="black" points="608,-102 602,-102 "/>
<text text-anchor="middle" x="541" y="-86.3" font-family="Times,serif" font-size="14.00">var.log_bucket_name</text>
</g>
<!-- [root] local.pre_log_bucket_arn&#45;&gt;[root] var.log_bucket_name -->
<g id="edge7" class="edge">
<title>[root] local.pre_log_bucket_arn&#45;&gt;[root] var.log_bucket_name</title>
<path fill="none" stroke="black" d="M541,-143.7C541,-135.98 541,-126.71 541,-118.11"/>
<polygon fill="black" stroke="black" points="544.5,-118.1 541,-108.1 537.5,-118.1 544.5,-118.1"/>
</g>
<!-- [root] output.log_bucket -->
<g id="node7" class="node">
<title>[root] output.log_bucket</title>
<polygon fill="none" stroke="black" points="285.5,-396 176.5,-396 176.5,-360 291.5,-360 291.5,-390 285.5,-396"/>
<polyline fill="none" stroke="black" points="285.5,-396 285.5,-390 "/>
<polyline fill="none" stroke="black" points="291.5,-390 285.5,-390 "/>
<text text-anchor="middle" x="234" y="-374.3" font-family="Times,serif" font-size="14.00">output.log_bucket</text>
</g>
<!-- [root] output.log_bucket&#45;&gt;[root] aws_s3_bucket.aws_logs -->
<g id="edge11" class="edge">
<title>[root] output.log_bucket&#45;&gt;[root] aws_s3_bucket.aws_logs</title>
<path fill="none" stroke="black" d="M291.59,-360.41C326.5,-350.35 371.26,-337.46 408.05,-326.86"/>
<polygon fill="black" stroke="black" points="409.07,-330.21 417.71,-324.08 407.14,-323.48 409.07,-330.21"/>
</g>
<!-- [root] output.ses_rule_set_name -->
<g id="node8" class="node">
<title>[root] output.ses_rule_set_name</title>
<polygon fill="none" stroke="black" points="152,-396 0,-396 0,-360 158,-360 158,-390 152,-396"/>
<polyline fill="none" stroke="black" points="152,-396 152,-390 "/>
<polyline fill="none" stroke="black" points="158,-390 152,-390 "/>
<text text-anchor="middle" x="79" y="-374.3" font-family="Times,serif" font-size="14.00">output.ses_rule_set_name</text>
</g>
<!-- [root] output.ses_rule_set_name&#45;&gt;[root] aws_ses_receipt_rule_set.main -->
<g id="edge12" class="edge">
<title>[root] output.ses_rule_set_name&#45;&gt;[root] aws_ses_receipt_rule_set.main</title>
<path fill="none" stroke="black" d="M115.2,-359.88C135.26,-350.39 160.37,-338.51 181.71,-328.42"/>
<polygon fill="black" stroke="black" points="183.37,-331.51 190.91,-324.07 180.38,-325.18 183.37,-331.51"/>
</g>
<!-- [root] var.region -->
<g id="node11" class="node">
<title>[root] var.region</title>
<polygon fill="none" stroke="black" points="318.5,-36 253.5,-36 253.5,0 324.5,0 324.5,-30 318.5,-36"/>
<polyline fill="none" stroke="black" points="318.5,-36 318.5,-30 "/>
<polyline fill="none" stroke="black" points="324.5,-30 318.5,-30 "/>
<text text-anchor="middle" x="289" y="-14.3" font-family="Times,serif" font-size="14.00">var.region</text>
</g>
<!-- [root] provider.aws&#45;&gt;[root] var.region -->
<g id="edge15" class="edge">
<title>[root] provider.aws&#45;&gt;[root] var.region</title>
<path fill="none" stroke="black" d="M289,-71.7C289,-63.98 289,-54.71 289,-46.11"/>
<polygon fill="black" stroke="black" points="292.5,-46.1 289,-36.1 285.5,-46.1 292.5,-46.1"/>
</g>
<!-- [root] meta.count&#45;boundary (EachMode fixup) -->
<g id="node12" class="node">
<title>[root] meta.count&#45;boundary (EachMode fixup)</title>
<ellipse fill="none" stroke="black" cx="234" cy="-450" rx="176.27" ry="18"/>
<text text-anchor="middle" x="234" y="-446.3" font-family="Times,serif" font-size="14.00">[root] meta.count&#45;boundary (EachMode fixup)</text>
</g>
<!-- [root] meta.count&#45;boundary (EachMode fixup)&#45;&gt;[root] aws_ses_active_receipt_rule_set.main -->
<g id="edge8" class="edge">
<title>[root] meta.count&#45;boundary (EachMode fixup)&#45;&gt;[root] aws_ses_active_receipt_rule_set.main</title>
<path fill="none" stroke="black" d="M278.55,-432.41C304.88,-422.61 338.43,-410.12 366.47,-399.68"/>
<polygon fill="black" stroke="black" points="367.98,-402.85 376.13,-396.08 365.54,-396.29 367.98,-402.85"/>
</g>
<!-- [root] meta.count&#45;boundary (EachMode fixup)&#45;&gt;[root] output.log_bucket -->
<g id="edge9" class="edge">
<title>[root] meta.count&#45;boundary (EachMode fixup)&#45;&gt;[root] output.log_bucket</title>
<path fill="none" stroke="black" d="M234,-431.7C234,-423.98 234,-414.71 234,-406.11"/>
<polygon fill="black" stroke="black" points="237.5,-406.1 234,-396.1 230.5,-406.1 237.5,-406.1"/>
</g>
<!-- [root] meta.count&#45;boundary (EachMode fixup)&#45;&gt;[root] output.ses_rule_set_name -->
<g id="edge10" class="edge">
<title>[root] meta.count&#45;boundary (EachMode fixup)&#45;&gt;[root] output.ses_rule_set_name</title>
<path fill="none" stroke="black" d="M196.87,-432.23C175.62,-422.63 148.75,-410.5 126.03,-400.24"/>
<polygon fill="black" stroke="black" points="127.45,-397.04 116.9,-396.12 124.57,-403.42 127.45,-397.04"/>
</g>
<!-- [root] provider.aws (close) -->
<g id="node13" class="node">
<title>[root] provider.aws (close)</title>
<ellipse fill="none" stroke="black" cx="533" cy="-450" rx="104.78" ry="18"/>
<text text-anchor="middle" x="533" y="-446.3" font-family="Times,serif" font-size="14.00">[root] provider.aws (close)</text>
</g>
<!-- [root] provider.aws (close)&#45;&gt;[root] aws_s3_bucket.aws_logs -->
<g id="edge13" class="edge">
<title>[root] provider.aws (close)&#45;&gt;[root] aws_s3_bucket.aws_logs</title>
<path fill="none" stroke="black" d="M540.1,-432.03C546.73,-413.42 554.09,-383.13 543,-360 537.33,-348.18 527.61,-338.17 517.34,-330.14"/>
<polygon fill="black" stroke="black" points="519.2,-327.16 509.05,-324.12 515.09,-332.83 519.2,-327.16"/>
</g>
<!-- [root] provider.aws (close)&#45;&gt;[root] aws_ses_active_receipt_rule_set.main -->
<g id="edge14" class="edge">
<title>[root] provider.aws (close)&#45;&gt;[root] aws_ses_active_receipt_rule_set.main</title>
<path fill="none" stroke="black" d="M506.69,-432.41C492.09,-423.2 473.71,-411.61 457.81,-401.59"/>
<polygon fill="black" stroke="black" points="459.6,-398.57 449.28,-396.2 455.87,-404.5 459.6,-398.57"/>
</g>
<!-- [root] root -->
<g id="node14" class="node">
<title>[root] root</title>
<ellipse fill="none" stroke="black" cx="383" cy="-522" rx="47.39" ry="18"/>
<text text-anchor="middle" x="383" y="-518.3" font-family="Times,serif" font-size="14.00">[root] root</text>
</g>
<!-- [root] root&#45;&gt;[root] meta.count&#45;boundary (EachMode fixup) -->
<g id="edge16" class="edge">
<title>[root] root&#45;&gt;[root] meta.count&#45;boundary (EachMode fixup)</title>
<path fill="none" stroke="black" d="M354.27,-507.5C332.83,-497.43 303.12,-483.47 278.59,-471.95"/>
<polygon fill="black" stroke="black" points="280.02,-468.75 269.48,-467.67 277.04,-475.09 280.02,-468.75"/>
</g>
<!-- [root] root&#45;&gt;[root] provider.aws (close) -->
<g id="edge17" class="edge">
<title>[root] root&#45;&gt;[root] provider.aws (close)</title>
<path fill="none" stroke="black" d="M411.92,-507.5C433.89,-497.25 464.47,-482.98 489.4,-471.35"/>
<polygon fill="black" stroke="black" points="491.06,-474.43 498.65,-467.03 488.1,-468.09 491.06,-474.43"/>
</g>
</g>
</svg>
