<?xml version="1.0" encoding="UTF-8" standalone="no"?>
<!DOCTYPE svg PUBLIC "-//W3C//DTD SVG 1.1//EN"
 "http://www.w3.org/Graphics/SVG/1.1/DTD/svg11.dtd">
<!-- Generated by graphviz version 2.44.0 (20200408.0750)
 -->
<!-- Pages: 1 -->
<svg width="588pt" height="404pt"
 viewBox="0.00 0.00 587.78 404.00" xmlns="http://www.w3.org/2000/svg" xmlns:xlink="http://www.w3.org/1999/xlink">
<g id="graph0" class="graph" transform="scale(1 1) rotate(0) translate(4 400)">
<polygon fill="white" stroke="transparent" points="-4,4 -4,-400 583.78,-400 583.78,4 -4,4"/>
<!-- [root] aws_ses_active_receipt_rule_set.main -->
<g id="node1" class="node">
<title>[root] aws_ses_active_receipt_rule_set.main</title>
<polygon fill="none" stroke="black" points="306.64,-252 82.64,-252 82.64,-216 306.64,-216 306.64,-252"/>
<text text-anchor="middle" x="194.64" y="-230.3" font-family="Times,serif" font-size="14.00">aws_ses_active_receipt_rule_set.main</text>
</g>
<!-- [root] aws_ses_receipt_rule_set.main -->
<g id="node2" class="node">
<title>[root] aws_ses_receipt_rule_set.main</title>
<polygon fill="none" stroke="black" points="391.14,-180 206.14,-180 206.14,-144 391.14,-144 391.14,-180"/>
<text text-anchor="middle" x="298.64" y="-158.3" font-family="Times,serif" font-size="14.00">aws_ses_receipt_rule_set.main</text>
</g>
<!-- [root] aws_ses_active_receipt_rule_set.main&#45;&gt;[root] aws_ses_receipt_rule_set.main -->
<g id="edge1" class="edge">
<title>[root] aws_ses_active_receipt_rule_set.main&#45;&gt;[root] aws_ses_receipt_rule_set.main</title>
<path fill="none" stroke="black" d="M220.08,-215.88C233.43,-206.89 249.96,-195.76 264.42,-186.03"/>
<polygon fill="black" stroke="black" points="266.76,-188.68 273.1,-180.19 262.85,-182.87 266.76,-188.68"/>
</g>
<!-- [root] provider.aws -->
<g id="node4" class="node">
<title>[root] provider.aws</title>
<polygon fill="none" stroke="black" points="298.64,-108 219.55,-90 298.64,-72 377.74,-90 298.64,-108"/>
<text text-anchor="middle" x="298.64" y="-86.3" font-family="Times,serif" font-size="14.00">provider.aws</text>
</g>
<!-- [root] aws_ses_receipt_rule_set.main&#45;&gt;[root] provider.aws -->
<g id="edge2" class="edge">
<title>[root] aws_ses_receipt_rule_set.main&#45;&gt;[root] provider.aws</title>
<path fill="none" stroke="black" d="M298.64,-143.7C298.64,-135.98 298.64,-126.71 298.64,-118.11"/>
<polygon fill="black" stroke="black" points="302.14,-118.1 298.64,-108.1 295.14,-118.1 302.14,-118.1"/>
</g>
<!-- [root] output.ses_rule_set_name -->
<g id="node3" class="node">
<title>[root] output.ses_rule_set_name</title>
<polygon fill="none" stroke="black" points="476.64,-252 324.64,-252 324.64,-216 482.64,-216 482.64,-246 476.64,-252"/>
<polyline fill="none" stroke="black" points="476.64,-252 476.64,-246 "/>
<polyline fill="none" stroke="black" points="482.64,-246 476.64,-246 "/>
<text text-anchor="middle" x="403.64" y="-230.3" font-family="Times,serif" font-size="14.00">output.ses_rule_set_name</text>
</g>
<!-- [root] output.ses_rule_set_name&#45;&gt;[root] aws_ses_receipt_rule_set.main -->
<g id="edge5" class="edge">
<title>[root] output.ses_rule_set_name&#45;&gt;[root] aws_ses_receipt_rule_set.main</title>
<path fill="none" stroke="black" d="M377.95,-215.88C364.35,-206.81 347.47,-195.55 332.78,-185.76"/>
<polygon fill="black" stroke="black" points="334.69,-182.82 324.43,-180.19 330.8,-188.65 334.69,-182.82"/>
</g>
<!-- [root] var.region -->
<g id="node5" class="node">
<title>[root] var.region</title>
<polygon fill="none" stroke="black" points="328.14,-36 263.14,-36 263.14,0 334.14,0 334.14,-30 328.14,-36"/>
<polyline fill="none" stroke="black" points="328.14,-36 328.14,-30 "/>
<polyline fill="none" stroke="black" points="334.14,-30 328.14,-30 "/>
<text text-anchor="middle" x="298.64" y="-14.3" font-family="Times,serif" font-size="14.00">var.region</text>
</g>
<!-- [root] provider.aws&#45;&gt;[root] var.region -->
<g id="edge7" class="edge">
<title>[root] provider.aws&#45;&gt;[root] var.region</title>
<path fill="none" stroke="black" d="M298.64,-71.7C298.64,-63.98 298.64,-54.71 298.64,-46.11"/>
<polygon fill="black" stroke="black" points="302.14,-46.1 298.64,-36.1 295.14,-46.1 302.14,-46.1"/>
</g>
<!-- [root] meta.count&#45;boundary (EachMode fixup) -->
<g id="node6" class="node">
<title>[root] meta.count&#45;boundary (EachMode fixup)</title>
<ellipse fill="none" stroke="black" cx="403.64" cy="-306" rx="176.27" ry="18"/>
<text text-anchor="middle" x="403.64" y="-302.3" font-family="Times,serif" font-size="14.00">[root] meta.count&#45;boundary (EachMode fixup)</text>
</g>
<!-- [root] meta.count&#45;boundary (EachMode fixup)&#45;&gt;[root] aws_ses_active_receipt_rule_set.main -->
<g id="edge3" class="edge">
<title>[root] meta.count&#45;boundary (EachMode fixup)&#45;&gt;[root] aws_ses_active_receipt_rule_set.main</title>
<path fill="none" stroke="black" d="M354.9,-288.68C325.17,-278.72 286.92,-265.91 255.24,-255.3"/>
<polygon fill="black" stroke="black" points="256.24,-251.94 245.64,-252.08 254.01,-258.58 256.24,-251.94"/>
</g>
<!-- [root] meta.count&#45;boundary (EachMode fixup)&#45;&gt;[root] output.ses_rule_set_name -->
<g id="edge4" class="edge">
<title>[root] meta.count&#45;boundary (EachMode fixup)&#45;&gt;[root] output.ses_rule_set_name</title>
<path fill="none" stroke="black" d="M403.64,-287.7C403.64,-279.98 403.64,-270.71 403.64,-262.11"/>
<polygon fill="black" stroke="black" points="407.14,-262.1 403.64,-252.1 400.14,-262.1 407.14,-262.1"/>
</g>
<!-- [root] provider.aws (close) -->
<g id="node7" class="node">
<title>[root] provider.aws (close)</title>
<ellipse fill="none" stroke="black" cx="104.64" cy="-306" rx="104.78" ry="18"/>
<text text-anchor="middle" x="104.64" y="-302.3" font-family="Times,serif" font-size="14.00">[root] provider.aws (close)</text>
</g>
<!-- [root] provider.aws (close)&#45;&gt;[root] aws_ses_active_receipt_rule_set.main -->
<g id="edge6" class="edge">
<title>[root] provider.aws (close)&#45;&gt;[root] aws_ses_active_receipt_rule_set.main</title>
<path fill="none" stroke="black" d="M126.43,-288.05C137.95,-279.09 152.27,-267.96 164.81,-258.2"/>
<polygon fill="black" stroke="black" points="167,-260.93 172.74,-252.03 162.7,-255.41 167,-260.93"/>
</g>
<!-- [root] root -->
<g id="node8" class="node">
<title>[root] root</title>
<ellipse fill="none" stroke="black" cx="253.64" cy="-378" rx="47.39" ry="18"/>
<text text-anchor="middle" x="253.64" y="-374.3" font-family="Times,serif" font-size="14.00">[root] root</text>
</g>
<!-- [root] root&#45;&gt;[root] meta.count&#45;boundary (EachMode fixup) -->
<g id="edge8" class="edge">
<title>[root] root&#45;&gt;[root] meta.count&#45;boundary (EachMode fixup)</title>
<path fill="none" stroke="black" d="M282.56,-363.5C304.15,-353.43 334.06,-339.47 358.75,-327.95"/>
<polygon fill="black" stroke="black" points="360.34,-331.07 367.93,-323.67 357.38,-324.72 360.34,-331.07"/>
</g>
<!-- [root] root&#45;&gt;[root] provider.aws (close) -->
<g id="edge9" class="edge">
<title>[root] root&#45;&gt;[root] provider.aws (close)</title>
<path fill="none" stroke="black" d="M224.91,-363.5C203.09,-353.25 172.72,-338.98 147.95,-327.35"/>
<polygon fill="black" stroke="black" points="149.31,-324.12 138.77,-323.03 146.33,-330.45 149.31,-324.12"/>
</g>
</g>
</svg>
