<?xml version="1.0" encoding="UTF-8" standalone="no"?>
<!DOCTYPE svg PUBLIC "-//W3C//DTD SVG 1.1//EN"
 "http://www.w3.org/Graphics/SVG/1.1/DTD/svg11.dtd">
<!-- Generated by graphviz version 12.0.0 (20240704.0754)
 -->
<!-- Pages: 1 -->
<svg width="1178pt" height="548pt"
 viewBox="0.00 0.00 1178.06 548.00" xmlns="http://www.w3.org/2000/svg" xmlns:xlink="http://www.w3.org/1999/xlink">
<g id="graph0" class="graph" transform="scale(1 1) rotate(0) translate(4 544)">
<polygon fill="white" stroke="none" points="-4,4 -4,-544 1174.06,-544 1174.06,4 -4,4"/>
<!-- [root] aws_acm_certificate.certificate (expand) -->
<g id="node1" class="node">
<title>[root] aws_acm_certificate.certificate (expand)</title>
<polygon fill="none" stroke="black" points="616.18,-108 430.68,-108 430.68,-72 616.18,-72 616.18,-108"/>
<text text-anchor="middle" x="523.43" y="-84.95" font-family="Times,serif" font-size="14.00">aws_acm_certificate.certificate</text>
</g>
<!-- [root] provider[&quot;registry.terraform.io/hashicorp/aws&quot;] -->
<g id="node13" class="node">
<title>[root] provider[&quot;registry.terraform.io/hashicorp/aws&quot;]</title>
<polygon fill="none" stroke="black" points="264.43,-36 0,-18 264.43,0 528.86,-18 264.43,-36"/>
<text text-anchor="middle" x="264.43" y="-12.95" font-family="Times,serif" font-size="14.00">provider[&quot;registry.terraform.io/hashicorp/aws&quot;]</text>
</g>
<!-- [root] aws_acm_certificate.certificate (expand)&#45;&gt;[root] provider[&quot;registry.terraform.io/hashicorp/aws&quot;] -->
<g id="edge1" class="edge">
<title>[root] aws_acm_certificate.certificate (expand)&#45;&gt;[root] provider[&quot;registry.terraform.io/hashicorp/aws&quot;]</title>
<path fill="none" stroke="black" d="M458.74,-71.52C418.48,-60.63 366.95,-46.71 327.07,-35.93"/>
<polygon fill="black" stroke="black" points="328.18,-32.6 317.62,-33.37 326.36,-39.36 328.18,-32.6"/>
</g>
<!-- [root] var.root_domain_name -->
<g id="node14" class="node">
<title>[root] var.root_domain_name</title>
<polygon fill="none" stroke="black" points="683.81,-36 547.06,-36 547.06,0 689.81,0 689.81,-30 683.81,-36"/>
<polyline fill="none" stroke="black" points="683.81,-36 683.81,-30"/>
<polyline fill="none" stroke="black" points="689.81,-30 683.81,-30"/>
<text text-anchor="middle" x="618.43" y="-12.95" font-family="Times,serif" font-size="14.00">var.root_domain_name</text>
</g>
<!-- [root] aws_acm_certificate.certificate (expand)&#45;&gt;[root] var.root_domain_name -->
<g id="edge2" class="edge">
<title>[root] aws_acm_certificate.certificate (expand)&#45;&gt;[root] var.root_domain_name</title>
<path fill="none" stroke="black" d="M546.91,-71.7C558.67,-63.03 573.1,-52.4 585.91,-42.96"/>
<polygon fill="black" stroke="black" points="587.7,-45.99 593.67,-37.24 583.54,-40.36 587.7,-45.99"/>
</g>
<!-- [root] aws_acm_certificate_validation.certificate (expand) -->
<g id="node2" class="node">
<title>[root] aws_acm_certificate_validation.certificate (expand)</title>
<polygon fill="none" stroke="black" points="294.56,-252 48.31,-252 48.31,-216 294.56,-216 294.56,-252"/>
<text text-anchor="middle" x="171.43" y="-228.95" font-family="Times,serif" font-size="14.00">aws_acm_certificate_validation.certificate</text>
</g>
<!-- [root] aws_route53_record.cert_validation (expand) -->
<g id="node4" class="node">
<title>[root] aws_route53_record.cert_validation (expand)</title>
<polygon fill="none" stroke="black" points="444.93,-180 233.93,-180 233.93,-144 444.93,-144 444.93,-180"/>
<text text-anchor="middle" x="339.43" y="-156.95" font-family="Times,serif" font-size="14.00">aws_route53_record.cert_validation</text>
</g>
<!-- [root] aws_acm_certificate_validation.certificate (expand)&#45;&gt;[root] aws_route53_record.cert_validation (expand) -->
<g id="edge3" class="edge">
<title>[root] aws_acm_certificate_validation.certificate (expand)&#45;&gt;[root] aws_route53_record.cert_validation (expand)</title>
<path fill="none" stroke="black" d="M213.39,-215.52C235.72,-206.21 263.4,-194.68 287.13,-184.79"/>
<polygon fill="black" stroke="black" points="288.43,-188.04 296.32,-180.96 285.74,-181.58 288.43,-188.04"/>
</g>
<!-- [root] aws_cloudfront_distribution.root_distribution (expand) -->
<g id="node3" class="node">
<title>[root] aws_cloudfront_distribution.root_distribution (expand)</title>
<polygon fill="none" stroke="black" points="471.18,-324 207.68,-324 207.68,-288 471.18,-288 471.18,-324"/>
<text text-anchor="middle" x="339.43" y="-300.95" font-family="Times,serif" font-size="14.00">aws_cloudfront_distribution.root_distribution</text>
</g>
<!-- [root] aws_cloudfront_distribution.root_distribution (expand)&#45;&gt;[root] aws_acm_certificate_validation.certificate (expand) -->
<g id="edge4" class="edge">
<title>[root] aws_cloudfront_distribution.root_distribution (expand)&#45;&gt;[root] aws_acm_certificate_validation.certificate (expand)</title>
<path fill="none" stroke="black" d="M297.47,-287.52C275.14,-278.21 247.46,-266.68 223.74,-256.79"/>
<polygon fill="black" stroke="black" points="225.12,-253.58 214.54,-252.96 222.43,-260.04 225.12,-253.58"/>
</g>
<!-- [root] aws_s3_bucket_website_configuration.https_redirect (expand) -->
<g id="node12" class="node">
<title>[root] aws_s3_bucket_website_configuration.https_redirect (expand)</title>
<polygon fill="none" stroke="black" points="616.43,-252 312.43,-252 312.43,-216 616.43,-216 616.43,-252"/>
<text text-anchor="middle" x="464.43" y="-228.95" font-family="Times,serif" font-size="14.00">aws_s3_bucket_website_configuration.https_redirect</text>
</g>
<!-- [root] aws_cloudfront_distribution.root_distribution (expand)&#45;&gt;[root] aws_s3_bucket_website_configuration.https_redirect (expand) -->
<g id="edge5" class="edge">
<title>[root] aws_cloudfront_distribution.root_distribution (expand)&#45;&gt;[root] aws_s3_bucket_website_configuration.https_redirect (expand)</title>
<path fill="none" stroke="black" d="M370.65,-287.52C386.73,-278.51 406.53,-267.42 423.79,-257.76"/>
<polygon fill="black" stroke="black" points="425.27,-260.94 432.29,-253 421.85,-254.83 425.27,-260.94"/>
</g>
<!-- [root] aws_route53_record.cert_validation (expand)&#45;&gt;[root] aws_acm_certificate.certificate (expand) -->
<g id="edge6" class="edge">
<title>[root] aws_route53_record.cert_validation (expand)&#45;&gt;[root] aws_acm_certificate.certificate (expand)</title>
<path fill="none" stroke="black" d="M385.39,-143.52C410.18,-134.08 440.98,-122.37 467.2,-112.39"/>
<polygon fill="black" stroke="black" points="468.22,-115.75 476.33,-108.92 465.74,-109.2 468.22,-115.75"/>
</g>
<!-- [root] aws_route53_zone.zone (expand) -->
<g id="node6" class="node">
<title>[root] aws_route53_zone.zone (expand)</title>
<polygon fill="none" stroke="black" points="412.68,-108 266.18,-108 266.18,-72 412.68,-72 412.68,-108"/>
<text text-anchor="middle" x="339.43" y="-84.95" font-family="Times,serif" font-size="14.00">aws_route53_zone.zone</text>
</g>
<!-- [root] aws_route53_record.cert_validation (expand)&#45;&gt;[root] aws_route53_zone.zone (expand) -->
<g id="edge7" class="edge">
<title>[root] aws_route53_record.cert_validation (expand)&#45;&gt;[root] aws_route53_zone.zone (expand)</title>
<path fill="none" stroke="black" d="M339.43,-143.7C339.43,-136.41 339.43,-127.73 339.43,-119.54"/>
<polygon fill="black" stroke="black" points="342.93,-119.62 339.43,-109.62 335.93,-119.62 342.93,-119.62"/>
</g>
<!-- [root] aws_route53_record.root (expand) -->
<g id="node5" class="node">
<title>[root] aws_route53_record.root (expand)</title>
<polygon fill="none" stroke="black" points="476.31,-396 324.56,-396 324.56,-360 476.31,-360 476.31,-396"/>
<text text-anchor="middle" x="400.43" y="-372.95" font-family="Times,serif" font-size="14.00">aws_route53_record.root</text>
</g>
<!-- [root] aws_route53_record.root (expand)&#45;&gt;[root] aws_cloudfront_distribution.root_distribution (expand) -->
<g id="edge8" class="edge">
<title>[root] aws_route53_record.root (expand)&#45;&gt;[root] aws_cloudfront_distribution.root_distribution (expand)</title>
<path fill="none" stroke="black" d="M385.35,-359.7C378.26,-351.56 369.66,-341.69 361.83,-332.7"/>
<polygon fill="black" stroke="black" points="364.54,-330.49 355.33,-325.25 359.26,-335.08 364.54,-330.49"/>
</g>
<!-- [root] aws_route53_zone.zone (expand)&#45;&gt;[root] provider[&quot;registry.terraform.io/hashicorp/aws&quot;] -->
<g id="edge9" class="edge">
<title>[root] aws_route53_zone.zone (expand)&#45;&gt;[root] provider[&quot;registry.terraform.io/hashicorp/aws&quot;]</title>
<path fill="none" stroke="black" d="M320.89,-71.7C311.54,-62.97 300.05,-52.24 289.88,-42.75"/>
<polygon fill="black" stroke="black" points="292.53,-40.44 282.83,-36.18 287.76,-45.56 292.53,-40.44"/>
</g>
<!-- [root] aws_route53_zone.zone (expand)&#45;&gt;[root] var.root_domain_name -->
<g id="edge10" class="edge">
<title>[root] aws_route53_zone.zone (expand)&#45;&gt;[root] var.root_domain_name</title>
<path fill="none" stroke="black" d="M409.11,-71.52C448.29,-61.69 497.37,-49.37 538.16,-39.14"/>
<polygon fill="black" stroke="black" points="538.84,-42.58 547.68,-36.75 537.13,-35.79 538.84,-42.58"/>
</g>
<!-- [root] aws_s3_bucket.root (expand) -->
<g id="node7" class="node">
<title>[root] aws_s3_bucket.root (expand)</title>
<polygon fill="none" stroke="black" points="706.43,-180 582.43,-180 582.43,-144 706.43,-144 706.43,-180"/>
<text text-anchor="middle" x="644.43" y="-156.95" font-family="Times,serif" font-size="14.00">aws_s3_bucket.root</text>
</g>
<!-- [root] aws_s3_bucket.root (expand)&#45;&gt;[root] provider[&quot;registry.terraform.io/hashicorp/aws&quot;] -->
<g id="edge11" class="edge">
<title>[root] aws_s3_bucket.root (expand)&#45;&gt;[root] provider[&quot;registry.terraform.io/hashicorp/aws&quot;]</title>
<path fill="none" stroke="black" d="M582.22,-154.62C475.52,-143.39 268,-120.12 257.43,-108 242.95,-91.4 246.7,-65.81 252.91,-46.32"/>
<polygon fill="black" stroke="black" points="256.14,-47.68 256.22,-37.09 249.55,-45.32 256.14,-47.68"/>
</g>
<!-- [root] aws_s3_bucket.root (expand)&#45;&gt;[root] var.root_domain_name -->
<g id="edge12" class="edge">
<title>[root] aws_s3_bucket.root (expand)&#45;&gt;[root] var.root_domain_name</title>
<path fill="none" stroke="black" d="M641.24,-143.59C636.85,-119.61 628.89,-76.14 623.63,-47.42"/>
<polygon fill="black" stroke="black" points="627.08,-46.81 621.84,-37.6 620.19,-48.07 627.08,-46.81"/>
</g>
<!-- [root] aws_s3_bucket_acl.root (expand) -->
<g id="node8" class="node">
<title>[root] aws_s3_bucket_acl.root (expand)</title>
<polygon fill="none" stroke="black" points="891.68,-324 745.18,-324 745.18,-288 891.68,-288 891.68,-324"/>
<text text-anchor="middle" x="818.43" y="-300.95" font-family="Times,serif" font-size="14.00">aws_s3_bucket_acl.root</text>
</g>
<!-- [root] aws_s3_bucket_ownership_controls.root (expand) -->
<g id="node9" class="node">
<title>[root] aws_s3_bucket_ownership_controls.root (expand)</title>
<polygon fill="none" stroke="black" points="1170.06,-252 932.81,-252 932.81,-216 1170.06,-216 1170.06,-252"/>
<text text-anchor="middle" x="1051.43" y="-228.95" font-family="Times,serif" font-size="14.00">aws_s3_bucket_ownership_controls.root</text>
</g>
<!-- [root] aws_s3_bucket_acl.root (expand)&#45;&gt;[root] aws_s3_bucket_ownership_controls.root (expand) -->
<g id="edge13" class="edge">
<title>[root] aws_s3_bucket_acl.root (expand)&#45;&gt;[root] aws_s3_bucket_ownership_controls.root (expand)</title>
<path fill="none" stroke="black" d="M876.63,-287.52C908.86,-277.83 949.11,-265.74 982.86,-255.6"/>
<polygon fill="black" stroke="black" points="983.55,-259.05 992.12,-252.82 981.54,-252.34 983.55,-259.05"/>
</g>
<!-- [root] aws_s3_bucket_public_access_block.root (expand) -->
<g id="node11" class="node">
<title>[root] aws_s3_bucket_public_access_block.root (expand)</title>
<polygon fill="none" stroke="black" points="914.68,-252 672.18,-252 672.18,-216 914.68,-216 914.68,-252"/>
<text text-anchor="middle" x="793.43" y="-228.95" font-family="Times,serif" font-size="14.00">aws_s3_bucket_public_access_block.root</text>
</g>
<!-- [root] aws_s3_bucket_acl.root (expand)&#45;&gt;[root] aws_s3_bucket_public_access_block.root (expand) -->
<g id="edge14" class="edge">
<title>[root] aws_s3_bucket_acl.root (expand)&#45;&gt;[root] aws_s3_bucket_public_access_block.root (expand)</title>
<path fill="none" stroke="black" d="M812.25,-287.7C809.56,-280.15 806.33,-271.12 803.32,-262.68"/>
<polygon fill="black" stroke="black" points="806.71,-261.77 800.05,-253.53 800.12,-264.12 806.71,-261.77"/>
</g>
<!-- [root] aws_s3_bucket_ownership_controls.root (expand)&#45;&gt;[root] aws_s3_bucket.root (expand) -->
<g id="edge15" class="edge">
<title>[root] aws_s3_bucket_ownership_controls.root (expand)&#45;&gt;[root] aws_s3_bucket.root (expand)</title>
<path fill="none" stroke="black" d="M949.78,-215.52C877.81,-203.14 782.95,-186.82 718.18,-175.68"/>
<polygon fill="black" stroke="black" points="718.79,-172.24 708.34,-173.99 717.6,-179.14 718.79,-172.24"/>
</g>
<!-- [root] aws_s3_bucket_policy.allow_access_from_anyone (expand) -->
<g id="node10" class="node">
<title>[root] aws_s3_bucket_policy.allow_access_from_anyone (expand)</title>
<polygon fill="none" stroke="black" points="790.81,-396 498.06,-396 498.06,-360 790.81,-360 790.81,-396"/>
<text text-anchor="middle" x="644.43" y="-372.95" font-family="Times,serif" font-size="14.00">aws_s3_bucket_policy.allow_access_from_anyone</text>
</g>
<!-- [root] aws_s3_bucket_policy.allow_access_from_anyone (expand)&#45;&gt;[root] aws_s3_bucket.root (expand) -->
<g id="edge16" class="edge">
<title>[root] aws_s3_bucket_policy.allow_access_from_anyone (expand)&#45;&gt;[root] aws_s3_bucket.root (expand)</title>
<path fill="none" stroke="black" d="M644.43,-359.85C644.43,-323.14 644.43,-236.66 644.43,-191.53"/>
<polygon fill="black" stroke="black" points="647.93,-191.75 644.43,-181.75 640.93,-191.75 647.93,-191.75"/>
</g>
<!-- [root] aws_s3_bucket_public_access_block.root (expand)&#45;&gt;[root] aws_s3_bucket.root (expand) -->
<g id="edge17" class="edge">
<title>[root] aws_s3_bucket_public_access_block.root (expand)&#45;&gt;[root] aws_s3_bucket.root (expand)</title>
<path fill="none" stroke="black" d="M756.22,-215.52C736.68,-206.34 712.52,-194.99 691.67,-185.2"/>
<polygon fill="black" stroke="black" points="693.34,-182.11 682.8,-181.03 690.36,-188.45 693.34,-182.11"/>
</g>
<!-- [root] aws_s3_bucket_website_configuration.https_redirect (expand)&#45;&gt;[root] aws_s3_bucket.root (expand) -->
<g id="edge18" class="edge">
<title>[root] aws_s3_bucket_website_configuration.https_redirect (expand)&#45;&gt;[root] aws_s3_bucket.root (expand)</title>
<path fill="none" stroke="black" d="M509.39,-215.52C533.53,-206.13 563.51,-194.47 589.08,-184.53"/>
<polygon fill="black" stroke="black" points="590.27,-187.82 598.32,-180.93 587.74,-181.29 590.27,-187.82"/>
</g>
<!-- [root] output.outputs (expand) -->
<g id="node15" class="node">
<title>[root] output.outputs (expand)</title>
<ellipse fill="none" stroke="black" cx="270.43" cy="-450" rx="123" ry="18"/>
<text text-anchor="middle" x="270.43" y="-444.95" font-family="Times,serif" font-size="14.00">[root] output.outputs (expand)</text>
</g>
<!-- [root] output.outputs (expand)&#45;&gt;[root] aws_cloudfront_distribution.root_distribution (expand) -->
<g id="edge19" class="edge">
<title>[root] output.outputs (expand)&#45;&gt;[root] aws_cloudfront_distribution.root_distribution (expand)</title>
<path fill="none" stroke="black" d="M278.89,-431.59C290.7,-407.29 312.23,-362.97 326.18,-334.27"/>
<polygon fill="black" stroke="black" points="329.23,-336 330.45,-325.47 322.94,-332.94 329.23,-336"/>
</g>
<!-- [root] provider[&quot;registry.terraform.io/hashicorp/aws&quot;] (close) -->
<g id="node16" class="node">
<title>[root] provider[&quot;registry.terraform.io/hashicorp/aws&quot;] (close)</title>
<ellipse fill="none" stroke="black" cx="649.43" cy="-450" rx="238.16" ry="18"/>
<text text-anchor="middle" x="649.43" y="-444.95" font-family="Times,serif" font-size="14.00">[root] provider[&quot;registry.terraform.io/hashicorp/aws&quot;] (close)</text>
</g>
<!-- [root] provider[&quot;registry.terraform.io/hashicorp/aws&quot;] (close)&#45;&gt;[root] aws_route53_record.root (expand) -->
<g id="edge20" class="edge">
<title>[root] provider[&quot;registry.terraform.io/hashicorp/aws&quot;] (close)&#45;&gt;[root] aws_route53_record.root (expand)</title>
<path fill="none" stroke="black" d="M589.47,-432.14C554.5,-422.31 510.14,-409.84 473.18,-399.45"/>
<polygon fill="black" stroke="black" points="474.5,-396.19 463.93,-396.85 472.61,-402.93 474.5,-396.19"/>
</g>
<!-- [root] provider[&quot;registry.terraform.io/hashicorp/aws&quot;] (close)&#45;&gt;[root] aws_s3_bucket_acl.root (expand) -->
<g id="edge21" class="edge">
<title>[root] provider[&quot;registry.terraform.io/hashicorp/aws&quot;] (close)&#45;&gt;[root] aws_s3_bucket_acl.root (expand)</title>
<path fill="none" stroke="black" d="M740.84,-432.98C762.71,-425.13 784.12,-413.43 799.43,-396 813.87,-379.56 818.25,-354.87 819.22,-335.66"/>
<polygon fill="black" stroke="black" points="822.72,-335.83 819.42,-325.76 815.72,-335.69 822.72,-335.83"/>
</g>
<!-- [root] provider[&quot;registry.terraform.io/hashicorp/aws&quot;] (close)&#45;&gt;[root] aws_s3_bucket_policy.allow_access_from_anyone (expand) -->
<g id="edge22" class="edge">
<title>[root] provider[&quot;registry.terraform.io/hashicorp/aws&quot;] (close)&#45;&gt;[root] aws_s3_bucket_policy.allow_access_from_anyone (expand)</title>
<path fill="none" stroke="black" d="M648.19,-431.7C647.67,-424.41 647.05,-415.73 646.47,-407.54"/>
<polygon fill="black" stroke="black" points="649.96,-407.34 645.76,-397.61 642.98,-407.84 649.96,-407.34"/>
</g>
<!-- [root] root -->
<g id="node17" class="node">
<title>[root] root</title>
<ellipse fill="none" stroke="black" cx="459.43" cy="-522" rx="49.3" ry="18"/>
<text text-anchor="middle" x="459.43" y="-516.95" font-family="Times,serif" font-size="14.00">[root] root</text>
</g>
<!-- [root] root&#45;&gt;[root] output.outputs (expand) -->
<g id="edge23" class="edge">
<title>[root] root&#45;&gt;[root] output.outputs (expand)</title>
<path fill="none" stroke="black" d="M425.64,-508.49C397.69,-498.13 357.45,-483.23 324.95,-471.19"/>
<polygon fill="black" stroke="black" points="326.27,-467.95 315.67,-467.76 323.83,-474.51 326.27,-467.95"/>
</g>
<!-- [root] root&#45;&gt;[root] provider[&quot;registry.terraform.io/hashicorp/aws&quot;] (close) -->
<g id="edge24" class="edge">
<title>[root] root&#45;&gt;[root] provider[&quot;registry.terraform.io/hashicorp/aws&quot;] (close)</title>
<path fill="none" stroke="black" d="M493.4,-508.49C520.83,-498.38 560.02,-483.94 592.27,-472.06"/>
<polygon fill="black" stroke="black" points="593.32,-475.4 601.49,-468.66 590.9,-468.84 593.32,-475.4"/>
</g>
</g>
</svg>
