<?xml version="1.0" encoding="UTF-8" standalone="no"?>
<!DOCTYPE svg PUBLIC "-//W3C//DTD SVG 1.1//EN"
 "http://www.w3.org/Graphics/SVG/1.1/DTD/svg11.dtd">
<!-- Generated by graphviz version 10.0.1 (20240210.2158)
 -->
<!-- Pages: 1 -->
<svg width="2244pt" height="476pt"
 viewBox="0.00 0.00 2244.05 476.00" xmlns="http://www.w3.org/2000/svg" xmlns:xlink="http://www.w3.org/1999/xlink">
<g id="graph0" class="graph" transform="scale(1 1) rotate(0) translate(4 472)">
<polygon fill="white" stroke="none" points="-4,4 -4,-472 2240.05,-472 2240.05,4 -4,4"/>
<!-- [root] aws_cloudfront_distribution.blog_distribution (expand) -->
<g id="node1" class="node">
<title>[root] aws_cloudfront_distribution.blog_distribution (expand)</title>
<polygon fill="none" stroke="black" points="1722.75,-252 1457,-252 1457,-216 1722.75,-216 1722.75,-252"/>
<text text-anchor="middle" x="1589.88" y="-228.95" font-family="Times,serif" font-size="14.00">aws_cloudfront_distribution.blog_distribution</text>
</g>
<!-- [root] aws_s3_bucket_website_configuration.blog (expand) -->
<g id="node14" class="node">
<title>[root] aws_s3_bucket_website_configuration.blog (expand)</title>
<polygon fill="none" stroke="black" points="1107.75,-180 854,-180 854,-144 1107.75,-144 1107.75,-180"/>
<text text-anchor="middle" x="980.88" y="-156.95" font-family="Times,serif" font-size="14.00">aws_s3_bucket_website_configuration.blog</text>
</g>
<!-- [root] aws_cloudfront_distribution.blog_distribution (expand)&#45;&gt;[root] aws_s3_bucket_website_configuration.blog (expand) -->
<g id="edge1" class="edge">
<title>[root] aws_cloudfront_distribution.blog_distribution (expand)&#45;&gt;[root] aws_s3_bucket_website_configuration.blog (expand)</title>
<path fill="none" stroke="black" d="M1456.85,-217.03C1453.83,-216.68 1450.84,-216.34 1447.88,-216 1304.44,-199.61 1265.73,-197.29 1119.13,-180.25"/>
<polygon fill="black" stroke="black" points="1119.76,-176.8 1109.42,-179.12 1118.95,-183.75 1119.76,-176.8"/>
</g>
<!-- [root] data.terraform_remote_state.rockygray_com (expand) -->
<g id="node16" class="node">
<title>[root] data.terraform_remote_state.rockygray_com (expand)</title>
<polygon fill="none" stroke="black" points="1939.75,-180 1680,-180 1680,-144 1939.75,-144 1939.75,-180"/>
<text text-anchor="middle" x="1809.88" y="-156.95" font-family="Times,serif" font-size="14.00">data.terraform_remote_state.rockygray_com</text>
</g>
<!-- [root] aws_cloudfront_distribution.blog_distribution (expand)&#45;&gt;[root] data.terraform_remote_state.rockygray_com (expand) -->
<g id="edge2" class="edge">
<title>[root] aws_cloudfront_distribution.blog_distribution (expand)&#45;&gt;[root] data.terraform_remote_state.rockygray_com (expand)</title>
<path fill="none" stroke="black" d="M1644.82,-215.52C1674.99,-205.92 1712.61,-193.95 1744.3,-183.86"/>
<polygon fill="black" stroke="black" points="1745.34,-187.21 1753.8,-180.84 1743.21,-180.54 1745.34,-187.21"/>
</g>
<!-- [root] aws_cloudfront_distribution.preview_blog_distribution (expand) -->
<g id="node2" class="node">
<title>[root] aws_cloudfront_distribution.preview_blog_distribution (expand)</title>
<polygon fill="none" stroke="black" points="2056.88,-252 1740.88,-252 1740.88,-216 2056.88,-216 2056.88,-252"/>
<text text-anchor="middle" x="1898.88" y="-228.95" font-family="Times,serif" font-size="14.00">aws_cloudfront_distribution.preview_blog_distribution</text>
</g>
<!-- [root] aws_s3_bucket_website_configuration.preview_blog (expand) -->
<g id="node15" class="node">
<title>[root] aws_s3_bucket_website_configuration.preview_blog (expand)</title>
<polygon fill="none" stroke="black" points="1429.88,-180 1125.88,-180 1125.88,-144 1429.88,-144 1429.88,-180"/>
<text text-anchor="middle" x="1277.88" y="-156.95" font-family="Times,serif" font-size="14.00">aws_s3_bucket_website_configuration.preview_blog</text>
</g>
<!-- [root] aws_cloudfront_distribution.preview_blog_distribution (expand)&#45;&gt;[root] aws_s3_bucket_website_configuration.preview_blog (expand) -->
<g id="edge3" class="edge">
<title>[root] aws_cloudfront_distribution.preview_blog_distribution (expand)&#45;&gt;[root] aws_s3_bucket_website_configuration.preview_blog (expand)</title>
<path fill="none" stroke="black" d="M1743.77,-215.52C1651.69,-205.14 1535.03,-191.99 1441.49,-181.44"/>
<polygon fill="black" stroke="black" points="1442.03,-177.98 1431.7,-180.34 1441.25,-184.94 1442.03,-177.98"/>
</g>
<!-- [root] aws_cloudfront_distribution.preview_blog_distribution (expand)&#45;&gt;[root] data.terraform_remote_state.rockygray_com (expand) -->
<g id="edge4" class="edge">
<title>[root] aws_cloudfront_distribution.preview_blog_distribution (expand)&#45;&gt;[root] data.terraform_remote_state.rockygray_com (expand)</title>
<path fill="none" stroke="black" d="M1876.87,-215.7C1865.96,-207.11 1852.6,-196.61 1840.69,-187.24"/>
<polygon fill="black" stroke="black" points="1843.14,-184.71 1833.12,-181.28 1838.82,-190.22 1843.14,-184.71"/>
</g>
<!-- [root] aws_route53_record.blog (expand) -->
<g id="node3" class="node">
<title>[root] aws_route53_record.blog (expand)</title>
<polygon fill="none" stroke="black" points="1171.88,-324 1017.88,-324 1017.88,-288 1171.88,-288 1171.88,-324"/>
<text text-anchor="middle" x="1094.88" y="-300.95" font-family="Times,serif" font-size="14.00">aws_route53_record.blog</text>
</g>
<!-- [root] aws_route53_record.blog (expand)&#45;&gt;[root] aws_cloudfront_distribution.blog_distribution (expand) -->
<g id="edge5" class="edge">
<title>[root] aws_route53_record.blog (expand)&#45;&gt;[root] aws_cloudfront_distribution.blog_distribution (expand)</title>
<path fill="none" stroke="black" d="M1172.19,-289.47C1175.12,-288.96 1178.02,-288.47 1180.88,-288 1230.45,-279.9 1348.56,-264.75 1445.18,-252.72"/>
<polygon fill="black" stroke="black" points="1445.55,-256.2 1455.04,-251.5 1444.69,-249.26 1445.55,-256.2"/>
</g>
<!-- [root] aws_route53_record.google_site_verification (expand) -->
<g id="node4" class="node">
<title>[root] aws_route53_record.google_site_verification (expand)</title>
<polygon fill="none" stroke="black" points="1438.5,-252 1177.25,-252 1177.25,-216 1438.5,-216 1438.5,-252"/>
<text text-anchor="middle" x="1307.88" y="-228.95" font-family="Times,serif" font-size="14.00">aws_route53_record.google_site_verification</text>
</g>
<!-- [root] aws_route53_record.google_site_verification (expand)&#45;&gt;[root] data.terraform_remote_state.rockygray_com (expand) -->
<g id="edge6" class="edge">
<title>[root] aws_route53_record.google_site_verification (expand)&#45;&gt;[root] data.terraform_remote_state.rockygray_com (expand)</title>
<path fill="none" stroke="black" d="M1433.26,-215.52C1506.32,-205.33 1598.51,-192.47 1673.4,-182.03"/>
<polygon fill="black" stroke="black" points="1673.87,-185.5 1683.29,-180.65 1672.9,-178.57 1673.87,-185.5"/>
</g>
<!-- [root] provider[&quot;registry.terraform.io/hashicorp/aws&quot;] -->
<g id="node17" class="node">
<title>[root] provider[&quot;registry.terraform.io/hashicorp/aws&quot;]</title>
<polygon fill="none" stroke="black" points="949.88,-36 685.44,-18 949.87,0 1214.31,-18 949.88,-36"/>
<text text-anchor="middle" x="949.88" y="-12.95" font-family="Times,serif" font-size="14.00">provider[&quot;registry.terraform.io/hashicorp/aws&quot;]</text>
</g>
<!-- [root] aws_route53_record.google_site_verification (expand)&#45;&gt;[root] provider[&quot;registry.terraform.io/hashicorp/aws&quot;] -->
<g id="edge7" class="edge">
<title>[root] aws_route53_record.google_site_verification (expand)&#45;&gt;[root] provider[&quot;registry.terraform.io/hashicorp/aws&quot;]</title>
<path fill="none" stroke="black" d="M1392.6,-215.51C1410.78,-207.69 1427.83,-196.38 1438.88,-180 1447.82,-166.73 1448.69,-156.64 1438.88,-144 1392.66,-84.48 1187.83,-48.52 1058.37,-31.32"/>
<polygon fill="black" stroke="black" points="1059.12,-27.89 1048.75,-30.06 1058.21,-34.83 1059.12,-27.89"/>
</g>
<!-- [root] var.google_site_verification_code -->
<g id="node20" class="node">
<title>[root] var.google_site_verification_code</title>
<polygon fill="none" stroke="black" points="829.75,-180 636,-180 636,-144 835.75,-144 835.75,-174 829.75,-180"/>
<polyline fill="none" stroke="black" points="829.75,-180 829.75,-174"/>
<polyline fill="none" stroke="black" points="835.75,-174 829.75,-174"/>
<text text-anchor="middle" x="735.88" y="-156.95" font-family="Times,serif" font-size="14.00">var.google_site_verification_code</text>
</g>
<!-- [root] aws_route53_record.google_site_verification (expand)&#45;&gt;[root] var.google_site_verification_code -->
<g id="edge8" class="edge">
<title>[root] aws_route53_record.google_site_verification (expand)&#45;&gt;[root] var.google_site_verification_code</title>
<path fill="none" stroke="black" d="M1176.92,-216.94C1174.22,-216.62 1171.53,-216.31 1168.88,-216 1028.62,-199.63 990.41,-199.18 847.6,-180.33"/>
<polygon fill="black" stroke="black" points="848.1,-176.87 837.73,-179.02 847.18,-183.81 848.1,-176.87"/>
</g>
<!-- [root] aws_route53_record.preview_blog (expand) -->
<g id="node5" class="node">
<title>[root] aws_route53_record.preview_blog (expand)</title>
<polygon fill="none" stroke="black" points="1394,-324 1189.75,-324 1189.75,-288 1394,-288 1394,-324"/>
<text text-anchor="middle" x="1291.88" y="-300.95" font-family="Times,serif" font-size="14.00">aws_route53_record.preview_blog</text>
</g>
<!-- [root] aws_route53_record.preview_blog (expand)&#45;&gt;[root] aws_cloudfront_distribution.preview_blog_distribution (expand) -->
<g id="edge9" class="edge">
<title>[root] aws_route53_record.preview_blog (expand)&#45;&gt;[root] aws_cloudfront_distribution.preview_blog_distribution (expand)</title>
<path fill="none" stroke="black" d="M1394.36,-289.13C1397.23,-288.74 1400.07,-288.36 1402.88,-288 1464.13,-280.04 1611.12,-264.5 1729.29,-252.29"/>
<polygon fill="black" stroke="black" points="1729.54,-255.78 1739.12,-251.27 1728.82,-248.82 1729.54,-255.78"/>
</g>
<!-- [root] aws_s3_bucket.blog (expand) -->
<g id="node6" class="node">
<title>[root] aws_s3_bucket.blog (expand)</title>
<polygon fill="none" stroke="black" points="442,-108 315.75,-108 315.75,-72 442,-72 442,-108"/>
<text text-anchor="middle" x="378.88" y="-84.95" font-family="Times,serif" font-size="14.00">aws_s3_bucket.blog</text>
</g>
<!-- [root] aws_s3_bucket.blog (expand)&#45;&gt;[root] provider[&quot;registry.terraform.io/hashicorp/aws&quot;] -->
<g id="edge10" class="edge">
<title>[root] aws_s3_bucket.blog (expand)&#45;&gt;[root] provider[&quot;registry.terraform.io/hashicorp/aws&quot;]</title>
<path fill="none" stroke="black" d="M442.49,-76.89C452.63,-75.13 463.03,-73.44 472.88,-72 593.82,-54.36 732.78,-39.54 829.4,-30.09"/>
<polygon fill="black" stroke="black" points="829.55,-33.59 839.17,-29.14 828.87,-26.63 829.55,-33.59"/>
</g>
<!-- [root] var.blog_domain_name -->
<g id="node19" class="node">
<title>[root] var.blog_domain_name</title>
<polygon fill="none" stroke="black" points="446.38,-36 307.38,-36 307.38,0 452.38,0 452.38,-30 446.38,-36"/>
<polyline fill="none" stroke="black" points="446.38,-36 446.38,-30"/>
<polyline fill="none" stroke="black" points="452.38,-30 446.38,-30"/>
<text text-anchor="middle" x="379.88" y="-12.95" font-family="Times,serif" font-size="14.00">var.blog_domain_name</text>
</g>
<!-- [root] aws_s3_bucket.blog (expand)&#45;&gt;[root] var.blog_domain_name -->
<g id="edge11" class="edge">
<title>[root] aws_s3_bucket.blog (expand)&#45;&gt;[root] var.blog_domain_name</title>
<path fill="none" stroke="black" d="M379.12,-71.7C379.23,-64.41 379.35,-55.73 379.47,-47.54"/>
<polygon fill="black" stroke="black" points="382.97,-47.67 379.61,-37.62 375.97,-47.57 382.97,-47.67"/>
</g>
<!-- [root] aws_s3_bucket.preview_blog (expand) -->
<g id="node7" class="node">
<title>[root] aws_s3_bucket.preview_blog (expand)</title>
<polygon fill="none" stroke="black" points="658.12,-108 481.62,-108 481.62,-72 658.12,-72 658.12,-108"/>
<text text-anchor="middle" x="569.88" y="-84.95" font-family="Times,serif" font-size="14.00">aws_s3_bucket.preview_blog</text>
</g>
<!-- [root] aws_s3_bucket.preview_blog (expand)&#45;&gt;[root] provider[&quot;registry.terraform.io/hashicorp/aws&quot;] -->
<g id="edge12" class="edge">
<title>[root] aws_s3_bucket.preview_blog (expand)&#45;&gt;[root] provider[&quot;registry.terraform.io/hashicorp/aws&quot;]</title>
<path fill="none" stroke="black" d="M658.49,-72.68C722.28,-60.92 807.65,-45.2 869.48,-33.81"/>
<polygon fill="black" stroke="black" points="870.05,-37.26 879.25,-32.01 868.78,-30.38 870.05,-37.26"/>
</g>
<!-- [root] aws_s3_bucket.preview_blog (expand)&#45;&gt;[root] var.blog_domain_name -->
<g id="edge13" class="edge">
<title>[root] aws_s3_bucket.preview_blog (expand)&#45;&gt;[root] var.blog_domain_name</title>
<path fill="none" stroke="black" d="M522.42,-71.52C496.71,-62.04 464.73,-50.26 437.58,-40.26"/>
<polygon fill="black" stroke="black" points="439.07,-37.08 428.47,-36.9 436.65,-43.65 439.07,-37.08"/>
</g>
<!-- [root] var.preview_blog_domain_name -->
<g id="node21" class="node">
<title>[root] var.preview_blog_domain_name</title>
<polygon fill="none" stroke="black" points="661.5,-36 472.25,-36 472.25,0 667.5,0 667.5,-30 661.5,-36"/>
<polyline fill="none" stroke="black" points="661.5,-36 661.5,-30"/>
<polyline fill="none" stroke="black" points="667.5,-30 661.5,-30"/>
<text text-anchor="middle" x="569.88" y="-12.95" font-family="Times,serif" font-size="14.00">var.preview_blog_domain_name</text>
</g>
<!-- [root] aws_s3_bucket.preview_blog (expand)&#45;&gt;[root] var.preview_blog_domain_name -->
<g id="edge14" class="edge">
<title>[root] aws_s3_bucket.preview_blog (expand)&#45;&gt;[root] var.preview_blog_domain_name</title>
<path fill="none" stroke="black" d="M569.88,-71.7C569.88,-64.41 569.88,-55.73 569.88,-47.54"/>
<polygon fill="black" stroke="black" points="573.38,-47.62 569.88,-37.62 566.38,-47.62 573.38,-47.62"/>
</g>
<!-- [root] aws_s3_bucket_acl.blog (expand) -->
<g id="node8" class="node">
<title>[root] aws_s3_bucket_acl.blog (expand)</title>
<polygon fill="none" stroke="black" points="452.25,-180 303.5,-180 303.5,-144 452.25,-144 452.25,-180"/>
<text text-anchor="middle" x="377.88" y="-156.95" font-family="Times,serif" font-size="14.00">aws_s3_bucket_acl.blog</text>
</g>
<!-- [root] aws_s3_bucket_acl.blog (expand)&#45;&gt;[root] aws_s3_bucket.blog (expand) -->
<g id="edge15" class="edge">
<title>[root] aws_s3_bucket_acl.blog (expand)&#45;&gt;[root] aws_s3_bucket.blog (expand)</title>
<path fill="none" stroke="black" d="M378.12,-143.7C378.23,-136.41 378.35,-127.73 378.47,-119.54"/>
<polygon fill="black" stroke="black" points="381.97,-119.67 378.61,-109.62 374.97,-119.57 381.97,-119.67"/>
</g>
<!-- [root] aws_s3_bucket_acl.preview_blog (expand) -->
<g id="node9" class="node">
<title>[root] aws_s3_bucket_acl.preview_blog (expand)</title>
<polygon fill="none" stroke="black" points="541.38,-252 342.38,-252 342.38,-216 541.38,-216 541.38,-252"/>
<text text-anchor="middle" x="441.88" y="-228.95" font-family="Times,serif" font-size="14.00">aws_s3_bucket_acl.preview_blog</text>
</g>
<!-- [root] aws_s3_bucket_acl.preview_blog (expand)&#45;&gt;[root] aws_s3_bucket.preview_blog (expand) -->
<g id="edge16" class="edge">
<title>[root] aws_s3_bucket_acl.preview_blog (expand)&#45;&gt;[root] aws_s3_bucket.preview_blog (expand)</title>
<path fill="none" stroke="black" d="M457.57,-215.59C479.95,-190.76 521.19,-145.01 546.98,-116.4"/>
<polygon fill="black" stroke="black" points="549.34,-119.01 553.44,-109.24 544.14,-114.32 549.34,-119.01"/>
</g>
<!-- [root] aws_s3_bucket_policy.blog_access_policy (expand) -->
<g id="node10" class="node">
<title>[root] aws_s3_bucket_policy.blog_access_policy (expand)</title>
<polygon fill="none" stroke="black" points="247.75,-180 0,-180 0,-144 247.75,-144 247.75,-180"/>
<text text-anchor="middle" x="123.88" y="-156.95" font-family="Times,serif" font-size="14.00">aws_s3_bucket_policy.blog_access_policy</text>
</g>
<!-- [root] aws_s3_bucket_policy.blog_access_policy (expand)&#45;&gt;[root] aws_s3_bucket.blog (expand) -->
<g id="edge17" class="edge">
<title>[root] aws_s3_bucket_policy.blog_access_policy (expand)&#45;&gt;[root] aws_s3_bucket.blog (expand)</title>
<path fill="none" stroke="black" d="M187.56,-143.52C223.14,-133.75 267.66,-121.53 304.79,-111.34"/>
<polygon fill="black" stroke="black" points="305.38,-114.8 314.1,-108.78 303.53,-108.05 305.38,-114.8"/>
</g>
<!-- [root] aws_s3_bucket_policy.preview_blog_access_policy (expand) -->
<g id="node11" class="node">
<title>[root] aws_s3_bucket_policy.preview_blog_access_policy (expand)</title>
<polygon fill="none" stroke="black" points="750.88,-324 452.88,-324 452.88,-288 750.88,-288 750.88,-324"/>
<text text-anchor="middle" x="601.88" y="-300.95" font-family="Times,serif" font-size="14.00">aws_s3_bucket_policy.preview_blog_access_policy</text>
</g>
<!-- [root] aws_s3_bucket_policy.preview_blog_access_policy (expand)&#45;&gt;[root] aws_s3_bucket.preview_blog (expand) -->
<g id="edge18" class="edge">
<title>[root] aws_s3_bucket_policy.preview_blog_access_policy (expand)&#45;&gt;[root] aws_s3_bucket.preview_blog (expand)</title>
<path fill="none" stroke="black" d="M597.12,-287.93C594.39,-277.6 591.07,-264.12 588.88,-252 580.57,-206.08 575.05,-152.1 572.19,-119.77"/>
<polygon fill="black" stroke="black" points="575.7,-119.67 571.36,-110 568.72,-120.27 575.7,-119.67"/>
</g>
<!-- [root] aws_s3_bucket_versioning.blog (expand) -->
<g id="node12" class="node">
<title>[root] aws_s3_bucket_versioning.blog (expand)</title>
<polygon fill="none" stroke="black" points="341.88,-324 151.88,-324 151.88,-288 341.88,-288 341.88,-324"/>
<text text-anchor="middle" x="246.88" y="-300.95" font-family="Times,serif" font-size="14.00">aws_s3_bucket_versioning.blog</text>
</g>
<!-- [root] aws_s3_bucket_versioning.blog (expand)&#45;&gt;[root] aws_s3_bucket.blog (expand) -->
<g id="edge19" class="edge">
<title>[root] aws_s3_bucket_versioning.blog (expand)&#45;&gt;[root] aws_s3_bucket.blog (expand)</title>
<path fill="none" stroke="black" d="M248.08,-287.72C251.06,-256.16 261.21,-188.39 294.88,-144 304.01,-131.96 316.74,-121.95 329.52,-113.99"/>
<polygon fill="black" stroke="black" points="331.08,-117.13 337.95,-109.07 327.55,-111.09 331.08,-117.13"/>
</g>
<!-- [root] aws_s3_bucket_versioning.preview_blog (expand) -->
<g id="node13" class="node">
<title>[root] aws_s3_bucket_versioning.preview_blog (expand)</title>
<polygon fill="none" stroke="black" points="838,-252 597.75,-252 597.75,-216 838,-216 838,-252"/>
<text text-anchor="middle" x="717.88" y="-228.95" font-family="Times,serif" font-size="14.00">aws_s3_bucket_versioning.preview_blog</text>
</g>
<!-- [root] aws_s3_bucket_versioning.preview_blog (expand)&#45;&gt;[root] aws_s3_bucket.preview_blog (expand) -->
<g id="edge20" class="edge">
<title>[root] aws_s3_bucket_versioning.preview_blog (expand)&#45;&gt;[root] aws_s3_bucket.preview_blog (expand)</title>
<path fill="none" stroke="black" d="M679.28,-215.72C661.96,-206.72 642.05,-194.55 626.88,-180 608.41,-162.3 593.15,-137.48 583.08,-118.55"/>
<polygon fill="black" stroke="black" points="586.27,-117.1 578.59,-109.8 580.04,-120.29 586.27,-117.1"/>
</g>
<!-- [root] aws_s3_bucket_website_configuration.blog (expand)&#45;&gt;[root] aws_s3_bucket.blog (expand) -->
<g id="edge21" class="edge">
<title>[root] aws_s3_bucket_website_configuration.blog (expand)&#45;&gt;[root] aws_s3_bucket.blog (expand)</title>
<path fill="none" stroke="black" d="M853.84,-145.01C850.82,-144.66 847.83,-144.33 844.88,-144 679.78,-125.7 637.41,-130.8 472.88,-108 466.56,-107.13 460.02,-106.13 453.47,-105.07"/>
<polygon fill="black" stroke="black" points="454.4,-101.68 443.96,-103.48 453.25,-108.58 454.4,-101.68"/>
</g>
<!-- [root] aws_s3_bucket_website_configuration.preview_blog (expand)&#45;&gt;[root] aws_s3_bucket.preview_blog (expand) -->
<g id="edge22" class="edge">
<title>[root] aws_s3_bucket_website_configuration.preview_blog (expand)&#45;&gt;[root] aws_s3_bucket.preview_blog (expand)</title>
<path fill="none" stroke="black" d="M1125.77,-144.9C1122.78,-144.6 1119.81,-144.3 1116.88,-144 960.79,-128.2 779.54,-110.83 669.85,-100.43"/>
<polygon fill="black" stroke="black" points="670.27,-96.95 659.99,-99.49 669.61,-103.92 670.27,-96.95"/>
</g>
<!-- [root] provider[&quot;terraform.io/builtin/terraform&quot;] -->
<g id="node18" class="node">
<title>[root] provider[&quot;terraform.io/builtin/terraform&quot;]</title>
<polygon fill="none" stroke="black" points="1809.88,-108 1575.12,-90 1809.88,-72 2044.63,-90 1809.88,-108"/>
<text text-anchor="middle" x="1809.88" y="-84.95" font-family="Times,serif" font-size="14.00">provider[&quot;terraform.io/builtin/terraform&quot;]</text>
</g>
<!-- [root] data.terraform_remote_state.rockygray_com (expand)&#45;&gt;[root] provider[&quot;terraform.io/builtin/terraform&quot;] -->
<g id="edge23" class="edge">
<title>[root] data.terraform_remote_state.rockygray_com (expand)&#45;&gt;[root] provider[&quot;terraform.io/builtin/terraform&quot;]</title>
<path fill="none" stroke="black" d="M1809.88,-143.7C1809.88,-136.41 1809.88,-127.73 1809.88,-119.54"/>
<polygon fill="black" stroke="black" points="1813.38,-119.62 1809.88,-109.62 1806.38,-119.62 1813.38,-119.62"/>
</g>
<!-- [root] output.cloudfront_url (expand) -->
<g id="node22" class="node">
<title>[root] output.cloudfront_url (expand)</title>
<ellipse fill="none" stroke="black" cx="1560.88" cy="-306" rx="149.11" ry="18"/>
<text text-anchor="middle" x="1560.88" y="-300.95" font-family="Times,serif" font-size="14.00">[root] output.cloudfront_url (expand)</text>
</g>
<!-- [root] output.cloudfront_url (expand)&#45;&gt;[root] aws_cloudfront_distribution.blog_distribution (expand) -->
<g id="edge24" class="edge">
<title>[root] output.cloudfront_url (expand)&#45;&gt;[root] aws_cloudfront_distribution.blog_distribution (expand)</title>
<path fill="none" stroke="black" d="M1568.04,-287.7C1571.17,-280.15 1574.91,-271.12 1578.41,-262.68"/>
<polygon fill="black" stroke="black" points="1581.62,-264.08 1582.21,-253.5 1575.15,-261.4 1581.62,-264.08"/>
</g>
<!-- [root] output.cloudfront_url (expand)&#45;&gt;[root] aws_cloudfront_distribution.preview_blog_distribution (expand) -->
<g id="edge25" class="edge">
<title>[root] output.cloudfront_url (expand)&#45;&gt;[root] aws_cloudfront_distribution.preview_blog_distribution (expand)</title>
<path fill="none" stroke="black" d="M1633.8,-289.9C1683.46,-279.61 1749.68,-265.9 1803.52,-254.75"/>
<polygon fill="black" stroke="black" points="1803.89,-258.25 1812.98,-252.79 1802.47,-251.39 1803.89,-258.25"/>
</g>
<!-- [root] output.cloudfront_www_id (expand) -->
<g id="node23" class="node">
<title>[root] output.cloudfront_www_id (expand)</title>
<ellipse fill="none" stroke="black" cx="1898.88" cy="-306" rx="170.6" ry="18"/>
<text text-anchor="middle" x="1898.88" y="-300.95" font-family="Times,serif" font-size="14.00">[root] output.cloudfront_www_id (expand)</text>
</g>
<!-- [root] output.cloudfront_www_id (expand)&#45;&gt;[root] aws_cloudfront_distribution.blog_distribution (expand) -->
<g id="edge26" class="edge">
<title>[root] output.cloudfront_www_id (expand)&#45;&gt;[root] aws_cloudfront_distribution.blog_distribution (expand)</title>
<path fill="none" stroke="black" d="M1829.14,-289.2C1784.39,-279.07 1725.9,-265.81 1677.95,-254.95"/>
<polygon fill="black" stroke="black" points="1678.95,-251.59 1668.42,-252.79 1677.4,-258.42 1678.95,-251.59"/>
</g>
<!-- [root] output.cloudfront_www_id (expand)&#45;&gt;[root] aws_cloudfront_distribution.preview_blog_distribution (expand) -->
<g id="edge27" class="edge">
<title>[root] output.cloudfront_www_id (expand)&#45;&gt;[root] aws_cloudfront_distribution.preview_blog_distribution (expand)</title>
<path fill="none" stroke="black" d="M1898.88,-287.7C1898.88,-280.41 1898.88,-271.73 1898.88,-263.54"/>
<polygon fill="black" stroke="black" points="1902.38,-263.62 1898.88,-253.62 1895.38,-263.62 1902.38,-263.62"/>
</g>
<!-- [root] output.s3_website_url (expand) -->
<g id="node24" class="node">
<title>[root] output.s3_website_url (expand)</title>
<ellipse fill="none" stroke="black" cx="1007.88" cy="-234" rx="151.67" ry="18"/>
<text text-anchor="middle" x="1007.88" y="-228.95" font-family="Times,serif" font-size="14.00">[root] output.s3_website_url (expand)</text>
</g>
<!-- [root] output.s3_website_url (expand)&#45;&gt;[root] aws_s3_bucket_website_configuration.blog (expand) -->
<g id="edge28" class="edge">
<title>[root] output.s3_website_url (expand)&#45;&gt;[root] aws_s3_bucket_website_configuration.blog (expand)</title>
<path fill="none" stroke="black" d="M1001.2,-215.7C998.29,-208.15 994.81,-199.12 991.55,-190.68"/>
<polygon fill="black" stroke="black" points="994.88,-189.59 988.02,-181.52 988.35,-192.11 994.88,-189.59"/>
</g>
<!-- [root] output.s3_website_url (expand)&#45;&gt;[root] aws_s3_bucket_website_configuration.preview_blog (expand) -->
<g id="edge29" class="edge">
<title>[root] output.s3_website_url (expand)&#45;&gt;[root] aws_s3_bucket_website_configuration.preview_blog (expand)</title>
<path fill="none" stroke="black" d="M1069.14,-217.12C1107.85,-207.08 1158.22,-194.02 1199.78,-183.25"/>
<polygon fill="black" stroke="black" points="1200.43,-186.69 1209.23,-180.8 1198.67,-179.92 1200.43,-186.69"/>
</g>
<!-- [root] output.site_url (expand) -->
<g id="node25" class="node">
<title>[root] output.site_url (expand)</title>
<ellipse fill="none" stroke="black" cx="1291.88" cy="-378" rx="123.52" ry="18"/>
<text text-anchor="middle" x="1291.88" y="-372.95" font-family="Times,serif" font-size="14.00">[root] output.site_url (expand)</text>
</g>
<!-- [root] output.site_url (expand)&#45;&gt;[root] aws_route53_record.blog (expand) -->
<g id="edge30" class="edge">
<title>[root] output.site_url (expand)&#45;&gt;[root] aws_route53_record.blog (expand)</title>
<path fill="none" stroke="black" d="M1246.68,-360.94C1219.36,-351.23 1184.22,-338.75 1154.63,-328.23"/>
<polygon fill="black" stroke="black" points="1156.02,-325.01 1145.43,-324.96 1153.68,-331.61 1156.02,-325.01"/>
</g>
<!-- [root] output.site_url (expand)&#45;&gt;[root] aws_route53_record.preview_blog (expand) -->
<g id="edge31" class="edge">
<title>[root] output.site_url (expand)&#45;&gt;[root] aws_route53_record.preview_blog (expand)</title>
<path fill="none" stroke="black" d="M1291.88,-359.7C1291.88,-352.41 1291.88,-343.73 1291.88,-335.54"/>
<polygon fill="black" stroke="black" points="1295.38,-335.62 1291.88,-325.62 1288.38,-335.62 1295.38,-335.62"/>
</g>
<!-- [root] provider[&quot;registry.terraform.io/hashicorp/aws&quot;] (close) -->
<g id="node26" class="node">
<title>[root] provider[&quot;registry.terraform.io/hashicorp/aws&quot;] (close)</title>
<ellipse fill="none" stroke="black" cx="671.88" cy="-378" rx="238.16" ry="18"/>
<text text-anchor="middle" x="671.88" y="-372.95" font-family="Times,serif" font-size="14.00">[root] provider[&quot;registry.terraform.io/hashicorp/aws&quot;] (close)</text>
</g>
<!-- [root] provider[&quot;registry.terraform.io/hashicorp/aws&quot;] (close)&#45;&gt;[root] aws_route53_record.blog (expand) -->
<g id="edge32" class="edge">
<title>[root] provider[&quot;registry.terraform.io/hashicorp/aws&quot;] (close)&#45;&gt;[root] aws_route53_record.blog (expand)</title>
<path fill="none" stroke="black" d="M768.12,-361.07C839.75,-349.22 936.76,-333.17 1006.44,-321.64"/>
<polygon fill="black" stroke="black" points="1006.59,-325.16 1015.88,-320.07 1005.45,-318.25 1006.59,-325.16"/>
</g>
<!-- [root] provider[&quot;registry.terraform.io/hashicorp/aws&quot;] (close)&#45;&gt;[root] aws_route53_record.google_site_verification (expand) -->
<g id="edge33" class="edge">
<title>[root] provider[&quot;registry.terraform.io/hashicorp/aws&quot;] (close)&#45;&gt;[root] aws_route53_record.google_site_verification (expand)</title>
<path fill="none" stroke="black" d="M729.96,-360.09C796.84,-340.99 910.18,-309.74 1008.88,-288 1066.67,-275.27 1131.28,-263.51 1185.61,-254.32"/>
<polygon fill="black" stroke="black" points="1185.91,-257.82 1195.19,-252.71 1184.75,-250.92 1185.91,-257.82"/>
</g>
<!-- [root] provider[&quot;registry.terraform.io/hashicorp/aws&quot;] (close)&#45;&gt;[root] aws_route53_record.preview_blog (expand) -->
<g id="edge34" class="edge">
<title>[root] provider[&quot;registry.terraform.io/hashicorp/aws&quot;] (close)&#45;&gt;[root] aws_route53_record.preview_blog (expand)</title>
<path fill="none" stroke="black" d="M819.65,-363.51C918.48,-354.04 1051.69,-340.4 1178.33,-324.3"/>
<polygon fill="black" stroke="black" points="1178.41,-327.81 1187.89,-323.07 1177.52,-320.87 1178.41,-327.81"/>
</g>
<!-- [root] provider[&quot;registry.terraform.io/hashicorp/aws&quot;] (close)&#45;&gt;[root] aws_s3_bucket_acl.blog (expand) -->
<g id="edge35" class="edge">
<title>[root] provider[&quot;registry.terraform.io/hashicorp/aws&quot;] (close)&#45;&gt;[root] aws_s3_bucket_acl.blog (expand)</title>
<path fill="none" stroke="black" d="M554.58,-361.9C513.58,-353.92 468.04,-341.92 428.88,-324 380.38,-301.81 356.73,-299.7 332.88,-252 325.72,-237.69 327.36,-231.02 332.88,-216 336.5,-206.12 342.88,-196.82 349.71,-188.86"/>
<polygon fill="black" stroke="black" points="352.23,-191.29 356.47,-181.58 347.1,-186.53 352.23,-191.29"/>
</g>
<!-- [root] provider[&quot;registry.terraform.io/hashicorp/aws&quot;] (close)&#45;&gt;[root] aws_s3_bucket_acl.preview_blog (expand) -->
<g id="edge36" class="edge">
<title>[root] provider[&quot;registry.terraform.io/hashicorp/aws&quot;] (close)&#45;&gt;[root] aws_s3_bucket_acl.preview_blog (expand)</title>
<path fill="none" stroke="black" d="M549.3,-362.15C503.06,-353.85 458.13,-341.54 443.88,-324 430.31,-307.31 430.9,-282.48 434.27,-263.28"/>
<polygon fill="black" stroke="black" points="437.66,-264.17 436.3,-253.66 430.81,-262.72 437.66,-264.17"/>
</g>
<!-- [root] provider[&quot;registry.terraform.io/hashicorp/aws&quot;] (close)&#45;&gt;[root] aws_s3_bucket_policy.blog_access_policy (expand) -->
<g id="edge37" class="edge">
<title>[root] provider[&quot;registry.terraform.io/hashicorp/aws&quot;] (close)&#45;&gt;[root] aws_s3_bucket_policy.blog_access_policy (expand)</title>
<path fill="none" stroke="black" d="M466.69,-368.61C328.15,-360.91 166.37,-347.09 142.88,-324 107.97,-289.71 111.71,-227.74 117.71,-191.5"/>
<polygon fill="black" stroke="black" points="121.13,-192.24 119.5,-181.77 114.25,-190.97 121.13,-192.24"/>
</g>
<!-- [root] provider[&quot;registry.terraform.io/hashicorp/aws&quot;] (close)&#45;&gt;[root] aws_s3_bucket_policy.preview_blog_access_policy (expand) -->
<g id="edge38" class="edge">
<title>[root] provider[&quot;registry.terraform.io/hashicorp/aws&quot;] (close)&#45;&gt;[root] aws_s3_bucket_policy.preview_blog_access_policy (expand)</title>
<path fill="none" stroke="black" d="M654.57,-359.7C646.26,-351.39 636.15,-341.28 627.02,-332.14"/>
<polygon fill="black" stroke="black" points="629.6,-329.77 620.05,-325.17 624.65,-334.72 629.6,-329.77"/>
</g>
<!-- [root] provider[&quot;registry.terraform.io/hashicorp/aws&quot;] (close)&#45;&gt;[root] aws_s3_bucket_versioning.blog (expand) -->
<g id="edge39" class="edge">
<title>[root] provider[&quot;registry.terraform.io/hashicorp/aws&quot;] (close)&#45;&gt;[root] aws_s3_bucket_versioning.blog (expand)</title>
<path fill="none" stroke="black" d="M575.44,-361.12C509.32,-350.23 421.58,-335.77 353.4,-324.54"/>
<polygon fill="black" stroke="black" points="354.13,-321.12 343.69,-322.95 352.99,-328.03 354.13,-321.12"/>
</g>
<!-- [root] provider[&quot;registry.terraform.io/hashicorp/aws&quot;] (close)&#45;&gt;[root] aws_s3_bucket_versioning.preview_blog (expand) -->
<g id="edge40" class="edge">
<title>[root] provider[&quot;registry.terraform.io/hashicorp/aws&quot;] (close)&#45;&gt;[root] aws_s3_bucket_versioning.preview_blog (expand)</title>
<path fill="none" stroke="black" d="M718.92,-359.97C734.83,-351.7 750.84,-339.99 759.88,-324 771.58,-303.29 758.13,-278.79 743.43,-260.74"/>
<polygon fill="black" stroke="black" points="746.41,-258.83 737.21,-253.58 741.13,-263.42 746.41,-258.83"/>
</g>
<!-- [root] provider[&quot;terraform.io/builtin/terraform&quot;] (close) -->
<g id="node27" class="node">
<title>[root] provider[&quot;terraform.io/builtin/terraform&quot;] (close)</title>
<ellipse fill="none" stroke="black" cx="2018.88" cy="-378" rx="217.18" ry="18"/>
<text text-anchor="middle" x="2018.88" y="-372.95" font-family="Times,serif" font-size="14.00">[root] provider[&quot;terraform.io/builtin/terraform&quot;] (close)</text>
</g>
<!-- [root] provider[&quot;terraform.io/builtin/terraform&quot;] (close)&#45;&gt;[root] data.terraform_remote_state.rockygray_com (expand) -->
<g id="edge41" class="edge">
<title>[root] provider[&quot;terraform.io/builtin/terraform&quot;] (close)&#45;&gt;[root] data.terraform_remote_state.rockygray_com (expand)</title>
<path fill="none" stroke="black" d="M2047.45,-359.74C2059.53,-350.75 2072.3,-338.57 2078.88,-324 2089.89,-299.58 2068.08,-218.26 2065.88,-216 2048.87,-198.55 2001.09,-186.42 1951.34,-178.21"/>
<polygon fill="black" stroke="black" points="1951.95,-174.76 1941.53,-176.65 1950.85,-181.67 1951.95,-174.76"/>
</g>
<!-- [root] root -->
<g id="node28" class="node">
<title>[root] root</title>
<ellipse fill="none" stroke="black" cx="1367.88" cy="-450" rx="49.3" ry="18"/>
<text text-anchor="middle" x="1367.88" y="-444.95" font-family="Times,serif" font-size="14.00">[root] root</text>
</g>
<!-- [root] root&#45;&gt;[root] output.cloudfront_url (expand) -->
<g id="edge42" class="edge">
<title>[root] root&#45;&gt;[root] output.cloudfront_url (expand)</title>
<path fill="none" stroke="black" d="M1388.9,-433.53C1422.47,-408.83 1488.46,-360.28 1528.22,-331.03"/>
<polygon fill="black" stroke="black" points="1530.28,-333.85 1536.26,-325.11 1526.14,-328.21 1530.28,-333.85"/>
</g>
<!-- [root] root&#45;&gt;[root] output.cloudfront_www_id (expand) -->
<g id="edge43" class="edge">
<title>[root] root&#45;&gt;[root] output.cloudfront_www_id (expand)</title>
<path fill="none" stroke="black" d="M1406.92,-438.56C1495.7,-414.82 1713.76,-356.5 1827.4,-326.11"/>
<polygon fill="black" stroke="black" points="1828.17,-329.53 1836.93,-323.57 1826.37,-322.77 1828.17,-329.53"/>
</g>
<!-- [root] root&#45;&gt;[root] output.s3_website_url (expand) -->
<g id="edge44" class="edge">
<title>[root] root&#45;&gt;[root] output.s3_website_url (expand)</title>
<path fill="none" stroke="black" d="M1318.15,-449.34C1236.18,-446.81 1075.19,-428.08 1008.88,-324 997.51,-306.17 998.01,-281.98 1000.94,-263.31"/>
<polygon fill="black" stroke="black" points="1004.33,-264.21 1002.76,-253.73 997.45,-262.9 1004.33,-264.21"/>
</g>
<!-- [root] root&#45;&gt;[root] output.site_url (expand) -->
<g id="edge45" class="edge">
<title>[root] root&#45;&gt;[root] output.site_url (expand)</title>
<path fill="none" stroke="black" d="M1350.25,-432.76C1340.93,-424.18 1329.29,-413.46 1318.86,-403.86"/>
<polygon fill="black" stroke="black" points="1321.31,-401.35 1311.58,-397.15 1316.56,-406.5 1321.31,-401.35"/>
</g>
<!-- [root] root&#45;&gt;[root] provider[&quot;registry.terraform.io/hashicorp/aws&quot;] (close) -->
<g id="edge46" class="edge">
<title>[root] root&#45;&gt;[root] provider[&quot;registry.terraform.io/hashicorp/aws&quot;] (close)</title>
<path fill="none" stroke="black" d="M1320.58,-444.24C1219.82,-434.11 980.27,-410.02 822.18,-394.12"/>
<polygon fill="black" stroke="black" points="822.74,-390.66 812.44,-393.14 822.04,-397.62 822.74,-390.66"/>
</g>
<!-- [root] root&#45;&gt;[root] provider[&quot;terraform.io/builtin/terraform&quot;] (close) -->
<g id="edge47" class="edge">
<title>[root] root&#45;&gt;[root] provider[&quot;terraform.io/builtin/terraform&quot;] (close)</title>
<path fill="none" stroke="black" d="M1414.69,-443.97C1510.45,-433.67 1731.98,-409.85 1878.51,-394.09"/>
<polygon fill="black" stroke="black" points="1878.74,-397.59 1888.3,-393.04 1877.99,-390.63 1878.74,-397.59"/>
</g>
</g>
</svg>
