<?xml version="1.0" encoding="UTF-8" standalone="no"?>
<!DOCTYPE svg PUBLIC "-//W3C//DTD SVG 1.1//EN"
 "http://www.w3.org/Graphics/SVG/1.1/DTD/svg11.dtd">
<!-- Generated by graphviz version 2.44.0 (20200408.0750)
 -->
<!-- Pages: 1 -->
<svg width="871pt" height="476pt"
 viewBox="0.00 0.00 870.79 476.00" xmlns="http://www.w3.org/2000/svg" xmlns:xlink="http://www.w3.org/1999/xlink">
<g id="graph0" class="graph" transform="scale(1 1) rotate(0) translate(4 472)">
<polygon fill="white" stroke="transparent" points="-4,4 -4,-472 866.79,-472 866.79,4 -4,4"/>
<!-- [root] aws_cloudfront_distribution.blog_distribution -->
<g id="node1" class="node">
<title>[root] aws_cloudfront_distribution.blog_distribution</title>
<polygon fill="none" stroke="black" points="504,-180 238,-180 238,-144 504,-144 504,-180"/>
<text text-anchor="middle" x="371" y="-158.3" font-family="Times,serif" font-size="14.00">aws_cloudfront_distribution.blog_distribution</text>
</g>
<!-- [root] aws_s3_bucket.blog -->
<g id="node3" class="node">
<title>[root] aws_s3_bucket.blog</title>
<polygon fill="none" stroke="black" points="218.5,-108 91.5,-108 91.5,-72 218.5,-72 218.5,-108"/>
<text text-anchor="middle" x="155" y="-86.3" font-family="Times,serif" font-size="14.00">aws_s3_bucket.blog</text>
</g>
<!-- [root] aws_cloudfront_distribution.blog_distribution&#45;&gt;[root] aws_s3_bucket.blog -->
<g id="edge1" class="edge">
<title>[root] aws_cloudfront_distribution.blog_distribution&#45;&gt;[root] aws_s3_bucket.blog</title>
<path fill="none" stroke="black" d="M318.44,-143.97C287.99,-134.1 249.49,-121.62 217.5,-111.25"/>
<polygon fill="black" stroke="black" points="218.39,-107.86 207.8,-108.11 216.23,-114.52 218.39,-107.86"/>
</g>
<!-- [root] data.terraform_remote_state.rockygray_com -->
<g id="node4" class="node">
<title>[root] data.terraform_remote_state.rockygray_com</title>
<polygon fill="none" stroke="black" points="583,-108 323,-108 323,-72 583,-72 583,-108"/>
<text text-anchor="middle" x="453" y="-86.3" font-family="Times,serif" font-size="14.00">data.terraform_remote_state.rockygray_com</text>
</g>
<!-- [root] aws_cloudfront_distribution.blog_distribution&#45;&gt;[root] data.terraform_remote_state.rockygray_com -->
<g id="edge2" class="edge">
<title>[root] aws_cloudfront_distribution.blog_distribution&#45;&gt;[root] data.terraform_remote_state.rockygray_com</title>
<path fill="none" stroke="black" d="M391.27,-143.7C401.5,-134.97 414.06,-124.24 425.18,-114.75"/>
<polygon fill="black" stroke="black" points="427.63,-117.26 432.96,-108.1 423.09,-111.94 427.63,-117.26"/>
</g>
<!-- [root] aws_route53_record.blog -->
<g id="node2" class="node">
<title>[root] aws_route53_record.blog</title>
<polygon fill="none" stroke="black" points="595.5,-252 440.5,-252 440.5,-216 595.5,-216 595.5,-252"/>
<text text-anchor="middle" x="518" y="-230.3" font-family="Times,serif" font-size="14.00">aws_route53_record.blog</text>
</g>
<!-- [root] aws_route53_record.blog&#45;&gt;[root] aws_cloudfront_distribution.blog_distribution -->
<g id="edge3" class="edge">
<title>[root] aws_route53_record.blog&#45;&gt;[root] aws_cloudfront_distribution.blog_distribution</title>
<path fill="none" stroke="black" d="M482.04,-215.88C462.12,-206.39 437.18,-194.51 415.98,-184.42"/>
<polygon fill="black" stroke="black" points="417.38,-181.21 406.84,-180.07 414.37,-187.53 417.38,-181.21"/>
</g>
<!-- [root] provider.aws -->
<g id="node9" class="node">
<title>[root] provider.aws</title>
<polygon fill="none" stroke="black" points="243,-36 163.9,-18 243,0 322.1,-18 243,-36"/>
<text text-anchor="middle" x="243" y="-14.3" font-family="Times,serif" font-size="14.00">provider.aws</text>
</g>
<!-- [root] aws_s3_bucket.blog&#45;&gt;[root] provider.aws -->
<g id="edge4" class="edge">
<title>[root] aws_s3_bucket.blog&#45;&gt;[root] provider.aws</title>
<path fill="none" stroke="black" d="M176.75,-71.7C189.28,-61.73 205.07,-49.17 218.09,-38.81"/>
<polygon fill="black" stroke="black" points="220.54,-41.34 226.19,-32.38 216.18,-35.86 220.54,-41.34"/>
</g>
<!-- [root] var.blog_domain_name -->
<g id="node11" class="node">
<title>[root] var.blog_domain_name</title>
<polygon fill="none" stroke="black" points="140,-36 0,-36 0,0 146,0 146,-30 140,-36"/>
<polyline fill="none" stroke="black" points="140,-36 140,-30 "/>
<polyline fill="none" stroke="black" points="146,-30 140,-30 "/>
<text text-anchor="middle" x="73" y="-14.3" font-family="Times,serif" font-size="14.00">var.blog_domain_name</text>
</g>
<!-- [root] aws_s3_bucket.blog&#45;&gt;[root] var.blog_domain_name -->
<g id="edge5" class="edge">
<title>[root] aws_s3_bucket.blog&#45;&gt;[root] var.blog_domain_name</title>
<path fill="none" stroke="black" d="M134.73,-71.7C124.5,-62.97 111.94,-52.24 100.82,-42.75"/>
<polygon fill="black" stroke="black" points="102.91,-39.94 93.04,-36.1 98.37,-45.26 102.91,-39.94"/>
</g>
<!-- [root] provider.terraform -->
<g id="node10" class="node">
<title>[root] provider.terraform</title>
<polygon fill="none" stroke="black" points="453,-36 345.42,-18 453,0 560.58,-18 453,-36"/>
<text text-anchor="middle" x="453" y="-14.3" font-family="Times,serif" font-size="14.00">provider.terraform</text>
</g>
<!-- [root] data.terraform_remote_state.rockygray_com&#45;&gt;[root] provider.terraform -->
<g id="edge6" class="edge">
<title>[root] data.terraform_remote_state.rockygray_com&#45;&gt;[root] provider.terraform</title>
<path fill="none" stroke="black" d="M453,-71.7C453,-63.98 453,-54.71 453,-46.11"/>
<polygon fill="black" stroke="black" points="456.5,-46.1 453,-36.1 449.5,-46.1 456.5,-46.1"/>
</g>
<!-- [root] output.cloudfront_url -->
<g id="node5" class="node">
<title>[root] output.cloudfront_url</title>
<polygon fill="none" stroke="black" points="416.5,-252 289.5,-252 289.5,-216 422.5,-216 422.5,-246 416.5,-252"/>
<polyline fill="none" stroke="black" points="416.5,-252 416.5,-246 "/>
<polyline fill="none" stroke="black" points="422.5,-246 416.5,-246 "/>
<text text-anchor="middle" x="356" y="-230.3" font-family="Times,serif" font-size="14.00">output.cloudfront_url</text>
</g>
<!-- [root] output.cloudfront_url&#45;&gt;[root] aws_cloudfront_distribution.blog_distribution -->
<g id="edge11" class="edge">
<title>[root] output.cloudfront_url&#45;&gt;[root] aws_cloudfront_distribution.blog_distribution</title>
<path fill="none" stroke="black" d="M359.71,-215.7C361.36,-207.98 363.35,-198.71 365.19,-190.11"/>
<polygon fill="black" stroke="black" points="368.66,-190.62 367.33,-180.1 361.82,-189.15 368.66,-190.62"/>
</g>
<!-- [root] output.cloudfront_www_id -->
<g id="node6" class="node">
<title>[root] output.cloudfront_www_id</title>
<polygon fill="none" stroke="black" points="337,-324 179,-324 179,-288 343,-288 343,-318 337,-324"/>
<polyline fill="none" stroke="black" points="337,-324 337,-318 "/>
<polyline fill="none" stroke="black" points="343,-318 337,-318 "/>
<text text-anchor="middle" x="261" y="-302.3" font-family="Times,serif" font-size="14.00">output.cloudfront_www_id</text>
</g>
<!-- [root] output.cloudfront_www_id&#45;&gt;[root] aws_cloudfront_distribution.blog_distribution -->
<g id="edge12" class="edge">
<title>[root] output.cloudfront_www_id&#45;&gt;[root] aws_cloudfront_distribution.blog_distribution</title>
<path fill="none" stroke="black" d="M260.68,-287.96C261.15,-268.73 264.52,-237.37 280,-216 289.33,-203.13 302.81,-192.88 316.56,-184.97"/>
<polygon fill="black" stroke="black" points="318.45,-187.93 325.59,-180.1 315.13,-181.76 318.45,-187.93"/>
</g>
<!-- [root] output.s3_website_url -->
<g id="node7" class="node">
<title>[root] output.s3_website_url</title>
<polygon fill="none" stroke="black" points="213.5,-180 82.5,-180 82.5,-144 219.5,-144 219.5,-174 213.5,-180"/>
<polyline fill="none" stroke="black" points="213.5,-180 213.5,-174 "/>
<polyline fill="none" stroke="black" points="219.5,-174 213.5,-174 "/>
<text text-anchor="middle" x="151" y="-158.3" font-family="Times,serif" font-size="14.00">output.s3_website_url</text>
</g>
<!-- [root] output.s3_website_url&#45;&gt;[root] aws_s3_bucket.blog -->
<g id="edge13" class="edge">
<title>[root] output.s3_website_url&#45;&gt;[root] aws_s3_bucket.blog</title>
<path fill="none" stroke="black" d="M151.99,-143.7C152.43,-135.98 152.96,-126.71 153.45,-118.11"/>
<polygon fill="black" stroke="black" points="156.95,-118.29 154.02,-108.1 149.96,-117.89 156.95,-118.29"/>
</g>
<!-- [root] output.site_url -->
<g id="node8" class="node">
<title>[root] output.site_url</title>
<polygon fill="none" stroke="black" points="540.5,-324 451.5,-324 451.5,-288 546.5,-288 546.5,-318 540.5,-324"/>
<polyline fill="none" stroke="black" points="540.5,-324 540.5,-318 "/>
<polyline fill="none" stroke="black" points="546.5,-318 540.5,-318 "/>
<text text-anchor="middle" x="499" y="-302.3" font-family="Times,serif" font-size="14.00">output.site_url</text>
</g>
<!-- [root] output.site_url&#45;&gt;[root] aws_route53_record.blog -->
<g id="edge14" class="edge">
<title>[root] output.site_url&#45;&gt;[root] aws_route53_record.blog</title>
<path fill="none" stroke="black" d="M503.7,-287.7C505.81,-279.9 508.36,-270.51 510.72,-261.83"/>
<polygon fill="black" stroke="black" points="514.12,-262.67 513.36,-252.1 507.36,-260.84 514.12,-262.67"/>
</g>
<!-- [root] meta.count&#45;boundary (EachMode fixup) -->
<g id="node12" class="node">
<title>[root] meta.count&#45;boundary (EachMode fixup)</title>
<ellipse fill="none" stroke="black" cx="292" cy="-378" rx="176.27" ry="18"/>
<text text-anchor="middle" x="292" y="-374.3" font-family="Times,serif" font-size="14.00">[root] meta.count&#45;boundary (EachMode fixup)</text>
</g>
<!-- [root] meta.count&#45;boundary (EachMode fixup)&#45;&gt;[root] output.cloudfront_url -->
<g id="edge7" class="edge">
<title>[root] meta.count&#45;boundary (EachMode fixup)&#45;&gt;[root] output.cloudfront_url</title>
<path fill="none" stroke="black" d="M319.65,-360.07C331.85,-351 344.98,-338.67 352,-324 361.2,-304.75 361.65,-280.41 360.11,-262.05"/>
<polygon fill="black" stroke="black" points="363.58,-261.58 359.02,-252.02 356.62,-262.33 363.58,-261.58"/>
</g>
<!-- [root] meta.count&#45;boundary (EachMode fixup)&#45;&gt;[root] output.cloudfront_www_id -->
<g id="edge8" class="edge">
<title>[root] meta.count&#45;boundary (EachMode fixup)&#45;&gt;[root] output.cloudfront_www_id</title>
<path fill="none" stroke="black" d="M284.34,-359.7C280.81,-351.73 276.54,-342.1 272.63,-333.26"/>
<polygon fill="black" stroke="black" points="275.82,-331.83 268.57,-324.1 269.42,-334.67 275.82,-331.83"/>
</g>
<!-- [root] meta.count&#45;boundary (EachMode fixup)&#45;&gt;[root] output.s3_website_url -->
<g id="edge9" class="edge">
<title>[root] meta.count&#45;boundary (EachMode fixup)&#45;&gt;[root] output.s3_website_url</title>
<path fill="none" stroke="black" d="M223.46,-361.37C203.26,-353.44 183.09,-341.61 170,-324 140.91,-284.87 142.49,-224.96 146.55,-190.32"/>
<polygon fill="black" stroke="black" points="150.07,-190.4 147.92,-180.02 143.14,-189.48 150.07,-190.4"/>
</g>
<!-- [root] meta.count&#45;boundary (EachMode fixup)&#45;&gt;[root] output.site_url -->
<g id="edge10" class="edge">
<title>[root] meta.count&#45;boundary (EachMode fixup)&#45;&gt;[root] output.site_url</title>
<path fill="none" stroke="black" d="M340.27,-360.68C370.59,-350.43 409.84,-337.15 441.73,-326.37"/>
<polygon fill="black" stroke="black" points="443.02,-329.63 451.37,-323.11 440.77,-323 443.02,-329.63"/>
</g>
<!-- [root] provider.aws (close) -->
<g id="node13" class="node">
<title>[root] provider.aws (close)</title>
<ellipse fill="none" stroke="black" cx="591" cy="-378" rx="104.78" ry="18"/>
<text text-anchor="middle" x="591" y="-374.3" font-family="Times,serif" font-size="14.00">[root] provider.aws (close)</text>
</g>
<!-- [root] provider.aws (close)&#45;&gt;[root] aws_route53_record.blog -->
<g id="edge15" class="edge">
<title>[root] provider.aws (close)&#45;&gt;[root] aws_route53_record.blog</title>
<path fill="none" stroke="black" d="M585.62,-359.71C579.59,-341.35 568.94,-311.77 556,-288 550.89,-278.6 544.37,-268.92 538.18,-260.45"/>
<polygon fill="black" stroke="black" points="540.97,-258.33 532.17,-252.43 535.37,-262.53 540.97,-258.33"/>
</g>
<!-- [root] provider.terraform (close) -->
<g id="node14" class="node">
<title>[root] provider.terraform (close)</title>
<ellipse fill="none" stroke="black" cx="738" cy="-234" rx="124.58" ry="18"/>
<text text-anchor="middle" x="738" y="-230.3" font-family="Times,serif" font-size="14.00">[root] provider.terraform (close)</text>
</g>
<!-- [root] provider.terraform (close)&#45;&gt;[root] data.terraform_remote_state.rockygray_com -->
<g id="edge16" class="edge">
<title>[root] provider.terraform (close)&#45;&gt;[root] data.terraform_remote_state.rockygray_com</title>
<path fill="none" stroke="black" d="M705.03,-216.57C653.53,-190.92 553.99,-141.32 496.62,-112.73"/>
<polygon fill="black" stroke="black" points="497.96,-109.49 487.45,-108.16 494.84,-115.75 497.96,-109.49"/>
</g>
<!-- [root] root -->
<g id="node15" class="node">
<title>[root] root</title>
<ellipse fill="none" stroke="black" cx="591" cy="-450" rx="47.39" ry="18"/>
<text text-anchor="middle" x="591" y="-446.3" font-family="Times,serif" font-size="14.00">[root] root</text>
</g>
<!-- [root] root&#45;&gt;[root] meta.count&#45;boundary (EachMode fixup) -->
<g id="edge17" class="edge">
<title>[root] root&#45;&gt;[root] meta.count&#45;boundary (EachMode fixup)</title>
<path fill="none" stroke="black" d="M551.6,-439.78C505.28,-428.93 427.32,-410.68 368.89,-397"/>
<polygon fill="black" stroke="black" points="369.49,-393.55 358.96,-394.68 367.9,-400.36 369.49,-393.55"/>
</g>
<!-- [root] root&#45;&gt;[root] provider.aws (close) -->
<g id="edge18" class="edge">
<title>[root] root&#45;&gt;[root] provider.aws (close)</title>
<path fill="none" stroke="black" d="M591,-431.7C591,-423.98 591,-414.71 591,-406.11"/>
<polygon fill="black" stroke="black" points="594.5,-406.1 591,-396.1 587.5,-406.1 594.5,-406.1"/>
</g>
<!-- [root] root&#45;&gt;[root] provider.terraform (close) -->
<g id="edge19" class="edge">
<title>[root] root&#45;&gt;[root] provider.terraform (close)</title>
<path fill="none" stroke="black" d="M631.08,-440.16C656.03,-432.59 686.73,-419.12 705,-396 735.65,-357.22 739.93,-297.19 739.49,-262.44"/>
<polygon fill="black" stroke="black" points="742.98,-262 739.21,-252.1 735.99,-262.19 742.98,-262"/>
</g>
</g>
</svg>
