<?xml version="1.0" encoding="UTF-8" standalone="no"?>
<!DOCTYPE svg PUBLIC "-//W3C//DTD SVG 1.1//EN"
 "http://www.w3.org/Graphics/SVG/1.1/DTD/svg11.dtd">
<!-- Generated by graphviz version 6.0.1 (20220911.1526)
 -->
<!-- Pages: 1 -->
<svg width="2219pt" height="476pt"
 viewBox="0.00 0.00 2219.33 476.00" xmlns="http://www.w3.org/2000/svg" xmlns:xlink="http://www.w3.org/1999/xlink">
<g id="graph0" class="graph" transform="scale(1 1) rotate(0) translate(4 472)">
<polygon fill="white" stroke="none" points="-4,4 -4,-472 2215.33,-472 2215.33,4 -4,4"/>
<!-- [root] aws_cloudfront_distribution.blog_distribution (expand) -->
<g id="node1" class="node">
<title>[root] aws_cloudfront_distribution.blog_distribution (expand)</title>
<polygon fill="none" stroke="black" points="1711,-252 1445,-252 1445,-216 1711,-216 1711,-252"/>
<text text-anchor="middle" x="1578" y="-230.3" font-family="Times,serif" font-size="14.00">aws_cloudfront_distribution.blog_distribution</text>
</g>
<!-- [root] aws_s3_bucket_website_configuration.blog (expand) -->
<g id="node14" class="node">
<title>[root] aws_s3_bucket_website_configuration.blog (expand)</title>
<polygon fill="none" stroke="black" points="1108,-180 854,-180 854,-144 1108,-144 1108,-180"/>
<text text-anchor="middle" x="981" y="-158.3" font-family="Times,serif" font-size="14.00">aws_s3_bucket_website_configuration.blog</text>
</g>
<!-- [root] aws_cloudfront_distribution.blog_distribution (expand)&#45;&gt;[root] aws_s3_bucket_website_configuration.blog (expand) -->
<g id="edge1" class="edge">
<title>[root] aws_cloudfront_distribution.blog_distribution (expand)&#45;&gt;[root] aws_s3_bucket_website_configuration.blog (expand)</title>
<path fill="none" stroke="black" d="M1444.97,-217.05C1441.95,-216.69 1438.96,-216.34 1436,-216 1297.89,-199.92 1260.89,-196.89 1118.25,-180.02"/>
<polygon fill="black" stroke="black" points="1118.59,-176.54 1108.25,-178.84 1117.77,-183.49 1118.59,-176.54"/>
</g>
<!-- [root] data.terraform_remote_state.rockygray_com (expand) -->
<g id="node16" class="node">
<title>[root] data.terraform_remote_state.rockygray_com (expand)</title>
<polygon fill="none" stroke="black" points="1930,-180 1670,-180 1670,-144 1930,-144 1930,-180"/>
<text text-anchor="middle" x="1800" y="-158.3" font-family="Times,serif" font-size="14.00">data.terraform_remote_state.rockygray_com</text>
</g>
<!-- [root] aws_cloudfront_distribution.blog_distribution (expand)&#45;&gt;[root] data.terraform_remote_state.rockygray_com (expand) -->
<g id="edge2" class="edge">
<title>[root] aws_cloudfront_distribution.blog_distribution (expand)&#45;&gt;[root] data.terraform_remote_state.rockygray_com (expand)</title>
<path fill="none" stroke="black" d="M1632.02,-215.97C1663.45,-206.06 1703.23,-193.51 1736.19,-183.12"/>
<polygon fill="black" stroke="black" points="1737.25,-186.46 1745.73,-180.11 1735.14,-179.78 1737.25,-186.46"/>
</g>
<!-- [root] aws_cloudfront_distribution.preview_blog_distribution (expand) -->
<g id="node2" class="node">
<title>[root] aws_cloudfront_distribution.preview_blog_distribution (expand)</title>
<polygon fill="none" stroke="black" points="2046.5,-252 1729.5,-252 1729.5,-216 2046.5,-216 2046.5,-252"/>
<text text-anchor="middle" x="1888" y="-230.3" font-family="Times,serif" font-size="14.00">aws_cloudfront_distribution.preview_blog_distribution</text>
</g>
<!-- [root] aws_s3_bucket_website_configuration.preview_blog (expand) -->
<g id="node15" class="node">
<title>[root] aws_s3_bucket_website_configuration.preview_blog (expand)</title>
<polygon fill="none" stroke="black" points="1431.5,-180 1126.5,-180 1126.5,-144 1431.5,-144 1431.5,-180"/>
<text text-anchor="middle" x="1279" y="-158.3" font-family="Times,serif" font-size="14.00">aws_s3_bucket_website_configuration.preview_blog</text>
</g>
<!-- [root] aws_cloudfront_distribution.preview_blog_distribution (expand)&#45;&gt;[root] aws_s3_bucket_website_configuration.preview_blog (expand) -->
<g id="edge3" class="edge">
<title>[root] aws_cloudfront_distribution.preview_blog_distribution (expand)&#45;&gt;[root] aws_s3_bucket_website_configuration.preview_blog (expand)</title>
<path fill="none" stroke="black" d="M1739.8,-215.97C1648.17,-205.43 1530.62,-191.92 1437.19,-181.18"/>
<polygon fill="black" stroke="black" points="1437.41,-177.68 1427.07,-180.02 1436.61,-184.64 1437.41,-177.68"/>
</g>
<!-- [root] aws_cloudfront_distribution.preview_blog_distribution (expand)&#45;&gt;[root] data.terraform_remote_state.rockygray_com (expand) -->
<g id="edge4" class="edge">
<title>[root] aws_cloudfront_distribution.preview_blog_distribution (expand)&#45;&gt;[root] data.terraform_remote_state.rockygray_com (expand)</title>
<path fill="none" stroke="black" d="M1866.25,-215.7C1855.16,-206.88 1841.53,-196.03 1829.51,-186.47"/>
<polygon fill="black" stroke="black" points="1831.51,-183.59 1821.5,-180.1 1827.15,-189.07 1831.51,-183.59"/>
</g>
<!-- [root] aws_route53_record.blog (expand) -->
<g id="node3" class="node">
<title>[root] aws_route53_record.blog (expand)</title>
<polygon fill="none" stroke="black" points="1181.5,-324 1026.5,-324 1026.5,-288 1181.5,-288 1181.5,-324"/>
<text text-anchor="middle" x="1104" y="-302.3" font-family="Times,serif" font-size="14.00">aws_route53_record.blog</text>
</g>
<!-- [root] aws_route53_record.blog (expand)&#45;&gt;[root] aws_cloudfront_distribution.blog_distribution (expand) -->
<g id="edge5" class="edge">
<title>[root] aws_route53_record.blog (expand)&#45;&gt;[root] aws_cloudfront_distribution.blog_distribution (expand)</title>
<path fill="none" stroke="black" d="M1181.75,-289.58C1184.87,-289.03 1187.96,-288.5 1191,-288 1271.35,-274.66 1361.48,-262.17 1434.54,-252.67"/>
<polygon fill="black" stroke="black" points="1435.26,-256.11 1444.73,-251.35 1434.36,-249.16 1435.26,-256.11"/>
</g>
<!-- [root] aws_route53_record.google_site_verification (expand) -->
<g id="node4" class="node">
<title>[root] aws_route53_record.google_site_verification (expand)</title>
<polygon fill="none" stroke="black" points="1427,-252 1165,-252 1165,-216 1427,-216 1427,-252"/>
<text text-anchor="middle" x="1296" y="-230.3" font-family="Times,serif" font-size="14.00">aws_route53_record.google_site_verification</text>
</g>
<!-- [root] aws_route53_record.google_site_verification (expand)&#45;&gt;[root] data.terraform_remote_state.rockygray_com (expand) -->
<g id="edge6" class="edge">
<title>[root] aws_route53_record.google_site_verification (expand)&#45;&gt;[root] data.terraform_remote_state.rockygray_com (expand)</title>
<path fill="none" stroke="black" d="M1418.65,-215.97C1493.8,-205.53 1590.01,-192.17 1666.99,-181.47"/>
<polygon fill="black" stroke="black" points="1667.82,-184.89 1677.24,-180.05 1666.85,-177.96 1667.82,-184.89"/>
</g>
<!-- [root] provider[&quot;registry.terraform.io/hashicorp/aws&quot;] -->
<g id="node17" class="node">
<title>[root] provider[&quot;registry.terraform.io/hashicorp/aws&quot;]</title>
<polygon fill="none" stroke="black" points="939,-36 686.46,-18 939,0 1191.54,-18 939,-36"/>
<text text-anchor="middle" x="939" y="-14.3" font-family="Times,serif" font-size="14.00">provider[&quot;registry.terraform.io/hashicorp/aws&quot;]</text>
</g>
<!-- [root] aws_route53_record.google_site_verification (expand)&#45;&gt;[root] provider[&quot;registry.terraform.io/hashicorp/aws&quot;] -->
<g id="edge7" class="edge">
<title>[root] aws_route53_record.google_site_verification (expand)&#45;&gt;[root] provider[&quot;registry.terraform.io/hashicorp/aws&quot;]</title>
<path fill="none" stroke="black" d="M1392.94,-216C1411.81,-208.15 1429.33,-196.69 1441,-180 1450.17,-166.89 1450.85,-156.61 1441,-144 1392.93,-82.49 1178.64,-46.88 1046.06,-30.35"/>
<polygon fill="black" stroke="black" points="1046.22,-26.85 1035.87,-29.1 1045.37,-33.79 1046.22,-26.85"/>
</g>
<!-- [root] var.google_site_verification_code -->
<g id="node20" class="node">
<title>[root] var.google_site_verification_code</title>
<polygon fill="none" stroke="black" points="830,-180 636,-180 636,-144 836,-144 836,-174 830,-180"/>
<polyline fill="none" stroke="black" points="830,-180 830,-174"/>
<polyline fill="none" stroke="black" points="836,-174 830,-174"/>
<text text-anchor="middle" x="736" y="-158.3" font-family="Times,serif" font-size="14.00">var.google_site_verification_code</text>
</g>
<!-- [root] aws_route53_record.google_site_verification (expand)&#45;&gt;[root] var.google_site_verification_code -->
<g id="edge8" class="edge">
<title>[root] aws_route53_record.google_site_verification (expand)&#45;&gt;[root] var.google_site_verification_code</title>
<path fill="none" stroke="black" d="M1164.85,-217.05C1161.87,-216.7 1158.92,-216.35 1156,-216 1021.06,-200 984.57,-198.77 846.2,-180.14"/>
<polygon fill="black" stroke="black" points="846.44,-176.64 836.06,-178.76 845.5,-183.57 846.44,-176.64"/>
</g>
<!-- [root] aws_route53_record.preview_blog (expand) -->
<g id="node5" class="node">
<title>[root] aws_route53_record.preview_blog (expand)</title>
<polygon fill="none" stroke="black" points="1404.5,-324 1199.5,-324 1199.5,-288 1404.5,-288 1404.5,-324"/>
<text text-anchor="middle" x="1302" y="-302.3" font-family="Times,serif" font-size="14.00">aws_route53_record.preview_blog</text>
</g>
<!-- [root] aws_route53_record.preview_blog (expand)&#45;&gt;[root] aws_cloudfront_distribution.preview_blog_distribution (expand) -->
<g id="edge9" class="edge">
<title>[root] aws_route53_record.preview_blog (expand)&#45;&gt;[root] aws_cloudfront_distribution.preview_blog_distribution (expand)</title>
<path fill="none" stroke="black" d="M1404.52,-289.27C1407.71,-288.84 1410.88,-288.41 1414,-288 1515.09,-274.68 1628.59,-261.91 1719.18,-252.25"/>
<polygon fill="black" stroke="black" points="1719.7,-255.71 1729.27,-251.17 1718.96,-248.75 1719.7,-255.71"/>
</g>
<!-- [root] aws_s3_bucket.blog (expand) -->
<g id="node6" class="node">
<title>[root] aws_s3_bucket.blog (expand)</title>
<polygon fill="none" stroke="black" points="442.5,-108 315.5,-108 315.5,-72 442.5,-72 442.5,-108"/>
<text text-anchor="middle" x="379" y="-86.3" font-family="Times,serif" font-size="14.00">aws_s3_bucket.blog</text>
</g>
<!-- [root] aws_s3_bucket.blog (expand)&#45;&gt;[root] provider[&quot;registry.terraform.io/hashicorp/aws&quot;] -->
<g id="edge10" class="edge">
<title>[root] aws_s3_bucket.blog (expand)&#45;&gt;[root] provider[&quot;registry.terraform.io/hashicorp/aws&quot;]</title>
<path fill="none" stroke="black" d="M442.69,-76.77C452.49,-75.06 462.5,-73.41 472,-72 592.32,-54.2 730.87,-39.16 825.61,-29.7"/>
<polygon fill="black" stroke="black" points="826.18,-33.16 835.79,-28.69 825.49,-26.19 826.18,-33.16"/>
</g>
<!-- [root] var.blog_domain_name -->
<g id="node19" class="node">
<title>[root] var.blog_domain_name</title>
<polygon fill="none" stroke="black" points="447,-36 307,-36 307,0 453,0 453,-30 447,-36"/>
<polyline fill="none" stroke="black" points="447,-36 447,-30"/>
<polyline fill="none" stroke="black" points="453,-30 447,-30"/>
<text text-anchor="middle" x="380" y="-14.3" font-family="Times,serif" font-size="14.00">var.blog_domain_name</text>
</g>
<!-- [root] aws_s3_bucket.blog (expand)&#45;&gt;[root] var.blog_domain_name -->
<g id="edge11" class="edge">
<title>[root] aws_s3_bucket.blog (expand)&#45;&gt;[root] var.blog_domain_name</title>
<path fill="none" stroke="black" d="M379.25,-71.7C379.36,-63.98 379.49,-54.71 379.61,-46.11"/>
<polygon fill="black" stroke="black" points="383.11,-46.15 379.76,-36.1 376.11,-46.05 383.11,-46.15"/>
</g>
<!-- [root] aws_s3_bucket.preview_blog (expand) -->
<g id="node7" class="node">
<title>[root] aws_s3_bucket.preview_blog (expand)</title>
<polygon fill="none" stroke="black" points="658.5,-108 481.5,-108 481.5,-72 658.5,-72 658.5,-108"/>
<text text-anchor="middle" x="570" y="-86.3" font-family="Times,serif" font-size="14.00">aws_s3_bucket.preview_blog</text>
</g>
<!-- [root] aws_s3_bucket.preview_blog (expand)&#45;&gt;[root] provider[&quot;registry.terraform.io/hashicorp/aws&quot;] -->
<g id="edge12" class="edge">
<title>[root] aws_s3_bucket.preview_blog (expand)&#45;&gt;[root] provider[&quot;registry.terraform.io/hashicorp/aws&quot;]</title>
<path fill="none" stroke="black" d="M658.85,-72.14C721.45,-60.27 804.34,-44.54 863.69,-33.29"/>
<polygon fill="black" stroke="black" points="864.58,-36.68 873.75,-31.38 863.27,-29.8 864.58,-36.68"/>
</g>
<!-- [root] aws_s3_bucket.preview_blog (expand)&#45;&gt;[root] var.blog_domain_name -->
<g id="edge13" class="edge">
<title>[root] aws_s3_bucket.preview_blog (expand)&#45;&gt;[root] var.blog_domain_name</title>
<path fill="none" stroke="black" d="M523.52,-71.88C497.08,-62.14 463.8,-49.87 435.94,-39.61"/>
<polygon fill="black" stroke="black" points="436.92,-36.24 426.33,-36.07 434.5,-42.81 436.92,-36.24"/>
</g>
<!-- [root] var.preview_blog_domain_name -->
<g id="node21" class="node">
<title>[root] var.preview_blog_domain_name</title>
<polygon fill="none" stroke="black" points="662,-36 472,-36 472,0 668,0 668,-30 662,-36"/>
<polyline fill="none" stroke="black" points="662,-36 662,-30"/>
<polyline fill="none" stroke="black" points="668,-30 662,-30"/>
<text text-anchor="middle" x="570" y="-14.3" font-family="Times,serif" font-size="14.00">var.preview_blog_domain_name</text>
</g>
<!-- [root] aws_s3_bucket.preview_blog (expand)&#45;&gt;[root] var.preview_blog_domain_name -->
<g id="edge14" class="edge">
<title>[root] aws_s3_bucket.preview_blog (expand)&#45;&gt;[root] var.preview_blog_domain_name</title>
<path fill="none" stroke="black" d="M570,-71.7C570,-63.98 570,-54.71 570,-46.11"/>
<polygon fill="black" stroke="black" points="573.5,-46.1 570,-36.1 566.5,-46.1 573.5,-46.1"/>
</g>
<!-- [root] aws_s3_bucket_acl.blog (expand) -->
<g id="node8" class="node">
<title>[root] aws_s3_bucket_acl.blog (expand)</title>
<polygon fill="none" stroke="black" points="453.5,-180 304.5,-180 304.5,-144 453.5,-144 453.5,-180"/>
<text text-anchor="middle" x="379" y="-158.3" font-family="Times,serif" font-size="14.00">aws_s3_bucket_acl.blog</text>
</g>
<!-- [root] aws_s3_bucket_acl.blog (expand)&#45;&gt;[root] aws_s3_bucket.blog (expand) -->
<g id="edge15" class="edge">
<title>[root] aws_s3_bucket_acl.blog (expand)&#45;&gt;[root] aws_s3_bucket.blog (expand)</title>
<path fill="none" stroke="black" d="M379,-143.7C379,-135.98 379,-126.71 379,-118.11"/>
<polygon fill="black" stroke="black" points="382.5,-118.1 379,-108.1 375.5,-118.1 382.5,-118.1"/>
</g>
<!-- [root] aws_s3_bucket_acl.preview_blog (expand) -->
<g id="node9" class="node">
<title>[root] aws_s3_bucket_acl.preview_blog (expand)</title>
<polygon fill="none" stroke="black" points="542,-252 342,-252 342,-216 542,-216 542,-252"/>
<text text-anchor="middle" x="442" y="-230.3" font-family="Times,serif" font-size="14.00">aws_s3_bucket_acl.preview_blog</text>
</g>
<!-- [root] aws_s3_bucket_acl.preview_blog (expand)&#45;&gt;[root] aws_s3_bucket.preview_blog (expand) -->
<g id="edge16" class="edge">
<title>[root] aws_s3_bucket_acl.preview_blog (expand)&#45;&gt;[root] aws_s3_bucket.preview_blog (expand)</title>
<path fill="none" stroke="black" d="M457.44,-215.87C479.93,-190.92 521.82,-144.45 547.67,-115.77"/>
<polygon fill="black" stroke="black" points="550.41,-117.96 554.51,-108.19 545.21,-113.27 550.41,-117.96"/>
</g>
<!-- [root] aws_s3_bucket_policy.blog_access_policy (expand) -->
<g id="node10" class="node">
<title>[root] aws_s3_bucket_policy.blog_access_policy (expand)</title>
<polygon fill="none" stroke="black" points="248,-180 0,-180 0,-144 248,-144 248,-180"/>
<text text-anchor="middle" x="124" y="-158.3" font-family="Times,serif" font-size="14.00">aws_s3_bucket_policy.blog_access_policy</text>
</g>
<!-- [root] aws_s3_bucket_policy.blog_access_policy (expand)&#45;&gt;[root] aws_s3_bucket.blog (expand) -->
<g id="edge17" class="edge">
<title>[root] aws_s3_bucket_policy.blog_access_policy (expand)&#45;&gt;[root] aws_s3_bucket.blog (expand)</title>
<path fill="none" stroke="black" d="M186.05,-143.97C222.46,-133.97 268.63,-121.3 306.68,-110.85"/>
<polygon fill="black" stroke="black" points="307.95,-114.13 316.67,-108.11 306.1,-107.38 307.95,-114.13"/>
</g>
<!-- [root] aws_s3_bucket_policy.preview_blog_access_policy (expand) -->
<g id="node11" class="node">
<title>[root] aws_s3_bucket_policy.preview_blog_access_policy (expand)</title>
<polygon fill="none" stroke="black" points="753.5,-324 454.5,-324 454.5,-288 753.5,-288 753.5,-324"/>
<text text-anchor="middle" x="604" y="-302.3" font-family="Times,serif" font-size="14.00">aws_s3_bucket_policy.preview_blog_access_policy</text>
</g>
<!-- [root] aws_s3_bucket_policy.preview_blog_access_policy (expand)&#45;&gt;[root] aws_s3_bucket.preview_blog (expand) -->
<g id="edge18" class="edge">
<title>[root] aws_s3_bucket_policy.preview_blog_access_policy (expand)&#45;&gt;[root] aws_s3_bucket.preview_blog (expand)</title>
<path fill="none" stroke="black" d="M598.44,-287.98C595.26,-277.67 591.43,-264.19 589,-252 579.71,-205.38 574.41,-150.19 571.88,-118.04"/>
<polygon fill="black" stroke="black" points="575.37,-117.77 571.12,-108.06 568.39,-118.3 575.37,-117.77"/>
</g>
<!-- [root] aws_s3_bucket_versioning.blog (expand) -->
<g id="node12" class="node">
<title>[root] aws_s3_bucket_versioning.blog (expand)</title>
<polygon fill="none" stroke="black" points="343.5,-324 152.5,-324 152.5,-288 343.5,-288 343.5,-324"/>
<text text-anchor="middle" x="248" y="-302.3" font-family="Times,serif" font-size="14.00">aws_s3_bucket_versioning.blog</text>
</g>
<!-- [root] aws_s3_bucket_versioning.blog (expand)&#45;&gt;[root] aws_s3_bucket.blog (expand) -->
<g id="edge19" class="edge">
<title>[root] aws_s3_bucket_versioning.blog (expand)&#45;&gt;[root] aws_s3_bucket.blog (expand)</title>
<path fill="none" stroke="black" d="M249.08,-287.72C251.84,-256.17 261.52,-188.41 295,-144 304.45,-131.46 317.81,-121.14 331.09,-113.04"/>
<polygon fill="black" stroke="black" points="332.85,-116.06 339.77,-108.04 329.36,-110 332.85,-116.06"/>
</g>
<!-- [root] aws_s3_bucket_versioning.preview_blog (expand) -->
<g id="node13" class="node">
<title>[root] aws_s3_bucket_versioning.preview_blog (expand)</title>
<polygon fill="none" stroke="black" points="839.5,-252 598.5,-252 598.5,-216 839.5,-216 839.5,-252"/>
<text text-anchor="middle" x="719" y="-230.3" font-family="Times,serif" font-size="14.00">aws_s3_bucket_versioning.preview_blog</text>
</g>
<!-- [root] aws_s3_bucket_versioning.preview_blog (expand)&#45;&gt;[root] aws_s3_bucket.preview_blog (expand) -->
<g id="edge20" class="edge">
<title>[root] aws_s3_bucket_versioning.preview_blog (expand)&#45;&gt;[root] aws_s3_bucket.preview_blog (expand)</title>
<path fill="none" stroke="black" d="M679.97,-215.79C662.46,-206.81 642.34,-194.63 627,-180 608.03,-161.9 592.48,-136.29 582.45,-117.18"/>
<polygon fill="black" stroke="black" points="585.49,-115.45 577.84,-108.12 579.25,-118.62 585.49,-115.45"/>
</g>
<!-- [root] aws_s3_bucket_website_configuration.blog (expand)&#45;&gt;[root] aws_s3_bucket.blog (expand) -->
<g id="edge21" class="edge">
<title>[root] aws_s3_bucket_website_configuration.blog (expand)&#45;&gt;[root] aws_s3_bucket.blog (expand)</title>
<path fill="none" stroke="black" d="M853.96,-145.01C850.95,-144.66 847.96,-144.33 845,-144 679.46,-125.67 636.95,-130.99 472,-108 465.76,-107.13 459.3,-106.14 452.82,-105.08"/>
<polygon fill="black" stroke="black" points="453.11,-101.58 442.67,-103.38 451.95,-108.48 453.11,-101.58"/>
</g>
<!-- [root] aws_s3_bucket_website_configuration.preview_blog (expand)&#45;&gt;[root] aws_s3_bucket.preview_blog (expand) -->
<g id="edge22" class="edge">
<title>[root] aws_s3_bucket_website_configuration.preview_blog (expand)&#45;&gt;[root] aws_s3_bucket.preview_blog (expand)</title>
<path fill="none" stroke="black" d="M1126.38,-144.95C1123.22,-144.63 1120.1,-144.31 1117,-144 960.28,-128.18 778.2,-110.73 668.65,-100.32"/>
<polygon fill="black" stroke="black" points="668.89,-96.83 658.6,-99.37 668.23,-103.8 668.89,-96.83"/>
</g>
<!-- [root] provider[&quot;terraform.io/builtin/terraform&quot;] -->
<g id="node18" class="node">
<title>[root] provider[&quot;terraform.io/builtin/terraform&quot;]</title>
<polygon fill="none" stroke="black" points="1800,-108 1575.95,-90 1800,-72 2024.05,-90 1800,-108"/>
<text text-anchor="middle" x="1800" y="-86.3" font-family="Times,serif" font-size="14.00">provider[&quot;terraform.io/builtin/terraform&quot;]</text>
</g>
<!-- [root] data.terraform_remote_state.rockygray_com (expand)&#45;&gt;[root] provider[&quot;terraform.io/builtin/terraform&quot;] -->
<g id="edge23" class="edge">
<title>[root] data.terraform_remote_state.rockygray_com (expand)&#45;&gt;[root] provider[&quot;terraform.io/builtin/terraform&quot;]</title>
<path fill="none" stroke="black" d="M1800,-143.7C1800,-135.98 1800,-126.71 1800,-118.11"/>
<polygon fill="black" stroke="black" points="1803.5,-118.1 1800,-108.1 1796.5,-118.1 1803.5,-118.1"/>
</g>
<!-- [root] output.cloudfront_url (expand) -->
<g id="node22" class="node">
<title>[root] output.cloudfront_url (expand)</title>
<ellipse fill="none" stroke="black" cx="1565" cy="-306" rx="142.17" ry="18"/>
<text text-anchor="middle" x="1565" y="-302.3" font-family="Times,serif" font-size="14.00">[root] output.cloudfront_url (expand)</text>
</g>
<!-- [root] output.cloudfront_url (expand)&#45;&gt;[root] aws_cloudfront_distribution.blog_distribution (expand) -->
<g id="edge24" class="edge">
<title>[root] output.cloudfront_url (expand)&#45;&gt;[root] aws_cloudfront_distribution.blog_distribution (expand)</title>
<path fill="none" stroke="black" d="M1568.21,-287.7C1569.65,-279.98 1571.37,-270.71 1572.96,-262.11"/>
<polygon fill="black" stroke="black" points="1576.44,-262.58 1574.82,-252.1 1569.56,-261.3 1576.44,-262.58"/>
</g>
<!-- [root] output.cloudfront_url (expand)&#45;&gt;[root] aws_cloudfront_distribution.preview_blog_distribution (expand) -->
<g id="edge25" class="edge">
<title>[root] output.cloudfront_url (expand)&#45;&gt;[root] aws_cloudfront_distribution.preview_blog_distribution (expand)</title>
<path fill="none" stroke="black" d="M1633.5,-290.15C1681.86,-279.67 1747.11,-265.53 1799.43,-254.2"/>
<polygon fill="black" stroke="black" points="1800.34,-257.58 1809.37,-252.04 1798.86,-250.74 1800.34,-257.58"/>
</g>
<!-- [root] output.cloudfront_www_id (expand) -->
<g id="node23" class="node">
<title>[root] output.cloudfront_www_id (expand)</title>
<ellipse fill="none" stroke="black" cx="1888" cy="-306" rx="163.27" ry="18"/>
<text text-anchor="middle" x="1888" y="-302.3" font-family="Times,serif" font-size="14.00">[root] output.cloudfront_www_id (expand)</text>
</g>
<!-- [root] output.cloudfront_www_id (expand)&#45;&gt;[root] aws_cloudfront_distribution.blog_distribution (expand) -->
<g id="edge26" class="edge">
<title>[root] output.cloudfront_www_id (expand)&#45;&gt;[root] aws_cloudfront_distribution.blog_distribution (expand)</title>
<path fill="none" stroke="black" d="M1819.97,-289.64C1773.95,-279.25 1712.8,-265.44 1663.5,-254.31"/>
<polygon fill="black" stroke="black" points="1664.01,-250.83 1653.48,-252.04 1662.46,-257.66 1664.01,-250.83"/>
</g>
<!-- [root] output.cloudfront_www_id (expand)&#45;&gt;[root] aws_cloudfront_distribution.preview_blog_distribution (expand) -->
<g id="edge27" class="edge">
<title>[root] output.cloudfront_www_id (expand)&#45;&gt;[root] aws_cloudfront_distribution.preview_blog_distribution (expand)</title>
<path fill="none" stroke="black" d="M1888,-287.7C1888,-279.98 1888,-270.71 1888,-262.11"/>
<polygon fill="black" stroke="black" points="1891.5,-262.1 1888,-252.1 1884.5,-262.1 1891.5,-262.1"/>
</g>
<!-- [root] output.s3_website_url (expand) -->
<g id="node24" class="node">
<title>[root] output.s3_website_url (expand)</title>
<ellipse fill="none" stroke="black" cx="1002" cy="-234" rx="144.87" ry="18"/>
<text text-anchor="middle" x="1002" y="-230.3" font-family="Times,serif" font-size="14.00">[root] output.s3_website_url (expand)</text>
</g>
<!-- [root] output.s3_website_url (expand)&#45;&gt;[root] aws_s3_bucket_website_configuration.blog (expand) -->
<g id="edge28" class="edge">
<title>[root] output.s3_website_url (expand)&#45;&gt;[root] aws_s3_bucket_website_configuration.blog (expand)</title>
<path fill="none" stroke="black" d="M996.81,-215.7C994.47,-207.9 991.65,-198.51 989.05,-189.83"/>
<polygon fill="black" stroke="black" points="992.36,-188.68 986.13,-180.1 985.65,-190.69 992.36,-188.68"/>
</g>
<!-- [root] output.s3_website_url (expand)&#45;&gt;[root] aws_s3_bucket_website_configuration.preview_blog (expand) -->
<g id="edge29" class="edge">
<title>[root] output.s3_website_url (expand)&#45;&gt;[root] aws_s3_bucket_website_configuration.preview_blog (expand)</title>
<path fill="none" stroke="black" d="M1062.79,-217.64C1103.65,-207.31 1157.86,-193.61 1201.78,-182.51"/>
<polygon fill="black" stroke="black" points="1202.72,-185.89 1211.55,-180.04 1201,-179.1 1202.72,-185.89"/>
</g>
<!-- [root] output.site_url (expand) -->
<g id="node25" class="node">
<title>[root] output.site_url (expand)</title>
<ellipse fill="none" stroke="black" cx="1302" cy="-378" rx="118.08" ry="18"/>
<text text-anchor="middle" x="1302" y="-374.3" font-family="Times,serif" font-size="14.00">[root] output.site_url (expand)</text>
</g>
<!-- [root] output.site_url (expand)&#45;&gt;[root] aws_route53_record.blog (expand) -->
<g id="edge30" class="edge">
<title>[root] output.site_url (expand)&#45;&gt;[root] aws_route53_record.blog (expand)</title>
<path fill="none" stroke="black" d="M1257.56,-361.29C1229.27,-351.29 1192.33,-338.23 1161.77,-327.43"/>
<polygon fill="black" stroke="black" points="1162.69,-324.04 1152.1,-324 1160.36,-330.64 1162.69,-324.04"/>
</g>
<!-- [root] output.site_url (expand)&#45;&gt;[root] aws_route53_record.preview_blog (expand) -->
<g id="edge31" class="edge">
<title>[root] output.site_url (expand)&#45;&gt;[root] aws_route53_record.preview_blog (expand)</title>
<path fill="none" stroke="black" d="M1302,-359.7C1302,-351.98 1302,-342.71 1302,-334.11"/>
<polygon fill="black" stroke="black" points="1305.5,-334.1 1302,-324.1 1298.5,-334.1 1305.5,-334.1"/>
</g>
<!-- [root] provider[&quot;registry.terraform.io/hashicorp/aws&quot;] (close) -->
<g id="node26" class="node">
<title>[root] provider[&quot;registry.terraform.io/hashicorp/aws&quot;] (close)</title>
<ellipse fill="none" stroke="black" cx="682" cy="-378" rx="227.46" ry="18"/>
<text text-anchor="middle" x="682" y="-374.3" font-family="Times,serif" font-size="14.00">[root] provider[&quot;registry.terraform.io/hashicorp/aws&quot;] (close)</text>
</g>
<!-- [root] provider[&quot;registry.terraform.io/hashicorp/aws&quot;] (close)&#45;&gt;[root] aws_route53_record.blog (expand) -->
<g id="edge32" class="edge">
<title>[root] provider[&quot;registry.terraform.io/hashicorp/aws&quot;] (close)&#45;&gt;[root] aws_route53_record.blog (expand)</title>
<path fill="none" stroke="black" d="M775.13,-361.55C846.97,-349.64 945.63,-333.27 1016.11,-321.58"/>
<polygon fill="black" stroke="black" points="1017.01,-324.98 1026.3,-319.89 1015.86,-318.07 1017.01,-324.98"/>
</g>
<!-- [root] provider[&quot;registry.terraform.io/hashicorp/aws&quot;] (close)&#45;&gt;[root] aws_route53_record.google_site_verification (expand) -->
<g id="edge33" class="edge">
<title>[root] provider[&quot;registry.terraform.io/hashicorp/aws&quot;] (close)&#45;&gt;[root] aws_route53_record.google_site_verification (expand)</title>
<path fill="none" stroke="black" d="M739.07,-360.57C805.67,-341.7 919.29,-310.45 1018,-288 1073.58,-275.36 1135.88,-263.29 1187.39,-253.87"/>
<polygon fill="black" stroke="black" points="1188.34,-257.26 1197.55,-252.02 1187.08,-250.37 1188.34,-257.26"/>
</g>
<!-- [root] provider[&quot;registry.terraform.io/hashicorp/aws&quot;] (close)&#45;&gt;[root] aws_route53_record.preview_blog (expand) -->
<g id="edge34" class="edge">
<title>[root] provider[&quot;registry.terraform.io/hashicorp/aws&quot;] (close)&#45;&gt;[root] aws_route53_record.preview_blog (expand)</title>
<path fill="none" stroke="black" d="M824.82,-363.99C924.38,-354.47 1060.51,-340.59 1189.18,-324.21"/>
<polygon fill="black" stroke="black" points="1189.74,-327.66 1199.22,-322.92 1188.85,-320.72 1189.74,-327.66"/>
</g>
<!-- [root] provider[&quot;registry.terraform.io/hashicorp/aws&quot;] (close)&#45;&gt;[root] aws_s3_bucket_acl.blog (expand) -->
<g id="edge35" class="edge">
<title>[root] provider[&quot;registry.terraform.io/hashicorp/aws&quot;] (close)&#45;&gt;[root] aws_s3_bucket_acl.blog (expand)</title>
<path fill="none" stroke="black" d="M562.33,-362.68C519.32,-354.75 471.28,-342.58 430,-324 381.04,-301.96 357.13,-299.96 333,-252 325.81,-237.71 327.4,-230.99 333,-216 336.88,-205.62 343.8,-195.93 351.12,-187.74"/>
<polygon fill="black" stroke="black" points="353.78,-190.03 358.18,-180.38 348.73,-185.18 353.78,-190.03"/>
</g>
<!-- [root] provider[&quot;registry.terraform.io/hashicorp/aws&quot;] (close)&#45;&gt;[root] aws_s3_bucket_acl.preview_blog (expand) -->
<g id="edge36" class="edge">
<title>[root] provider[&quot;registry.terraform.io/hashicorp/aws&quot;] (close)&#45;&gt;[root] aws_s3_bucket_acl.preview_blog (expand)</title>
<path fill="none" stroke="black" d="M556.67,-362.97C507.95,-354.76 460.17,-342.3 445,-324 431.01,-307.13 431.6,-281.65 434.9,-262.28"/>
<polygon fill="black" stroke="black" points="438.38,-262.73 436.94,-252.23 431.52,-261.33 438.38,-262.73"/>
</g>
<!-- [root] provider[&quot;registry.terraform.io/hashicorp/aws&quot;] (close)&#45;&gt;[root] aws_s3_bucket_policy.blog_access_policy (expand) -->
<g id="edge37" class="edge">
<title>[root] provider[&quot;registry.terraform.io/hashicorp/aws&quot;] (close)&#45;&gt;[root] aws_s3_bucket_policy.blog_access_policy (expand)</title>
<path fill="none" stroke="black" d="M482.18,-369.34C339.08,-361.87 167.48,-348.01 143,-324 107.67,-289.35 111.91,-226.36 118.03,-190.3"/>
<polygon fill="black" stroke="black" points="121.55,-190.5 119.94,-180.03 114.67,-189.22 121.55,-190.5"/>
</g>
<!-- [root] provider[&quot;registry.terraform.io/hashicorp/aws&quot;] (close)&#45;&gt;[root] aws_s3_bucket_policy.preview_blog_access_policy (expand) -->
<g id="edge38" class="edge">
<title>[root] provider[&quot;registry.terraform.io/hashicorp/aws&quot;] (close)&#45;&gt;[root] aws_s3_bucket_policy.preview_blog_access_policy (expand)</title>
<path fill="none" stroke="black" d="M663.12,-360.05C653.32,-351.26 641.19,-340.38 630.48,-330.76"/>
<polygon fill="black" stroke="black" points="632.76,-328.11 622.98,-324.03 628.08,-333.32 632.76,-328.11"/>
</g>
<!-- [root] provider[&quot;registry.terraform.io/hashicorp/aws&quot;] (close)&#45;&gt;[root] aws_s3_bucket_versioning.blog (expand) -->
<g id="edge39" class="edge">
<title>[root] provider[&quot;registry.terraform.io/hashicorp/aws&quot;] (close)&#45;&gt;[root] aws_s3_bucket_versioning.blog (expand)</title>
<path fill="none" stroke="black" d="M586.76,-361.64C517.88,-350.53 424.82,-335.52 353.66,-324.04"/>
<polygon fill="black" stroke="black" points="354.2,-320.58 343.77,-322.45 353.08,-327.49 354.2,-320.58"/>
</g>
<!-- [root] provider[&quot;registry.terraform.io/hashicorp/aws&quot;] (close)&#45;&gt;[root] aws_s3_bucket_versioning.preview_blog (expand) -->
<g id="edge40" class="edge">
<title>[root] provider[&quot;registry.terraform.io/hashicorp/aws&quot;] (close)&#45;&gt;[root] aws_s3_bucket_versioning.preview_blog (expand)</title>
<path fill="none" stroke="black" d="M722.76,-360.23C737.92,-351.76 753.49,-339.85 762,-324 773.41,-302.76 759.34,-278.03 744.33,-260.04"/>
<polygon fill="black" stroke="black" points="746.71,-257.44 737.46,-252.28 741.47,-262.09 746.71,-257.44"/>
</g>
<!-- [root] provider[&quot;terraform.io/builtin/terraform&quot;] (close) -->
<g id="node27" class="node">
<title>[root] provider[&quot;terraform.io/builtin/terraform&quot;] (close)</title>
<ellipse fill="none" stroke="black" cx="2004" cy="-378" rx="207.16" ry="18"/>
<text text-anchor="middle" x="2004" y="-374.3" font-family="Times,serif" font-size="14.00">[root] provider[&quot;terraform.io/builtin/terraform&quot;] (close)</text>
</g>
<!-- [root] provider[&quot;terraform.io/builtin/terraform&quot;] (close)&#45;&gt;[root] data.terraform_remote_state.rockygray_com (expand) -->
<g id="edge41" class="edge">
<title>[root] provider[&quot;terraform.io/builtin/terraform&quot;] (close)&#45;&gt;[root] data.terraform_remote_state.rockygray_com (expand)</title>
<path fill="none" stroke="black" d="M2029.83,-360.05C2041.37,-350.9 2053.76,-338.51 2060,-324 2067.97,-305.49 2065.73,-227.3 2056,-216 2039.86,-197.26 1991.06,-184.87 1940.34,-176.82"/>
<polygon fill="black" stroke="black" points="1940.6,-173.32 1930.18,-175.27 1939.54,-180.24 1940.6,-173.32"/>
</g>
<!-- [root] root -->
<g id="node28" class="node">
<title>[root] root</title>
<ellipse fill="none" stroke="black" cx="1375" cy="-450" rx="47.39" ry="18"/>
<text text-anchor="middle" x="1375" y="-446.3" font-family="Times,serif" font-size="14.00">[root] root</text>
</g>
<!-- [root] root&#45;&gt;[root] output.cloudfront_url (expand) -->
<g id="edge42" class="edge">
<title>[root] root&#45;&gt;[root] output.cloudfront_url (expand)</title>
<path fill="none" stroke="black" d="M1395.7,-433.53C1429.05,-408.61 1494.89,-359.4 1533.91,-330.24"/>
<polygon fill="black" stroke="black" points="1536.36,-332.78 1542.27,-323.99 1532.17,-327.17 1536.36,-332.78"/>
</g>
<!-- [root] root&#45;&gt;[root] output.cloudfront_www_id (expand) -->
<g id="edge43" class="edge">
<title>[root] root&#45;&gt;[root] output.cloudfront_www_id (expand)</title>
<path fill="none" stroke="black" d="M1412.31,-438.67C1498.28,-414.88 1711.31,-355.91 1820.75,-325.62"/>
<polygon fill="black" stroke="black" points="1821.98,-328.91 1830.69,-322.86 1820.12,-322.16 1821.98,-328.91"/>
</g>
<!-- [root] root&#45;&gt;[root] output.s3_website_url (expand) -->
<g id="edge44" class="edge">
<title>[root] root&#45;&gt;[root] output.s3_website_url (expand)</title>
<path fill="none" stroke="black" d="M1327.89,-447.83C1249.46,-443.08 1093.33,-421.19 1018,-324 1004.51,-306.6 1001,-281.55 1000.58,-262.46"/>
<polygon fill="black" stroke="black" points="1004.08,-262.3 1000.63,-252.28 997.08,-262.26 1004.08,-262.3"/>
</g>
<!-- [root] root&#45;&gt;[root] output.site_url (expand) -->
<g id="edge45" class="edge">
<title>[root] root&#45;&gt;[root] output.site_url (expand)</title>
<path fill="none" stroke="black" d="M1358.44,-433.12C1349.16,-424.22 1337.41,-412.95 1327.03,-403"/>
<polygon fill="black" stroke="black" points="1329.41,-400.44 1319.77,-396.04 1324.57,-405.49 1329.41,-400.44"/>
</g>
<!-- [root] root&#45;&gt;[root] provider[&quot;registry.terraform.io/hashicorp/aws&quot;] (close) -->
<g id="edge46" class="edge">
<title>[root] root&#45;&gt;[root] provider[&quot;registry.terraform.io/hashicorp/aws&quot;] (close)</title>
<path fill="none" stroke="black" d="M1329.8,-444.43C1229.52,-434.31 984.81,-409.59 826.52,-393.6"/>
<polygon fill="black" stroke="black" points="826.52,-390.08 816.22,-392.56 825.81,-397.04 826.52,-390.08"/>
</g>
<!-- [root] root&#45;&gt;[root] provider[&quot;terraform.io/builtin/terraform&quot;] (close) -->
<g id="edge47" class="edge">
<title>[root] root&#45;&gt;[root] provider[&quot;terraform.io/builtin/terraform&quot;] (close)</title>
<path fill="none" stroke="black" d="M1419.98,-443.99C1513.14,-433.63 1730.26,-409.46 1871.92,-393.7"/>
<polygon fill="black" stroke="black" points="1872.44,-397.16 1881.99,-392.58 1871.66,-390.21 1872.44,-397.16"/>
</g>
</g>
</svg>
