<?xml version="1.0" encoding="UTF-8" standalone="no"?>
<!DOCTYPE svg PUBLIC "-//W3C//DTD SVG 1.1//EN"
 "http://www.w3.org/Graphics/SVG/1.1/DTD/svg11.dtd">
<!-- Generated by graphviz version 2.44.0 (20200408.0750)
 -->
<!-- Pages: 1 -->
<svg width="997pt" height="476pt"
 viewBox="0.00 0.00 996.50 476.00" xmlns="http://www.w3.org/2000/svg" xmlns:xlink="http://www.w3.org/1999/xlink">
<g id="graph0" class="graph" transform="scale(1 1) rotate(0) translate(4 472)">
<polygon fill="white" stroke="transparent" points="-4,4 -4,-472 992.5,-472 992.5,4 -4,4"/>
<!-- [root] aws_cloudfront_distribution.blog_distribution -->
<g id="node1" class="node">
<title>[root] aws_cloudfront_distribution.blog_distribution</title>
<polygon fill="none" stroke="black" points="442.5,-180 176.5,-180 176.5,-144 442.5,-144 442.5,-180"/>
<text text-anchor="middle" x="309.5" y="-158.3" font-family="Times,serif" font-size="14.00">aws_cloudfront_distribution.blog_distribution</text>
</g>
<!-- [root] aws_s3_bucket.blog -->
<g id="node4" class="node">
<title>[root] aws_s3_bucket.blog</title>
<polygon fill="none" stroke="black" points="373,-108 246,-108 246,-72 373,-72 373,-108"/>
<text text-anchor="middle" x="309.5" y="-86.3" font-family="Times,serif" font-size="14.00">aws_s3_bucket.blog</text>
</g>
<!-- [root] aws_cloudfront_distribution.blog_distribution&#45;&gt;[root] aws_s3_bucket.blog -->
<g id="edge1" class="edge">
<title>[root] aws_cloudfront_distribution.blog_distribution&#45;&gt;[root] aws_s3_bucket.blog</title>
<path fill="none" stroke="black" d="M309.5,-143.7C309.5,-135.98 309.5,-126.71 309.5,-118.11"/>
<polygon fill="black" stroke="black" points="313,-118.1 309.5,-108.1 306,-118.1 313,-118.1"/>
</g>
<!-- [root] data.terraform_remote_state.rockygray_com -->
<g id="node5" class="node">
<title>[root] data.terraform_remote_state.rockygray_com</title>
<polygon fill="none" stroke="black" points="988.5,-108 728.5,-108 728.5,-72 988.5,-72 988.5,-108"/>
<text text-anchor="middle" x="858.5" y="-86.3" font-family="Times,serif" font-size="14.00">data.terraform_remote_state.rockygray_com</text>
</g>
<!-- [root] aws_cloudfront_distribution.blog_distribution&#45;&gt;[root] data.terraform_remote_state.rockygray_com -->
<g id="edge2" class="edge">
<title>[root] aws_cloudfront_distribution.blog_distribution&#45;&gt;[root] data.terraform_remote_state.rockygray_com</title>
<path fill="none" stroke="black" d="M442.75,-144.01C526.24,-133.36 633.7,-119.66 718.45,-108.86"/>
<polygon fill="black" stroke="black" points="718.93,-112.32 728.41,-107.59 718.05,-105.38 718.93,-112.32"/>
</g>
<!-- [root] aws_route53_record.blog -->
<g id="node2" class="node">
<title>[root] aws_route53_record.blog</title>
<polygon fill="none" stroke="black" points="559,-252 404,-252 404,-216 559,-216 559,-252"/>
<text text-anchor="middle" x="481.5" y="-230.3" font-family="Times,serif" font-size="14.00">aws_route53_record.blog</text>
</g>
<!-- [root] aws_route53_record.blog&#45;&gt;[root] aws_cloudfront_distribution.blog_distribution -->
<g id="edge3" class="edge">
<title>[root] aws_route53_record.blog&#45;&gt;[root] aws_cloudfront_distribution.blog_distribution</title>
<path fill="none" stroke="black" d="M439.42,-215.88C415.7,-206.22 385.88,-194.09 360.8,-183.88"/>
<polygon fill="black" stroke="black" points="362.02,-180.6 351.44,-180.07 359.38,-187.08 362.02,-180.6"/>
</g>
<!-- [root] aws_route53_record.google_site_verification -->
<g id="node3" class="node">
<title>[root] aws_route53_record.google_site_verification</title>
<polygon fill="none" stroke="black" points="838,-252 577,-252 577,-216 838,-216 838,-252"/>
<text text-anchor="middle" x="707.5" y="-230.3" font-family="Times,serif" font-size="14.00">aws_route53_record.google_site_verification</text>
</g>
<!-- [root] aws_route53_record.google_site_verification&#45;&gt;[root] data.terraform_remote_state.rockygray_com -->
<g id="edge4" class="edge">
<title>[root] aws_route53_record.google_site_verification&#45;&gt;[root] data.terraform_remote_state.rockygray_com</title>
<path fill="none" stroke="black" d="M725.71,-215.87C752.47,-190.71 802.51,-143.65 832.93,-115.04"/>
<polygon fill="black" stroke="black" points="835.33,-117.59 840.22,-108.19 830.54,-112.49 835.33,-117.59"/>
</g>
<!-- [root] provider.aws -->
<g id="node10" class="node">
<title>[root] provider.aws</title>
<polygon fill="none" stroke="black" points="566.5,-36 487.4,-18 566.5,0 645.6,-18 566.5,-36"/>
<text text-anchor="middle" x="566.5" y="-14.3" font-family="Times,serif" font-size="14.00">provider.aws</text>
</g>
<!-- [root] aws_route53_record.google_site_verification&#45;&gt;[root] provider.aws -->
<g id="edge5" class="edge">
<title>[root] aws_route53_record.google_site_verification&#45;&gt;[root] provider.aws</title>
<path fill="none" stroke="black" d="M704.87,-215.69C701.5,-197.05 694.48,-166.99 681.5,-144 657.59,-101.65 616.75,-61.98 590.72,-39.12"/>
<polygon fill="black" stroke="black" points="593.01,-36.47 583.16,-32.58 588.43,-41.77 593.01,-36.47"/>
</g>
<!-- [root] var.google_site_verification_code -->
<g id="node13" class="node">
<title>[root] var.google_site_verification_code</title>
<polygon fill="none" stroke="black" points="666.5,-180 472.5,-180 472.5,-144 672.5,-144 672.5,-174 666.5,-180"/>
<polyline fill="none" stroke="black" points="666.5,-180 666.5,-174 "/>
<polyline fill="none" stroke="black" points="672.5,-174 666.5,-174 "/>
<text text-anchor="middle" x="572.5" y="-158.3" font-family="Times,serif" font-size="14.00">var.google_site_verification_code</text>
</g>
<!-- [root] aws_route53_record.google_site_verification&#45;&gt;[root] var.google_site_verification_code -->
<g id="edge6" class="edge">
<title>[root] aws_route53_record.google_site_verification&#45;&gt;[root] var.google_site_verification_code</title>
<path fill="none" stroke="black" d="M674.48,-215.88C656.42,-206.51 633.85,-194.81 614.55,-184.8"/>
<polygon fill="black" stroke="black" points="616.14,-181.69 605.65,-180.19 612.92,-187.9 616.14,-181.69"/>
</g>
<!-- [root] aws_s3_bucket.blog&#45;&gt;[root] provider.aws -->
<g id="edge7" class="edge">
<title>[root] aws_s3_bucket.blog&#45;&gt;[root] provider.aws</title>
<path fill="none" stroke="black" d="M372.04,-71.97C418.57,-59.29 480.94,-42.31 522.35,-31.02"/>
<polygon fill="black" stroke="black" points="523.42,-34.36 532.15,-28.36 521.58,-27.61 523.42,-34.36"/>
</g>
<!-- [root] var.blog_domain_name -->
<g id="node12" class="node">
<title>[root] var.blog_domain_name</title>
<polygon fill="none" stroke="black" points="376.5,-36 236.5,-36 236.5,0 382.5,0 382.5,-30 376.5,-36"/>
<polyline fill="none" stroke="black" points="376.5,-36 376.5,-30 "/>
<polyline fill="none" stroke="black" points="382.5,-30 376.5,-30 "/>
<text text-anchor="middle" x="309.5" y="-14.3" font-family="Times,serif" font-size="14.00">var.blog_domain_name</text>
</g>
<!-- [root] aws_s3_bucket.blog&#45;&gt;[root] var.blog_domain_name -->
<g id="edge8" class="edge">
<title>[root] aws_s3_bucket.blog&#45;&gt;[root] var.blog_domain_name</title>
<path fill="none" stroke="black" d="M309.5,-71.7C309.5,-63.98 309.5,-54.71 309.5,-46.11"/>
<polygon fill="black" stroke="black" points="313,-46.1 309.5,-36.1 306,-46.1 313,-46.1"/>
</g>
<!-- [root] provider.terraform -->
<g id="node11" class="node">
<title>[root] provider.terraform</title>
<polygon fill="none" stroke="black" points="858.5,-36 750.92,-18 858.5,0 966.08,-18 858.5,-36"/>
<text text-anchor="middle" x="858.5" y="-14.3" font-family="Times,serif" font-size="14.00">provider.terraform</text>
</g>
<!-- [root] data.terraform_remote_state.rockygray_com&#45;&gt;[root] provider.terraform -->
<g id="edge9" class="edge">
<title>[root] data.terraform_remote_state.rockygray_com&#45;&gt;[root] provider.terraform</title>
<path fill="none" stroke="black" d="M858.5,-71.7C858.5,-63.98 858.5,-54.71 858.5,-46.11"/>
<polygon fill="black" stroke="black" points="862,-46.1 858.5,-36.1 855,-46.1 862,-46.1"/>
</g>
<!-- [root] output.cloudfront_url -->
<g id="node6" class="node">
<title>[root] output.cloudfront_url</title>
<polygon fill="none" stroke="black" points="197,-252 70,-252 70,-216 203,-216 203,-246 197,-252"/>
<polyline fill="none" stroke="black" points="197,-252 197,-246 "/>
<polyline fill="none" stroke="black" points="203,-246 197,-246 "/>
<text text-anchor="middle" x="136.5" y="-230.3" font-family="Times,serif" font-size="14.00">output.cloudfront_url</text>
</g>
<!-- [root] output.cloudfront_url&#45;&gt;[root] aws_cloudfront_distribution.blog_distribution -->
<g id="edge15" class="edge">
<title>[root] output.cloudfront_url&#45;&gt;[root] aws_cloudfront_distribution.blog_distribution</title>
<path fill="none" stroke="black" d="M178.82,-215.88C202.68,-206.22 232.67,-194.09 257.9,-183.88"/>
<polygon fill="black" stroke="black" points="259.36,-187.06 267.32,-180.07 256.73,-180.57 259.36,-187.06"/>
</g>
<!-- [root] output.cloudfront_www_id -->
<g id="node7" class="node">
<title>[root] output.cloudfront_www_id</title>
<polygon fill="none" stroke="black" points="379.5,-252 221.5,-252 221.5,-216 385.5,-216 385.5,-246 379.5,-252"/>
<polyline fill="none" stroke="black" points="379.5,-252 379.5,-246 "/>
<polyline fill="none" stroke="black" points="385.5,-246 379.5,-246 "/>
<text text-anchor="middle" x="303.5" y="-230.3" font-family="Times,serif" font-size="14.00">output.cloudfront_www_id</text>
</g>
<!-- [root] output.cloudfront_www_id&#45;&gt;[root] aws_cloudfront_distribution.blog_distribution -->
<g id="edge16" class="edge">
<title>[root] output.cloudfront_www_id&#45;&gt;[root] aws_cloudfront_distribution.blog_distribution</title>
<path fill="none" stroke="black" d="M304.98,-215.7C305.64,-207.98 306.44,-198.71 307.18,-190.11"/>
<polygon fill="black" stroke="black" points="310.67,-190.37 308.03,-180.1 303.69,-189.77 310.67,-190.37"/>
</g>
<!-- [root] output.s3_website_url -->
<g id="node8" class="node">
<title>[root] output.s3_website_url</title>
<polygon fill="none" stroke="black" points="131,-180 0,-180 0,-144 137,-144 137,-174 131,-180"/>
<polyline fill="none" stroke="black" points="131,-180 131,-174 "/>
<polyline fill="none" stroke="black" points="137,-174 131,-174 "/>
<text text-anchor="middle" x="68.5" y="-158.3" font-family="Times,serif" font-size="14.00">output.s3_website_url</text>
</g>
<!-- [root] output.s3_website_url&#45;&gt;[root] aws_s3_bucket.blog -->
<g id="edge17" class="edge">
<title>[root] output.s3_website_url&#45;&gt;[root] aws_s3_bucket.blog</title>
<path fill="none" stroke="black" d="M127.15,-143.97C161.41,-134.01 204.82,-121.41 240.69,-110.99"/>
<polygon fill="black" stroke="black" points="241.96,-114.26 250.59,-108.11 240.01,-107.54 241.96,-114.26"/>
</g>
<!-- [root] output.site_url -->
<g id="node9" class="node">
<title>[root] output.site_url</title>
<polygon fill="none" stroke="black" points="456,-324 367,-324 367,-288 462,-288 462,-318 456,-324"/>
<polyline fill="none" stroke="black" points="456,-324 456,-318 "/>
<polyline fill="none" stroke="black" points="462,-318 456,-318 "/>
<text text-anchor="middle" x="414.5" y="-302.3" font-family="Times,serif" font-size="14.00">output.site_url</text>
</g>
<!-- [root] output.site_url&#45;&gt;[root] aws_route53_record.blog -->
<g id="edge18" class="edge">
<title>[root] output.site_url&#45;&gt;[root] aws_route53_record.blog</title>
<path fill="none" stroke="black" d="M431.06,-287.7C439.18,-279.22 449.09,-268.86 457.97,-259.58"/>
<polygon fill="black" stroke="black" points="460.74,-261.75 465.13,-252.1 455.69,-256.91 460.74,-261.75"/>
</g>
<!-- [root] meta.count&#45;boundary (EachMode fixup) -->
<g id="node14" class="node">
<title>[root] meta.count&#45;boundary (EachMode fixup)</title>
<ellipse fill="none" stroke="black" cx="376.5" cy="-378" rx="176.27" ry="18"/>
<text text-anchor="middle" x="376.5" y="-374.3" font-family="Times,serif" font-size="14.00">[root] meta.count&#45;boundary (EachMode fixup)</text>
</g>
<!-- [root] meta.count&#45;boundary (EachMode fixup)&#45;&gt;[root] aws_route53_record.google_site_verification -->
<g id="edge10" class="edge">
<title>[root] meta.count&#45;boundary (EachMode fixup)&#45;&gt;[root] aws_route53_record.google_site_verification</title>
<path fill="none" stroke="black" d="M406.58,-360.1C425.04,-349.71 449.16,-336.12 470.5,-324 498.55,-308.08 503.89,-300.78 533.5,-288 563.98,-274.85 598.77,-263.56 629.19,-254.82"/>
<polygon fill="black" stroke="black" points="630.23,-258.17 638.9,-252.08 628.32,-251.43 630.23,-258.17"/>
</g>
<!-- [root] meta.count&#45;boundary (EachMode fixup)&#45;&gt;[root] output.cloudfront_url -->
<g id="edge11" class="edge">
<title>[root] meta.count&#45;boundary (EachMode fixup)&#45;&gt;[root] output.cloudfront_url</title>
<path fill="none" stroke="black" d="M348.03,-360.15C304.75,-334.55 222.37,-285.81 174.18,-257.29"/>
<polygon fill="black" stroke="black" points="175.7,-254.13 165.31,-252.05 172.13,-260.15 175.7,-254.13"/>
</g>
<!-- [root] meta.count&#45;boundary (EachMode fixup)&#45;&gt;[root] output.cloudfront_www_id -->
<g id="edge12" class="edge">
<title>[root] meta.count&#45;boundary (EachMode fixup)&#45;&gt;[root] output.cloudfront_www_id</title>
<path fill="none" stroke="black" d="M367.69,-359.87C355.09,-335.35 331.79,-290.03 317,-261.26"/>
<polygon fill="black" stroke="black" points="320.02,-259.48 312.34,-252.19 313.8,-262.68 320.02,-259.48"/>
</g>
<!-- [root] meta.count&#45;boundary (EachMode fixup)&#45;&gt;[root] output.s3_website_url -->
<g id="edge13" class="edge">
<title>[root] meta.count&#45;boundary (EachMode fixup)&#45;&gt;[root] output.s3_website_url</title>
<path fill="none" stroke="black" d="M261.03,-364.39C189.86,-349.91 104.13,-318.81 60.5,-252 48.56,-233.72 52.17,-208.65 57.83,-189.77"/>
<polygon fill="black" stroke="black" points="61.16,-190.86 61.01,-180.27 54.52,-188.65 61.16,-190.86"/>
</g>
<!-- [root] meta.count&#45;boundary (EachMode fixup)&#45;&gt;[root] output.site_url -->
<g id="edge14" class="edge">
<title>[root] meta.count&#45;boundary (EachMode fixup)&#45;&gt;[root] output.site_url</title>
<path fill="none" stroke="black" d="M385.89,-359.7C390.26,-351.64 395.56,-341.89 400.4,-332.98"/>
<polygon fill="black" stroke="black" points="403.52,-334.56 405.21,-324.1 397.37,-331.22 403.52,-334.56"/>
</g>
<!-- [root] provider.aws (close) -->
<g id="node15" class="node">
<title>[root] provider.aws (close)</title>
<ellipse fill="none" stroke="black" cx="647.5" cy="-306" rx="104.78" ry="18"/>
<text text-anchor="middle" x="647.5" y="-302.3" font-family="Times,serif" font-size="14.00">[root] provider.aws (close)</text>
</g>
<!-- [root] provider.aws (close)&#45;&gt;[root] aws_route53_record.blog -->
<g id="edge19" class="edge">
<title>[root] provider.aws (close)&#45;&gt;[root] aws_route53_record.blog</title>
<path fill="none" stroke="black" d="M609.83,-289.12C586.59,-279.32 556.51,-266.63 531.31,-256.01"/>
<polygon fill="black" stroke="black" points="532.49,-252.7 521.92,-252.04 529.77,-259.15 532.49,-252.7"/>
</g>
<!-- [root] provider.aws (close)&#45;&gt;[root] aws_route53_record.google_site_verification -->
<g id="edge20" class="edge">
<title>[root] provider.aws (close)&#45;&gt;[root] aws_route53_record.google_site_verification</title>
<path fill="none" stroke="black" d="M662.02,-288.05C669.21,-279.67 678.03,-269.38 685.99,-260.1"/>
<polygon fill="black" stroke="black" points="688.84,-262.15 692.69,-252.28 683.53,-257.59 688.84,-262.15"/>
</g>
<!-- [root] provider.terraform (close) -->
<g id="node16" class="node">
<title>[root] provider.terraform (close)</title>
<ellipse fill="none" stroke="black" cx="862.5" cy="-378" rx="124.58" ry="18"/>
<text text-anchor="middle" x="862.5" y="-374.3" font-family="Times,serif" font-size="14.00">[root] provider.terraform (close)</text>
</g>
<!-- [root] provider.terraform (close)&#45;&gt;[root] data.terraform_remote_state.rockygray_com -->
<g id="edge21" class="edge">
<title>[root] provider.terraform (close)&#45;&gt;[root] data.terraform_remote_state.rockygray_com</title>
<path fill="none" stroke="black" d="M862.26,-359.97C861.59,-312.29 859.71,-177.18 858.89,-118.63"/>
<polygon fill="black" stroke="black" points="862.38,-118.26 858.74,-108.31 855.38,-118.35 862.38,-118.26"/>
</g>
<!-- [root] root -->
<g id="node17" class="node">
<title>[root] root</title>
<ellipse fill="none" stroke="black" cx="647.5" cy="-450" rx="47.39" ry="18"/>
<text text-anchor="middle" x="647.5" y="-446.3" font-family="Times,serif" font-size="14.00">[root] root</text>
</g>
<!-- [root] root&#45;&gt;[root] meta.count&#45;boundary (EachMode fixup) -->
<g id="edge22" class="edge">
<title>[root] root&#45;&gt;[root] meta.count&#45;boundary (EachMode fixup)</title>
<path fill="none" stroke="black" d="M609.53,-439.19C567.79,-428.41 499.79,-410.85 447.99,-397.47"/>
<polygon fill="black" stroke="black" points="448.74,-394.05 438.19,-394.93 446.99,-400.82 448.74,-394.05"/>
</g>
<!-- [root] root&#45;&gt;[root] provider.aws (close) -->
<g id="edge23" class="edge">
<title>[root] root&#45;&gt;[root] provider.aws (close)</title>
<path fill="none" stroke="black" d="M647.5,-431.87C647.5,-407.67 647.5,-363.21 647.5,-334.39"/>
<polygon fill="black" stroke="black" points="651,-334.19 647.5,-324.19 644,-334.19 651,-334.19"/>
</g>
<!-- [root] root&#45;&gt;[root] provider.terraform (close) -->
<g id="edge24" class="edge">
<title>[root] root&#45;&gt;[root] provider.terraform (close)</title>
<path fill="none" stroke="black" d="M682.52,-437.6C715.54,-426.85 765.63,-410.54 804.59,-397.85"/>
<polygon fill="black" stroke="black" points="805.82,-401.14 814.24,-394.71 803.65,-394.48 805.82,-401.14"/>
</g>
</g>
</svg>
