<?xml version="1.0" encoding="UTF-8" standalone="no"?>
<!DOCTYPE svg PUBLIC "-//W3C//DTD SVG 1.1//EN"
 "http://www.w3.org/Graphics/SVG/1.1/DTD/svg11.dtd">
<!-- Generated by graphviz version 2.44.0 (20200408.0750)
 -->
<!-- Pages: 1 -->
<svg width="971pt" height="620pt"
 viewBox="0.00 0.00 971.29 620.00" xmlns="http://www.w3.org/2000/svg" xmlns:xlink="http://www.w3.org/1999/xlink">
<g id="graph0" class="graph" transform="scale(1 1) rotate(0) translate(4 616)">
<polygon fill="white" stroke="transparent" points="-4,4 -4,-616 967.29,-616 967.29,4 -4,4"/>
<!-- [root] aws_cloudfront_distribution.blog_distribution -->
<g id="node1" class="node">
<title>[root] aws_cloudfront_distribution.blog_distribution</title>
<polygon fill="none" stroke="black" points="604.5,-324 338.5,-324 338.5,-288 604.5,-288 604.5,-324"/>
<text text-anchor="middle" x="471.5" y="-302.3" font-family="Times,serif" font-size="14.00">aws_cloudfront_distribution.blog_distribution</text>
</g>
<!-- [root] aws_s3_bucket.blog -->
<g id="node4" class="node">
<title>[root] aws_s3_bucket.blog</title>
<polygon fill="none" stroke="black" points="374,-252 247,-252 247,-216 374,-216 374,-252"/>
<text text-anchor="middle" x="310.5" y="-230.3" font-family="Times,serif" font-size="14.00">aws_s3_bucket.blog</text>
</g>
<!-- [root] aws_cloudfront_distribution.blog_distribution&#45;&gt;[root] aws_s3_bucket.blog -->
<g id="edge1" class="edge">
<title>[root] aws_cloudfront_distribution.blog_distribution&#45;&gt;[root] aws_s3_bucket.blog</title>
<path fill="none" stroke="black" d="M432.11,-287.88C410.11,-278.31 382.49,-266.3 359.14,-256.15"/>
<polygon fill="black" stroke="black" points="360.32,-252.85 349.76,-252.07 357.53,-259.27 360.32,-252.85"/>
</g>
<!-- [root] data.terraform_remote_state.rockygray_com -->
<g id="node6" class="node">
<title>[root] data.terraform_remote_state.rockygray_com</title>
<polygon fill="none" stroke="black" points="732.5,-252 472.5,-252 472.5,-216 732.5,-216 732.5,-252"/>
<text text-anchor="middle" x="602.5" y="-230.3" font-family="Times,serif" font-size="14.00">data.terraform_remote_state.rockygray_com</text>
</g>
<!-- [root] aws_cloudfront_distribution.blog_distribution&#45;&gt;[root] data.terraform_remote_state.rockygray_com -->
<g id="edge2" class="edge">
<title>[root] aws_cloudfront_distribution.blog_distribution&#45;&gt;[root] data.terraform_remote_state.rockygray_com</title>
<path fill="none" stroke="black" d="M503.55,-287.88C520.99,-278.55 542.77,-266.92 561.44,-256.94"/>
<polygon fill="black" stroke="black" points="563.16,-259.99 570.33,-252.19 559.86,-253.82 563.16,-259.99"/>
</g>
<!-- [root] aws_cloudfront_origin_access_identity.origin_access_identity -->
<g id="node2" class="node">
<title>[root] aws_cloudfront_origin_access_identity.origin_access_identity</title>
<polygon fill="none" stroke="black" points="353,-108 0,-108 0,-72 353,-72 353,-108"/>
<text text-anchor="middle" x="176.5" y="-86.3" font-family="Times,serif" font-size="14.00">aws_cloudfront_origin_access_identity.origin_access_identity</text>
</g>
<!-- [root] provider.aws -->
<g id="node11" class="node">
<title>[root] provider.aws</title>
<polygon fill="none" stroke="black" points="176.5,-36 97.4,-18 176.5,0 255.6,-18 176.5,-36"/>
<text text-anchor="middle" x="176.5" y="-14.3" font-family="Times,serif" font-size="14.00">provider.aws</text>
</g>
<!-- [root] aws_cloudfront_origin_access_identity.origin_access_identity&#45;&gt;[root] provider.aws -->
<g id="edge3" class="edge">
<title>[root] aws_cloudfront_origin_access_identity.origin_access_identity&#45;&gt;[root] provider.aws</title>
<path fill="none" stroke="black" d="M176.5,-71.7C176.5,-63.98 176.5,-54.71 176.5,-46.11"/>
<polygon fill="black" stroke="black" points="180,-46.1 176.5,-36.1 173,-46.1 180,-46.1"/>
</g>
<!-- [root] aws_route53_record.blog -->
<g id="node3" class="node">
<title>[root] aws_route53_record.blog</title>
<polygon fill="none" stroke="black" points="696,-396 541,-396 541,-360 696,-360 696,-396"/>
<text text-anchor="middle" x="618.5" y="-374.3" font-family="Times,serif" font-size="14.00">aws_route53_record.blog</text>
</g>
<!-- [root] aws_route53_record.blog&#45;&gt;[root] aws_cloudfront_distribution.blog_distribution -->
<g id="edge4" class="edge">
<title>[root] aws_route53_record.blog&#45;&gt;[root] aws_cloudfront_distribution.blog_distribution</title>
<path fill="none" stroke="black" d="M582.54,-359.88C562.62,-350.39 537.68,-338.51 516.48,-328.42"/>
<polygon fill="black" stroke="black" points="517.88,-325.21 507.34,-324.07 514.87,-331.53 517.88,-325.21"/>
</g>
<!-- [root] data.aws_iam_policy_document.bucket_policy -->
<g id="node5" class="node">
<title>[root] data.aws_iam_policy_document.bucket_policy</title>
<polygon fill="none" stroke="black" points="447,-180 174,-180 174,-144 447,-144 447,-180"/>
<text text-anchor="middle" x="310.5" y="-158.3" font-family="Times,serif" font-size="14.00">data.aws_iam_policy_document.bucket_policy</text>
</g>
<!-- [root] aws_s3_bucket.blog&#45;&gt;[root] data.aws_iam_policy_document.bucket_policy -->
<g id="edge5" class="edge">
<title>[root] aws_s3_bucket.blog&#45;&gt;[root] data.aws_iam_policy_document.bucket_policy</title>
<path fill="none" stroke="black" d="M310.5,-215.7C310.5,-207.98 310.5,-198.71 310.5,-190.11"/>
<polygon fill="black" stroke="black" points="314,-190.1 310.5,-180.1 307,-190.1 314,-190.1"/>
</g>
<!-- [root] data.aws_iam_policy_document.bucket_policy&#45;&gt;[root] aws_cloudfront_origin_access_identity.origin_access_identity -->
<g id="edge6" class="edge">
<title>[root] data.aws_iam_policy_document.bucket_policy&#45;&gt;[root] aws_cloudfront_origin_access_identity.origin_access_identity</title>
<path fill="none" stroke="black" d="M277.72,-143.88C259.87,-134.55 237.6,-122.92 218.5,-112.94"/>
<polygon fill="black" stroke="black" points="219.89,-109.72 209.41,-108.19 216.65,-115.92 219.89,-109.72"/>
</g>
<!-- [root] var.blog_domain_name -->
<g id="node13" class="node">
<title>[root] var.blog_domain_name</title>
<polygon fill="none" stroke="black" points="511.5,-108 371.5,-108 371.5,-72 517.5,-72 517.5,-102 511.5,-108"/>
<polyline fill="none" stroke="black" points="511.5,-108 511.5,-102 "/>
<polyline fill="none" stroke="black" points="517.5,-102 511.5,-102 "/>
<text text-anchor="middle" x="444.5" y="-86.3" font-family="Times,serif" font-size="14.00">var.blog_domain_name</text>
</g>
<!-- [root] data.aws_iam_policy_document.bucket_policy&#45;&gt;[root] var.blog_domain_name -->
<g id="edge7" class="edge">
<title>[root] data.aws_iam_policy_document.bucket_policy&#45;&gt;[root] var.blog_domain_name</title>
<path fill="none" stroke="black" d="M343.28,-143.88C361.13,-134.55 383.4,-122.92 402.5,-112.94"/>
<polygon fill="black" stroke="black" points="404.35,-115.92 411.59,-108.19 401.11,-109.72 404.35,-115.92"/>
</g>
<!-- [root] provider.terraform -->
<g id="node12" class="node">
<title>[root] provider.terraform</title>
<polygon fill="none" stroke="black" points="602.5,-180 494.92,-162 602.5,-144 710.08,-162 602.5,-180"/>
<text text-anchor="middle" x="602.5" y="-158.3" font-family="Times,serif" font-size="14.00">provider.terraform</text>
</g>
<!-- [root] data.terraform_remote_state.rockygray_com&#45;&gt;[root] provider.terraform -->
<g id="edge8" class="edge">
<title>[root] data.terraform_remote_state.rockygray_com&#45;&gt;[root] provider.terraform</title>
<path fill="none" stroke="black" d="M602.5,-215.7C602.5,-207.98 602.5,-198.71 602.5,-190.11"/>
<polygon fill="black" stroke="black" points="606,-190.1 602.5,-180.1 599,-190.1 606,-190.1"/>
</g>
<!-- [root] output.cloudfront_url -->
<g id="node7" class="node">
<title>[root] output.cloudfront_url</title>
<polygon fill="none" stroke="black" points="517,-396 390,-396 390,-360 523,-360 523,-390 517,-396"/>
<polyline fill="none" stroke="black" points="517,-396 517,-390 "/>
<polyline fill="none" stroke="black" points="523,-390 517,-390 "/>
<text text-anchor="middle" x="456.5" y="-374.3" font-family="Times,serif" font-size="14.00">output.cloudfront_url</text>
</g>
<!-- [root] output.cloudfront_url&#45;&gt;[root] aws_cloudfront_distribution.blog_distribution -->
<g id="edge13" class="edge">
<title>[root] output.cloudfront_url&#45;&gt;[root] aws_cloudfront_distribution.blog_distribution</title>
<path fill="none" stroke="black" d="M460.21,-359.7C461.86,-351.98 463.85,-342.71 465.69,-334.11"/>
<polygon fill="black" stroke="black" points="469.16,-334.62 467.83,-324.1 462.32,-333.15 469.16,-334.62"/>
</g>
<!-- [root] output.cloudfront_www_id -->
<g id="node8" class="node">
<title>[root] output.cloudfront_www_id</title>
<polygon fill="none" stroke="black" points="437.5,-468 279.5,-468 279.5,-432 443.5,-432 443.5,-462 437.5,-468"/>
<polyline fill="none" stroke="black" points="437.5,-468 437.5,-462 "/>
<polyline fill="none" stroke="black" points="443.5,-462 437.5,-462 "/>
<text text-anchor="middle" x="361.5" y="-446.3" font-family="Times,serif" font-size="14.00">output.cloudfront_www_id</text>
</g>
<!-- [root] output.cloudfront_www_id&#45;&gt;[root] aws_cloudfront_distribution.blog_distribution -->
<g id="edge14" class="edge">
<title>[root] output.cloudfront_www_id&#45;&gt;[root] aws_cloudfront_distribution.blog_distribution</title>
<path fill="none" stroke="black" d="M361.18,-431.96C361.65,-412.73 365.02,-381.37 380.5,-360 389.83,-347.13 403.31,-336.88 417.06,-328.97"/>
<polygon fill="black" stroke="black" points="418.95,-331.93 426.09,-324.1 415.63,-325.76 418.95,-331.93"/>
</g>
<!-- [root] output.s3_website_url -->
<g id="node9" class="node">
<title>[root] output.s3_website_url</title>
<polygon fill="none" stroke="black" points="314,-324 183,-324 183,-288 320,-288 320,-318 314,-324"/>
<polyline fill="none" stroke="black" points="314,-324 314,-318 "/>
<polyline fill="none" stroke="black" points="320,-318 314,-318 "/>
<text text-anchor="middle" x="251.5" y="-302.3" font-family="Times,serif" font-size="14.00">output.s3_website_url</text>
</g>
<!-- [root] output.s3_website_url&#45;&gt;[root] aws_s3_bucket.blog -->
<g id="edge15" class="edge">
<title>[root] output.s3_website_url&#45;&gt;[root] aws_s3_bucket.blog</title>
<path fill="none" stroke="black" d="M266.08,-287.7C273.16,-279.3 281.78,-269.07 289.55,-259.86"/>
<polygon fill="black" stroke="black" points="292.31,-262.01 296.08,-252.1 286.96,-257.49 292.31,-262.01"/>
</g>
<!-- [root] output.site_url -->
<g id="node10" class="node">
<title>[root] output.site_url</title>
<polygon fill="none" stroke="black" points="641,-468 552,-468 552,-432 647,-432 647,-462 641,-468"/>
<polyline fill="none" stroke="black" points="641,-468 641,-462 "/>
<polyline fill="none" stroke="black" points="647,-462 641,-462 "/>
<text text-anchor="middle" x="599.5" y="-446.3" font-family="Times,serif" font-size="14.00">output.site_url</text>
</g>
<!-- [root] output.site_url&#45;&gt;[root] aws_route53_record.blog -->
<g id="edge16" class="edge">
<title>[root] output.site_url&#45;&gt;[root] aws_route53_record.blog</title>
<path fill="none" stroke="black" d="M604.2,-431.7C606.31,-423.9 608.86,-414.51 611.22,-405.83"/>
<polygon fill="black" stroke="black" points="614.62,-406.67 613.86,-396.1 607.86,-404.84 614.62,-406.67"/>
</g>
<!-- [root] meta.count&#45;boundary (EachMode fixup) -->
<g id="node14" class="node">
<title>[root] meta.count&#45;boundary (EachMode fixup)</title>
<ellipse fill="none" stroke="black" cx="392.5" cy="-522" rx="176.27" ry="18"/>
<text text-anchor="middle" x="392.5" y="-518.3" font-family="Times,serif" font-size="14.00">[root] meta.count&#45;boundary (EachMode fixup)</text>
</g>
<!-- [root] meta.count&#45;boundary (EachMode fixup)&#45;&gt;[root] output.cloudfront_url -->
<g id="edge9" class="edge">
<title>[root] meta.count&#45;boundary (EachMode fixup)&#45;&gt;[root] output.cloudfront_url</title>
<path fill="none" stroke="black" d="M420.15,-504.07C432.35,-495 445.48,-482.67 452.5,-468 461.7,-448.75 462.15,-424.41 460.61,-406.05"/>
<polygon fill="black" stroke="black" points="464.08,-405.58 459.52,-396.02 457.12,-406.33 464.08,-405.58"/>
</g>
<!-- [root] meta.count&#45;boundary (EachMode fixup)&#45;&gt;[root] output.cloudfront_www_id -->
<g id="edge10" class="edge">
<title>[root] meta.count&#45;boundary (EachMode fixup)&#45;&gt;[root] output.cloudfront_www_id</title>
<path fill="none" stroke="black" d="M384.84,-503.7C381.31,-495.73 377.04,-486.1 373.13,-477.26"/>
<polygon fill="black" stroke="black" points="376.32,-475.83 369.07,-468.1 369.92,-478.67 376.32,-475.83"/>
</g>
<!-- [root] meta.count&#45;boundary (EachMode fixup)&#45;&gt;[root] output.s3_website_url -->
<g id="edge11" class="edge">
<title>[root] meta.count&#45;boundary (EachMode fixup)&#45;&gt;[root] output.s3_website_url</title>
<path fill="none" stroke="black" d="M323.96,-505.37C303.76,-497.44 283.59,-485.61 270.5,-468 241.41,-428.87 242.99,-368.96 247.05,-334.32"/>
<polygon fill="black" stroke="black" points="250.57,-334.4 248.42,-324.02 243.64,-333.48 250.57,-334.4"/>
</g>
<!-- [root] meta.count&#45;boundary (EachMode fixup)&#45;&gt;[root] output.site_url -->
<g id="edge12" class="edge">
<title>[root] meta.count&#45;boundary (EachMode fixup)&#45;&gt;[root] output.site_url</title>
<path fill="none" stroke="black" d="M440.77,-504.68C471.09,-494.43 510.34,-481.15 542.23,-470.37"/>
<polygon fill="black" stroke="black" points="543.52,-473.63 551.87,-467.11 541.27,-467 543.52,-473.63"/>
</g>
<!-- [root] provider.aws (close) -->
<g id="node15" class="node">
<title>[root] provider.aws (close)</title>
<ellipse fill="none" stroke="black" cx="691.5" cy="-522" rx="104.78" ry="18"/>
<text text-anchor="middle" x="691.5" y="-518.3" font-family="Times,serif" font-size="14.00">[root] provider.aws (close)</text>
</g>
<!-- [root] provider.aws (close)&#45;&gt;[root] aws_route53_record.blog -->
<g id="edge17" class="edge">
<title>[root] provider.aws (close)&#45;&gt;[root] aws_route53_record.blog</title>
<path fill="none" stroke="black" d="M686.12,-503.71C680.09,-485.35 669.44,-455.77 656.5,-432 651.39,-422.6 644.87,-412.92 638.68,-404.45"/>
<polygon fill="black" stroke="black" points="641.47,-402.33 632.67,-396.43 635.87,-406.53 641.47,-402.33"/>
</g>
<!-- [root] provider.terraform (close) -->
<g id="node16" class="node">
<title>[root] provider.terraform (close)</title>
<ellipse fill="none" stroke="black" cx="838.5" cy="-378" rx="124.58" ry="18"/>
<text text-anchor="middle" x="838.5" y="-374.3" font-family="Times,serif" font-size="14.00">[root] provider.terraform (close)</text>
</g>
<!-- [root] provider.terraform (close)&#45;&gt;[root] data.terraform_remote_state.rockygray_com -->
<g id="edge18" class="edge">
<title>[root] provider.terraform (close)&#45;&gt;[root] data.terraform_remote_state.rockygray_com</title>
<path fill="none" stroke="black" d="M810.97,-360.43C768.59,-334.93 687.3,-286.03 639.72,-257.39"/>
<polygon fill="black" stroke="black" points="641.33,-254.28 630.96,-252.12 637.72,-260.28 641.33,-254.28"/>
</g>
<!-- [root] root -->
<g id="node17" class="node">
<title>[root] root</title>
<ellipse fill="none" stroke="black" cx="691.5" cy="-594" rx="47.39" ry="18"/>
<text text-anchor="middle" x="691.5" y="-590.3" font-family="Times,serif" font-size="14.00">[root] root</text>
</g>
<!-- [root] root&#45;&gt;[root] meta.count&#45;boundary (EachMode fixup) -->
<g id="edge19" class="edge">
<title>[root] root&#45;&gt;[root] meta.count&#45;boundary (EachMode fixup)</title>
<path fill="none" stroke="black" d="M652.1,-583.78C605.78,-572.93 527.82,-554.68 469.39,-541"/>
<polygon fill="black" stroke="black" points="469.99,-537.55 459.46,-538.68 468.4,-544.36 469.99,-537.55"/>
</g>
<!-- [root] root&#45;&gt;[root] provider.aws (close) -->
<g id="edge20" class="edge">
<title>[root] root&#45;&gt;[root] provider.aws (close)</title>
<path fill="none" stroke="black" d="M691.5,-575.7C691.5,-567.98 691.5,-558.71 691.5,-550.11"/>
<polygon fill="black" stroke="black" points="695,-550.1 691.5,-540.1 688,-550.1 695,-550.1"/>
</g>
<!-- [root] root&#45;&gt;[root] provider.terraform (close) -->
<g id="edge21" class="edge">
<title>[root] root&#45;&gt;[root] provider.terraform (close)</title>
<path fill="none" stroke="black" d="M731.58,-584.16C756.53,-576.59 787.23,-563.12 805.5,-540 836.15,-501.22 840.43,-441.19 839.99,-406.44"/>
<polygon fill="black" stroke="black" points="843.48,-406 839.71,-396.1 836.49,-406.19 843.48,-406"/>
</g>
</g>
</svg>
