<?xml version="1.0" encoding="UTF-8" standalone="no"?>
<!DOCTYPE svg PUBLIC "-//W3C//DTD SVG 1.1//EN"
 "http://www.w3.org/Graphics/SVG/1.1/DTD/svg11.dtd">
<!-- Generated by graphviz version 10.0.1 (20240210.2158)
 -->
<!-- Pages: 1 -->
<svg width="1602pt" height="476pt"
 viewBox="0.00 0.00 1601.61 476.00" xmlns="http://www.w3.org/2000/svg" xmlns:xlink="http://www.w3.org/1999/xlink">
<g id="graph0" class="graph" transform="scale(1 1) rotate(0) translate(4 472)">
<polygon fill="white" stroke="none" points="-4,4 -4,-472 1597.61,-472 1597.61,4 -4,4"/>
<!-- [root] aws_cloudfront_distribution.www_distribution (expand) -->
<g id="node1" class="node">
<title>[root] aws_cloudfront_distribution.www_distribution (expand)</title>
<polygon fill="none" stroke="black" points="1107.93,-252 836.93,-252 836.93,-216 1107.93,-216 1107.93,-252"/>
<text text-anchor="middle" x="972.43" y="-228.95" font-family="Times,serif" font-size="14.00">aws_cloudfront_distribution.www_distribution</text>
</g>
<!-- [root] aws_s3_bucket_website_configuration.www (expand) -->
<g id="node7" class="node">
<title>[root] aws_s3_bucket_website_configuration.www (expand)</title>
<polygon fill="none" stroke="black" points="796.93,-180 537.93,-180 537.93,-144 796.93,-144 796.93,-180"/>
<text text-anchor="middle" x="667.43" y="-156.95" font-family="Times,serif" font-size="14.00">aws_s3_bucket_website_configuration.www</text>
</g>
<!-- [root] aws_cloudfront_distribution.www_distribution (expand)&#45;&gt;[root] aws_s3_bucket_website_configuration.www (expand) -->
<g id="edge1" class="edge">
<title>[root] aws_cloudfront_distribution.www_distribution (expand)&#45;&gt;[root] aws_s3_bucket_website_configuration.www (expand)</title>
<path fill="none" stroke="black" d="M896.25,-215.52C853.23,-205.64 799.29,-193.26 754.58,-183"/>
<polygon fill="black" stroke="black" points="755.43,-179.61 744.9,-180.78 753.87,-186.43 755.43,-179.61"/>
</g>
<!-- [root] data.terraform_remote_state.root (expand) -->
<g id="node8" class="node">
<title>[root] data.terraform_remote_state.root (expand)</title>
<polygon fill="none" stroke="black" points="1288.43,-180 1092.43,-180 1092.43,-144 1288.43,-144 1288.43,-180"/>
<text text-anchor="middle" x="1190.43" y="-156.95" font-family="Times,serif" font-size="14.00">data.terraform_remote_state.root</text>
</g>
<!-- [root] aws_cloudfront_distribution.www_distribution (expand)&#45;&gt;[root] data.terraform_remote_state.root (expand) -->
<g id="edge2" class="edge">
<title>[root] aws_cloudfront_distribution.www_distribution (expand)&#45;&gt;[root] data.terraform_remote_state.root (expand)</title>
<path fill="none" stroke="black" d="M1026.88,-215.52C1056.77,-205.92 1094.05,-193.95 1125.46,-183.86"/>
<polygon fill="black" stroke="black" points="1126.41,-187.23 1134.86,-180.84 1124.27,-180.57 1126.41,-187.23"/>
</g>
<!-- [root] aws_route53_record.www (expand) -->
<g id="node2" class="node">
<title>[root] aws_route53_record.www (expand)</title>
<polygon fill="none" stroke="black" points="779.06,-324 619.81,-324 619.81,-288 779.06,-288 779.06,-324"/>
<text text-anchor="middle" x="699.43" y="-300.95" font-family="Times,serif" font-size="14.00">aws_route53_record.www</text>
</g>
<!-- [root] aws_route53_record.www (expand)&#45;&gt;[root] aws_cloudfront_distribution.www_distribution (expand) -->
<g id="edge3" class="edge">
<title>[root] aws_route53_record.www (expand)&#45;&gt;[root] aws_cloudfront_distribution.www_distribution (expand)</title>
<path fill="none" stroke="black" d="M767.62,-287.52C805.87,-277.71 853.77,-265.43 893.63,-255.21"/>
<polygon fill="black" stroke="black" points="894.36,-258.63 903.18,-252.76 892.62,-251.85 894.36,-258.63"/>
</g>
<!-- [root] aws_s3_bucket.www (expand) -->
<g id="node3" class="node">
<title>[root] aws_s3_bucket.www (expand)</title>
<polygon fill="none" stroke="black" points="509.18,-108 377.68,-108 377.68,-72 509.18,-72 509.18,-108"/>
<text text-anchor="middle" x="443.43" y="-84.95" font-family="Times,serif" font-size="14.00">aws_s3_bucket.www</text>
</g>
<!-- [root] provider[&quot;registry.terraform.io/hashicorp/aws&quot;] -->
<g id="node9" class="node">
<title>[root] provider[&quot;registry.terraform.io/hashicorp/aws&quot;]</title>
<polygon fill="none" stroke="black" points="264.43,-36 0,-18 264.43,0 528.86,-18 264.43,-36"/>
<text text-anchor="middle" x="264.43" y="-12.95" font-family="Times,serif" font-size="14.00">provider[&quot;registry.terraform.io/hashicorp/aws&quot;]</text>
</g>
<!-- [root] aws_s3_bucket.www (expand)&#45;&gt;[root] provider[&quot;registry.terraform.io/hashicorp/aws&quot;] -->
<g id="edge4" class="edge">
<title>[root] aws_s3_bucket.www (expand)&#45;&gt;[root] provider[&quot;registry.terraform.io/hashicorp/aws&quot;]</title>
<path fill="none" stroke="black" d="M398.72,-71.52C372.69,-61.34 339.85,-48.49 313.16,-38.06"/>
<polygon fill="black" stroke="black" points="314.51,-34.83 303.93,-34.45 311.96,-41.35 314.51,-34.83"/>
</g>
<!-- [root] var.www_domain_name -->
<g id="node12" class="node">
<title>[root] var.www_domain_name</title>
<polygon fill="none" stroke="black" points="691.56,-36 547.31,-36 547.31,0 697.56,0 697.56,-30 691.56,-36"/>
<polyline fill="none" stroke="black" points="691.56,-36 691.56,-30"/>
<polyline fill="none" stroke="black" points="697.56,-30 691.56,-30"/>
<text text-anchor="middle" x="622.43" y="-12.95" font-family="Times,serif" font-size="14.00">var.www_domain_name</text>
</g>
<!-- [root] aws_s3_bucket.www (expand)&#45;&gt;[root] var.www_domain_name -->
<g id="edge5" class="edge">
<title>[root] aws_s3_bucket.www (expand)&#45;&gt;[root] var.www_domain_name</title>
<path fill="none" stroke="black" d="M488.14,-71.52C512.15,-62.13 541.96,-50.47 567.38,-40.53"/>
<polygon fill="black" stroke="black" points="568.53,-43.83 576.57,-36.93 565.99,-37.32 568.53,-43.83"/>
</g>
<!-- [root] aws_s3_bucket_acl.www (expand) -->
<g id="node4" class="node">
<title>[root] aws_s3_bucket_acl.www (expand)</title>
<polygon fill="none" stroke="black" points="268.43,-180 114.43,-180 114.43,-144 268.43,-144 268.43,-180"/>
<text text-anchor="middle" x="191.43" y="-156.95" font-family="Times,serif" font-size="14.00">aws_s3_bucket_acl.www</text>
</g>
<!-- [root] aws_s3_bucket_acl.www (expand)&#45;&gt;[root] aws_s3_bucket.www (expand) -->
<g id="edge6" class="edge">
<title>[root] aws_s3_bucket_acl.www (expand)&#45;&gt;[root] aws_s3_bucket.www (expand)</title>
<path fill="none" stroke="black" d="M254.37,-143.52C289.53,-133.75 333.52,-121.53 370.22,-111.34"/>
<polygon fill="black" stroke="black" points="370.7,-114.84 379.4,-108.79 368.83,-108.09 370.7,-114.84"/>
</g>
<!-- [root] aws_s3_bucket_policy.allow_access_from_anyone (expand) -->
<g id="node5" class="node">
<title>[root] aws_s3_bucket_policy.allow_access_from_anyone (expand)</title>
<polygon fill="none" stroke="black" points="459.81,-252 167.06,-252 167.06,-216 459.81,-216 459.81,-252"/>
<text text-anchor="middle" x="313.43" y="-228.95" font-family="Times,serif" font-size="14.00">aws_s3_bucket_policy.allow_access_from_anyone</text>
</g>
<!-- [root] aws_s3_bucket_policy.allow_access_from_anyone (expand)&#45;&gt;[root] aws_s3_bucket.www (expand) -->
<g id="edge7" class="edge">
<title>[root] aws_s3_bucket_policy.allow_access_from_anyone (expand)&#45;&gt;[root] aws_s3_bucket.www (expand)</title>
<path fill="none" stroke="black" d="M329.37,-215.59C352.11,-190.76 393.98,-145.01 420.18,-116.4"/>
<polygon fill="black" stroke="black" points="422.57,-118.97 426.74,-109.23 417.41,-114.24 422.57,-118.97"/>
</g>
<!-- [root] aws_s3_bucket_versioning.www (expand) -->
<g id="node6" class="node">
<title>[root] aws_s3_bucket_versioning.www (expand)</title>
<polygon fill="none" stroke="black" points="552.06,-324 356.81,-324 356.81,-288 552.06,-288 552.06,-324"/>
<text text-anchor="middle" x="454.43" y="-300.95" font-family="Times,serif" font-size="14.00">aws_s3_bucket_versioning.www</text>
</g>
<!-- [root] aws_s3_bucket_versioning.www (expand)&#45;&gt;[root] aws_s3_bucket.www (expand) -->
<g id="edge8" class="edge">
<title>[root] aws_s3_bucket_versioning.www (expand)&#45;&gt;[root] aws_s3_bucket.www (expand)</title>
<path fill="none" stroke="black" d="M460.25,-287.56C463.36,-277.33 466.86,-264.08 468.43,-252 474.5,-205.28 462.09,-151.21 452.68,-119.12"/>
<polygon fill="black" stroke="black" points="456.1,-118.34 449.83,-109.8 449.4,-120.39 456.1,-118.34"/>
</g>
<!-- [root] aws_s3_bucket_website_configuration.www (expand)&#45;&gt;[root] aws_s3_bucket.www (expand) -->
<g id="edge9" class="edge">
<title>[root] aws_s3_bucket_website_configuration.www (expand)&#45;&gt;[root] aws_s3_bucket.www (expand)</title>
<path fill="none" stroke="black" d="M611.48,-143.52C580.63,-133.88 542.13,-121.84 509.77,-111.73"/>
<polygon fill="black" stroke="black" points="511.09,-108.48 500.5,-108.83 509,-115.16 511.09,-108.48"/>
</g>
<!-- [root] provider[&quot;terraform.io/builtin/terraform&quot;] -->
<g id="node10" class="node">
<title>[root] provider[&quot;terraform.io/builtin/terraform&quot;]</title>
<polygon fill="none" stroke="black" points="1190.43,-108 955.68,-90 1190.43,-72 1425.18,-90 1190.43,-108"/>
<text text-anchor="middle" x="1190.43" y="-84.95" font-family="Times,serif" font-size="14.00">provider[&quot;terraform.io/builtin/terraform&quot;]</text>
</g>
<!-- [root] data.terraform_remote_state.root (expand)&#45;&gt;[root] provider[&quot;terraform.io/builtin/terraform&quot;] -->
<g id="edge10" class="edge">
<title>[root] data.terraform_remote_state.root (expand)&#45;&gt;[root] provider[&quot;terraform.io/builtin/terraform&quot;]</title>
<path fill="none" stroke="black" d="M1190.43,-143.7C1190.43,-136.41 1190.43,-127.73 1190.43,-119.54"/>
<polygon fill="black" stroke="black" points="1193.93,-119.62 1190.43,-109.62 1186.93,-119.62 1193.93,-119.62"/>
</g>
<!-- [root] var.root_domain_name -->
<g id="node11" class="node">
<title>[root] var.root_domain_name</title>
<polygon fill="none" stroke="black" points="1375.81,-396 1239.06,-396 1239.06,-360 1381.81,-360 1381.81,-390 1375.81,-396"/>
<polyline fill="none" stroke="black" points="1375.81,-396 1375.81,-390"/>
<polyline fill="none" stroke="black" points="1381.81,-390 1375.81,-390"/>
<text text-anchor="middle" x="1310.43" y="-372.95" font-family="Times,serif" font-size="14.00">var.root_domain_name</text>
</g>
<!-- [root] output.cloudfront_url (expand) -->
<g id="node13" class="node">
<title>[root] output.cloudfront_url (expand)</title>
<ellipse fill="none" stroke="black" cx="1072.43" cy="-378" rx="149.11" ry="18"/>
<text text-anchor="middle" x="1072.43" y="-372.95" font-family="Times,serif" font-size="14.00">[root] output.cloudfront_url (expand)</text>
</g>
<!-- [root] output.cloudfront_url (expand)&#45;&gt;[root] aws_cloudfront_distribution.www_distribution (expand) -->
<g id="edge11" class="edge">
<title>[root] output.cloudfront_url (expand)&#45;&gt;[root] aws_cloudfront_distribution.www_distribution (expand)</title>
<path fill="none" stroke="black" d="M1109.92,-360.14C1124.38,-351.55 1139.37,-339.57 1147.43,-324 1154.79,-309.79 1156.96,-300.85 1147.43,-288 1137.67,-274.85 1124.74,-264.84 1110.31,-257.25"/>
<polygon fill="black" stroke="black" points="1111.99,-254.18 1101.46,-253.03 1108.97,-260.5 1111.99,-254.18"/>
</g>
<!-- [root] output.cloudfront_www_id (expand) -->
<g id="node14" class="node">
<title>[root] output.cloudfront_www_id (expand)</title>
<ellipse fill="none" stroke="black" cx="967.43" cy="-306" rx="170.6" ry="18"/>
<text text-anchor="middle" x="967.43" y="-300.95" font-family="Times,serif" font-size="14.00">[root] output.cloudfront_www_id (expand)</text>
</g>
<!-- [root] output.cloudfront_www_id (expand)&#45;&gt;[root] aws_cloudfront_distribution.www_distribution (expand) -->
<g id="edge12" class="edge">
<title>[root] output.cloudfront_www_id (expand)&#45;&gt;[root] aws_cloudfront_distribution.www_distribution (expand)</title>
<path fill="none" stroke="black" d="M968.67,-287.7C969.19,-280.41 969.81,-271.73 970.39,-263.54"/>
<polygon fill="black" stroke="black" points="973.88,-263.84 971.1,-253.61 966.9,-263.34 973.88,-263.84"/>
</g>
<!-- [root] output.s3_website_url (expand) -->
<g id="node15" class="node">
<title>[root] output.s3_website_url (expand)</title>
<ellipse fill="none" stroke="black" cx="667.43" cy="-234" rx="151.67" ry="18"/>
<text text-anchor="middle" x="667.43" y="-228.95" font-family="Times,serif" font-size="14.00">[root] output.s3_website_url (expand)</text>
</g>
<!-- [root] output.s3_website_url (expand)&#45;&gt;[root] aws_s3_bucket_website_configuration.www (expand) -->
<g id="edge13" class="edge">
<title>[root] output.s3_website_url (expand)&#45;&gt;[root] aws_s3_bucket_website_configuration.www (expand)</title>
<path fill="none" stroke="black" d="M667.43,-215.7C667.43,-208.41 667.43,-199.73 667.43,-191.54"/>
<polygon fill="black" stroke="black" points="670.93,-191.62 667.43,-181.62 663.93,-191.62 670.93,-191.62"/>
</g>
<!-- [root] output.site_url (expand) -->
<g id="node16" class="node">
<title>[root] output.site_url (expand)</title>
<ellipse fill="none" stroke="black" cx="743.43" cy="-378" rx="123.52" ry="18"/>
<text text-anchor="middle" x="743.43" y="-372.95" font-family="Times,serif" font-size="14.00">[root] output.site_url (expand)</text>
</g>
<!-- [root] output.site_url (expand)&#45;&gt;[root] aws_route53_record.www (expand) -->
<g id="edge14" class="edge">
<title>[root] output.site_url (expand)&#45;&gt;[root] aws_route53_record.www (expand)</title>
<path fill="none" stroke="black" d="M732.55,-359.7C727.65,-351.9 721.75,-342.51 716.29,-333.83"/>
<polygon fill="black" stroke="black" points="719.27,-331.99 710.99,-325.39 713.35,-335.71 719.27,-331.99"/>
</g>
<!-- [root] provider[&quot;registry.terraform.io/hashicorp/aws&quot;] (close) -->
<g id="node17" class="node">
<title>[root] provider[&quot;registry.terraform.io/hashicorp/aws&quot;] (close)</title>
<ellipse fill="none" stroke="black" cx="325.43" cy="-378" rx="238.16" ry="18"/>
<text text-anchor="middle" x="325.43" y="-372.95" font-family="Times,serif" font-size="14.00">[root] provider[&quot;registry.terraform.io/hashicorp/aws&quot;] (close)</text>
</g>
<!-- [root] provider[&quot;registry.terraform.io/hashicorp/aws&quot;] (close)&#45;&gt;[root] aws_route53_record.www (expand) -->
<g id="edge15" class="edge">
<title>[root] provider[&quot;registry.terraform.io/hashicorp/aws&quot;] (close)&#45;&gt;[root] aws_route53_record.www (expand)</title>
<path fill="none" stroke="black" d="M411.7,-360.85C470.6,-349.83 548.49,-335.25 608.38,-324.04"/>
<polygon fill="black" stroke="black" points="608.67,-327.55 617.86,-322.27 607.38,-320.67 608.67,-327.55"/>
</g>
<!-- [root] provider[&quot;registry.terraform.io/hashicorp/aws&quot;] (close)&#45;&gt;[root] aws_s3_bucket_acl.www (expand) -->
<g id="edge16" class="edge">
<title>[root] provider[&quot;registry.terraform.io/hashicorp/aws&quot;] (close)&#45;&gt;[root] aws_s3_bucket_acl.www (expand)</title>
<path fill="none" stroke="black" d="M284.67,-359.86C244.22,-340.36 184.61,-304.3 158.43,-252 148.28,-231.73 158.56,-207.56 170.25,-189.52"/>
<polygon fill="black" stroke="black" points="173.04,-191.64 175.9,-181.43 167.3,-187.63 173.04,-191.64"/>
</g>
<!-- [root] provider[&quot;registry.terraform.io/hashicorp/aws&quot;] (close)&#45;&gt;[root] aws_s3_bucket_policy.allow_access_from_anyone (expand) -->
<g id="edge17" class="edge">
<title>[root] provider[&quot;registry.terraform.io/hashicorp/aws&quot;] (close)&#45;&gt;[root] aws_s3_bucket_policy.allow_access_from_anyone (expand)</title>
<path fill="none" stroke="black" d="M323.96,-359.59C321.93,-335.61 318.26,-292.14 315.83,-263.42"/>
<polygon fill="black" stroke="black" points="319.33,-263.29 315,-253.62 312.36,-263.88 319.33,-263.29"/>
</g>
<!-- [root] provider[&quot;registry.terraform.io/hashicorp/aws&quot;] (close)&#45;&gt;[root] aws_s3_bucket_versioning.www (expand) -->
<g id="edge18" class="edge">
<title>[root] provider[&quot;registry.terraform.io/hashicorp/aws&quot;] (close)&#45;&gt;[root] aws_s3_bucket_versioning.www (expand)</title>
<path fill="none" stroke="black" d="M357.32,-359.7C373.99,-350.65 394.6,-339.47 412.54,-329.73"/>
<polygon fill="black" stroke="black" points="414.01,-332.91 421.13,-325.07 410.67,-326.76 414.01,-332.91"/>
</g>
<!-- [root] provider[&quot;terraform.io/builtin/terraform&quot;] (close) -->
<g id="node18" class="node">
<title>[root] provider[&quot;terraform.io/builtin/terraform&quot;] (close)</title>
<ellipse fill="none" stroke="black" cx="1376.43" cy="-234" rx="217.18" ry="18"/>
<text text-anchor="middle" x="1376.43" y="-228.95" font-family="Times,serif" font-size="14.00">[root] provider[&quot;terraform.io/builtin/terraform&quot;] (close)</text>
</g>
<!-- [root] provider[&quot;terraform.io/builtin/terraform&quot;] (close)&#45;&gt;[root] data.terraform_remote_state.root (expand) -->
<g id="edge19" class="edge">
<title>[root] provider[&quot;terraform.io/builtin/terraform&quot;] (close)&#45;&gt;[root] data.terraform_remote_state.root (expand)</title>
<path fill="none" stroke="black" d="M1331.41,-216.05C1306.06,-206.52 1274.18,-194.52 1247.14,-184.34"/>
<polygon fill="black" stroke="black" points="1248.67,-181.18 1238.07,-180.93 1246.2,-187.73 1248.67,-181.18"/>
</g>
<!-- [root] root -->
<g id="node19" class="node">
<title>[root] root</title>
<ellipse fill="none" stroke="black" cx="895.43" cy="-450" rx="49.3" ry="18"/>
<text text-anchor="middle" x="895.43" y="-444.95" font-family="Times,serif" font-size="14.00">[root] root</text>
</g>
<!-- [root] root&#45;&gt;[root] var.root_domain_name -->
<g id="edge26" class="edge">
<title>[root] root&#45;&gt;[root] var.root_domain_name</title>
<path fill="none" stroke="black" d="M940.8,-442.59C1003.19,-433.61 1119.2,-416.31 1227.78,-396.44"/>
<polygon fill="black" stroke="black" points="1228.25,-399.91 1237.45,-394.66 1226.98,-393.03 1228.25,-399.91"/>
</g>
<!-- [root] root&#45;&gt;[root] output.cloudfront_url (expand) -->
<g id="edge20" class="edge">
<title>[root] root&#45;&gt;[root] output.cloudfront_url (expand)</title>
<path fill="none" stroke="black" d="M927.89,-436.16C953.49,-426.04 989.72,-411.71 1019.5,-399.93"/>
<polygon fill="black" stroke="black" points="1020.73,-403.21 1028.74,-396.28 1018.15,-396.7 1020.73,-403.21"/>
</g>
<!-- [root] root&#45;&gt;[root] output.cloudfront_www_id (expand) -->
<g id="edge21" class="edge">
<title>[root] root&#45;&gt;[root] output.cloudfront_www_id (expand)</title>
<path fill="none" stroke="black" d="M896.23,-431.6C897.74,-412.89 902.06,-382.77 914.43,-360 920.07,-349.62 928.37,-339.94 936.74,-331.77"/>
<polygon fill="black" stroke="black" points="938.94,-334.51 943.92,-325.16 934.19,-329.36 938.94,-334.51"/>
</g>
<!-- [root] root&#45;&gt;[root] output.s3_website_url (expand) -->
<g id="edge22" class="edge">
<title>[root] root&#45;&gt;[root] output.s3_website_url (expand)</title>
<path fill="none" stroke="black" d="M846.3,-447.17C772.85,-443.28 639.87,-431.41 610.43,-396 579.75,-359.09 591.26,-332.01 610.43,-288 615.17,-277.13 623.35,-267.48 632.07,-259.5"/>
<polygon fill="black" stroke="black" points="634.31,-262.19 639.69,-253.06 629.79,-256.84 634.31,-262.19"/>
</g>
<!-- [root] root&#45;&gt;[root] output.site_url (expand) -->
<g id="edge23" class="edge">
<title>[root] root&#45;&gt;[root] output.site_url (expand)</title>
<path fill="none" stroke="black" d="M865.76,-435.34C844.14,-425.38 814.43,-411.7 789.7,-400.31"/>
<polygon fill="black" stroke="black" points="791.37,-397.23 780.83,-396.22 788.44,-403.58 791.37,-397.23"/>
</g>
<!-- [root] root&#45;&gt;[root] provider[&quot;registry.terraform.io/hashicorp/aws&quot;] (close) -->
<g id="edge24" class="edge">
<title>[root] root&#45;&gt;[root] provider[&quot;registry.terraform.io/hashicorp/aws&quot;] (close)</title>
<path fill="none" stroke="black" d="M849.27,-443.33C765.01,-432.98 583.43,-410.68 457.87,-395.26"/>
<polygon fill="black" stroke="black" points="458.51,-391.82 448.16,-394.07 457.66,-398.77 458.51,-391.82"/>
</g>
<!-- [root] root&#45;&gt;[root] provider[&quot;terraform.io/builtin/terraform&quot;] (close) -->
<g id="edge25" class="edge">
<title>[root] root&#45;&gt;[root] provider[&quot;terraform.io/builtin/terraform&quot;] (close)</title>
<path fill="none" stroke="black" d="M944.32,-447.4C1063.4,-443.01 1360.93,-428.83 1390.43,-396 1423.15,-359.59 1404.77,-298.04 1389.75,-262.52"/>
<polygon fill="black" stroke="black" points="1393.12,-261.49 1385.86,-253.77 1386.72,-264.33 1393.12,-261.49"/>
</g>
</g>
</svg>
